<svg xmlns="http://www.w3.org/2000/svg" xmlns:xlink="http://www.w3.org/1999/xlink" id="Layer_1" x="0px" y="0px" viewBox="0 0 223 95" xml:space="preserve">
<g>
	<path fill="#1D1E1C" d="M223,34.3H88.4v7.8c0,0.2-0.1,0.4-0.3,0.5c-0.1,0-0.1,0-0.2,0c-0.1,0-0.3-0.1-0.4-0.1l-8.2-8.2h-7.6v7.8   c0,0.3-0.2,0.5-0.5,0.5h-8.3c-0.3,0-0.5-0.2-0.5-0.5V25.5c0-0.3,0.2-0.5,0.5-0.5h8.3c0,0,0,0,0,0c0.1,0,0.2,0,0.3,0.1c0,0,0,0,0,0   l7.5,7.5V17.1c0-0.3,0.2-0.5,0.5-0.5h7.8V8.8c0-0.3,0.2-0.5,0.5-0.5h8.3c0.3,0,0.5,0.2,0.5,0.5V25h7.8c0.3,0,0.5,0.2,0.5,0.5v7.8   H223V34.3z M63.4,41.6h7.3V26h-7.3V41.6z M80.1,33.6l7.3,7.3V17.6h-7.3V33.6z M96.7,33.3h7.3V26h-7.3V33.3z M88.4,33.3h7.3v-24   h-7.3V33.3z M71.8,33.3h6.6l-6.6-6.6V33.3z"></path>
	<g>
		<path fill="#1D1E1C" d="M1.2,30.2v12.4H0V30.2H1.2z"></path>
		<path fill="#1D1E1C" d="M7.4,33.8c2.5,0,3.8,1.7,4,3.7l-1.1,0.1c-0.1-1.6-1.1-2.8-2.9-2.8s-3,1.4-3,3.5s1.2,3.5,3,3.5    s2.8-1.2,2.9-2.9l1.1,0.1c-0.2,2.1-1.5,3.7-4,3.7c-2.5,0-4.3-1.8-4.3-4.5C3.1,35.6,4.9,33.8,7.4,33.8z"></path>
		<path fill="#1D1E1C" d="M21,39.7c-0.4,2-1.8,3.2-3.9,3.2c-2.5,0-4.3-1.8-4.3-4.4c0-2.7,1.8-4.6,4.3-4.6c2.7,0,4,1.9,4,4.3v0.6h-7    c0.1,1.9,1.4,3.2,3.1,3.2c1.6,0,2.5-0.8,2.9-2.3L21,39.7z M19.7,37.8c0-1.6-0.9-3-2.7-3c-1.7,0-2.8,1.4-3,3H19.7z"></path>
		<path fill="#1D1E1C" d="M24,30.2v12.4h-1.2V30.2H24z"></path>
		<path fill="#1D1E1C" d="M32.9,41.2c0,0.5,0.3,0.7,0.7,0.7c0.2,0,0.5-0.1,0.8-0.2v0.7c-0.3,0.3-0.5,0.5-1.1,0.5    c-0.8,0-1.5-0.7-1.5-1.8c-0.5,1-1.7,1.9-3.2,1.9c-1.6,0-2.7-0.9-2.7-2.4c0-1.6,1.4-2.3,3.5-2.7l2.3-0.5v-0.4    c0-1.3-0.8-2.1-2.1-2.1c-1.4,0-2.1,0.8-2.4,1.9l-1-0.2c0.3-1.5,1.6-2.7,3.4-2.7c2.1,0,3.3,1.1,3.3,3.2V41.2z M31.8,38.2l-2.1,0.5    c-1.6,0.3-2.5,0.7-2.5,1.8c0,0.8,0.5,1.5,1.7,1.5c1.7,0,3-1.3,3-3.2V38.2z"></path>
		<path fill="#1D1E1C" d="M37,42.6h-1.2v-8.5H37v1.6c0.4-1,1.6-1.8,2.9-1.8c2.2,0,3.1,1.4,3.1,3.5v5.3h-1.2v-5.3    c0-1.5-0.8-2.5-2.2-2.5c-1.4,0-2.6,1.1-2.6,2.7V42.6z"></path>
		<path fill="#1D1E1C" d="M51.8,40.7c-0.4,1.1-1.5,2.1-3.2,2.1c-2.5,0-4-2-4-4.5s1.4-4.5,4-4.5c1.7,0,2.8,1,3.2,2.1v-5.8H53v12.4    h-1.2V40.7z M51.8,38c0-2-1.3-3.2-3-3.2c-1.8,0-2.9,1.4-2.9,3.5c0,2.2,1,3.5,2.9,3.5c1.7,0,3-1.2,3-3.2V38z"></path>
		<path fill="#1D1E1C" d="M1.2,50.6v11.4h7.1v1H0V50.6H1.2z"></path>
		<path fill="#1D1E1C" d="M10.2,50.6h1.3v1.6h-1.3V50.6z M11.4,54.4V63h-1.2v-8.5H11.4z"></path>
		<path fill="#1D1E1C" d="M21.7,60.1c-0.4,2-1.8,3.2-3.9,3.2c-2.5,0-4.3-1.8-4.3-4.4c0-2.7,1.8-4.6,4.3-4.6c2.7,0,4,1.9,4,4.3V59h-7    c0.1,1.9,1.4,3.2,3.1,3.2c1.6,0,2.5-0.8,2.9-2.3L21.7,60.1z M20.4,58.1c0-1.6-0.9-3-2.7-3c-1.7,0-2.8,1.4-3,3H20.4z"></path>
		<path fill="#1D1E1C" d="M27.5,54.2c2.5,0,3.8,1.7,4,3.7L30.4,58c-0.1-1.6-1.1-2.8-2.9-2.8c-1.8,0-3,1.4-3,3.5c0,2.1,1.2,3.5,3,3.5    c1.8,0,2.8-1.2,2.9-2.9l1.1,0.1c-0.2,2.1-1.5,3.7-4,3.7c-2.5,0-4.3-1.8-4.3-4.5C23.2,56,25,54.2,27.5,54.2z"></path>
		<path fill="#1D1E1C" d="M34.7,63h-1.2V50.6h1.2V56c0.4-1,1.6-1.8,2.9-1.8c2.2,0,3.1,1.4,3.1,3.5V63h-1.2v-5.3    c0-1.5-0.8-2.5-2.2-2.5c-1.4,0-2.6,1.1-2.6,2.7V63z"></path>
		<path fill="#1D1E1C" d="M43.4,55.3h-1.3v-0.6l0.5-0.1c0.8-0.2,0.9-0.5,1.1-1.4L44,52h0.6v2.4h2.5v0.9h-2.5v5.8    c0,0.8,0.3,1.1,1.1,1.1c0.6,0,1.2-0.3,1.7-0.6v0.8c-0.6,0.5-1.2,0.7-2.1,0.7c-1.1,0-1.9-0.6-1.9-2.1V55.3z"></path>
		<path fill="#1D1E1C" d="M56.7,60.1c-0.4,2-1.8,3.2-3.9,3.2c-2.5,0-4.3-1.8-4.3-4.4c0-2.7,1.8-4.6,4.3-4.6c2.7,0,4,1.9,4,4.3V59h-7    c0.1,1.9,1.4,3.2,3.1,3.2c1.6,0,2.5-0.8,2.9-2.3L56.7,60.1z M55.4,58.1c0-1.6-0.9-3-2.7-3c-1.7,0-2.8,1.4-3,3H55.4z"></path>
		<path fill="#1D1E1C" d="M59.9,63h-1.2v-8.5h1.2V56c0.4-1,1.6-1.8,2.9-1.8c2.2,0,3.1,1.4,3.1,3.5V63h-1.2v-5.3    c0-1.5-0.8-2.5-2.2-2.5c-1.4,0-2.6,1.1-2.6,2.7V63z"></path>
		<path fill="#1D1E1C" d="M68.7,60c0.2,1.5,1.2,2.3,2.8,2.3c1.3,0,2.2-0.5,2.2-1.5c0-0.9-0.7-1.2-1.9-1.5l-1.5-0.3    c-1.5-0.3-2.4-0.9-2.4-2.3c0-1.5,1.3-2.5,3.2-2.5c2.2,0,3.5,1,3.6,3.1l-0.9,0.1c-0.2-1.5-1.1-2.2-2.7-2.2c-1.2,0-2,0.6-2,1.5    c0,0.8,0.5,1.2,1.6,1.4l1.6,0.3c1.7,0.3,2.7,0.9,2.7,2.4c0,1.7-1.5,2.6-3.4,2.6c-2.1,0-3.7-1-3.8-3.1L68.7,60z"></path>
		<path fill="#1D1E1C" d="M77.2,55.3h-1.3v-0.6l0.5-0.1c0.8-0.2,0.9-0.5,1.1-1.4l0.3-1.2h0.6v2.4h2.5v0.9h-2.5v5.8    c0,0.8,0.3,1.1,1.1,1.1c0.6,0,1.2-0.3,1.7-0.6v0.8c-0.6,0.5-1.2,0.7-2.1,0.7c-1.1,0-1.9-0.6-1.9-2.1V55.3z"></path>
		<path fill="#1D1E1C" d="M90.4,60.1c-0.4,2-1.8,3.2-3.9,3.2c-2.5,0-4.3-1.8-4.3-4.4c0-2.7,1.8-4.6,4.3-4.6c2.7,0,4,1.9,4,4.3V59h-7    c0.1,1.9,1.4,3.2,3.1,3.2c1.6,0,2.5-0.8,2.9-2.3L90.4,60.1z M89.2,58.1c0-1.6-0.9-3-2.7-3c-1.7,0-2.8,1.4-3,3H89.2z"></path>
		<path fill="#1D1E1C" d="M92.4,50.6h1.3v1.6h-1.3V50.6z M93.6,54.4V63h-1.2v-8.5H93.6z"></path>
		<path fill="#1D1E1C" d="M97.4,63h-1.2v-8.5h1.2V56c0.4-1,1.6-1.8,2.9-1.8c2.2,0,3.1,1.4,3.1,3.5V63h-1.2v-5.3    c0-1.5-0.8-2.5-2.2-2.5c-1.4,0-2.6,1.1-2.6,2.7V63z"></path>
		<path fill="#1D1E1C" d="M8.7,81.2V70.9h1.2v12.4h-1L1.2,72.6v10.7H0V70.9h1.4L8.7,81.2z"></path>
		<path fill="#1D1E1C" d="M16.1,83.6c-2.4,0-4.3-1.9-4.3-4.5c0-2.7,1.9-4.5,4.3-4.5c2.4,0,4.3,1.9,4.3,4.5    C20.3,81.7,18.5,83.6,16.1,83.6z M16.1,82.6c1.9,0,3-1.5,3-3.6s-1.1-3.6-3-3.6c-1.9,0-3,1.5-3,3.6S14.1,82.6,16.1,82.6z"></path>
		<path fill="#1D1E1C" d="M26.9,76c-0.5-0.3-0.8-0.3-1.3-0.3c-1.2,0-2.2,1.3-2.2,3v4.7h-1.2v-8.5h1.2v1.8c0.3-1,1.2-2,2.5-2    c0.5,0,0.9,0.1,1.2,0.4L26.9,76z"></path>
		<path fill="#1D1E1C" d="M36,81.7L36,81.7l2.2-6.9h1.1l-2.7,8.5h-1.1l-2-6.8h-0.1l-2,6.8h-1.1l-2.7-8.5h1.2l2.1,6.9h0.1l2-6.9h1    L36,81.7z"></path>
		<path fill="#1D1E1C" d="M47.2,81.9c0,0.5,0.3,0.7,0.7,0.7c0.2,0,0.5-0.1,0.8-0.2V83c-0.3,0.3-0.5,0.5-1.1,0.5    c-0.8,0-1.5-0.7-1.5-1.8c-0.5,1-1.7,1.9-3.2,1.9c-1.6,0-2.7-0.9-2.7-2.4c0-1.6,1.4-2.3,3.5-2.7L46,78v-0.4c0-1.3-0.8-2.1-2.1-2.1    c-1.4,0-2.1,0.8-2.4,1.9l-1-0.2c0.3-1.5,1.6-2.7,3.4-2.7c2.1,0,3.3,1.1,3.3,3.2V81.9z M46,78.9l-2.1,0.5c-1.6,0.3-2.5,0.6-2.5,1.8    c0,0.8,0.5,1.5,1.7,1.5c1.7,0,3-1.3,3-3.2V78.9z"></path>
		<path fill="#1D1E1C" d="M50.9,86.7l1.4-3.4l-3.6-8.5H50l2.9,7H53l2.8-7H57l-4.9,11.9H50.9z"></path>
	</g>
	<g>
		<path fill="#1D1E1C" d="M131.9,50.6L137,63h-2.6l-1.2-3.1h-5.3l-1.2,3.1h-2.5l5-12.4H131.9z M128.6,58h3.8l-1.9-4.6h-0.1L128.6,58    z"></path>
		<path fill="#1D1E1C" d="M142,54c2.6,0,4,1.7,4.2,3.8l-2,0.1c-0.2-1.3-0.9-2.1-2.2-2.1c-1.3,0-2.2,1-2.2,2.8c0,1.8,0.9,2.8,2.2,2.8    c1.3,0,2-0.8,2.2-2.1l2,0.2c-0.2,2.1-1.6,3.8-4.2,3.8c-2.7,0-4.6-1.8-4.6-4.6C137.4,55.9,139.3,54,142,54z"></path>
		<path fill="#1D1E1C" d="M148,55.9h-1.2v-1.4l0.6-0.1c0.8-0.1,1.1-0.6,1.3-1.4l0.3-1.2h1.4v2.4h2.4v1.7h-2.4v4.3    c0,0.7,0.3,1.1,1,1.1c0.5,0,1-0.2,1.5-0.4v1.6c-0.6,0.5-1.3,0.7-2.4,0.7c-1.3,0-2.5-0.6-2.5-2.4V55.9z"></path>
		<path fill="#1D1E1C" d="M154.1,50.6h2.4v2.3h-2.4V50.6z M156.5,54.3V63h-2.4v-8.7H156.5z"></path>
		<path fill="#1D1E1C" d="M161,63l-3.4-8.7h2.5l2.3,6.1h0.1l2.3-6.1h2.3l-3.4,8.7H161z"></path>
		<path fill="#1D1E1C" d="M176.2,60.1c-0.5,1.9-2,3.1-4.2,3.1c-2.7,0-4.6-1.7-4.6-4.5s2-4.7,4.6-4.7c2.8,0,4.3,2,4.3,4.3v0.8h-6.5    c0.1,1.3,1.1,2.2,2.4,2.2c1.2,0,1.9-0.5,2.2-1.5L176.2,60.1z M174,57.8c-0.1-1-0.7-2-2-2c-1.3,0-2,0.9-2.2,2H174z"></path>
		<path fill="#1D1E1C" d="M129.1,74.4c2.6,0,4,1.7,4.2,3.8l-2,0.1c-0.2-1.3-0.9-2.1-2.2-2.1c-1.3,0-2.2,1-2.2,2.8    c0,1.8,0.9,2.8,2.2,2.8c1.3,0,2-0.8,2.2-2.1l2,0.2c-0.2,2.1-1.6,3.8-4.2,3.8c-2.7,0-4.6-1.8-4.6-4.6    C124.5,76.3,126.4,74.4,129.1,74.4z"></path>
		<path fill="#1D1E1C" d="M134.7,70.9h2.4v2.3h-2.4V70.9z M137.1,74.7v8.7h-2.4v-8.7H137.1z"></path>
		<path fill="#1D1E1C" d="M139.4,76.3h-1.2v-1.4l0.6-0.1c0.8-0.1,1.1-0.6,1.3-1.4l0.3-1.2h1.4v2.4h2.4v1.7h-2.4v4.3    c0,0.7,0.3,1.1,1,1.1c0.5,0,1-0.2,1.5-0.4v1.6c-0.6,0.5-1.3,0.7-2.4,0.7c-1.3,0-2.5-0.6-2.5-2.4V76.3z"></path>
		<path fill="#1D1E1C" d="M145.6,70.9h2.4v2.3h-2.4V70.9z M148,74.7v8.7h-2.4v-8.7H148z"></path>
		<path fill="#1D1E1C" d="M149.6,76.4v-1.8h7.3v1.6l-4.6,5.3h4.7v1.8h-7.6v-1.6l4.5-5.3H149.6z"></path>
		<path fill="#1D1E1C" d="M166.7,80.5c-0.5,1.9-1.9,3.1-4.2,3.1c-2.7,0-4.6-1.7-4.6-4.5c0-2.7,2-4.7,4.6-4.7c2.8,0,4.3,2,4.3,4.3    v0.8h-6.5c0.1,1.3,1.1,2.2,2.4,2.2c1.2,0,1.9-0.5,2.2-1.5L166.7,80.5z M164.4,78.1c-0.1-1-0.7-2-2-2c-1.3,0-2,0.9-2.2,2H164.4z"></path>
		<path fill="#1D1E1C" d="M170.6,83.3h-2.4v-8.7h2.4v1.4c0.4-1,1.5-1.7,2.8-1.7c2.3,0,3.2,1.6,3.2,3.5v5.4h-2.4v-4.9    c0-1.3-0.5-2.1-1.7-2.1c-1.2,0-2,0.9-2,2.4V83.3z"></path>
		<path fill="#1D1E1C" d="M179.9,80.4c0.1,1,0.9,1.6,2.1,1.6c0.9,0,1.6-0.3,1.6-0.9c0-0.6-0.4-0.8-1.3-1l-1.4-0.2    c-1.9-0.3-2.9-1-2.9-2.6c0-1.7,1.4-2.8,3.6-2.8c2.4,0,3.8,1.1,4,3l-2,0.1c-0.2-1-0.8-1.5-2.1-1.5c-0.8,0-1.4,0.4-1.4,1    c0,0.5,0.3,0.7,0.9,0.8l1.7,0.3c1.8,0.3,2.9,1.1,2.9,2.7c0,1.8-1.5,2.8-3.8,2.8c-2.3,0-4-1-4.2-3.1L179.9,80.4z"></path>
		<path fill="#1D1E1C" d="M190,75.7v-0.9h1.3v-1.2c0-1.7,0.9-2.9,2.7-2.9c1.4,0,2.2,0.6,2.6,1.9l-0.9,0.3c-0.2-0.8-0.8-1.3-1.7-1.3    c-1,0-1.5,0.7-1.5,1.9v1.4h2.5v0.9h-2.5v7.7h-1.2v-7.7H190z"></path>
		<path fill="#1D1E1C" d="M202.2,74.8h1.2v8.5h-1.2v-1.6c-0.4,1-1.6,1.8-2.8,1.8c-2.2,0-3.1-1.4-3.1-3.5v-5.3h1.2v5.3    c0,1.5,0.7,2.5,2.2,2.5c1.4,0,2.5-1.1,2.5-2.7V74.8z"></path>
		<path fill="#1D1E1C" d="M207,83.3h-1.2v-8.5h1.2v1.6c0.4-1,1.6-1.8,2.9-1.8c2.2,0,3.1,1.4,3.1,3.5v5.3h-1.2V78    c0-1.5-0.8-2.5-2.2-2.5c-1.4,0-2.6,1.1-2.6,2.7V83.3z"></path>
		<path fill="#1D1E1C" d="M221.8,81.5c-0.4,1.1-1.5,2.1-3.2,2.1c-2.5,0-4-2-4-4.5s1.4-4.5,4-4.5c1.7,0,2.8,1,3.2,2.1v-5.8h1.2v12.4    h-1.2V81.5z M221.8,78.8c0-2-1.3-3.2-3-3.2c-1.8,0-2.9,1.4-2.9,3.5c0,2.2,1,3.5,2.9,3.5c1.7,0,3-1.2,3-3.2V78.8z"></path>
	</g>
</g>
</svg>