<svg xmlns="http://www.w3.org/2000/svg" viewBox="0 0 568.961 109.455"><g id="Layer_2" data-name="Layer 2"><g id="Warstwa_1" data-name="Warstwa 1"><path d="M182.865,66.462c-.239,0-.357.119-.357.238s.118.357.118.477-.118.238-.357.357a.638.638,0,0,0-.595.6c-.358,0-.358.119-.358.594,0,.358-.833.954-.833.954a2.843,2.843,0,0,0-1.072.238h-.6c0,.119.953.715.834.834-.834.237-1.429.237-2.262.475.476,6.432,1.191,13.7,1.786,20.127a6.3,6.3,0,0,1,.119,1.549c0,2.62-.595,5.717-.595,7.265a4.835,4.835,0,0,0-.6-1.072.717.717,0,0,1-.119-.476.437.437,0,0,0-.119-.357l-.358.713v1.192c-.714-.238-.714-1.667-.833-2.382a20.209,20.209,0,0,0-.476,2.62c0,.238.237.238.237.358a4.977,4.977,0,0,0-.237,2.024,13.85,13.85,0,0,1-.6-2.382c-.477-.953-.238-1.549-.477-2.143V99.57c0,.358-.119,1.43-.714,1.43a.233.233,0,0,0-.238-.238s0,.833-.119.833a3.626,3.626,0,0,0-1.072-1.191c-.238,0-.238.238-.6.238,0,.12-.238-.953-.476-.834,0,.6-.119,1.311-.357,1.311-.119,0-.119-.238-.119-.715v-.476c0-.12-.12-.6-.239-.6h-.357c-.238,0-.238.238-.238.476a.893.893,0,0,1-.119.6,3.359,3.359,0,0,0-.119-.953c0,.477-.119.715-.119.953v.952s-.358,0-.358.239c-.357.357,0,1.191-.714,1.429a22.257,22.257,0,0,1-.595-2.62c-1.43-9.766-2.621-19.294-3.574-29.417-3.572,0-14.172.119-16.554.477-2.5,6.67-6.788,16.793-9.646,25.129-1.668,0-5.241.476-7.027.476a6.75,6.75,0,0,1-2.144-.357c-1.191-1.191-2.5-.239-2.62-2.382l-1.072-.595-.833-.715a15.206,15.206,0,0,1-.6-8.575c0-2.977,3.454-12.862,5-16.792a1.922,1.922,0,0,1-.357-1.072,4.726,4.726,0,0,1,1.786-2.978c3.335-9.408,7.5-18.7,11.791-28.582,3.334-5.836,8.336-22.033,17.268-22.033h.6c1.667.6.119,1.072,1.667,1.906a5.179,5.179,0,0,0,.6.119.234.234,0,0,0,.238.239c0-.119.595,0,.595-.358.358.6.715,1.31,1.549,1.31a1.215,1.215,0,0,0-.6-.952c.238,0,.6.475.6.475s0-.594.119-.356v-.477c.595.358.714,1.072,1.191,1.429.238,0,.357.477.833.477a5.31,5.31,0,0,1-.595-1.548,1.471,1.471,0,0,1-.238-.6c.238.238.357.238.357.6.834,0,.834.475,1.31.714,0-.239-.476-.714-.476-1.31.238,0,.357.238.714.238.12.358.357.358.715.477,2.62,6.073,6.312,37.99,7.384,47.638a23.421,23.421,0,0,1,5.478.713.44.44,0,0,0-.119.358c0,.119.238.119.357.119h.476c.239,0,.239.119.239.238,0,.239-.119.477-.119.715s0,.358.357.477a1.771,1.771,0,0,1-.714.119A1.354,1.354,0,0,0,182.865,66.462Zm-26.916-4.168c2.62,0,4.883.119,8.337.119-.953-9.886-2.382-18.817-2.5-26.8-2.977,9.289-5.6,14.648-10.242,26.8C153.21,62.294,154.639,62.294,155.949,62.294Z" fill="#f05c2a"/><path d="M200.014,11.559c.595,0,1.19-.476,1.905-.476a1.509,1.509,0,0,1,.714.119c.358,0,.715-.238,1.192-.238a1.189,1.189,0,0,1,.476.119c.119,0,.238-.119.357-.119.595,0,1.072-.6,1.548-.714a3.71,3.71,0,0,1,2.382-.715c.715,0,1.429.119,2.144.119.6,0,1.072-.476,1.667-.476.239,0,.6.357.6.357a5.26,5.26,0,0,0,2.024.238c.239,0,.239-.357.6-.357a4.529,4.529,0,0,0,1.191.357A13.025,13.025,0,0,0,217.4,11.8c0,.237,1.191.237,1.191.237-2.739,12.268-6.074,26.559-7.264,35.609,0,.119,0,.358.237.358s.358-.358.477-.477c0,0,20.127-23.222,25.486-23.222,0,0,0-.12.358-.12h.714a.908.908,0,0,0,.477-.238.7.7,0,0,0,.595.238.257.257,0,0,1,.238.239l.357-.119a.44.44,0,0,0,.358.119h.595c.477,0,2.62.357,2.62.715.119,0,.477.119.358.238.119,0,.119-.119.357-.119,0,.476,0,.594.119.594l.476-.475c.119-.119.239.238.358.238C236.933,34.545,224.19,47.05,214.9,58.6c5.36,14.292,18.1,19.89,27.63,29.417a27.4,27.4,0,0,0-3.692-1.072,10.943,10.943,0,0,0-2.858-1.071s0,.356.119.475c-.595,0-.833.239-.833.358,0,.238.238.357.119.357-1.191-.119-2.382-.953-3.692-.953a21.293,21.293,0,0,0-2.382-.475c-1.668-.358-6.193-1.668-7.146-3.335a3.719,3.719,0,0,0,.238.834c-4.644-1.907-13.1-9.41-15.125-13.458l-.238,1.309a82.163,82.163,0,0,0-1.668,14.53,48.4,48.4,0,0,0,1.191,10.243c.239.713,1.43,2.143,1.43,3.214a.887.887,0,0,1-.12.6c-.119,0-.476-.833-.952-.833a5.557,5.557,0,0,0,.357,1.071c-.238,0-.715-.6-1.072-.953a2.752,2.752,0,0,0,.239,1.073c-.477-.239-.953-1.429-1.31-1.429-.119,0-.239.119-.239.595a1.566,1.566,0,0,1,.357,1.191c-.476-.238-1.071-.834-1.191-.834-.357,0-.595-.6-.952-.952a4.611,4.611,0,0,1,.357,1.309c-.238,0-.6-.476-.715-.834,0,.6.477.834.477,1.43-.477-.6-1.668-1.43-1.668-1.191,0-.239-.357-.358-.595-.358a2.024,2.024,0,0,0-.238.6c0,.357.238.6.238.953-.357-.357-1.31-1.072-1.31-.953a.437.437,0,0,1-.119.357c-.238,0-.477.12-.477.358a5.8,5.8,0,0,1-1.429.119,12.869,12.869,0,0,1-7.026-2.144,4.209,4.209,0,0,1-2.978-2.262c-1.786-3.1-2.382-7.384-2.382-12.03,0-8.216,1.906-17.387,2.5-23.341,3.216-17.27,7.861-37.754,11.791-48.71C199.775,11.8,200.014,11.679,200.014,11.559Z" fill="#f05c2a"/><path d="M285.761,15.727c0,.477-.239.715-.357.715-.953,0-.477.714-.834.714h-.476a.257.257,0,0,1-.239-.238c0,.119,0,.238-.357.238a4.679,4.679,0,0,0,.6.477,2.416,2.416,0,0,0-.6-.12c.357.12.238.358.6.358h.357c.357,0-1.072.357-.834.357,0,.119-.357.358-.715.358,0,.834-4.644,1.072-8.694,1.072a47.366,47.366,0,0,1-5.6-.238c-1.906,16.911-3.1,32.155-5.24,49.781-1.548,7.86-1.191,15.959-3.1,23.581a.369.369,0,0,0-.119.238v-.357a.44.44,0,0,0-.119-.358c-.238,0-.357-.476-.357-.714,0-.119-.119-.476-.238-.358-.119,0-.119-.118-.119-.237a8.571,8.571,0,0,1-.239.952.437.437,0,0,0-.119-.357v.6c-.238-.238,0-.953-.595-.953H254.32a1.239,1.239,0,0,1,.119.477c0,.119,0,.238-.6.238-.833,0-1.548-.119-2.143-.119-.12,0,.238.119.238.357,0-.119-.834-.357-.953-.953-.119.358-.6.477-1.072.477-.953,0-2.263-.358-3.1-.358a.85.85,0,0,0-.953.834c0,.119.119.239.119.358-.834,0-1.786-3.454-1.786-4.049V84.326c.357-2.978.119-5.6.714-8.932a3.154,3.154,0,0,0,.6-2.024c-.119.476-.6,1.548-.715,1.19.119,0,.119-.476.238-.595v-1.31c0-.357.358-.834.358-.953a.435.435,0,0,1-.12-.357.9.9,0,0,1,.12-.477c.357-.237.595-5,.714-5.954,1.072-.238.6-5,.953-5,0-2.025,1.072-5.836,1.072-7.622a4.475,4.475,0,0,1-.119-1.191.415.415,0,0,1-.119.238c0-.476.119-.952.119-1.31v-.834a55.062,55.062,0,0,1,1.071-8.217c-.119-.119-.119-.238-.119-.476a1.3,1.3,0,0,1,.119-.6c1.072-7.146.715-14.291,1.43-21.437a16.946,16.946,0,0,1-4.288-.6h-.595c-.238,0-.715.119-.953.119s-.357,0-.357-.238c-.238,0-.715.119-.953.119-.119,0-.476-.238-.476-.358a14.606,14.606,0,0,0-2.5-.357c-.358,0-1.31.357-1.31.238a3.521,3.521,0,0,1,.476-.357,5.108,5.108,0,0,1-1.429.238h-.953a12.8,12.8,0,0,0-2.5-.595c-.119.12-.238.12-.476.12h-2.144a8.9,8.9,0,0,0,.595-.715.521.521,0,0,0-.357-.119c.119-.239.357-.239.6-.239.357,0,.714.12,1.191.12-.477-.357-1.191-.357-1.43-.595.834-.119,1.31-1.072,2.621-1.549,3.453-1.311,10.48-1.311,15.72-1.43.595-.833.953-1.428,1.667-1.667a5.218,5.218,0,0,1,.6-.118c1.072,0,2.5.833,3.692.833,3.573.358,6.788.238,9.885.6.476,0,1.071.715,1.191.715,3.691,0,12.981.476,16.435,1.191a.686.686,0,0,1,.714.715A1.188,1.188,0,0,1,285.761,15.727ZM245.149,77.061c0-.238-.119-.714-.119-.953,0,.358-.119.6-.119.834a.9.9,0,0,0,.119.477C245.149,77.419,245.149,77.3,245.149,77.061Zm2.5,6.432c0-.119-.119-.357-.238-.357v.594c0,.239,0,.358.119.477C247.531,83.969,247.65,83.73,247.65,83.493Zm.477-1.072a3.528,3.528,0,0,0-.238-1.073c0,.358-.239.715-.239,1.073a.9.9,0,0,0,.239.476C248.127,82.9,248.127,82.659,248.127,82.421Zm0-3.216a.44.44,0,0,0-.119-.358c0,.12-.119.477-.119.715a.439.439,0,0,0,.119.358C248.008,79.681,248.127,79.443,248.127,79.205Zm.238.834.595.119a.714.714,0,0,0-.357-.715C248.6,80.158,248.365,79.8,248.365,80.039Zm.238-1.548c.238,0,.357-.238.357-.6,0-.238-.119-.595-.357-.595Zm.715,3.93c.238,0,.119-.119.238-.239,0-.119-.119-.357-.119-.476a.656.656,0,0,1,.357-.6h-.357c0,.238,0,.6-.119.715Zm1.072,1.19a.256.256,0,0,0-.239.238.438.438,0,0,0,.119.358A1.584,1.584,0,0,0,250.39,83.611Zm-.239,1.072s0,.477.119.477A.719.719,0,0,0,250.151,84.683Z" fill="#f05c2a"/><path d="M321.489,16.085c5.121,0,6.669,4.169,6.669,8.932,0,3.334-2.5,12.385-2.621,12.623-1.19,3.693-9.169,40.136-13.576,60.263,0,.119-.357.238-.357.6,0,.119.357-.119.357-.119a26.281,26.281,0,0,1-3.1,11.075c-.238,0-1.191-1.429-2.263-1.786,0,0-.119.715-.6.715-.119,0-.119-.12-.357-.12a.438.438,0,0,0-.358.12.808.808,0,0,1-.357-.715c-.357.119-.357.476-.715.715-.357,0-.119-.477-.595-.477a4.208,4.208,0,0,1-.714.119,5.134,5.134,0,0,0,.119-.6.256.256,0,0,0-.239-.238c-.357,0-.6.477-.834.477a6.412,6.412,0,0,0-3.334-1.31c-.6,0-1.31.476-1.787.476-.357,0-.238-1.191-.476-1.191s-.595.477-.833.477-1.073-1.311-1.073-4.288a22.572,22.572,0,0,1,.358-3.692c2.739-24.771,10.719-51.33,15.721-69.313-2.263,5-9.885,29.178-17.745,35.967-1.43,2.382-5.122,3.1-9.528,3.1-8.218,0-9.647-13.7-9.647-18.936,0-10.361,3.216-31.68,13.7-37.157a3.659,3.659,0,0,1,1.548-.358,6.678,6.678,0,0,1,6.551,5.954,13.434,13.434,0,0,1-.6,3.812c-2.858,7.979-7.741,21.675-7.741,32.036,0,2.74.238,7.266,1.905,7.622,8.1-12.028,11.791-26.319,18.937-39.539,4.525-6.55,6.074-3.812,12.5-5.24ZM298.86,84.8c-.357.119-.476.238-.476.476,0,.119.119.238.119.358C298.86,85.517,298.741,85.16,298.86,84.8Zm.238-4.883c-.357,0-.357.357-.357.715A.808.808,0,0,0,299.1,79.92Zm1.191-1.192c0-.714-.714-1.548-.714-1.309,0,.119.238,1.786.476,1.905C300.289,79.205,300.289,78.967,300.289,78.728Zm.715-2.62a6.732,6.732,0,0,0,.952-1.548C301.361,74.56,301,75.989,301,76.108Zm1.072-8.455-.477-.238c-.119,0-.238.119-.238.6C301.718,68.011,302.076,67.891,302.076,67.653Zm8.575,31.917-.358-.119a2.6,2.6,0,0,1,.119.715c-.119.119-.119.238-.119.476,0,.12,0,.358.119.358C310.412,100.523,310.651,100.166,310.651,99.57Zm2.262-9.885c0-.357-.119-.357-.119-.834,0-.119-.119-.237-.119-.356a4.236,4.236,0,0,0-.714,1.786c.118.119.118.238.118.477.239,0,.358,0,.358-.358Zm.358-2.977c-.358,0-.715-.714-.715-.6a4.67,4.67,0,0,0,.477,1.072C313.271,87.065,313.271,86.708,313.271,86.708Zm.715-3.1c-.119.6-.6,1.072-.6,1.787A4.533,4.533,0,0,0,313.986,83.611Z" fill="#f05c2a"/><path d="M433.078,18.228a.908.908,0,0,1,.954.834,44.9,44.9,0,0,0-2.62,5.955v.715a9.506,9.506,0,0,0-1.073,1.666c.119,0,.358-.356.715-.475a24.826,24.826,0,0,0-1.429,4.168,2.724,2.724,0,0,1,.476-.119,14.9,14.9,0,0,1-.714,2.143c0,.834-.119,1.43-.119,2.383,0,2.5-2.144,5.716-2.382,7.383,0-1.31.358-2.858.358-4.287-.12,0-.954,1.906-.954,4.882,0,.477,0,.834.239.834.119,0,.238-.238.476-.595,0,.357-.715,2.025-.953,3.335-.238,0-.238-.12-.238-.358a.715.715,0,0,0-.119-.476.7.7,0,0,0-.119-.476c-.358,0-.833,4.406-.833,4.764a.892.892,0,0,0,.119.595c0,.238-.119.238-.119.714a58.648,58.648,0,0,0-1.788,6.312c0,.238.12.357.239.6.119-.6.953-4.288,1.072-4.407.477,0,1.19-4.644,1.667-6.312a9.027,9.027,0,0,0,.119,1.787c-.357,2.024-2.5,9.408-2.858,10.48-.358,1.31-2.74,7.146-2.74,8.575.834,0,.715-3.1,1.907-3.1a4.238,4.238,0,0,1-.119-.834c0-.238.475-.477.475-1.072,0-2.62,3.216-8.694,3.216-11.2.119,0,.238,1.073.238,1.073-3.1,11.552-5.836,30.13-19.412,40.373-2.977,2.262-8.813,2.739-10,2.739-12.386,0-14.53-13.338-14.53-27.868,0-13.576,1.072-27.154,1.072-37.753,0-1.31.119-2.739.119-3.931a9.007,9.007,0,0,0-.119-1.785c-3.573,4.883-15.6,48.947-19.65,57.88-2.978,9.527-5.717,14.291-21.438,14.291-8.931,0-12.028-23.581-12.028-41.207a183.8,183.8,0,0,1,3.1-32.989c.952-5.479,5.24-8.336,10.479-8.336,3.454,0,12.03,1.19,12.03,7.621,0,1.429-.954,3.1-1.311,4.525-1.31,3.217-2.382,19.532-2.382,30.132v7.86c0,6.55.238,13.1,1.905,19.651,1.549-1.073,4.169-11.671,6.194-17.269,6.193-17.626,8.218-31.322,17.864-47.518,1.786-3.693,9.289-4.764,14.053-4.764,2.977,0,6.074.833,6.551,2.738,5.835,6.313,4.406,17.746,4.882,26.2-.357,10.838-.834,21.794-.834,33.943,0,2.976.119,9.289,1.311,9.289,7.86,0,14.887-54.665,20.484-62.048,0-1.668,3.453-7.147,6.193-7.147C431.412,18.347,432.126,18.228,433.078,18.228Z" fill="#f05c2a"/><path d="M495.721,20.373l.357-.119c0,1.19-.357,7.025-1.072,7.025-3.811,17.389-6.074,38.706-11.552,63a9.514,9.514,0,0,1-9.647,7.741A10.8,10.8,0,0,1,466.9,95.64c-6.907-10.361-8.932-45.97-10.242-58.594-.477-2.5-.358-6.55-1.548-8.1-9.052,16.793-11.434,40.969-13.458,60.381-.477,2.024-.834,4.883-2.025,5.717-.834,0-1.31-1.429-1.668-1.786-.594-.715-.594-1.907-.952-2.263a18.523,18.523,0,0,0-1.549-2.264l-.356.119-.6-.833c-.476,0-1.191-.595-1.31-.595-.358,0-.833-.477-1.667-.953h-.477c-.357-.714-.357-1.667-.834-2.263-.356-3.692-.6-7.5-.6-11.314,0-18.936,4.645-38.944,14.887-50.854,2.5-2.381,4.883-3.453,7.146-3.453,6.549,0,11.79,8.693,15.125,14.529l.476.715a2.661,2.661,0,0,0,.6,1.191c3.334,5.479,4.287,32.156,6.073,40.85a7.533,7.533,0,0,0,.953,2.62,5.013,5.013,0,0,0,.715-1.787c4.287-23.819,6.788-42.874,12.743-58.952,0-2.025.6-2.144,1.191-2.144h.357a.522.522,0,0,0,.119.358c.119,0,.239-.358.239-.358.952.6,3.691,5.121,5,5.121C495.483,20.729,495.6,20.611,495.721,20.373ZM447.845,38.355c.595-1.548,1.31-2.619,1.9-4.049v-.238c-.357.834-.714,1.311-.714,1.072,0-.119.119-.238.119-.357a10.84,10.84,0,0,0,.953-2.145c.119-.357.475-1.19.714-1.19,0-.119-.119-.238-.119-.357,0-.476.834-1.191.834-1.31a.435.435,0,0,0-.12-.357c.358-.239.715-1.43.953-1.668l-.119.476a.257.257,0,0,0,.239-.238c0-.119-.12-.357-.12-.477a.824.824,0,0,0,.477-.357c0,.238-.119.238-.119.357a3.6,3.6,0,0,0,.475-1.547c0-.476.358-.476.358-.833-.714.119-2.62,3.691-2.62,3.81a4.357,4.357,0,0,0-.833,1.191.892.892,0,0,0,.119-.6,15.027,15.027,0,0,1-.834,1.905v.477c-.119.119-.238.237-.238.356-.119,0-.119-.119-.358-.119,0,.119.119.238.119.476,0,.12,0,0,.12,0a.715.715,0,0,0-.12.477.257.257,0,0,0,.239.238c-.358,0-.834.6-.834,1.073a.437.437,0,0,0,.119.357c-.477,1.667-1.548,3.215-1.548,5.359-.477.239-.119.953-.477.953,0-.357.358-.953.358-1.31-.477,0-.953,1.667-.953,2.977a.256.256,0,0,1,.238.238c0,.357-.715.834-.715,1.31a.476.476,0,0,0,.238.477c.6-1.906,2.026-4.764,2.026-6.432-.238.477-.238.358-.477.477a.9.9,0,0,1,.477-.834C447.845,38,447.845,38.236,447.845,38.355Zm-.953-2.857c0,.475-.119.952-.119,1.309a8.229,8.229,0,0,0,1.19-2.977.443.443,0,0,0-.118-.358A11.027,11.027,0,0,1,446.892,35.5Zm7.265-6.67c0-.357,0-.6-.358-.834-.952,1.43-1.548,3.454-2.382,4.883,0-.239.12-.477.12-.715-.12.357-.715.834-.6.834s.476,0,.357.119c0,.119.119.238.119.357-.714,0-1.071,4.049-1.428,3.693a1.215,1.215,0,0,1-.358.118c-.119,0-.238,0-.238-.237,0,.475-.119.714-.6.714a1.315,1.315,0,0,1-.357,1.072.715.715,0,0,0,.119.476s-.119,0-.119-.238c-.595.6-.714,3.216-.833,4.287.833,0,.952-2.143.952-2.262,0-.238.357-.238.357-.238,0,.952-.714,1.547-.714,2.619,1.072-2.5,1.787-4.763,2.977-8.1a.437.437,0,0,0-.357.119,13.589,13.589,0,0,1,1.668-3.812c0,.358-.358.833-.358,1.072a4.391,4.391,0,0,0-.6,2.025,9.1,9.1,0,0,1,.476-1.311C452.132,32.758,453.561,29.305,454.157,28.828ZM448.2,32.877l-.12.476c.239-.715.954-1.428.954-2.381C448.678,31.567,448.559,32.281,448.2,32.877Zm.6,2.621a.544.544,0,0,0-.6.475c0-.594.714-1.309,1.191-2.5C449.393,33.949,448.8,35.855,448.8,35.5Zm.358-3.1c-.119.119-.119.119-.119.238a.437.437,0,0,1,.119-.357Zm.238-2.142c0,.119-.119.238-.119.476,0,.118.238-.238.238-.476a4.924,4.924,0,0,0,1.071-1.43,5.134,5.134,0,0,0-.119.6,28.81,28.81,0,0,1,2.859-5c-.833.834-1.429,2.262-1.906,2.262a5.44,5.44,0,0,1-.595,1.667c0-.238.119-.476.119-.714a1.208,1.208,0,0,1-.119-.358c0,.119-.119.358-.119.238A20.9,20.9,0,0,0,449.393,30.258Zm0,6.192a2.054,2.054,0,0,1,.715-.714c0-.357-.358-.119-.477-.357a4.25,4.25,0,0,1,.358-.834,2.359,2.359,0,0,0-.715,1.548C449.274,36.212,449.393,36.331,449.393,36.45Zm0-4.525.6-1.31v.237c0,.12.119.239.119.358C449.989,31.091,449.631,31.448,449.393,31.925Zm.357.833c0-.239.239-.477.477-.714C450.227,32.281,450.108,32.758,449.75,32.758Zm.358-.12v0Zm1.667-2.857c-.238.715-.715,1.667-1.072,2.5a4.571,4.571,0,0,0,1.548-3.1c-.119,0-.119.239-.476.239,0-.239.476-.715.476-.953l-.714.953S451.775,29.424,451.775,29.781Zm18.7,28.94v2.024a.9.9,0,0,0,.119.477c0,.238,0,.357.119.357V60.031a18.686,18.686,0,0,0-.357-2.858C470.354,57.53,470.473,58.125,470.473,58.721Zm1.19,9.29-.714-6.432c0,.476,0,.6-.12.6a1.753,1.753,0,0,1,.12.834v.475a.433.433,0,0,0-.12-.356,18.119,18.119,0,0,0,.358,2.262s.119,1.191.119,1.31a3.892,3.892,0,0,1,.238.953C471.544,67.772,471.663,68.13,471.663,68.011Z" fill="#f05c2a"/><path d="M513.7,82.421c-.238,2.143-.357,4.525-.476,7.145l.357,6.551a2.71,2.71,0,0,0,.358,1.31,1.312,1.312,0,0,0-1.072-.358,2.691,2.691,0,0,1-1.192-.6.89.89,0,0,0-.595-.119c-.476,0-1.072.119-1.191.119-.477,0-.953.477-1.071.477l-.477-.477c0,.12-1.191.239-1.43.6v.6c-.594-.6-.119-1.072-.952-1.072a1.749,1.749,0,0,0-.595.714c-.834,0-.477-.595-.954-.595a.9.9,0,0,0-.476.119c.119.119.238.238.238.357a1.366,1.366,0,0,1-.356.834c-.834-1.668-2.264-1.31-3.216-2.143a.522.522,0,0,0-.358-.119c0,.119.239.357.239.357a1.705,1.705,0,0,1,.238.833c0,.357-.953-1.19-1.31-1.548-.477,0-.834.834-.834.834l-.476-.357a1.7,1.7,0,0,1-1.668.714c-2.263-.239-3.215-2.263-3.334-4.526.119-22.747,5.716-46.089,8.1-68.6a9.543,9.543,0,0,1,2.5-2.382c.475-.833.237-.833.952-1.429.119-.119.715.6.6.477.477-.12.715-1.668.954-2.026a2.071,2.071,0,0,1,.833.119.9.9,0,0,0,.476-.119c1.072,0,1.667-1.309,2.5-1.667.238,0,.477,0,.477-.119.119,0,.238-.119.357-.119.358,0,.6.357.952.357a2.891,2.891,0,0,0,1.43-.6h1.667c1.072,0,3.216.238,3.931,1.309.356-.595.238-.714.952-.714.119,0,.119.476.357.476s.834.119,1.072.119a14.58,14.58,0,0,1,.239,1.549C520.492,36.807,515.49,64.556,513.7,82.421Z" fill="#f05c2a"/><path d="M566.222,60.15a4.618,4.618,0,0,0-2.382,1.31h.477c.238-.119-2.5,1.668-3.931,1.668a.879.879,0,0,0,.715.237h1.429c0,.238-.239.119-.357.238-3.454,1.073-6.908.834-9.409,1.073-1.19,5.955-1.071,8.575-3.691,12.862-.715.715-2.026,2.739-3.216,2.739-.238,0-.477.477-.477.477,0,.238-.357.475-.6.475s-.476-.119-.476-.356a.443.443,0,0,1,.118-.358l-.952.595a3.459,3.459,0,0,1,.6-1.19c-1.787,1.309-2.978.595-5.955,1.786v-.477a1.653,1.653,0,0,0-.834,1.43,32.986,32.986,0,0,1-.477-5.836.437.437,0,0,0,.119-.357c0-.239-.237-.477-.237-.595,0-5.24.475-5.717,1.19-10.361a1.388,1.388,0,0,1-.834.238,15.791,15.791,0,0,1-2.857-.477q.356-.178.356-.357c0-.477-3.1-.477-3.929-.477-1.43,0-5.836-.238-5.836-2.262,0-1.548,1.549-2.859,3.454-3.1,3.454-1.905,7.622-1.072,11.552-1.548,1.668-6.074,2.262-17.268,8.575-17.268a1.517,1.517,0,0,1,.834.476c1.786,0,1.786.119,3.691.119,1.072,0,.953.595,1.549.952v-.595c.237.119,1.31,1.667,1.31,5v.953c-.12,1.905-.834,6.55-1.429,9.885.119.238,12.147,0,14.41.357a1.238,1.238,0,0,0-1.191.833,7.932,7.932,0,0,1,1.429.715,19.727,19.727,0,0,0-3.1.715C565.865,59.912,565.865,60.15,566.222,60.15Zm-28.106,4.406a3.767,3.767,0,0,0-1.548.239C537.162,64.8,537.877,64.8,538.116,64.556Z" fill="#f05c2a"/><path d="M64.745,107.3c-.016-.583-.685-.355-1.319-.681a7.043,7.043,0,0,1-3.256-3.149c-.382,1.192,2.763,3.135,3.016,3.229a7.179,7.179,0,0,1,1.245.383c.251.138.062.574.271.718.458.316.43.619.1.654-1.069.112-5.05.193-6.181-.3-1.212-.532-5.978-5.489-5.978-4.83-.639-.234,5.261,4.78,5.659,5.043,1.9.8,4.869.222,6.468.362.49.042.534-.5.149-.937A1.656,1.656,0,0,1,64.745,107.3Z" fill="#f05c2a"/><path d="M110.245,101.718l-.293-.528q-.309-.432-.62-.863a.065.065,0,0,1-.014,0c-.1-.492-.318-1.458-.325-1.541l-.333-1.326q-.292-1.246-.584-2.493-.277-1.287-.556-2.574c-.563-2.407-1.133-4.813-1.685-7.222q-1.669-7.287-3.323-14.579c-.537-2.356-.911-5.961-1.448-8.316-.014.072-.363.068-.262.985.262,2.376,8.306,36.848,8.347,37.355,0,.039.225.079.367.255.033.04.268.292.3.335a1.091,1.091,0,0,1,.288.814c-.074.429-1.212.076-1.277-.064a15.986,15.986,0,0,1-.021-1.723c-.029.143-8.265-34.844-8.383-35.255-.126-.438-.177-.047-.21.1,1.553,6.8,3.425,13.835,4.972,20.636.521,2.294,1.022,4.593,1.533,6.889q.331,1.412.662,2.823.271,1.138.542,2.277l.1.549.306,1.3.207.9c-.006.5-.012,1.04-.016,1.276l.147.443a2.17,2.17,0,0,0,1.747.114C110.344,102.056,110.294,101.887,110.245,101.718Z" fill="#f05c2a"/><path d="M104.8,98.882c-.092-.124-.128-.328-.276-.371-.374-.108-.347-.18-1.289.105l-.893.3a13.421,13.421,0,0,1-1.575.489,2.953,2.953,0,0,1-2.319-.383c-.421-.407-.687-1.367-1.1-1.786-.19-.193-.368-.5-.594-.035h0c-.142-.332-.375-.914-.565-1.38l.219-.261a1.548,1.548,0,0,1-.13-.261c-1.126-4-1.916-8.928-3.216-12.872-.759,1.18,3.565,12.1,2.723,13.212a10.738,10.738,0,0,0,.895,1.787c.2.322.276-.342.531-.021a17.736,17.736,0,0,0,1.149,2.022c.384.305,1.126.528,2.617.212,1.146-.242,2.379-.962,3.255-1.021.187-.013.272.555.426.553.326,0,.344.206.489.256.588.2-1.276,1.553-2.319,2.021-.332.149-2.315.84-2.574,1-2.043,1.255-5.277,1.34-5.809,1.447-.371.074-.038-1.2-.128-1.043-.206.364-1-3.6-.319-3.745-.468-.957-.7-2.271-.979-2.191-.752.214-.4.021-.553-.17-.472-.608-3.872-8.426-4.021-7.575.34.732.88,1.784,1.128,2.49.525,1.5,1.3,2.661,1.95,4.118a9.705,9.705,0,0,1,.514,1,.625.625,0,0,0,.81.457l.007,0c.239.625.535,1.406.716,1.876-.183.155-.086.467-.146.66-.3.953.459,3.093.51,3.3a2.641,2.641,0,0,0,.213,1.127s1.214-.021,2.4-.17c1.872-.234,1.49-.3,4-1.127l2.766-1.256c.783-.6,1.173-.916,1.935-1.539.165-.135.341-.458.285-.614C105.431,99.183,105.284,98.783,104.8,98.882Z" fill="#f05c2a"/><path d="M14.452,79.754c-.3-.249-11.411,13.59-12.223,14.468-.041.044.282.561.16.735a5,5,0,0,1-1.628,1.1C.7,95.989.293,95.472.234,95.4A5.5,5.5,0,0,1,1.24,94.079c.233-.2.714-.157.766-.224.768-.991,11.927-14.623,11.76-14.787-.85,1-11.08,13.665-11.93,14.663l-.046-.04C.988,93.443.138,95.182,0,95.4c.046.074.7.809.75.883a4.028,4.028,0,0,0,1.9-1.311c-.119-.141-.116-.5-.213-.686Z" fill="#f05c2a"/><path d="M20.562,88.477l-.009.008.035.034C20.58,88.5,20.571,88.494,20.562,88.477Z" fill="#f05c2a"/><path d="M24.319,67.93q-4.832,5.745-9.67,11.484c-.2.209-.409.41-.6.628-.062.072-.124.144-.187.215a51.992,51.992,0,0,0,4.595,5.993l.413-.175c-1.5-1.447.021-2.276.668-3.284,2.429-1.911,4.762-3.963,7.313-5.694A7.228,7.228,0,0,0,30.2,69.723c-.26-2.57-.26-5.165-.369-7.75l-.358.261-.143.151-.015-.036c-.22.16-.393.285-.441.314l-.6.629q-.316-.245,0,0l-3.3,3.775C24.755,67.355,24.551,67.655,24.319,67.93Z" fill="#f05c2a"/><path d="M42.107,59.51q2.249,4.787,4.5,9.571l.013-.014.167.4.161.342-.012.014c.792,1.894,1.769,4.294,2.673,6.491q.546-1.8,1.094-3.593l2.241-6.991c.259-.69.668-1.764.989-2.614l-.011,0q.831-2.58,1.663-5.159h0a12.756,12.756,0,0,1,.43-1.765,4.009,4.009,0,0,0-.92-.008c-4.028.21-9.407.5-12.306-1.483,0,.338.005.677.008,1.015.028.089.224,1.492.321,1.874C43.358,58.546,43.233,59.286,42.107,59.51Z" fill="#f05c2a"/><path d="M100.169,63.575c-.52-2.275-1.052-4.547-1.578-6.82-.381.109-.583-.025-.658-.424-.1-.518-.24-1.027-.362-1.539a5.71,5.71,0,0,1-1.96.112,9,9,0,0,1-2.425,1.387c-1.7.568-3.416,1.1-5.126,1.639-.884.177-1.766.365-2.653.528l-.1.017-.029.157c-.027.2-.056.4-.088.607v.011h0c-.465,3.067-1.067,4.672-2.574,6.536-.13.161,1.448,2.116,3.149,4,3.149,3.49,5.11,7.874,6.727,12.214.736,1.974,1.323,3.956,1.862,5.943a51.947,51.947,0,0,0,8.66-11.887Q101.592,69.816,100.169,63.575Z" fill="#f05c2a"/><path d="M89.748,91.931c-.729-2.08-2.061-6.553-2.663-8.676-.285-1-7.912-7.748-8.978-9.043-.1.181-2.52,14.888-3.72,17.235-1.212,2.37-12.979,9.653-13.309,10.117-.109.154-.355-.193-.542-.1a1.5,1.5,0,0,0-.523.616c.457.147.263.51.249.8-.012.244-.038.469-.065.686A51.574,51.574,0,0,0,89.813,92.1C89.793,92.043,89.768,91.988,89.748,91.931Z" fill="#f05c2a"/><path d="M51.808,101.587q-.132.5-.263.993l-.207.46-.84.174q1.178.153,2.37.252c-.065-.093-.11-.168-.1-.189a3.788,3.788,0,0,1,.723-1l.4-.085c.046-.086,1.405-2.064,2-2.032.726-.139,1.252.192,1.481-.351.028-.034-.334-.524-.287-.67,1.056-3.269,10.055-9.126,10.213-9.671a38.666,38.666,0,0,0,1.372-7.531,27.046,27.046,0,0,0,.257-2.852c-.862,1.1-1.736,2.2-2.584,3.311q-3.357,4.412-6.709,8.829c.174-.009.385-.028.666-.066.3-.1.62-.168.912-.294.727-.313,1.083-.1,1.058.7-.029.186.006.484-.095.54-.9.5-1.813.964-2.725,1.437L57.236,94.69l-.3.1q-2.415,3.178-4.831,6.358C51.993,101.285,51.905,101.439,51.808,101.587Z" fill="#f05c2a"/><path d="M50.182,102.874a1.428,1.428,0,0,1,1-1.787l4.483-5.9c-.894.286-1.79.567-2.694.819-.251.07-.59-.174-.889-.273l-.156-1.327.085,0a15.455,15.455,0,0,1-.477-2.716c.02-.258.041-.516.061-.774h0l-.048-.662c-.633.406-1.043.16-1.39-.428q-1.3-2.214-2.618-4.419l-.264.646q-1.166,3.793-2.328,7.589c-.157.518-.271,1.05-.405,1.576l-.39,1.819c.1.19.209.38.313.571-.449.975-1.463,2.033-2.213,1.107.023-.712.424-1.061.454-1.953l.581-.066-.068-.866c.381-.971.8-1.93,1.134-2.917.751-2.206,1.462-4.426,2.189-6.641q.082-.39.164-.78.156-.479.314-.958-.588-.989-1.175-1.977l-3.612-7.232-.057.066c-1-1.264-1.993-2.538-3.02-3.782a2.479,2.479,0,0,0-.765-.427q-.129.528-.257,1.057c-.692,3.1-1.862,5.783-4.836,7.524-2.558,1.5-4.868,3.423-7.287,5.16-1.523,1.177-3.052,2.345-4.563,3.537-.206.163-.386.367-.569.336a51.665,51.665,0,0,0,29.547,14.41C50.345,103.1,50.263,102.985,50.182,102.874Z" fill="#f05c2a"/><path d="M24.233,66.977l2.53-3.12a6.845,6.845,0,0,1-.3-3.354,3.4,3.4,0,0,1-1.212-3.011,21.125,21.125,0,0,1,2.041-8.846c1.172-2.375,2.047-4.9,3.069-7.347a7.218,7.218,0,0,1,.541-.91l-.011.013.228-.664c1.012-1.751,2.005-3.515,3.055-5.243.187-.308.614-.47.929-.7l.061.006c.342-.69.749-1.563,1.058-2.157-.371-.5-2.073-1.546-2.264-2.1-.528-1.539-.25.092-.574-1.5-.29-1.428-.617-2.912.75-3.75-.088-2.294,4.391-3.058,6.146-2.725,1.575.3,2.633,1.357,3.347,3.941a15.189,15.189,0,0,1,.345,1.855,10.96,10.96,0,0,1,2.046,1.993c.171.286-1.091.263-1.078.513a.836.836,0,0,1-.412,1c.9,1.511,1.052,3.5.252,3.65-.433.079-1.212-.681-2.266-1.227l-.169-.06c-.191.217-.654.669-1.074,1.085l.52.045a2.305,2.305,0,0,1-.462.936,1.972,1.972,0,0,0,.542,2.714c1.378,1.029,1.626,2.6,1.962,4.125.244,1.1.5,2.2.629,3.318.367,3.054.263,3.282,2.2,5.449,1.545,1.733,7.226,1.26,8.643,3.1a.323.323,0,0,1,.046.087l.123-.144c.787-.288,3.29.6,3.48,1.317a1.555,1.555,0,0,1-.251,1.2c-.177.225-.684.244-1.046.252a1.934,1.934,0,0,1-.692-.276q-.226.709-.454,1.42c-.443,1.231-.882,2.464-1.33,3.693-.35,1.242-1.22,3.8-1.551,4.99q-1.08,3.366-2.158,6.734-.68,2.13-1.36,4.26c.327.791.636,1.535.914,2.192,1.191,2.583,2.4,5.158,3.55,7.76a3.119,3.119,0,0,1-.023,1.236q.334.638.672,1.275c-.133.3,2.222.8,3.333,1.193.055,0,.1,0,.151,0q.8-1.047,1.591-2.093,4.29-5.637,8.586-11.27c.011-.156.037-.313.033-.469-.046-1.875-.133-3.749-.135-5.624,0-1.734.084-3.467.131-5.2-.353-.807-1.1-1.467-1.014-1.642.4-.815.94-2.97,1.284-3.806A30.814,30.814,0,0,1,70.748,58c-1.287-1.054-2.27-3.993-3.553-5.053a1.872,1.872,0,0,1-.474-2.469,47.589,47.589,0,0,1,5.536-7.809,2.337,2.337,0,0,1,.57-.351l.134-.22h0l.11-.14,1.379-1.444a5.832,5.832,0,0,1,.454-.5c.216-.191.456-.355.686-.53.113-.721.215-1.443.345-2.16.095-.531.358-.677.894-.549.153.037.307.062.461.092h0l.033-.269c-.073-.058-.023-1.3-.1-1.321-1.848-.386-4.134-.639-4.341-2.511-.5-.913.206-2.226.524-3.136a2.044,2.044,0,0,1,1.748-1.4,1.673,1.673,0,0,0,1.005-.866,4.743,4.743,0,0,1,4.094-3.869c2.558-.588,4.67-.671,6.629,1.273,1.044,1.037,4.3,2.724,1.435,4.4h0c.017.236.042.471.048.707a4.153,4.153,0,0,1-.785,2.7c-.159.678.664,1.383.664,2.7,0,.638-.976-.144-1.068.1-.21.572.081.972-.3,1.383-.745.809-.129,1.875-1.128,2.192-.73.306-2.61-.65-3.34-.83-.136-.034-.591.854-.745.893.574.379.706.477,1.281.855a.546.546,0,0,1,.155.9c-.12.156-.243.311-.348.477-.537.845-.462,1.207.1,2.029A25.051,25.051,0,0,1,84.829,46.5c.849,1.747,2.208,3.578,1.451,5.462-.256.638-.787,1.241-.68,1.872.78-.132,1.083-.241,1.713-.391,1.074-.313,2.123-.639,3.183-.925,1.488-.4,2.936-1.051,4.54-.787a6.628,6.628,0,0,1,.419-.546c.342-.363.7-.71,1.053-1.064-.106-.482-.227-.962-.307-1.449-.025-.148.024-.428.105-.456a7.39,7.39,0,0,1,1.372-.337c.094-.012.275.244.333.405.124.352.2.723.287,1.086.968-.258,1.225-.125,1.482.854.19.721.361,1.45.482,2.185a1.384,1.384,0,0,1-.613,1.541c-.116.07-.171.239-.253.363h0c.121.518.231,1.039.368,1.553.106.4.021.658-.411.742l3.312,14.521q.442,1.942.885,3.886a51.832,51.832,0,1,0-90.131,4.552l.5-.595Q18.8,73.235,23.69,67.5C23.853,67.312,24.051,67.152,24.233,66.977Z" fill="#f05c2a"/><path d="M20.588,88.459a1.581,1.581,0,0,0,.559.543C21.367,88.629,20.786,88.371,20.588,88.459Z" fill="#f05c2a"/><path d="M19.19,94.615l-.006-.86a.287.287,0,0,0-.149-.078h0l.168-3.855q.74-.686,1.48-1.37c-.27-.27-1.436,1.489-1.7,1.212a33.463,33.463,0,0,0-.287,4c-.008.2.413.42.208.958-.052.135.615.724.877,1.2a.681.681,0,0,1-.048.845c-.248.239-1.934-.817-2.026-.941-.4-.545-4.09-5.649-4.516-6.319-.8-1.258,1.037-.958,1.548-1.293a16.281,16.281,0,0,1,4.212-1.763c.057-.019-.1-.29-.143-.335-.393.166-1.006.531-1.4.7l-.8.058a13.714,13.714,0,0,0-2.458,1.25l-1.33.387c-.025.279-.175.637-.057.825.955,1.509,3.57,5.1,3.588,5.149a13.244,13.244,0,0,0,1.656,1.88,7.213,7.213,0,0,0,1.855.779c.09-.339.34-.741.238-1.006A7.891,7.891,0,0,0,19.19,94.615Z" fill="#f05c2a"/></g></g></svg>