<svg xmlns="http://www.w3.org/2000/svg" xmlns:xlink="http://www.w3.org/1999/xlink" viewBox="0 0 286.205 187.791"><defs><linearGradient id="linear-gradient" x1="250.069" y1="99.593" x2="227.392" y2="60.316" gradientUnits="userSpaceOnUse"><stop offset="0" stop-color="#d43500"/><stop offset="1" stop-color="#e99c00"/></linearGradient><linearGradient id="linear-gradient-2" x1="143.574" y1="102.315" x2="143.574" y2="27.781" xlink:href="#linear-gradient"/><linearGradient id="linear-gradient-3" x1="201.033" y1="113.179" x2="228.612" y2="85.6" xlink:href="#linear-gradient"/><linearGradient id="linear-gradient-4" x1="121.603" y1="48.164" x2="181.043" y2="13.846" xlink:href="#linear-gradient"/><linearGradient id="linear-gradient-5" x1="102.696" y1="61.02" x2="102.696" y2="0" xlink:href="#linear-gradient"/><linearGradient id="linear-gradient-6" x1="53.613" y1="77.922" x2="53.613" y2="55.562" xlink:href="#linear-gradient"/><linearGradient id="linear-gradient-7" x1="41.847" y1="78.6" x2="41.847" y2="71.824" xlink:href="#linear-gradient"/><linearGradient id="linear-gradient-8" x1="182.708" y1="110.447" x2="182.708" y2="76.565" gradientUnits="userSpaceOnUse"><stop offset="0" stop-color="#4dd0bf"/><stop offset="1" stop-color="#00afff"/></linearGradient><linearGradient id="linear-gradient-9" x1="88.17" y1="110.446" x2="88.17" y2="76.567" xlink:href="#linear-gradient-8"/><linearGradient id="linear-gradient-10" x1="206.144" y1="110.446" x2="206.144" y2="76.569" xlink:href="#linear-gradient-8"/><linearGradient id="linear-gradient-11" x1="233.567" y1="110.447" x2="233.567" y2="76.564" xlink:href="#linear-gradient-8"/><linearGradient id="linear-gradient-12" x1="265.766" y1="110.446" x2="265.766" y2="76.568" xlink:href="#linear-gradient-8"/></defs><g id="Layer_2" data-name="Layer 2"><g id="Layer_1-2" data-name="Layer 1"><polygon points="205.451 76.722 224.525 61.971 259.76 61.971 269.131 88.18 245.192 102.409 205.451 76.722" fill="url(#linear-gradient)"/><polygon points="77.286 102.315 189.088 27.781 209.861 61.02 190.442 102.315 77.286 102.315" fill="url(#linear-gradient-2)"/><polygon points="245.327 102.315 190.17 102.315 200.826 79.957 205.586 76.628 245.327 102.315" fill="url(#linear-gradient-3)"/><polygon points="112.182 31.846 156.043 50.037 189.088 27.781 148.094 12.874 112.182 31.846" fill="url(#linear-gradient-4)"/><polygon points="110.827 0 57.297 55.562 62.802 61.02 148.094 12.874 110.827 0" fill="url(#linear-gradient-5)"/><polygon points="56.62 77.922 44.423 71.824 57.297 55.562 62.802 61.02 56.62 77.922" fill="url(#linear-gradient-6)"/><polygon points="33.467 78.6 56.62 77.922 44.423 71.824 27.074 75.889 33.467 78.6" fill="url(#linear-gradient-7)"/><polygon points="177.114 108.414 190.697 102.315 174.719 102.315 177.114 108.414" fill="url(#linear-gradient-8)"/><polygon points="137.138 100.961 124.941 80.633 99.193 94.862 84.964 76.567 61.926 93.507 33.467 78.6 1.621 102.315 174.719 102.315 169.661 89.441 137.138 100.961" fill="url(#linear-gradient-9)"/><polygon points="210.316 93.507 190.697 102.315 221.591 102.315 210.316 93.507" fill="url(#linear-gradient-10)"/><polygon points="245.436 102.315 221.699 102.315 232.107 110.447 245.436 102.315" fill="url(#linear-gradient-11)"/><polygon points="269.266 88.086 245.327 102.315 286.205 102.315 269.266 88.086" fill="url(#linear-gradient-12)"/><path d="M32.674,156.582h-21.9L2.845,179.687H0l20.519-60.349h2.327l20.691,60.349H40.52Zm-21.035-2.759H31.812L21.639,124.166Z"/><path d="M66.676,180.635a20.523,20.523,0,0,1-12.845-4.224q-5.261-4.139-5.259-12.673V135.977q0-8.879,4.87-13.449t13.407-4.569q8.535,0,13.234,4.828t4.7,13.276v27.675q0,7.587-4.138,11.724a18.61,18.61,0,0,1-10.949,5.087q1.636,4.482,10.345,4.57v2.672Q69.435,187.791,66.676,180.635Zm11.035-56.3a16.571,16.571,0,0,0-11.035-3.621,16.871,16.871,0,0,0-10.9,3.492Q51.415,127.7,51.417,135.2v28.537q0,7.07,4.354,10.56a16.645,16.645,0,0,0,10.215,3.664,37.931,37.931,0,0,1-.344-5.862v-7.414H68.4l.087,7.414a36.05,36.05,0,0,0,.345,5.776q6.207-.431,9.7-4.267a14.217,14.217,0,0,0,3.492-9.957V135.2Q82.022,127.961,77.711,124.338Z"/><path d="M130.818,119.252v44.4q0,8.709-5.3,12.673a20.766,20.766,0,0,1-12.8,3.966,20.952,20.952,0,0,1-12.846-3.966q-5.346-3.964-5.345-12.673v-44.4h2.759V164q0,6.982,4.612,10.345a18.007,18.007,0,0,0,10.906,3.363,19.034,19.034,0,0,0,7.328-1.423,13.16,13.16,0,0,0,5.69-4.484,12.861,12.861,0,0,0,2.242-7.8V119.252Z"/><path d="M168.924,156.582h-21.9l-7.931,23.105h-2.845l20.519-60.349H159.1l20.691,60.349H176.77Zm-21.036-2.759h20.173l-10.172-29.657Z"/><path d="M230.91,127.27l-19.053,52.417h-2.844L190.046,127.27v52.417h-2.673V119.338h2.673l20.433,56.038,20.431-56.038h2.673v60.349H230.91Z"/><path d="M273.963,156.582h-21.9l-7.931,23.105h-2.846l20.519-60.349h2.328l20.691,60.349h-3.017Zm-21.036-2.759H273.1l-10.173-29.657Z"/></g></g></svg>