<svg viewBox="0 0 920.016 200.284" xmlns="http://www.w3.org/2000/svg"><path d="m0 0h294.945v200.284h-294.945z" fill="#fff"/><path d="m5.672 5.493h283.602v189.07h-283.602z" fill="#034ea2"/><path d="m141.43 46.688 5.984-4.367 5.985 4.367-2.278-7.063 6.079-4.367h-7.493l-2.293-7.148-2.293 7.156-7.488-.008 6.074 4.367z" fill="#fff200"/><path d="m110.461 55.008 5.984-4.367 5.981 4.367-2.274-7.063 6.075-4.367h-7.493l-2.292-7.156-2.293 7.164-7.489-.008 6.074 4.367z" fill="#fff200"/><path d="m93.785 59.133-2.293 7.164-7.488-.008 6.074 4.367-2.277 7.063 5.984-4.367 5.984 4.367-2.277-7.063 6.074-4.367h-7.488z" fill="#fff200"/><path d="m85.473 104.282 5.981 4.367-2.274-7.062 6.074-4.368h-7.488l-2.293-7.156-2.293 7.172-7.492-.016 6.078 4.368-2.277 7.062z" fill="#fff200"/><path d="m96.078 128.242-2.293-7.156-2.293 7.164-7.488-.008 6.074 4.367-2.277 7.063 5.984-4.375 5.984 4.375-2.277-7.063 6.074-4.367z" fill="#fff200"/><path d="m118.781 150.945-2.293-7.148-2.289 7.156-7.492-.008 6.074 4.367-2.273 7.063 5.984-4.367 5.98 4.367-2.273-7.063 6.074-4.367z" fill="#fff200"/><path d="m149.711 159.172-2.293-7.156-2.289 7.164-7.492-.008 6.074 4.367-2.273 7.063 5.984-4.367 5.98 4.367-2.277-7.063 6.078-4.367z" fill="#fff200"/><path d="m180.641 150.945-2.289-7.148-2.297 7.156-7.484-.008 6.07 4.367-2.273 7.063 5.984-4.367 5.984 4.367-2.281-7.063 6.078-4.367z" fill="#fff200"/><path d="m203.352 128.242-2.297-7.156-2.297 7.164-7.484-.008 6.078 4.367-2.281 7.063 5.984-4.375 5.984 4.375-2.281-7.063 6.078-4.367z" fill="#fff200"/><path d="m219.063 97.133h-7.492l-2.297-7.156-2.289 7.164-7.492-.008 6.078 4.367-2.274 7.063 5.977-4.375 5.984 4.375-2.273-7.063z" fill="#fff200"/><path d="m195.07 77.625 5.984-4.367 5.985 4.367-2.281-7.063 6.078-4.359h-7.485l-2.297-7.156-2.296 7.164-7.485-.008 6.078 4.359z" fill="#fff200"/><path d="m178.438 36.43-2.289 7.164-7.492-.016 6.07 4.375-2.273 7.063 5.992-4.375 5.976 4.375-2.273-7.063 6.078-4.375h-7.5z" fill="#fff200"/><g fill="#034ea2"><path d="m330.192 77.328v-46.528h31.9v7.871h-22.5v11.012h19.424v7.871h-19.429v19.774z"/><path d="m369.771 39.052v-8.252h8.917v8.252zm0 38.276v-33.706h8.917v33.706z"/><path d="m418.487 77.328h-8.918v-17.2q0-5.458-.571-7.062a4.964 4.964 0 0 0 -1.856-2.492 5.314 5.314 0 0 0 -3.095-.889 7.148 7.148 0 0 0 -4.157 1.27 6.4 6.4 0 0 0 -2.524 3.365 29.083 29.083 0 0 0 -.682 7.744v15.264h-8.919v-33.706h8.284v4.951a13.811 13.811 0 0 1 16.5-4.649 9.052 9.052 0 0 1 3.7 2.712 9.838 9.838 0 0 1 1.751 3.747 27.918 27.918 0 0 1 .491 6z"/><path d="m434.2 53.905-8.093-1.46a12.607 12.607 0 0 1 4.7-7.236q3.332-2.349 9.9-2.349 5.967 0 8.887 1.412a8.88 8.88 0 0 1 4.11 3.587q1.19 2.173 1.19 7.983l-.095 10.41a35.994 35.994 0 0 0 .429 6.553 19.078 19.078 0 0 0 1.6 4.523h-8.823q-.351-.888-.858-2.635-.22-.792-.316-1.047a16.039 16.039 0 0 1 -4.889 3.332 13.986 13.986 0 0 1 -5.553 1.112q-5.207 0-8.2-2.825a9.387 9.387 0 0 1 -3-7.141 9.581 9.581 0 0 1 1.365-5.094 8.906 8.906 0 0 1 3.824-3.428 29.886 29.886 0 0 1 7.094-2.079 48.626 48.626 0 0 0 8.664-2.189v-.889a4.615 4.615 0 0 0 -1.27-3.666q-1.268-1.1-4.792-1.1a6.386 6.386 0 0 0 -3.714.937 6.523 6.523 0 0 0 -2.16 3.289zm11.934 7.236a55.688 55.688 0 0 1 -5.427 1.365 16.332 16.332 0 0 0 -4.856 1.555 3.72 3.72 0 0 0 -1.751 3.139 4.371 4.371 0 0 0 1.4 3.238 4.877 4.877 0 0 0 3.555 1.364 7.727 7.727 0 0 0 4.6-1.586 5.6 5.6 0 0 0 2.126-2.952 17.6 17.6 0 0 0 .349-4.348z"/><path d="m494.342 77.328h-8.918v-17.2q0-5.458-.571-7.062a4.96 4.96 0 0 0 -1.853-2.494 5.312 5.312 0 0 0 -3.095-.889 7.151 7.151 0 0 0 -4.157 1.27 6.4 6.4 0 0 0 -2.523 3.365 29.071 29.071 0 0 0 -.683 7.744v15.266h-8.919v-33.706h8.277v4.951a13.811 13.811 0 0 1 16.5-4.649 9.045 9.045 0 0 1 3.7 2.712 9.855 9.855 0 0 1 1.747 3.747 27.918 27.918 0 0 1 .491 6z"/><path d="m500.245 67.711 8.95-1.365a6.557 6.557 0 0 0 2.318 3.952 7.827 7.827 0 0 0 4.886 1.348 8.823 8.823 0 0 0 5.205-1.269 2.83 2.83 0 0 0 1.175-2.377 2.351 2.351 0 0 0 -.634-1.683 7.139 7.139 0 0 0 -2.984-1.174q-10.791-2.381-13.68-4.347a8.686 8.686 0 0 1 -4-7.586 9.348 9.348 0 0 1 3.459-7.363q3.46-2.987 10.73-2.987 6.918 0 10.283 2.253a11.529 11.529 0 0 1 4.634 6.666l-8.41 1.555a5.211 5.211 0 0 0 -2.048-3.016 7.5 7.5 0 0 0 -4.3-1.047 9.677 9.677 0 0 0 -5.047.985 2.107 2.107 0 0 0 -1.015 1.808 1.97 1.97 0 0 0 .888 1.619q1.206.888 8.331 2.507t9.951 3.968a8.246 8.246 0 0 1 2.792 6.633 10.185 10.185 0 0 1 -3.872 7.967q-3.873 3.33-11.458 3.332-6.885 0-10.9-2.793a12.867 12.867 0 0 1 -5.254-7.586z"/><path d="m537.475 60a18.222 18.222 0 0 1 2.19-8.6 15.014 15.014 0 0 1 6.2-6.347 18.4 18.4 0 0 1 8.966-2.191 16.83 16.83 0 0 1 12.537 4.967 17.163 17.163 0 0 1 4.892 12.551 17.366 17.366 0 0 1 -4.936 12.679 16.678 16.678 0 0 1 -12.424 5.031 19.578 19.578 0 0 1 -8.84-2.09 14.359 14.359 0 0 1 -6.395-6.142 20.445 20.445 0 0 1 -2.19-9.858zm9.14.475q0 5.016 2.38 7.682a7.782 7.782 0 0 0 11.728 0q2.364-2.666 2.364-7.744 0-4.952-2.364-7.617a7.782 7.782 0 0 0 -11.723.004q-2.384 2.661-2.385 7.674z"/><path d="m585.526 77.328-10.664-33.706h8.665l6.316 22.09 5.808-22.09h8.6l5.617 22.09 6.443-22.09h8.789l-10.818 33.706h-8.57l-5.812-21.678-5.713 21.678z"/><path d="m636.466 53.905-8.093-1.46a12.606 12.606 0 0 1 4.7-7.236q3.333-2.349 9.9-2.349 5.966 0 8.886 1.412a8.878 8.878 0 0 1 4.111 3.587q1.189 2.173 1.189 7.983l-.1 10.41a36.087 36.087 0 0 0 .429 6.553 19.039 19.039 0 0 0 1.6 4.523h-8.824q-.35-.888-.857-2.635c-.147-.528-.254-.877-.316-1.047a16.063 16.063 0 0 1 -4.889 3.332 13.987 13.987 0 0 1 -5.554 1.112q-5.2 0-8.2-2.825a9.387 9.387 0 0 1 -3-7.141 9.581 9.581 0 0 1 1.365-5.094 8.914 8.914 0 0 1 3.825-3.428 29.875 29.875 0 0 1 7.093-2.079 48.6 48.6 0 0 0 8.664-2.189v-.889a4.614 4.614 0 0 0 -1.269-3.666q-1.269-1.1-4.792-1.1a6.386 6.386 0 0 0 -3.714.937 6.517 6.517 0 0 0 -2.154 3.289zm11.934 7.236a55.65 55.65 0 0 1 -5.426 1.365 16.353 16.353 0 0 0 -4.857 1.555 3.72 3.72 0 0 0 -1.745 3.142 4.372 4.372 0 0 0 1.4 3.238 4.875 4.875 0 0 0 3.554 1.364 7.727 7.727 0 0 0 4.6-1.586 5.6 5.6 0 0 0 2.126-2.952 17.661 17.661 0 0 0 .348-4.348z"/><path d="m696.61 77.328h-8.918v-17.2q0-5.458-.571-7.062a4.964 4.964 0 0 0 -1.856-2.492 5.314 5.314 0 0 0 -3.1-.889 7.148 7.148 0 0 0 -4.157 1.27 6.4 6.4 0 0 0 -2.524 3.365 29.083 29.083 0 0 0 -.682 7.744v15.264h-8.919v-33.706h8.284v4.951a13.811 13.811 0 0 1 16.5-4.649 9.052 9.052 0 0 1 3.7 2.712 9.838 9.838 0 0 1 1.746 3.747 27.918 27.918 0 0 1 .491 6z"/><path d="m725.175 66.6 8.887 1.492a14.582 14.582 0 0 1 -5.412 7.443 15.9 15.9 0 0 1 -9.25 2.555q-8.791 0-13.012-5.745a19.3 19.3 0 0 1 -3.333-11.617q0-8.379 4.381-13.123a14.423 14.423 0 0 1 11.074-4.745q7.521 0 11.87 4.967t4.157 15.219h-22.344a9.031 9.031 0 0 0 2.159 6.173 6.753 6.753 0 0 0 5.142 2.206 5.46 5.46 0 0 0 3.523-1.143 7.063 7.063 0 0 0 2.158-3.682zm.508-9.013a8.6 8.6 0 0 0 -2-5.888 6.436 6.436 0 0 0 -9.459.111 8.225 8.225 0 0 0 -1.872 5.777z"/><path d="m759.611 43.622h8.315v4.951a12.46 12.46 0 0 1 4.381-4.126 12.062 12.062 0 0 1 6.125-1.587 12.847 12.847 0 0 1 9.965 4.6q4.095 4.6 4.095 12.822 0 8.442-4.127 13.123a12.854 12.854 0 0 1 -10 4.682 11.35 11.35 0 0 1 -5.062-1.112 17.032 17.032 0 0 1 -4.777-3.808v16.983h-8.918zm8.823 16.278q0 5.681 2.253 8.4a6.9 6.9 0 0 0 5.491 2.712 6.445 6.445 0 0 0 5.174-2.491q2.063-2.49 2.062-8.173 0-5.3-2.126-7.871a6.58 6.58 0 0 0 -5.268-2.57 6.844 6.844 0 0 0 -5.428 2.523q-2.158 2.522-2.158 7.47z"/><path d="m808.106 77.328h-8.918v-33.706h8.284v4.792a14.4 14.4 0 0 1 3.824-4.475 7.038 7.038 0 0 1 3.856-1.079 11.314 11.314 0 0 1 5.872 1.683l-2.761 7.775a7.834 7.834 0 0 0 -4.19-1.46 4.954 4.954 0 0 0 -3.174 1.031 7.056 7.056 0 0 0 -2.046 3.73q-.748 2.7-.747 11.3z"/><path d="m821.278 77.328v-6.951l12.632-14.5q3.109-3.553 4.6-5.047-1.554.1-4.094.127l-11.9.064v-7.4h27.867v6.315l-12.883 14.855-4.538 4.92q3.714-.222 4.6-.223h13.8v7.84z"/><path d="m876.884 66.6 8.887 1.492a14.582 14.582 0 0 1 -5.412 7.443 15.9 15.9 0 0 1 -9.252 2.555q-8.792 0-13.012-5.745a19.3 19.3 0 0 1 -3.333-11.617q0-8.379 4.381-13.123a14.422 14.422 0 0 1 11.076-4.745q7.521 0 11.87 4.967t4.157 15.219h-22.346a9.031 9.031 0 0 0 2.159 6.173 6.753 6.753 0 0 0 5.142 2.206 5.46 5.46 0 0 0 3.523-1.143 7.063 7.063 0 0 0 2.16-3.682zm.508-9.013a8.6 8.6 0 0 0 -2-5.888 6.436 6.436 0 0 0 -9.459.111 8.225 8.225 0 0 0 -1.872 5.777z"/><path d="m889.928 77.328v-6.951l12.632-14.5q3.11-3.553 4.6-5.047-1.554.1-4.094.127l-11.9.064v-7.4h27.867v6.315l-12.887 14.855-4.539 4.92q3.714-.222 4.6-.223h13.806v7.84z"/><path d="m330.065 108.8h9.395v25.2a52.1 52.1 0 0 0 .349 7.776 7.534 7.534 0 0 0 2.872 4.587 10.006 10.006 0 0 0 6.205 1.729q4 0 6.03-1.635a6.454 6.454 0 0 0 2.444-4.014 52.39 52.39 0 0 0 .412-7.9v-25.743h9.395v24.439a62.751 62.751 0 0 1 -.762 11.837 13.1 13.1 0 0 1 -2.808 5.84 14.186 14.186 0 0 1 -5.475 3.793 23.81 23.81 0 0 1 -8.951 1.412q-6.664 0-10.109-1.539a14.424 14.424 0 0 1 -5.442-4 12.8 12.8 0 0 1 -2.635-5.157 56.491 56.491 0 0 1 -.92-11.807z"/><path d="m407.665 155.327h-8.918v-17.2q0-5.457-.571-7.061a4.951 4.951 0 0 0 -1.857-2.492 5.309 5.309 0 0 0 -3.094-.889 7.16 7.16 0 0 0 -4.158 1.269 6.4 6.4 0 0 0 -2.523 3.366 29.061 29.061 0 0 0 -.683 7.744v15.265h-8.919v-33.708h8.285v4.952a13.813 13.813 0 0 1 16.5-4.65 9.048 9.048 0 0 1 3.7 2.713 9.84 9.84 0 0 1 1.746 3.746 27.931 27.931 0 0 1 .491 6z"/><path d="m416.711 117.051v-8.251h8.918v8.252zm0 38.276v-33.706h8.918v33.706z"/><path d="m454.289 144.6 8.887 1.491a14.582 14.582 0 0 1 -5.411 7.443 15.9 15.9 0 0 1 -9.252 2.555q-8.793 0-13.013-5.744a19.3 19.3 0 0 1 -3.333-11.617q0-8.379 4.381-13.123a14.423 14.423 0 0 1 11.076-4.745q7.522 0 11.87 4.966t4.157 15.219h-22.343a9.024 9.024 0 0 0 2.158 6.173 6.751 6.751 0 0 0 5.142 2.206 5.458 5.458 0 0 0 3.523-1.143 7.053 7.053 0 0 0 2.158-3.681zm.508-9.014a8.6 8.6 0 0 0 -2-5.888 6.437 6.437 0 0 0 -9.459.112 8.224 8.224 0 0 0 -1.872 5.776zm-.797 19.741a6.315 6.315 0 0 0 -1.095 1.032 6.994 6.994 0 0 0 -.841 1.254 6.871 6.871 0 0 0 -.539 1.348 4.9 4.9 0 0 0 -.191 1.318 2.777 2.777 0 0 0 .556 1.761 2.211 2.211 0 0 0 1.856.714 4.7 4.7 0 0 0 1.286-.206c.476-.138.925-.269 1.349-.4v5.3a11.351 11.351 0 0 1 -4.793 1.27 8.967 8.967 0 0 1 -3.078-.476 6.247 6.247 0 0 1 -2.174-1.3 5.266 5.266 0 0 1 -1.3-1.92 6.364 6.364 0 0 1 -.429-2.333 7.905 7.905 0 0 1 1.112-3.84 12.072 12.072 0 0 1 2.983-3.524z"/><path d="m489.042 155.327v-46.527h34.5v7.871h-25.105v10.316h23.363v7.838h-23.363v12.664h25.994v7.839z"/><path d="m554.518 155.327v-5.046a13.008 13.008 0 0 1 -4.84 4.253 13.57 13.57 0 0 1 -6.332 1.555 12.371 12.371 0 0 1 -6.094-1.492 8.794 8.794 0 0 1 -3.9-4.19 18.668 18.668 0 0 1 -1.207-7.458v-21.328h8.919v15.489q0 7.11.492 8.712a4.74 4.74 0 0 0 1.793 2.539 5.5 5.5 0 0 0 3.3.936 7.019 7.019 0 0 0 4.1-1.254 6.375 6.375 0 0 0 2.475-3.11q.667-1.856.667-9.093v-14.219h8.909v33.706z"/><path d="m580.575 155.327h-8.918v-33.706h8.283v4.792a14.4 14.4 0 0 1 3.825-4.474 7.035 7.035 0 0 1 3.856-1.079 11.318 11.318 0 0 1 5.872 1.682l-2.762 7.776a7.828 7.828 0 0 0 -4.189-1.46 4.946 4.946 0 0 0 -3.174 1.031 7.053 7.053 0 0 0 -2.047 3.729q-.747 2.7-.746 11.3z"/><path d="m595.27 138a18.215 18.215 0 0 1 2.19-8.6 15.011 15.011 0 0 1 6.2-6.348 18.4 18.4 0 0 1 8.966-2.19 16.835 16.835 0 0 1 12.537 4.966 17.167 17.167 0 0 1 4.888 12.553 17.368 17.368 0 0 1 -4.936 12.68 16.682 16.682 0 0 1 -12.425 5.03 19.569 19.569 0 0 1 -8.84-2.095 14.36 14.36 0 0 1 -6.394-6.141 20.449 20.449 0 0 1 -2.186-9.855zm9.14.476q0 5.016 2.38 7.682a7.782 7.782 0 0 0 11.728 0q2.364-2.667 2.364-7.745 0-4.95-2.364-7.617a7.782 7.782 0 0 0 -11.728 0q-2.379 2.665-2.38 7.678z"/><path d="m636.784 121.621h8.316v4.952a12.447 12.447 0 0 1 4.38-4.126 12.068 12.068 0 0 1 6.125-1.587 12.849 12.849 0 0 1 9.966 4.6q4.095 4.6 4.095 12.822 0 8.442-4.127 13.123a12.85 12.85 0 0 1 -10 4.682 11.35 11.35 0 0 1 -5.062-1.111 17.038 17.038 0 0 1 -4.777-3.809v16.983h-8.918zm8.822 16.283q0 5.68 2.254 8.394a6.891 6.891 0 0 0 5.491 2.713 6.443 6.443 0 0 0 5.173-2.491q2.063-2.49 2.063-8.173 0-5.3-2.126-7.871a6.581 6.581 0 0 0 -5.269-2.57 6.84 6.84 0 0 0 -5.427 2.523q-2.158 2.523-2.159 7.471z"/><path d="m696.262 144.6 8.886 1.491a14.571 14.571 0 0 1 -5.411 7.443 15.9 15.9 0 0 1 -9.252 2.555q-8.791 0-13.012-5.744a19.3 19.3 0 0 1 -3.333-11.617q0-8.379 4.381-13.123a14.422 14.422 0 0 1 11.079-4.745q7.521 0 11.87 4.966t4.157 15.219h-22.347a9.029 9.029 0 0 0 2.158 6.173 6.752 6.752 0 0 0 5.143 2.206 5.46 5.46 0 0 0 3.523-1.143 7.06 7.06 0 0 0 2.158-3.681zm.508-9.014a8.6 8.6 0 0 0 -2-5.888 6.437 6.437 0 0 0 -9.459.112 8.229 8.229 0 0 0 -1.873 5.776z"/><path d="m721.62 121.621v32.66q0 6.441-.841 9.092a7.374 7.374 0 0 1 -3.237 4.142 11.394 11.394 0 0 1 -6.11 1.492 18.941 18.941 0 0 1 -2.872-.238 31.5 31.5 0 0 1 -3.317-.715l1.556-7.617c.423.085.819.153 1.189.207a7.314 7.314 0 0 0 1.032.079 3.935 3.935 0 0 0 2.238-.587 2.83 2.83 0 0 0 1.158-1.412 23.181 23.181 0 0 0 .285-4.951v-32.152zm-8.919-4.57v-8.251h8.919v8.252z"/><path d="m727.81 145.71 8.95-1.364a6.553 6.553 0 0 0 2.317 3.951 7.822 7.822 0 0 0 4.887 1.349 8.816 8.816 0 0 0 5.2-1.27 2.832 2.832 0 0 0 1.175-2.38 2.345 2.345 0 0 0 -.635-1.682 7.113 7.113 0 0 0 -2.983-1.174q-10.793-2.38-13.68-4.348a8.683 8.683 0 0 1 -4-7.586 9.345 9.345 0 0 1 3.459-7.363q3.458-2.982 10.727-2.983 6.919 0 10.284 2.253a11.517 11.517 0 0 1 4.633 6.666l-8.41 1.554a5.207 5.207 0 0 0 -2.048-3.015 7.484 7.484 0 0 0 -4.3-1.047 9.686 9.686 0 0 0 -5.047.984 2.11 2.11 0 0 0 -1.016 1.809 1.973 1.973 0 0 0 .889 1.619q1.2.888 8.331 2.507t9.95 3.967a8.247 8.247 0 0 1 2.793 6.633 10.185 10.185 0 0 1 -3.872 7.967q-3.873 3.332-11.458 3.332-6.886 0-10.9-2.793a12.864 12.864 0 0 1 -5.246-7.586z"/><path d="m766.783 155.327v-46.527h8.917v24.692l10.443-11.87h10.98l-11.523 12.314 12.347 21.391h-9.617l-8.475-15.138-4.157 4.347v10.791z"/><path d="m809.915 131.905-8.093-1.46a12.608 12.608 0 0 1 4.7-7.237q3.332-2.347 9.9-2.348 5.966 0 8.887 1.412a8.869 8.869 0 0 1 4.11 3.587q1.19 2.174 1.189 7.982l-.094 10.41a36.12 36.12 0 0 0 .428 6.554 19.122 19.122 0 0 0 1.6 4.522h-8.823q-.351-.887-.858-2.634c-.147-.529-.254-.877-.316-1.047a16.069 16.069 0 0 1 -4.889 3.332 13.986 13.986 0 0 1 -5.554 1.111q-5.205 0-8.2-2.824a9.391 9.391 0 0 1 -3-7.142 9.572 9.572 0 0 1 1.366-5.093 8.9 8.9 0 0 1 3.824-3.428 29.824 29.824 0 0 1 7.094-2.079 48.6 48.6 0 0 0 8.664-2.19v-.888a4.613 4.613 0 0 0 -1.27-3.666q-1.269-1.1-4.792-1.1a6.386 6.386 0 0 0 -3.714.936 6.522 6.522 0 0 0 -2.159 3.29zm11.934 7.236a55.535 55.535 0 0 1 -5.427 1.364 16.345 16.345 0 0 0 -4.857 1.556 3.719 3.719 0 0 0 -1.745 3.141 4.374 4.374 0 0 0 1.4 3.239 4.875 4.875 0 0 0 3.554 1.364 7.722 7.722 0 0 0 4.6-1.587 5.6 5.6 0 0 0 2.126-2.951 17.656 17.656 0 0 0 .349-4.349zm8.665 16.186a6.209 6.209 0 0 0 -1.1 1.032 7.053 7.053 0 0 0 -.842 1.254 6.934 6.934 0 0 0 -.539 1.348 4.893 4.893 0 0 0 -.19 1.318 2.777 2.777 0 0 0 .555 1.761 2.211 2.211 0 0 0 1.857.714 4.7 4.7 0 0 0 1.285-.206c.476-.138.926-.269 1.349-.4v5.3a11.35 11.35 0 0 1 -4.792 1.27 8.983 8.983 0 0 1 -3.08-.476 6.261 6.261 0 0 1 -2.173-1.3 5.251 5.251 0 0 1 -1.3-1.92 6.343 6.343 0 0 1 -.429-2.333 7.912 7.912 0 0 1 1.11-3.84 12.11 12.11 0 0 1 2.985-3.524z"/></g></svg>