<svg height="36.5404" viewBox="0 0 97.9282 36.5404" width="97.9282" xmlns="http://www.w3.org/2000/svg"><path d="m18.273 36.54-18.273-3.425v-27.406l18.273-5.709z" fill="#164193"/><path d="m.0025 26.5284v-7.1152a3.5675 3.5675 0 0 0 2.6186-.0394 21.4271 21.4271 0 0 0 3.7112-3.5755s-1.1786 2.9067-.7338 3.9739c.47 1.1329 3.2623 1.1938 3.2623 1.1938a46.1974 46.1974 0 0 0 -4.6262 3.1919c-1.5109 1.2974-2.56 6.0678-2.56 6.0678s-.7326-3.0575-1.6721-3.6973" fill="#ffec00"/><path d="m18.2728 13.9758a5.7268 5.7268 0 0 1 -1.7186.8023c-1.4682.2832-3.04-1.4031-3.04-1.4031a7.0994 7.0994 0 0 1 -.5542 3.985c-.9722 1.6009-4.0991 3.6057-4.0991 3.6057s3.4562-.6688 4.1282.403c.7148 1.15.81 5.154.81 5.154s1.7609-4.8073 3.359-5.4627a9.919 9.919 0 0 1 1.1147-.3723z" fill="#e20613"/><path d="m6.3325 15.7984s1.7659-2.7673 1.6591-3.7521c-.1046-.935-1.9362-1.2721-1.9362-1.2721a10.2006 10.2006 0 0 0 3.4438-1.5292 10.7043 10.7043 0 0 0 1.8908-2.793s.223 1.56 1.12 1.783c.9258.233 3.399-.7655 3.399-.7655a34.9414 34.9414 0 0 0 -2.7187 2.8548c-.8 1.0507.324 3.0505.324 3.0505a8.5667 8.5667 0 0 0 -3.2312-.5042c-1.1412.2165-3.9508 2.9278-3.9508 2.9278" fill="#fff"/><g fill="#1d1d1b"><path d="m27.4025 13.7021v-6.8528h4.3313v1.058h-3.0854v1.75h2.7392v1.058h-2.7392v2.9864z"/><path d="m36.7574 13.4352q-.3463.0888-.9.183a7.2883 7.2883 0 0 1 -1.2163.0938 2.6793 2.6793 0 0 1 -1.0433-.178 1.6713 1.6713 0 0 1 -.6723-.4943 1.9462 1.9462 0 0 1 -.3612-.7565 4.01 4.01 0 0 1 -.1087-.9642v-2.8975h1.1967v2.71a2.1866 2.1866 0 0 0 .2421 1.1867.9487.9487 0 0 0 .8456.3558q.2173 0 .46-.02a2.4491 2.4491 0 0 0 .3609-.0494v-4.1831h1.1965z"/><path d="m38.221 8.6984a8.1028 8.1028 0 0 1 .9-.1879 7.761 7.761 0 0 1 1.2262-.089 2.8227 2.8227 0 0 1 1.058.173 1.6514 1.6514 0 0 1 .6775.4847 1.8513 1.8513 0 0 1 .356.7516 4.1976 4.1976 0 0 1 .1038.964v2.9073h-1.1966v-2.7192a3.9433 3.9433 0 0 0 -.0544-.7072 1.2527 1.2527 0 0 0 -.178-.4746.7126.7126 0 0 0 -.3362-.2671 1.4192 1.4192 0 0 0 -.5191-.084 3.9617 3.9617 0 0 0 -.4748.03c-.1649.02-.2866.0362-.3659.0494v4.173h-1.1965z"/><path d="m48.3172 13.4252a7.0491 7.0491 0 0 1 -.8949.1979 6.9559 6.9559 0 0 1 -1.1322.0889 3.0144 3.0144 0 0 1 -1.0976-.1879 2.2838 2.2838 0 0 1 -.8257-.5389 2.3712 2.3712 0 0 1 -.5242-.85 3.246 3.246 0 0 1 -.1829-1.1226 3.7778 3.7778 0 0 1 .1532-1.1126 2.4336 2.4336 0 0 1 .45-.8554 2.0043 2.0043 0 0 1 .7219-.5488 2.3466 2.3466 0 0 1 .9792-.193 2.2384 2.2384 0 0 1 .6624.0892 2.9672 2.9672 0 0 1 .4946.1976v-1.5427l1.1962-.1976zm-3.4311-2.4423a1.8781 1.8781 0 0 0 .3757 1.2409 1.2788 1.2788 0 0 0 1.0381.45 4.134 4.134 0 0 0 .49-.0245 3.2774 3.2774 0 0 0 .3313-.0545v-2.9668a1.8731 1.8731 0 0 0 -.4212-.2028 1.6451 1.6451 0 0 0 -.5586-.0938 1.0707 1.0707 0 0 0 -.9544.4449 2.1228 2.1228 0 0 0 -.3009 1.2066z"/><path d="m54.023 13.4352q-.3458.0888-.9.183a7.2879 7.2879 0 0 1 -1.2164.0938 2.6785 2.6785 0 0 1 -1.0432-.178 1.672 1.672 0 0 1 -.6723-.4943 1.9406 1.9406 0 0 1 -.3612-.7565 4.0256 4.0256 0 0 1 -.1086-.9642v-2.8975h1.1963v2.71a2.1843 2.1843 0 0 0 .2424 1.1867.9488.9488 0 0 0 .8454.3558c.1452 0 .2982-.0065.46-.02a2.4465 2.4465 0 0 0 .3611-.0494v-4.1831h1.1965z"/><path d="m56.7823 12.7232a1.5752 1.5752 0 0 0 .6919-.1137.4036.4036 0 0 0 .2176-.3906.5067.5067 0 0 0 -.2325-.4253 3.43 3.43 0 0 0 -.7663-.3659 6.012 6.012 0 0 1 -.598-.2521 2.0372 2.0372 0 0 1 -.47-.3116 1.2727 1.2727 0 0 1 -.3112-.43 1.4979 1.4979 0 0 1 -.1138-.6182 1.3473 1.3473 0 0 1 .524-1.1223 2.2518 2.2518 0 0 1 1.4241-.41 4.3923 4.3923 0 0 1 .87.084 4.2268 4.2268 0 0 1 .6227.1632l-.2175.9689a2.944 2.944 0 0 0 -.5043-.163 3.04 3.04 0 0 0 -.7121-.0741 1.2406 1.2406 0 0 0 -.5932.1235.4063.4063 0 0 0 -.2274.3808.55.55 0 0 0 .0445.2274.4882.4882 0 0 0 .1534.1829 1.5638 1.5638 0 0 0 .2868.1682 4.3963 4.3963 0 0 0 .435.173 6.6775 6.6775 0 0 1 .7219.3114 1.9544 1.9544 0 0 1 .4894.3462 1.185 1.185 0 0 1 .2821.44 1.766 1.766 0 0 1 .0889.5934 1.2782 1.2782 0 0 1 -.5488 1.1224 2.734 2.734 0 0 1 -1.5677.3806 4.2865 4.2865 0 0 1 -1.0975-.1137 5.6427 5.6427 0 0 1 -.5834-.1829l.2077-.9989a5.3313 5.3313 0 0 0 .6376.2078 3.2855 3.2855 0 0 0 .8461.0986z"/><path d="m63.5655 9.3709q-.1983.2077-.5192.5834t-.6873.8356q-.3665.46-.7368.9593t-.6676.9541h2.67v.9988h-4.1134v-.7421a9.3417 9.3417 0 0 1 .5437-.86q.3262-.4647.6723-.9345t.6873-.895q.3416-.4251.6081-.7417h-2.3826v-.9988h3.926z"/><path d="m64.2181 11.0224a3.2456 3.2456 0 0 1 .2027-1.1967 2.5085 2.5085 0 0 1 .5392-.8557 2.2256 2.2256 0 0 1 .7714-.5143 2.3888 2.3888 0 0 1 .89-.1729 2.1318 2.1318 0 0 1 1.6664.6624 2.8692 2.8692 0 0 1 .598 1.9778q0 .0988-.0047.2225c-.0036.0826-.0083.1568-.015.2225h-3.4119a1.3626 1.3626 0 0 0 .44.9642 1.673 1.673 0 0 0 1.1326.341 3.7126 3.7126 0 0 0 .7958-.079 3.272 3.272 0 0 0 .5685-.168l.1585.9789a1.9108 1.9108 0 0 1 -.2722.1039 3.8107 3.8107 0 0 1 -.3954.0987q-.2224.0447-.48.0742a4.5679 4.5679 0 0 1 -.5244.03 3.1725 3.1725 0 0 1 -1.1865-.2026 2.2073 2.2073 0 0 1 -.8305-.5637 2.3044 2.3044 0 0 1 -.4846-.8505 3.4742 3.4742 0 0 1 -.1579-1.0727zm3.4709-.5341a1.5773 1.5773 0 0 0 -.0692-.47 1.1334 1.1334 0 0 0 -.203-.3857.96.96 0 0 0 -.3261-.2571 1.0418 1.0418 0 0 0 -.46-.094 1.07 1.07 0 0 0 -.4846.1039 1.1028 1.1028 0 0 0 -.3509.272 1.2458 1.2458 0 0 0 -.2227.3855 2.09 2.09 0 0 0 -.1086.4451z"/><path d="m27.4025 22.8373v-6.8529h4.4005v1.058h-3.1546v1.6911h2.8084v1.0383h-2.8084v2.0075h3.3916v1.058z"/><path d="m37.1528 22.57q-.3465.0888-.9.1829a7.2785 7.2785 0 0 1 -1.2164.0939 2.68 2.68 0 0 1 -1.0433-.1781 1.6709 1.6709 0 0 1 -.6723-.4942 1.9472 1.9472 0 0 1 -.3611-.7566 4.0087 4.0087 0 0 1 -.1088-.9641v-2.8972h1.1967v2.71a2.1864 2.1864 0 0 0 .2424 1.1864.9485.9485 0 0 0 .8455.3558q.2175 0 .46-.02a2.4676 2.4676 0 0 0 .361-.0493v-4.1829h1.1965z"/><path d="m41.5633 18.7433a3.862 3.862 0 0 0 -.41-.1037 3.0255 3.0255 0 0 0 -.6082-.0545 2.4212 2.4212 0 0 0 -.42.04 2.4936 2.4936 0 0 0 -.3116.0692v4.1434h-1.1971v-4.9251a6.5976 6.5976 0 0 1 .8653-.2421 5.4012 5.4012 0 0 1 1.152-.1139q.1187 0 .277.015c.1054.01.2108.0232.3164.04s.2075.0364.3065.0594.178.0445.2374.0641z"/><path d="m47.2193 20.118a3.3358 3.3358 0 0 1 -.1778 1.1174 2.4672 2.4672 0 0 1 -.5044.86 2.2588 2.2588 0 0 1 -.7859.5539 2.5373 2.5373 0 0 1 -1.0135.1977 2.5007 2.5007 0 0 1 -1.0088-.1977 2.2782 2.2782 0 0 1 -.7813-.5539 2.5347 2.5347 0 0 1 -.5092-.86 3.2562 3.2562 0 0 1 -.183-1.1174 3.2145 3.2145 0 0 1 .183-1.1125 2.502 2.502 0 0 1 .5144-.8555 2.265 2.265 0 0 1 .786-.5487 2.5311 2.5311 0 0 1 .9989-.193 2.5644 2.5644 0 0 1 1.0032.193 2.212 2.212 0 0 1 .7868.5487 2.5535 2.5535 0 0 1 .5091.8555 3.2169 3.2169 0 0 1 .1825 1.1125zm-1.2258 0a2.017 2.017 0 0 0 -.3312-1.2213 1.1751 1.1751 0 0 0 -1.8494 0 2.0177 2.0177 0 0 0 -.3312 1.2213 2.059 2.059 0 0 0 .3312 1.2361 1.1676 1.1676 0 0 0 1.8494 0 2.0583 2.0583 0 0 0 .3312-1.2361z"/><path d="m53.0541 20.2563a3.6746 3.6746 0 0 1 -.153 1.0879 2.5361 2.5361 0 0 1 -.44.85 1.9549 1.9549 0 0 1 -.7171.5539 2.3051 2.3051 0 0 1 -.974.1977 2.4086 2.4086 0 0 1 -.6724-.0889 2.5163 2.5163 0 0 1 -.5043-.1979v2.0075h-1.1966v-6.8329q.3652-.0985.9-.1879a6.8467 6.8467 0 0 1 1.1275-.0891 3.0159 3.0159 0 0 1 1.0975.1881 2.2859 2.2859 0 0 1 .8258.5389 2.3767 2.3767 0 0 1 .524.85 3.248 3.248 0 0 1 .1826 1.1227zm-1.2262.02a1.93 1.93 0 0 0 -.3608-1.2461 1.4109 1.4109 0 0 0 -1.162-.445q-.1683 0-.3509.0148a1.9485 1.9485 0 0 0 -.3612.0643v2.9567a1.8512 1.8512 0 0 0 .42.2028 1.6431 1.6431 0 0 0 .5591.0938 1.07 1.07 0 0 0 .9539-.4449 2.102 2.102 0 0 0 .3019-1.1965z"/><path d="m53.9443 20.1575a3.2484 3.2484 0 0 1 .2026-1.1967 2.5077 2.5077 0 0 1 .539-.8552 2.2259 2.2259 0 0 1 .7714-.5144 2.39 2.39 0 0 1 .89-.1729 2.1317 2.1317 0 0 1 1.6664.6625 2.869 2.869 0 0 1 .5979 1.9778q0 .0989-.0047.2225c-.0035.0826-.0083.1567-.015.2224h-3.4119a1.3621 1.3621 0 0 0 .44.9642 1.6729 1.6729 0 0 0 1.1325.3411 3.7127 3.7127 0 0 0 .7959-.0791 3.2689 3.2689 0 0 0 .5684-.1679l.1586.9789a1.9081 1.9081 0 0 1 -.2723.1039 3.8275 3.8275 0 0 1 -.3953.0987q-.2225.0445-.48.0742a4.5661 4.5661 0 0 1 -.5243.03 3.1721 3.1721 0 0 1 -1.1865-.2026 2.2067 2.2067 0 0 1 -.8305-.5638 2.3036 2.3036 0 0 1 -.4846-.8505 3.47 3.47 0 0 1 -.1576-1.0731zm3.4709-.534a1.5768 1.5768 0 0 0 -.0692-.47 1.1325 1.1325 0 0 0 -.203-.3857.9571.9571 0 0 0 -.3261-.2571 1.0421 1.0421 0 0 0 -.46-.094 1.0711 1.0711 0 0 0 -.4846.1038 1.1046 1.1046 0 0 0 -.351.272 1.2481 1.2481 0 0 0 -.2226.3856 2.0887 2.0887 0 0 0 -.1086.4451z"/><path d="m59.1552 24.6766c-.0858 0-.2058-.0082-.3607-.0247a1.6081 1.6081 0 0 1 -.41-.0939l.1582-.9789a1.7466 1.7466 0 0 0 .524.069.66.66 0 0 0 .5834-.2421 1.28 1.28 0 0 0 .1684-.7268v-5.0136h1.1963v5.0332a2.0477 2.0477 0 0 1 -.48 1.4934 1.8576 1.8576 0 0 1 -1.3796.4844zm1.9878-8.524a.6867.6867 0 0 1 -.2175.5338.7386.7386 0 0 1 -.5142.1979.75.75 0 0 1 -.524-.1979.685.685 0 0 1 -.2176-.5338.6979.6979 0 0 1 .2176-.544.751.751 0 0 1 .524-.1978.7394.7394 0 0 1 .5142.1978.7.7 0 0 1 .2175.544z"/><path d="m63.7736 21.8584a1.5757 1.5757 0 0 0 .692-.1137.4037.4037 0 0 0 .2175-.3906.5064.5064 0 0 0 -.2324-.4253 3.4264 3.4264 0 0 0 -.7664-.3659 6.01 6.01 0 0 1 -.5979-.2521 2.0414 2.0414 0 0 1 -.47-.3116 1.2721 1.2721 0 0 1 -.3112-.43 1.4974 1.4974 0 0 1 -.1137-.618 1.3473 1.3473 0 0 1 .524-1.1223 2.2518 2.2518 0 0 1 1.4241-.41 4.4 4.4 0 0 1 .87.084 4.2408 4.2408 0 0 1 .6227.1633l-.2176.9689a2.9207 2.9207 0 0 0 -.5043-.163 3.0387 3.0387 0 0 0 -.712-.0742 1.2418 1.2418 0 0 0 -.5932.1235.4064.4064 0 0 0 -.2274.3808.5512.5512 0 0 0 .0444.2274.4876.4876 0 0 0 .1534.1829 1.5615 1.5615 0 0 0 .2868.1682 4.3972 4.3972 0 0 0 .4351.1731 6.6577 6.6577 0 0 1 .7219.3114 1.9511 1.9511 0 0 1 .4894.3462 1.1827 1.1827 0 0 1 .282.44 1.766 1.766 0 0 1 .0889.5934 1.2784 1.2784 0 0 1 -.5487 1.1224 2.7342 2.7342 0 0 1 -1.5677.3806 4.2873 4.2873 0 0 1 -1.0976-.1137 5.6848 5.6848 0 0 1 -.5834-.1829l.2077-.9989a5.3406 5.3406 0 0 0 .6377.2077 3.285 3.285 0 0 0 .8459.0984z"/><path d="m68.134 19.6827q.2271-.2372.4847-.5092t.5043-.5439q.2472-.2717.47-.524t.3808-.44h1.4138q-.4944.5538-1.0432 1.1469t-1.1026 1.1575a6.9387 6.9387 0 0 1 .6227.5983q.3264.3512.633.7467t.5736.7911a8.2 8.2 0 0 1 .4449.7317h-1.3844q-.1782-.3062-.41-.6428t-.5-.6526q-.2667-.3163-.5437-.5984a4.6813 4.6813 0 0 0 -.544-.48v2.3733h-1.1962v-6.6552l1.1963-.1977z"/><path d="m73.6619 16.1526a.6867.6867 0 0 1 -.2175.5338.7386.7386 0 0 1 -.5142.1979.75.75 0 0 1 -.524-.1979.6853.6853 0 0 1 -.2175-.5338.6982.6982 0 0 1 .2175-.544.7512.7512 0 0 1 .524-.1978.7394.7394 0 0 1 .5142.1978.7.7 0 0 1 .2175.544zm-.1286 6.6847h-1.1963v-5.1717h1.1963z"/><path d="m74.71 20.1575a3.2484 3.2484 0 0 1 .2026-1.1967 2.5077 2.5077 0 0 1 .539-.8552 2.2259 2.2259 0 0 1 .7714-.5144 2.39 2.39 0 0 1 .89-.1729 2.1317 2.1317 0 0 1 1.6664.6625 2.869 2.869 0 0 1 .5979 1.9778q0 .0989-.0047.2225c-.0035.0826-.0083.1567-.015.2224h-3.4112a1.3617 1.3617 0 0 0 .44.9642 1.6729 1.6729 0 0 0 1.1325.3411 3.7127 3.7127 0 0 0 .7959-.0791 3.2689 3.2689 0 0 0 .5684-.1679l.1586.9789a1.9081 1.9081 0 0 1 -.2723.1039 3.8275 3.8275 0 0 1 -.3953.0987q-.2224.0445-.48.0742a4.5661 4.5661 0 0 1 -.5243.03 3.1721 3.1721 0 0 1 -1.1865-.2026 2.2067 2.2067 0 0 1 -.8305-.5638 2.3036 2.3036 0 0 1 -.4846-.8505 3.47 3.47 0 0 1 -.1583-1.0731zm3.4709-.534a1.5768 1.5768 0 0 0 -.0692-.47 1.1325 1.1325 0 0 0 -.203-.3857.9571.9571 0 0 0 -.3261-.2571 1.0421 1.0421 0 0 0 -.46-.094 1.0711 1.0711 0 0 0 -.4846.1038 1.1046 1.1046 0 0 0 -.351.272 1.2481 1.2481 0 0 0 -.2226.3856 2.0887 2.0887 0 0 0 -.1086.4451z"/><path d="m29.8837 28.9117q-.2742.8745-.5549 1.6184t-.5612 1.4487h-.633q-.346-.9984-.61-2.1078t-.4927-2.4147h.6656q.0914.509.1892 1.0181t.2024.9886q.1041.48.2087.9168t.2154.8094q.2612-.6853.5547-1.5043t.5482-1.6936h.5482q.2545.875.5547 1.6936t.5613 1.5043q.1042-.3655.2087-.8027t.2055-.917q.1013-.4794.1991-.9919t.1892-1.0213h.6462q-.2349 1.3053-.4993 2.4147t-.6036 2.1078h-.633q-.2874-.7049-.5611-1.4487t-.5483-1.6184z"/><path d="m33.701 27.9719a.39.39 0 0 1 -.2774-.1076.4267.4267 0 0 1 0-.5809.4107.4107 0 0 1 .5547 0 .4262.4262 0 0 1 0 .5809.39.39 0 0 1 -.2773.1076zm.3068 4.0069h-.607v-3.3934h.607z"/><path d="m34.83 30.21a2.1619 2.1619 0 0 1 .1306-.7864 1.64 1.64 0 0 1 .3458-.558 1.4081 1.4081 0 0 1 .4961-.3329 1.5488 1.5488 0 0 1 .5741-.1109 1.3071 1.3071 0 0 1 1.0508.4274 1.9673 1.9673 0 0 1 .3654 1.302v.1013a.9747.9747 0 0 1 -.0065.1141h-2.3234a1.2416 1.2416 0 0 0 .3069.8027 1.1224 1.1224 0 0 0 .8352.274 2.2164 2.2164 0 0 0 .5385-.0555 1.9309 1.9309 0 0 0 .3295-.1076l.0848.509a1.8022 1.8022 0 0 1 -.3883.124 2.7541 2.7541 0 0 1 -.63.0653 2 2 0 0 1 -.767-.1338 1.4277 1.4277 0 0 1 -.5318-.3688 1.503 1.503 0 0 1 -.31-.5578 2.3583 2.3583 0 0 1 -.1007-.7081zm2.33-.3328a1.018 1.018 0 0 0 -.2055-.6755.7076.7076 0 0 0 -.584-.2644.8019.8019 0 0 0 -.3688.0817.8686.8686 0 0 0 -.2706.212.9736.9736 0 0 0 -.1731.3 1.4777 1.4777 0 0 0 -.0815.346z"/><path d="m40.8272 26.9408.6069-.1045v4.9663q-.209.0586-.5351.1174a4.2773 4.2773 0 0 1 -.7505.0588 1.9006 1.9006 0 0 1 -.7048-.124 1.5051 1.5051 0 0 1 -.535-.3524 1.5523 1.5523 0 0 1 -.3427-.558 2.1382 2.1382 0 0 1 -.1208-.7406 2.4138 2.4138 0 0 1 .1012-.7179 1.6069 1.6069 0 0 1 .297-.5612 1.3509 1.3509 0 0 1 .4795-.3655 1.5414 1.5414 0 0 1 .65-.1306 1.5738 1.5738 0 0 1 .5187.0785 1.6231 1.6231 0 0 1 .3361.15zm0 2.284a1.2578 1.2578 0 0 0 -.32-.1762 1.2034 1.2034 0 0 0 -.4567-.0848.978.978 0 0 0 -.4471.0946.8228.8228 0 0 0 -.3035.261 1.1 1.1 0 0 0 -.17.3948 2.1839 2.1839 0 0 0 -.0523.49 1.3157 1.3157 0 0 0 .2937.9168 1.0071 1.0071 0 0 0 .7833.323 3.1164 3.1164 0 0 0 .4142-.0228 1.9434 1.9434 0 0 0 .2578-.049z"/><path d="m44.6967 29.0421q-.1369.15-.3619.4243t-.483.6068q-.2578.3329-.5155.6983t-.4536.6982h1.8667v.5091h-2.5911v-.4046q.1566-.2871.3851-.633t.48-.6884q.2512-.3429.4895-.6462t.4145-.5122h-1.6774v-.509h2.4469z"/><path d="m46.583 28.4353a1.76 1.76 0 0 1 .617.0947 1.0024 1.0024 0 0 1 .4044.2675 1.0142 1.0142 0 0 1 .2187.4111 1.9949 1.9949 0 0 1 .0653.5254v2.1209c-.0523.0087-.125.0207-.2187.0359s-.199.0293-.3163.0425-.2451.0249-.3819.0357-.2731.0164-.408.0164a2.2342 2.2342 0 0 1 -.5283-.0586 1.18 1.18 0 0 1 -.4178-.1861.8493.8493 0 0 1 -.2742-.3362 1.1743 1.1743 0 0 1 -.098-.5023.9649.9649 0 0 1 .1145-.4829.9076.9076 0 0 1 .31-.3264 1.4326 1.4326 0 0 1 .4567-.1827 2.4916 2.4916 0 0 1 .5481-.0588c.0609 0 .1239.0034.1892.01s.1274.0154.186.0262.11.0206.1535.0293.0739.0154.0912.02v-.1695a1.3756 1.3756 0 0 0 -.0326-.2971.6826.6826 0 0 0 -.1172-.261.595.595 0 0 0 -.2318-.1827.9094.9094 0 0 0 -.382-.0685 2.8822 2.8822 0 0 0 -.5253.0419 1.8716 1.8716 0 0 0 -.336.0881l-.072-.5023a1.8679 1.8679 0 0 1 .3915-.1013 3.3971 3.3971 0 0 1 .594-.0492zm.0523 3.0409q.2154 0 .3816-.01a1.6723 1.6723 0 0 0 .2773-.036v-1.011a.7717.7717 0 0 0 -.212-.0555 2.3476 2.3476 0 0 0 -.3556-.023 2.3051 2.3051 0 0 0 -.29.02.8927.8927 0 0 0 -.2808.0816.6037.6037 0 0 0 -.2121.1695.4455.4455 0 0 0 -.0845.2841.4864.4864 0 0 0 .2088.4534 1.0846 1.0846 0 0 0 .5673.1269z"/><path d="m50.3745 31.9788v-4.5225h2.76v.5417h-2.127v1.3442h1.8925v.5288h-1.8925v1.5661h2.29v.5417z"/><path d="m56.1106 26.9408.6069-.1045v4.9663q-.2088.0586-.5354.1174a4.2761 4.2761 0 0 1 -.75.0588 1.9007 1.9007 0 0 1 -.7049-.124 1.5051 1.5051 0 0 1 -.535-.3524 1.5537 1.5537 0 0 1 -.3427-.558 2.1382 2.1382 0 0 1 -.1207-.7406 2.42 2.42 0 0 1 .1011-.7179 1.602 1.602 0 0 1 .297-.5612 1.3526 1.3526 0 0 1 .48-.3655 1.54 1.54 0 0 1 .6495-.1306 1.5767 1.5767 0 0 1 .5189.0785 1.6294 1.6294 0 0 1 .336.15zm0 2.284a1.26 1.26 0 0 0 -.32-.1762 1.2038 1.2038 0 0 0 -.4567-.0848.9766.9766 0 0 0 -.4469.0946.82.82 0 0 0 -.3037.261 1.1 1.1 0 0 0 -.1695.3948 2.178 2.178 0 0 0 -.0524.49 1.3148 1.3148 0 0 0 .2939.9168 1.0059 1.0059 0 0 0 .7828.323 3.1235 3.1235 0 0 0 .4147-.0228 1.9446 1.9446 0 0 0 .2577-.049z"/><path d="m60.4312 31.809q-.2089.0525-.5516.111a4.74 4.74 0 0 1 -.7927.0588 1.6773 1.6773 0 0 1 -.6593-.1143 1.0634 1.0634 0 0 1 -.4307-.323 1.3164 1.3164 0 0 1 -.2349-.4927 2.5615 2.5615 0 0 1 -.0716-.63v-1.9052h.6066v1.775a1.5379 1.5379 0 0 0 .1959.8875.7625.7625 0 0 0 .659.2675c.0653 0 .1329-.002.2026-.0065s.1345-.01.1955-.0163.1164-.013.1664-.02a.497.497 0 0 0 .1078-.0228v-2.8644h.607z"/><path d="m62.67 30.1123a4.0614 4.0614 0 0 1 .4142.372q.219.2221.4308.48t.4012.522a5.7707 5.7707 0 0 1 .32.4928h-.7113a5.3626 5.3626 0 0 0 -.3167-.4666q-.1793-.2381-.3749-.4569a5.4551 5.4551 0 0 0 -.3981-.4013 3.6252 3.6252 0 0 0 -.3851-.3066v1.6314h-.607v-4.96l.607-.1044v3.0932l.3458-.3458q.1895-.1891.3721-.3852t.3458-.375q.1629-.1794.28-.3165h.7113q-.15.1632-.3262.3588t-.3654.3949q-.1895.1992-.382.3979t-.3615.3753z"/><path d="m65.9127 28.4353a1.76 1.76 0 0 1 .6168.0946 1.0031 1.0031 0 0 1 .4044.2675 1.0156 1.0156 0 0 1 .2188.4111 1.9991 1.9991 0 0 1 .0653.5254v2.1209c-.0524.0087-.1251.0207-.2188.0359s-.199.0293-.3162.0425-.2451.0249-.382.0357-.273.0164-.408.0164a2.2348 2.2348 0 0 1 -.5283-.0586 1.18 1.18 0 0 1 -.4178-.1861.8493.8493 0 0 1 -.2742-.3362 1.1744 1.1744 0 0 1 -.0979-.5023.9638.9638 0 0 1 .1145-.4829.9064.9064 0 0 1 .31-.3264 1.4322 1.4322 0 0 1 .4568-.1827 2.49 2.49 0 0 1 .5479-.0588c.061 0 .124.0034.1893.01s.1275.0154.1861.0262.11.0206.1534.0293.0739.0154.0912.02v-.1695a1.3694 1.3694 0 0 0 -.0326-.2971.6841.6841 0 0 0 -.1172-.261.595.595 0 0 0 -.2318-.1827.9089.9089 0 0 0 -.3819-.0685 2.8826 2.8826 0 0 0 -.5253.042 1.8716 1.8716 0 0 0 -.336.0881l-.0719-.5023a1.8648 1.8648 0 0 1 .3914-.1013 3.3979 3.3979 0 0 1 .594-.0492zm.0523 3.0409q.2154 0 .3816-.01a1.6723 1.6723 0 0 0 .2773-.036v-1.011a.77.77 0 0 0 -.212-.0555 2.3467 2.3467 0 0 0 -.3556-.023 2.3036 2.3036 0 0 0 -.29.02.8941.8941 0 0 0 -.2809.0816.6046.6046 0 0 0 -.2121.1695.4455.4455 0 0 0 -.0845.2841.4862.4862 0 0 0 .2089.4534 1.084 1.084 0 0 0 .5673.1269z"/><path d="m69.6649 31.9853a1.8462 1.8462 0 0 1 -.7211-.13 1.4512 1.4512 0 0 1 -.522-.3654 1.5143 1.5143 0 0 1 -.3167-.558 2.312 2.312 0 0 1 -.1043-.7146 2.1665 2.1665 0 0 1 .1141-.7178 1.6967 1.6967 0 0 1 .323-.5645 1.4462 1.4462 0 0 1 .5126-.3719 1.6536 1.6536 0 0 1 .6754-.134 2.7178 2.7178 0 0 1 .4567.0391 2.1091 2.1091 0 0 1 .4371.1242l-.1369.5155a1.4615 1.4615 0 0 0 -.3167-.1044 1.778 1.778 0 0 0 -.3815-.0392.9643.9643 0 0 0 -.78.32 1.4092 1.4092 0 0 0 -.271.9332 1.9119 1.9119 0 0 0 .0622.5025 1.0384 1.0384 0 0 0 .1955.3915.8736.8736 0 0 0 .3426.2513 1.31 1.31 0 0 0 .5091.0881 1.9274 1.9274 0 0 0 .4374-.0458 1.5919 1.5919 0 0 0 .3064-.0977l.085.509a.65.65 0 0 1 -.15.062 2.0971 2.0971 0 0 1 -.2218.0516c-.0826.0154-.1708.0283-.264.0391a2.3465 2.3465 0 0 1 -.2711.0162z"/><path d="m70.6373 33.1991a1.3547 1.3547 0 0 1 -.2022-.02 1.0524 1.0524 0 0 1 -.2089-.0523l.0783-.4959a1.1623 1.1623 0 0 0 .15.0327 1.0436 1.0436 0 0 0 .1566.013.5057.5057 0 0 0 .4469-.1926.9867.9867 0 0 0 .1337-.5645v-3.3341h.607v3.3281a1.3748 1.3748 0 0 1 -.297.9691 1.1285 1.1285 0 0 1 -.8644.3165zm.8549-5.2272a.3909.3909 0 0 1 -.2774-.1076.427.427 0 0 1 0-.5809.4107.4107 0 0 1 .5547 0 .4256.4256 0 0 1 0 .5809.39.39 0 0 1 -.2773.1076z"/><path d="m73.9068 28.4353a1.7607 1.7607 0 0 1 .6169.0946 1.0031 1.0031 0 0 1 .4044.2675 1.0154 1.0154 0 0 1 .2187.4111 1.9949 1.9949 0 0 1 .0653.5254v2.1209q-.0785.013-.2187.0359t-.3163.0425q-.1764.0194-.382.0357t-.4079.0164a2.235 2.235 0 0 1 -.5284-.0586 1.1813 1.1813 0 0 1 -.4178-.1861.849.849 0 0 1 -.2741-.3362 1.1743 1.1743 0 0 1 -.098-.5023.9638.9638 0 0 1 .1145-.4829.9067.9067 0 0 1 .31-.3264 1.4317 1.4317 0 0 1 .4566-.1828 2.4906 2.4906 0 0 1 .548-.0588c.061 0 .1239.0034.1892.01s.1275.0154.1861.0262.11.0206.1534.0293.074.0154.0913.02v-.1695a1.37 1.37 0 0 0 -.0327-.2971.6826.6826 0 0 0 -.1172-.261.5954.5954 0 0 0 -.2317-.1827.91.91 0 0 0 -.382-.0685 2.8826 2.8826 0 0 0 -.5251.0421 1.87 1.87 0 0 0 -.3359.0881l-.072-.5023a1.8683 1.8683 0 0 1 .3914-.1013 3.3979 3.3979 0 0 1 .594-.0492zm.0523 3.0409q.2154 0 .3817-.01a1.6737 1.6737 0 0 0 .2773-.036v-1.011a.7717.7717 0 0 0 -.212-.0555 2.3481 2.3481 0 0 0 -.3557-.023 2.3036 2.3036 0 0 0 -.29.02.8941.8941 0 0 0 -.2809.0816.6033.6033 0 0 0 -.212.1695.4449.4449 0 0 0 -.0846.2841.4862.4862 0 0 0 .2089.4534 1.0842 1.0842 0 0 0 .5673.1269z"/><path d="m79.91 30.0862q.1044.1306.2644.3426t.33.47q.1693.2578.336.5384a5.4923 5.4923 0 0 1 .284.5417h-.692q-.13-.2478-.2836-.5026t-.31-.486q-.1571-.2316-.31-.4341t-.2773-.3523c-.0567.0043-.1145.0065-.1731.0065h-.7471v1.7685h-.633v-4.4573a3.594 3.594 0 0 1 .5972-.0881q.3293-.0227.6035-.0228a2.471 2.471 0 0 1 1.452.3588 1.233 1.233 0 0 1 .4992 1.07 1.2546 1.2546 0 0 1 -.238.77 1.4044 1.4044 0 0 1 -.7022.4767zm-.9591-2.1208q-.4049 0-.62.02v1.7033h.45a4.76 4.76 0 0 0 .5873-.0326 1.3355 1.3355 0 0 0 .4406-.1241.6622.6622 0 0 0 .2773-.2577.8635.8635 0 0 0 .098-.4406.838.838 0 0 0 -.098-.4241.7247.7247 0 0 0 -.2643-.2675 1.1568 1.1568 0 0 0 -.3915-.1371 2.7994 2.7994 0 0 0 -.479-.0396z"/><path d="m84.7263 30.2038a2.15 2.15 0 0 1 -.1172.7309 1.6738 1.6738 0 0 1 -.33.5612 1.4469 1.4469 0 0 1 -.5059.3621 1.67 1.67 0 0 1 -1.2789 0 1.4505 1.4505 0 0 1 -.5059-.3621 1.6713 1.6713 0 0 1 -.3293-.5612 2.32 2.32 0 0 1 0-1.4587 1.6674 1.6674 0 0 1 .3293-.5643 1.4472 1.4472 0 0 1 .5059-.3623 1.67 1.67 0 0 1 1.2789 0 1.4436 1.4436 0 0 1 .5059.3623 1.67 1.67 0 0 1 .33.5643 2.1588 2.1588 0 0 1 .1172.7278zm-.633 0a1.46 1.46 0 0 0 -.2576-.9105.9006.9006 0 0 0 -1.4033 0 1.737 1.737 0 0 0 0 1.8208.9.9 0 0 0 1.4033 0 1.4594 1.4594 0 0 0 .2576-.9103z"/><path d="m87.6693 29.0421q-.1369.15-.362.4243t-.4831.6068q-.2577.3329-.5157.6983t-.4532.6982h1.8663v.5091h-2.5909v-.4046q.157-.2871.3851-.633t.48-.6884q.2514-.3429.4893-.6462t.4147-.5122h-1.6778v-.509h2.4473z"/><path d="m91.2322 31.9788q-.1824-.47-.3883-1.0736t-.3753-1.2561q-.1693.6526-.3717 1.2561t-.3851 1.0736h-.5288q-.3-.6722-.5873-1.5337t-.5413-1.86h.6523q.0654.3068.1569.6656t.1924.7177q.1008.3591.212.6918t.2089.5809q.111-.3066.2187-.6493t.2054-.6918q.098-.3491.186-.6853t.1535-.63h.5024q.0589.2935.1435.63t.183.6853q.0979.349.2053.6918t.2187.6493q.098-.2479.2054-.5809t.2124-.6918q.1038-.3586.1955-.7177t.1566-.6656h.6267q-.2544.9984-.5417 1.86t-.5874 1.5337z"/><path d="m96.4136 30.2038a2.15 2.15 0 0 1 -.1172.7309 1.6755 1.6755 0 0 1 -.33.5612 1.4478 1.4478 0 0 1 -.5059.3621 1.67 1.67 0 0 1 -1.2789 0 1.45 1.45 0 0 1 -.5059-.3621 1.6713 1.6713 0 0 1 -.3293-.5612 2.32 2.32 0 0 1 0-1.4587 1.6674 1.6674 0 0 1 .3293-.5643 1.4463 1.4463 0 0 1 .5059-.3623 1.67 1.67 0 0 1 1.2789 0 1.4445 1.4445 0 0 1 .5059.3623 1.6715 1.6715 0 0 1 .33.5643 2.1588 2.1588 0 0 1 .1172.7278zm-.633 0a1.4611 1.4611 0 0 0 -.2576-.9105.9006.9006 0 0 0 -1.4033 0 1.737 1.737 0 0 0 0 1.8208.9.9 0 0 0 1.4033 0 1.46 1.46 0 0 0 .2576-.9103zm-.17-2.904-.92.894-.3068-.274.8355-1.0051z"/><path d="m96.6815 33.1991a1.3547 1.3547 0 0 1 -.2022-.02 1.0524 1.0524 0 0 1 -.2089-.0523l.0783-.4959a1.1643 1.1643 0 0 0 .15.0327 1.0436 1.0436 0 0 0 .1566.013.5057.5057 0 0 0 .4469-.1926.9867.9867 0 0 0 .1338-.5645v-3.3341h.607v3.3281a1.3753 1.3753 0 0 1 -.297.9691 1.1288 1.1288 0 0 1 -.8645.3165zm.8548-5.2272a.3908.3908 0 0 1 -.2773-.1076.4267.4267 0 0 1 0-.5809.4107.4107 0 0 1 .5547 0 .4256.4256 0 0 1 0 .5809.39.39 0 0 1 -.2774.1076z"/></g></svg>