<?xml version="1.0" encoding="UTF-8"?>
<svg width="208px" height="171px" viewBox="0 0 208 171" version="1.1" xmlns="http://www.w3.org/2000/svg" xmlns:xlink="http://www.w3.org/1999/xlink">
    <!-- Generator: Sketch 60 (88103) - https://sketch.com -->
    <title>ffw_logo_base</title>
    <desc>Created with Sketch.</desc>
    <g id="Page-1" stroke="none" stroke-width="1" fill="none" fill-rule="evenodd">
        <g id="ffw_logo_base" fill-rule="nonzero">
            <g id="Group" fill="#61C2AB">
                <polygon id="Path" points="49.289697 0.378181818 0.126060606 0.378181818 0.126060606 35.1078788 0.126060606 49.4787879 0.126060606 84.2715152 24.7078788 59.689697 49.289697 35.1078788 14.4969697 35.1078788 24.7078788 24.8969697"></polygon>
                <polygon id="Path" points="112.004848 0.378181818 62.8412121 0.378181818 62.8412121 35.1078788 62.8412121 49.4787879 62.8412121 84.2715152 87.4230303 59.689697 112.004848 35.1078788 77.2121212 35.1078788 87.4230303 24.8969697"></polygon>
                <polygon id="Path" points="172.072727 35.1078788 158.521212 35.1078788 122.909091 35.1078788 122.909091 84.2715152 147.490909 59.689697 158.521212 48.6593939 158.521212 84.2715152 183.10303 59.689697 207.684848 35.1078788"></polygon>
            </g>
            <g id="Group" transform="translate(0.000000, 100.848485)" fill="#000000">
                <polygon id="Path" points="4.41212121 9.64363636 9.83272727 9.64363636 9.83272727 7.37454545 4.41212121 7.37454545 4.41212121 3.46666667 10.0848485 3.46666667 10.0848485 1.19757576 1.95393939 1.19757576 1.95393939 17.3963636 4.41212121 17.3963636"></polygon>
                <path d="M18.8460606,17.6484848 C20.6109091,17.6484848 22.0606061,17.0181818 23.2581818,15.8206061 C24.329697,14.6860606 24.8339394,13.2993939 24.8339394,11.5975758 L24.8339394,1.19757576 L22.3757576,1.19757576 L22.3757576,10.9672727 C22.3757576,12.3539394 22.1236364,13.4254545 21.6824242,13.9927273 C20.9890909,14.9381818 20.0436364,15.3793939 18.7830303,15.3793939 C17.5224242,15.3793939 16.5769697,14.9381818 15.9466667,13.9927273 C15.5054545,13.3624242 15.2533333,12.3539394 15.2533333,10.9672727 L15.2533333,1.19757576 L12.7951515,1.19757576 L12.7951515,11.5975758 C12.7951515,13.2993939 13.2993939,14.6860606 14.3709091,15.8206061 C15.6945455,17.0812121 17.1442424,17.6484848 18.8460606,17.6484848 Z" id="Path"></path>
                <polygon id="Path" points="31.2 6.05090909 42.9866667 18.3418182 42.9866667 1.19757576 40.5284848 1.19757576 40.5284848 12.4169697 28.7418182 0.126060606 28.7418182 17.3963636 31.2 17.3963636"></polygon>
                <path d="M54.0169697,16.8921212 C54.9624242,16.5769697 55.9078788,16.0727273 56.790303,15.3163636 C58.5551515,13.8036364 59.3745455,11.7866667 59.3745455,9.26545455 C59.3745455,6.80727273 58.5551515,4.79030303 56.8533333,3.27757576 C56.0339394,2.52121212 55.0884848,2.0169697 54.08,1.70181818 C53.1345455,1.38666667 51.8739394,1.19757576 50.2351515,1.19757576 L46.8315152,1.19757576 L46.8315152,17.3963636 L50.1721212,17.3963636 C51.8739394,17.3963636 53.1345455,17.2072727 54.0169697,16.8921212 Z M49.289697,3.46666667 L50.4242424,3.46666667 C52.5042424,3.46666667 54.08,3.97090909 55.1515152,4.91636364 C56.3490909,6.05090909 56.9163636,7.43757576 56.9163636,9.20242424 C56.9163636,10.9672727 56.2860606,12.4169697 55.0884848,13.4884848 C54.5212121,13.9927273 53.8278788,14.4339394 53.1345455,14.6230303 C52.3781818,14.8751515 51.4957576,14.9381818 50.4242424,14.9381818 L49.3527273,14.9381818 L49.3527273,3.46666667 L49.289697,3.46666667 Z" id="Shape"></path>
                <path d="M59.8157576,17.3963636 L62.4630303,17.3963636 L64.2909091,13.4884848 L71.2242424,13.4884848 L72.9260606,17.3963636 L75.5733333,17.3963636 L67.8206061,0.189090909 L59.8157576,17.3963636 Z M65.2363636,11.1563636 L67.7575758,5.67272727 L70.1527273,11.1563636 L65.2363636,11.1563636 Z" id="Shape"></path>
                <path d="M84.3345455,17.6484848 C85.8472727,17.6484848 87.36,17.270303 88.7466667,16.4509091 L88.7466667,13.4884848 C88.3684848,13.8036364 87.990303,14.1187879 87.6121212,14.3709091 C87.2339394,14.6230303 86.9187879,14.8121212 86.5406061,14.9381818 C85.910303,15.190303 85.2169697,15.3793939 84.3345455,15.3793939 C82.6957576,15.3793939 81.2460606,14.8121212 80.1115152,13.6145455 C78.9769697,12.4169697 78.409697,11.030303 78.409697,9.32848485 C78.409697,7.62666667 78.9769697,6.1769697 80.1115152,4.97939394 C81.2460606,3.78181818 82.6327273,3.21454545 84.3345455,3.21454545 C85.8472727,3.21454545 87.2969697,3.78181818 88.6836364,4.97939394 L88.6836364,2.08 C87.2969697,1.26060606 85.910303,0.882424242 84.4606061,0.882424242 C81.8133333,0.882424242 79.6072727,1.89090909 77.9684848,3.84484848 C76.5818182,5.48363636 75.9515152,7.31151515 75.9515152,9.32848485 C75.9515152,11.5975758 76.7709091,13.6145455 78.409697,15.190303 C80.0484848,16.8290909 82.0024242,17.6484848 84.3345455,17.6484848 Z" id="Path"></path>
                <path d="M95.5539394,16.1987879 C95.9951515,15.6945455 96.2472727,15.1272727 96.4363636,14.4339394 C96.6254545,13.8036364 96.6884848,12.8581818 96.6884848,11.6606061 L96.6884848,1.19757576 L94.230303,1.19757576 L94.230303,11.6606061 C94.230303,13.0472727 94.1042424,13.9927273 93.7890909,14.56 C93.5369697,15.1272727 93.0327273,15.3793939 92.2763636,15.3793939 C91.7721212,15.3793939 91.2048485,15.190303 90.6375758,14.8121212 L89.44,16.8921212 C90.3224242,17.3963636 91.2678788,17.7115152 92.2763636,17.7115152 C93.6630303,17.6484848 94.7975758,17.2072727 95.5539394,16.1987879 Z" id="Path"></path>
                <path d="M102.613333,13.4254545 L109.546667,13.4254545 L111.248485,17.3333333 L113.895758,17.3333333 L106.14303,0.126060606 L98.1381818,17.3333333 L100.785455,17.3333333 L102.613333,13.4254545 Z M106.14303,5.67272727 L108.538182,11.1563636 L103.621818,11.1563636 L106.14303,5.67272727 Z" id="Shape"></path>
                <polygon id="Path" points="4.41212121 35.4230303 9.83272727 35.4230303 9.83272727 33.1539394 4.41212121 33.1539394 4.41212121 29.2460606 10.0848485 29.2460606 10.0848485 26.9139394 1.95393939 26.9139394 1.95393939 43.1127273 4.41212121 43.1127273"></polygon>
                <path d="M24.8969697,26.9139394 L22.4387879,26.9139394 L22.4387879,36.6836364 C22.4387879,38.070303 22.1866667,39.1418182 21.7454545,39.7090909 C21.0521212,40.6545455 20.1066667,41.0957576 18.8460606,41.0957576 C17.5854545,41.0957576 16.64,40.6545455 16.009697,39.7090909 C15.5684848,39.0787879 15.3163636,38.070303 15.3163636,36.6836364 L15.3163636,26.9139394 L12.8581818,26.9139394 L12.8581818,37.3139394 C12.8581818,39.0157576 13.3624242,40.4024242 14.4339394,41.5369697 C15.6315152,42.7975758 17.0812121,43.3648485 18.8460606,43.3648485 C20.6109091,43.3648485 22.0606061,42.7345455 23.2581818,41.5369697 C24.329697,40.4024242 24.8339394,39.0157576 24.8339394,37.3139394 L24.8339394,26.9139394 L24.8969697,26.9139394 Z" id="Path"></path>
                <polygon id="Path" points="31.2 31.7672727 42.9866667 44.1212121 42.9866667 26.9139394 40.5284848 26.9139394 40.5284848 38.1963636 28.7418182 25.8424242 28.7418182 43.1127273 31.2 43.1127273"></polygon>
                <path d="M54.0169697,42.6715152 C54.9624242,42.3563636 55.9078788,41.8521212 56.790303,41.0957576 C58.5551515,39.5830303 59.3745455,37.5660606 59.3745455,35.0448485 C59.3745455,32.5866667 58.5551515,30.569697 56.8533333,29.0569697 C56.0339394,28.3006061 55.0884848,27.7963636 54.08,27.4812121 C53.1345455,27.1660606 51.8739394,26.9769697 50.2351515,26.9769697 L46.8315152,26.9769697 L46.8315152,43.1757576 L50.1721212,43.1757576 C51.8739394,43.1127273 53.1345455,42.9866667 54.0169697,42.6715152 Z M49.289697,29.2460606 L50.4242424,29.2460606 C52.5042424,29.2460606 54.08,29.750303 55.1515152,30.6957576 C56.3490909,31.830303 56.9163636,33.2169697 56.9163636,34.9818182 C56.9163636,36.7466667 56.2860606,38.1963636 55.0884848,39.2678788 C54.5212121,39.7721212 53.8278788,40.2133333 53.1345455,40.4024242 C52.3781818,40.6545455 51.4957576,40.7175758 50.4242424,40.7175758 L49.3527273,40.7175758 L49.3527273,29.2460606 L49.289697,29.2460606 Z" id="Shape"></path>
                <path d="M62.4630303,26.9139394 L62.4630303,37.3139394 C62.4630303,39.0157576 62.9672727,40.4024242 64.0387879,41.5369697 C65.2363636,42.7975758 66.6860606,43.3648485 68.4509091,43.3648485 C70.2157576,43.3648485 71.6654545,42.7345455 72.8630303,41.5369697 C73.9345455,40.4024242 74.4387879,39.0157576 74.4387879,37.3139394 L74.4387879,26.9139394 L71.9806061,26.9139394 L71.9806061,36.6836364 C71.9806061,38.070303 71.7284848,39.1418182 71.2872727,39.7090909 C70.5939394,40.6545455 69.6484848,41.0957576 68.3878788,41.0957576 C67.1272727,41.0957576 66.1818182,40.6545455 65.5515152,39.7090909 C65.110303,39.0787879 64.8581818,38.070303 64.8581818,36.6836364 L64.8581818,26.9139394 L62.4630303,26.9139394 Z" id="Path"></path>
                <path d="M84.0824242,33.5321212 L82.4436364,32.9018182 C81.2460606,32.3975758 80.6787879,31.7672727 80.6787879,31.0109091 C80.6787879,30.4436364 80.9309091,29.9393939 81.3721212,29.5612121 C81.8133333,29.1830303 82.3806061,28.9939394 83.0739394,28.9939394 C83.6412121,28.9939394 84.0824242,29.12 84.3975758,29.3090909 C84.7127273,29.4981818 85.0909091,29.9393939 85.4690909,30.569697 L87.4230303,29.3721212 C86.3515152,27.5442424 84.9018182,26.6618182 83.0739394,26.6618182 C81.6872727,26.6618182 80.5527273,27.1030303 79.6072727,27.9224242 C78.6618182,28.7418182 78.2206061,29.750303 78.2206061,30.9478788 C78.2206061,32.7757576 79.3551515,34.0993939 81.5612121,35.0448485 L83.1369697,35.6751515 C83.5151515,35.8642424 83.8933333,36.0533333 84.2084848,36.2424242 C84.5236364,36.4315152 84.7127273,36.6206061 84.9018182,36.8727273 C85.0909091,37.1248485 85.2169697,37.3139394 85.28,37.5660606 C85.3430303,37.8181818 85.4060606,38.1333333 85.4060606,38.4484848 C85.4060606,39.2048485 85.1539394,39.8981818 84.649697,40.4024242 C84.1454545,40.9066667 83.5151515,41.1587879 82.7587879,41.1587879 C81.8133333,41.1587879 81.0569697,40.7806061 80.5527273,40.0872727 C80.3006061,39.7090909 80.0484848,39.0787879 79.9854545,38.1333333 L77.5272727,38.7006061 C77.7793939,40.2133333 78.2836364,41.3478788 79.2290909,42.230303 C80.1745455,43.049697 81.3090909,43.4909091 82.6957576,43.4909091 C84.1454545,43.4909091 85.4060606,42.9866667 86.4145455,42.0412121 C87.4230303,41.0957576 87.9272727,39.8351515 87.9272727,38.3224242 C87.9272727,37.1878788 87.6121212,36.3054545 87.0448485,35.4860606 C86.4775758,34.6666667 85.3430303,34.0363636 84.0824242,33.5321212 Z" id="Path"></path>
                <polygon id="Path" points="90.889697 26.9139394 90.889697 29.2460606 97.5078788 29.2460606 89.5660606 43.1127273 101.352727 43.1127273 101.352727 40.8436364 93.6 40.8436364 101.541818 26.9139394"></polygon>
                <polygon id="Path" points="15.6315152 63.4715152 11.4084848 51.8739394 6.99636364 63.4715152 2.77333333 52.6933333 0.126060606 52.6933333 6.99636364 69.9006061 11.3454545 58.4290909 15.5054545 69.9006061 22.7539394 52.6933333 20.1066667 52.6933333"></polygon>
                <path d="M30.1284848,59.2484848 L28.489697,58.6181818 C27.2921212,58.1139394 26.7248485,57.4836364 26.7248485,56.7272727 C26.7248485,56.16 26.9769697,55.6557576 27.4181818,55.2775758 C27.8593939,54.8993939 28.4266667,54.710303 29.12,54.710303 C29.6872727,54.710303 30.1284848,54.8363636 30.4436364,55.0254545 C30.7587879,55.2145455 31.1369697,55.6557576 31.5151515,56.2860606 L33.4690909,55.0884848 C32.3975758,53.2606061 30.9478788,52.3781818 29.12,52.3781818 C27.7333333,52.3781818 26.5987879,52.8193939 25.6533333,53.6387879 C24.7078788,54.4581818 24.2666667,55.4666667 24.2666667,56.6642424 C24.2666667,58.4921212 25.4012121,59.8157576 27.6072727,60.7612121 L29.1830303,61.3915152 C29.5612121,61.5806061 29.9393939,61.769697 30.2545455,61.9587879 C30.569697,62.1478788 30.7587879,62.3369697 30.9478788,62.5890909 C31.1369697,62.8412121 31.2630303,63.030303 31.3260606,63.2824242 C31.3890909,63.5345455 31.4521212,63.849697 31.4521212,64.1648485 C31.4521212,64.9212121 31.2,65.6145455 30.6957576,66.1187879 C30.1915152,66.6230303 29.5612121,66.8751515 28.8048485,66.8751515 C27.8593939,66.8751515 27.1030303,66.4969697 26.5987879,65.8036364 C26.3466667,65.4254545 26.0945455,64.7951515 26.0315152,63.849697 L23.5733333,64.4169697 C23.8254545,65.929697 24.329697,67.0642424 25.2751515,67.9466667 C26.2206061,68.7660606 27.3551515,69.2072727 28.7418182,69.2072727 C30.1915152,69.2072727 31.4521212,68.7030303 32.4606061,67.7575758 C33.4690909,66.8121212 33.9733333,65.5515152 33.9733333,64.0387879 C33.9733333,62.9042424 33.6581818,62.0218182 33.0909091,61.2024242 C32.3975758,60.4460606 31.3890909,59.7527273 30.1284848,59.2484848 Z" id="Path"></path>
                <path d="M42.6715152,52.9454545 C41.9781818,52.7563636 40.969697,52.6933333 39.5830303,52.6933333 L36.809697,52.6933333 L36.809697,68.8921212 L39.2678788,68.8921212 L39.2678788,62.3369697 L40.4024242,62.3369697 C42.1042424,62.3369697 43.4278788,61.8957576 44.4363636,61.0133333 C45.4448485,60.1309091 45.9490909,58.9963636 45.9490909,57.4836364 C45.9490909,56.0969697 45.5078788,54.9624242 44.5624242,54.0169697 C43.9951515,53.5127273 43.3648485,53.1345455 42.6715152,52.9454545 Z M40.2133333,60.0048485 L39.3309091,60.0048485 L39.3309091,54.8993939 L40.150303,54.8993939 C42.4824242,54.8993939 43.6169697,55.7187879 43.6169697,57.4206061 C43.5539394,59.1854545 42.4193939,60.0048485 40.2133333,60.0048485 Z" id="Shape"></path>
                <polygon id="Path" points="54.3321212 50.2351515 55.529697 51.2436364 59.8157576 48.3442424 57.7357576 46.8945455"></polygon>
                <path d="M56.0969697,52.3781818 C53.7648485,52.3781818 51.7478788,53.1975758 50.1090909,54.8363636 C48.470303,56.4751515 47.5878788,58.4290909 47.5878788,60.6981818 C47.5878788,63.2824242 48.5333333,65.3624242 50.3612121,67.0012121 C52,68.4509091 53.8909091,69.1442424 55.9709091,69.1442424 C58.3030303,69.1442424 60.32,68.3248485 62.0218182,66.6860606 C63.6606061,65.0472727 64.5430303,63.0933333 64.5430303,60.7612121 C64.5430303,58.4290909 63.7236364,56.4751515 62.0848485,54.8363636 C60.3830303,53.1975758 58.4290909,52.3781818 56.0969697,52.3781818 Z M60.32,65.110303 C59.1224242,66.3078788 57.7357576,66.8751515 56.0339394,66.8751515 C54.4581818,66.8751515 53.0715152,66.3078788 51.8739394,65.1733333 C50.6763636,64.0387879 50.0460606,62.5260606 50.0460606,60.7612121 C50.0460606,59.0593939 50.6133333,57.609697 51.8109091,56.4751515 C52.9454545,55.2775758 54.3951515,54.710303 56.0969697,54.710303 C57.7987879,54.710303 59.1854545,55.2775758 60.32,56.4751515 C61.4545455,57.6727273 62.0218182,59.0593939 62.0218182,60.8242424 C62.0848485,62.4630303 61.5175758,63.9127273 60.32,65.110303 Z" id="Shape"></path>
                <polygon id="Path" points="70.0266667 61.2654545 73.1781818 59.1854545 73.1781818 56.790303 70.0266667 58.870303 70.0266667 52.6933333 67.6315152 52.6933333 67.6315152 60.1309091 66.0557576 61.2024242 66.0557576 63.5975758 67.6315152 62.5890909 67.6315152 68.8921212 74.8169697 68.8921212 74.8169697 66.56 70.0266667 66.56"></polygon>
                <path d="M82.9478788,52.9454545 C82.2545455,52.7563636 81.2460606,52.6933333 79.8593939,52.6933333 L77.0860606,52.6933333 L77.0860606,68.8921212 L79.5442424,68.8921212 L79.5442424,62.3369697 L80.6787879,62.3369697 C82.3806061,62.3369697 83.7042424,61.8957576 84.7127273,61.0133333 C85.7212121,60.1309091 86.2254545,58.9963636 86.2254545,57.4836364 C86.2254545,56.0969697 85.7842424,54.9624242 84.8387879,54.0169697 C84.2715152,53.5127273 83.6412121,53.1345455 82.9478788,52.9454545 Z M80.489697,60.0048485 L79.6072727,60.0048485 L79.6072727,54.8993939 L80.4266667,54.8993939 C82.7587879,54.8993939 83.8933333,55.7187879 83.8933333,57.4206061 C83.830303,59.1854545 82.6957576,60.0048485 80.489697,60.0048485 Z" id="Shape"></path>
                <path d="M96.7515152,60.3830303 C97.3818182,59.5636364 97.76,58.5551515 97.76,57.4206061 C97.76,55.9709091 97.2557576,54.7733333 96.1842424,53.8909091 C95.2387879,53.0715152 93.6630303,52.6933333 91.5830303,52.6933333 L88.7466667,52.6933333 L88.7466667,68.8921212 L91.2048485,68.8921212 L91.2048485,62.2739394 L91.6460606,62.2739394 L96.2472727,68.8921212 L99.209697,68.8921212 L94.230303,62.0218182 C95.2387879,61.769697 96.1212121,61.2024242 96.7515152,60.3830303 Z M91.1418182,60.1309091 L91.1418182,55.0254545 L92.0242424,55.0254545 C94.2933333,55.0254545 95.4278788,55.8448485 95.4278788,57.4836364 C95.4278788,59.2484848 94.2933333,60.1309091 91.9612121,60.1309091 L91.1418182,60.1309091 Z" id="Shape"></path>
                <path d="M99.7769697,68.8921212 L102.424242,68.8921212 L104.252121,64.9842424 L111.185455,64.9842424 L112.887273,68.8921212 L115.534545,68.8921212 L107.781818,51.6848485 L99.7769697,68.8921212 Z M105.197576,62.6521212 L107.718788,57.1684848 L110.113939,62.6521212 L105.197576,62.6521212 Z" id="Shape"></path>
                <path d="M117.992727,55.3406061 C116.606061,56.9793939 115.975758,58.8072727 115.975758,60.8242424 C115.975758,63.0933333 116.795152,65.110303 118.433939,66.6860606 C120.072727,68.3248485 122.026667,69.0812121 124.358788,69.0812121 C125.871515,69.0812121 127.384242,68.7030303 128.770909,67.8836364 L128.770909,64.9212121 C128.392727,65.2363636 128.014545,65.5515152 127.636364,65.8036364 C127.258182,66.0557576 126.94303,66.2448485 126.564848,66.3709091 C125.934545,66.6230303 125.241212,66.8121212 124.358788,66.8121212 C122.72,66.8121212 121.270303,66.2448485 120.135758,65.0472727 C119.001212,63.849697 118.433939,62.4630303 118.433939,60.7612121 C118.433939,59.0593939 119.001212,57.609697 120.135758,56.4121212 C121.270303,55.2145455 122.65697,54.6472727 124.358788,54.6472727 C125.871515,54.6472727 127.321212,55.2145455 128.707879,56.4121212 L128.707879,53.5757576 C127.321212,52.7563636 125.934545,52.3781818 124.484848,52.3781818 C121.837576,52.3781818 119.694545,53.3866667 117.992727,55.3406061 Z" id="Path"></path>
                <polygon id="Path" points="139.990303 52.6933333 136.271515 59.1854545 132.615758 52.6933333 129.779394 52.6933333 135.073939 61.8957576 135.073939 68.8921212 137.532121 68.8921212 137.532121 61.8957576 142.826667 52.6933333"></polygon>
            </g>
        </g>
    </g>
</svg>