<svg xmlns="http://www.w3.org/2000/svg" xmlns:xlink="http://www.w3.org/1999/xlink" viewBox="0 0 335.57 390.45"><defs><style>.cls-1{fill:none;}.cls-2{clip-path:url(#clip-path);}.cls-3{clip-path:url(#clip-path-2);}.cls-4{fill:url(#Gradient_bez_nazwy_4);}.cls-5{clip-path:url(#clip-path-3);}.cls-6{fill:url(#Gradient_bez_nazwy_4-2);}.cls-7{clip-path:url(#clip-path-4);}.cls-8{fill:url(#Gradient_bez_nazwy_4-3);}.cls-9{clip-path:url(#clip-path-5);}.cls-10{fill:url(#Gradient_bez_nazwy_4-4);}.cls-11{fill:#003d7c;}</style><clipPath id="clip-path" transform="translate(-126.78 -213.11)"><rect class="cls-1" x="-3.08" y="-12.61" width="595.28" height="841.89"/></clipPath><clipPath id="clip-path-2" transform="translate(-126.78 -213.11)"><polygon class="cls-1" points="285.6 401.02 285.7 400.74 318.24 301.08 262.73 301.08 265.97 317.66 293.8 317.66 293.7 317.95 259.98 418.67 320.05 418.67 316.11 401.02 285.6 401.02"/></clipPath><radialGradient id="Gradient_bez_nazwy_4" cx="-0.01" cy="-3.05" r="1" gradientTransform="matrix(272.27, 0, 0, -272.27, 82.62, -776.56)" gradientUnits="userSpaceOnUse"><stop offset="0" stop-color="#83d0f5"/><stop offset="0.15" stop-color="#21a5df"/><stop offset="0.33" stop-color="#1278bc"/><stop offset="0.5" stop-color="#05509d"/><stop offset="1" stop-color="#1f284c"/></radialGradient><clipPath id="clip-path-3" transform="translate(-126.78 -213.11)"><path class="cls-1" d="M232,344.44h.21l8.88,0a8.69,8.69,0,0,1,8.47,8.45c0,4.52-4,8.81-8.47,8.81l-8.88,0H232ZM213.92,330.9l2,13.51v43.64h16V374.34h.21l10.31,0c11.73,0,21.57-10.15,21.57-21.87a21.83,21.83,0,0,0-21.57-21.59Z"/></clipPath><radialGradient id="Gradient_bez_nazwy_4-2" cx="-0.01" cy="-3.07" r="1" gradientTransform="matrix(270.11, 0, 0, -270.11, 83.83, -776.57)" xlink:href="#Gradient_bez_nazwy_4"/><clipPath id="clip-path-4" transform="translate(-126.78 -213.11)"><path class="cls-1" d="M354.41,332.18c0,2.61,0,32.21,0,32.64a9.33,9.33,0,1,1-18.66,0c0-.45,0-32.15,0-35.26l-16.19,2.62v31.88a25.51,25.51,0,1,0,51,0v-34.5Z"/></clipPath><radialGradient id="Gradient_bez_nazwy_4-3" cx="-0.01" cy="-3.07" r="1" gradientTransform="matrix(270.56, 0, 0, -270.56, 83.82, -777.13)" xlink:href="#Gradient_bez_nazwy_4"/><clipPath id="clip-path-5" transform="translate(-126.78 -213.11)"><path class="cls-1" d="M189.73,359.39A103.25,103.25,0,0,1,292.61,256.53h0c56.6.1,102.74,46.25,102.86,102.86-.12,56.62-46.26,102.77-102.86,102.86A103.24,103.24,0,0,1,189.73,359.39m-43.42,0c0,80.64,65.63,146.25,146.3,146.25s146.25-65.61,146.26-146.25-65.62-146.29-146.26-146.3-146.3,65.65-146.3,146.3"/></clipPath><radialGradient id="Gradient_bez_nazwy_4-4" cx="-0.01" cy="-3.07" r="1" gradientTransform="matrix(270.1, 0, 0, -270.1, 83.82, -776.56)" xlink:href="#Gradient_bez_nazwy_4"/></defs><title>logo fundacja</title><g class="cls-2"><g class="cls-3"><rect class="cls-4" x="133.2" y="87.98" width="60.07" height="117.59"/></g><g class="cls-5"><rect class="cls-6" x="87.15" y="117.8" width="50.17" height="57.14"/></g><g class="cls-7"><rect class="cls-8" x="192.84" y="116.45" width="51.01" height="60.06"/></g><g class="cls-9"><rect class="cls-10" x="19.54" width="292.56" height="292.56"/></g><g class="cls-2"><polygon class="cls-11" points="9.43 350.15 9.43 362.02 28.49 362.02 28.49 370.44 9.43 370.44 9.43 390.04 0 390.04 0 341.74 31.82 341.74 31.82 350.15 9.43 350.15"/><path class="cls-11" d="M183.83,603.55c-9.91,0-17.78-6.71-17.78-17V554.84h9.43v31.41c0,5.57,3.26,8.89,8.35,8.89s8.41-3.32,8.41-8.89V554.84h9.36v31.75c0,10.25-7.87,17-17.77,17" transform="translate(-126.78 -213.11)"/><polygon class="cls-11" points="113.89 390.04 94.76 360.39 94.76 390.04 85.33 390.04 85.33 341.74 93.75 341.74 112.88 371.32 112.88 341.74 122.31 341.74 122.31 390.04 113.89 390.04"/><path class="cls-11" d="M290.53,598.53c-3.19,3.19-7.73,4.62-12.75,4.62H260.34v-48.3h17.44c5,0,9.56,1.42,12.75,4.61,5.43,5.43,4.89,12.07,4.89,19.33s.54,14.32-4.89,19.74M284,566.24c-1.63-2-3.8-3-7.05-3h-7.13v31.48h7.13c3.25,0,5.42-1,7.05-3,1.76-2.17,2-5.63,2-13s-.28-10.38-2-12.55" transform="translate(-126.78 -213.11)"/><path class="cls-11" d="M332.52,603.15l-2.85-8.55H312.51l-2.92,8.55h-9.84l17.57-48.31h7.4l17.64,48.31Zm-11.26-34.06-6.11,17.57h12Z" transform="translate(-126.78 -213.11)"/><path class="cls-11" d="M364.47,603.55a17.7,17.7,0,0,1-13-5.29,13.94,13.94,0,0,1-3.93-7.26,88.29,88.29,0,0,1,0-24,13.71,13.71,0,0,1,3.93-7.26,17.7,17.7,0,0,1,13-5.29c9.29,0,16.14,5.43,17.77,15.26h-9.57c-1-4.14-3.59-6.85-8.14-6.85a7.43,7.43,0,0,0-6,2.51c-2,2.1-2.38,4.27-2.38,13.64s.41,11.53,2.38,13.63a7.43,7.43,0,0,0,6,2.51c4.55,0,7.13-2.71,8.14-6.85h9.57c-1.63,9.84-8.55,15.26-17.77,15.26" transform="translate(-126.78 -213.11)"/><path class="cls-11" d="M397.36,603.55c-5.22,0-8.82-1.35-12.41-4.95l6.24-6.17a7.7,7.7,0,0,0,6.17,2.71c4.62,0,7.6-2.71,7.6-8.27v-32h9.43v32.43c0,10.65-8.07,16.28-17,16.28" transform="translate(-126.78 -213.11)"/><path class="cls-11" d="M452.51,603.15l-2.85-8.55H432.5l-2.92,8.55h-9.83l17.57-48.31h7.39l17.64,48.31Zm-11.26-34.06-6.1,17.57h12Z" transform="translate(-126.78 -213.11)"/></g></g></svg>