<svg data-name="Layer 1" xmlns="http://www.w3.org/2000/svg" width="213.911" height="90.709" viewBox="0 0 213.911 90.709"><path fill="#164193" d="M45.361 90.709L0 82.204V14.173L45.361 0v90.709z"/><path d="M.006 65.854V48.191c2.284.622 4.825.913 6.5-.097 3.665-2.186 9.214-8.876 9.214-8.876s-2.926 7.215-1.822 9.865c1.166 2.812 8.099 2.963 8.099 2.963a114.705 114.705 0 0 0-11.485 7.924c-3.75 3.22-6.355 15.063-6.355 15.063s-1.819-7.59-4.15-9.179" fill="#ffec00"/><path d="M45.36 34.694a14.215 14.215 0 0 1-4.266 1.991c-3.644.703-7.545-3.483-7.545-3.483s.916 6.122-1.377 9.893c-2.413 3.974-10.176 8.95-10.176 8.95s8.58-1.66 10.248 1.001c1.775 2.855 2.012 12.795 2.012 12.795s4.371-11.934 8.337-13.56a24.632 24.632 0 0 1 2.768-.925z" fill="#e20613"/><path d="M15.72 39.218s4.384-6.87 4.119-9.314c-.26-2.321-4.807-3.158-4.807-3.158s5.953-1.462 8.549-3.796c2.504-2.255 4.694-6.933 4.694-6.933s.554 3.87 2.78 4.426c2.299.578 8.438-1.9 8.438-1.9a86.685 86.685 0 0 0-6.749 7.086c-1.986 2.609.805 7.573.805 7.573s-5.144-1.79-8.021-1.252c-2.834.538-9.808 7.268-9.808 7.268" fill="#fff"/><path d="M68.03 34.016V17.004h10.75v2.626h-7.659v4.345h6.8v2.627h-6.8v7.414zm23.222-.663q-.86.22-2.234.454a18.09 18.09 0 0 1-3.02.233 6.652 6.652 0 0 1-2.59-.442 4.147 4.147 0 0 1-1.668-1.227 4.83 4.83 0 0 1-.896-1.878 9.955 9.955 0 0 1-.27-2.393v-7.193h2.97v6.726a5.427 5.427 0 0 0 .601 2.946 2.355 2.355 0 0 0 2.1.883q.54 0 1.141-.049a6.087 6.087 0 0 0 .896-.122V20.907h2.97zm3.633-11.759a20.048 20.048 0 0 1 2.234-.466 19.23 19.23 0 0 1 3.044-.221 7.003 7.003 0 0 1 2.626.43 4.098 4.098 0 0 1 1.682 1.203 4.592 4.592 0 0 1 .883 1.866 10.413 10.413 0 0 1 .258 2.393v7.217h-2.97v-6.75a9.758 9.758 0 0 0-.135-1.755 3.108 3.108 0 0 0-.442-1.179 1.77 1.77 0 0 0-.834-.663 3.525 3.525 0 0 0-1.289-.208 9.855 9.855 0 0 0-1.179.073q-.613.074-.908.123v10.359h-2.97zm25.062 11.734a17.509 17.509 0 0 1-2.22.491 17.272 17.272 0 0 1-2.811.221 7.481 7.481 0 0 1-2.725-.466 5.67 5.67 0 0 1-2.05-1.338 5.893 5.893 0 0 1-1.301-2.111 8.06 8.06 0 0 1-.454-2.787 9.38 9.38 0 0 1 .38-2.76 6.045 6.045 0 0 1 1.116-2.124 4.974 4.974 0 0 1 1.793-1.363 5.821 5.821 0 0 1 2.43-.479 5.555 5.555 0 0 1 1.645.221 7.377 7.377 0 0 1 1.228.491v-3.83l2.97-.49zm-8.517-6.063a4.657 4.657 0 0 0 .933 3.08 3.173 3.173 0 0 0 2.576 1.117 10.268 10.268 0 0 0 1.217-.06 8.086 8.086 0 0 0 .822-.136v-7.364a4.68 4.68 0 0 0-1.044-.504 4.076 4.076 0 0 0-1.387-.232 2.659 2.659 0 0 0-2.37 1.104 5.277 5.277 0 0 0-.747 2.995zm22.681 6.088q-.858.22-2.233.454a18.084 18.084 0 0 1-3.02.233 6.65 6.65 0 0 1-2.59-.442 4.15 4.15 0 0 1-1.668-1.227 4.817 4.817 0 0 1-.896-1.878 9.981 9.981 0 0 1-.27-2.393v-7.193h2.97v6.726a5.422 5.422 0 0 0 .601 2.946 2.355 2.355 0 0 0 2.099.883q.54 0 1.141-.049a6.078 6.078 0 0 0 .897-.122V20.907h2.97zm6.849-1.768a3.91 3.91 0 0 0 1.719-.282 1.002 1.002 0 0 0 .54-.97 1.257 1.257 0 0 0-.577-1.055 8.497 8.497 0 0 0-1.903-.909 14.96 14.96 0 0 1-1.484-.626 5.066 5.066 0 0 1-1.167-.773 3.16 3.16 0 0 1-.773-1.068 3.718 3.718 0 0 1-.282-1.534 3.344 3.344 0 0 1 1.3-2.786 5.59 5.59 0 0 1 3.536-1.019 10.907 10.907 0 0 1 2.16.209 10.509 10.509 0 0 1 1.546.405l-.54 2.405a7.268 7.268 0 0 0-1.252-.405 7.546 7.546 0 0 0-1.768-.184 3.083 3.083 0 0 0-1.472.307 1.01 1.01 0 0 0-.565.945 1.367 1.367 0 0 0 .11.565 1.21 1.21 0 0 0 .381.454 3.875 3.875 0 0 0 .712.417 10.944 10.944 0 0 0 1.08.43 16.557 16.557 0 0 1 1.792.773 4.853 4.853 0 0 1 1.215.86 2.941 2.941 0 0 1 .7 1.092 4.386 4.386 0 0 1 .22 1.473 3.173 3.173 0 0 1-1.362 2.786 6.787 6.787 0 0 1-3.891.945 10.643 10.643 0 0 1-2.725-.282 14.031 14.031 0 0 1-1.448-.454l.515-2.48a13.258 13.258 0 0 0 1.583.516 8.153 8.153 0 0 0 2.1.245zm16.84-8.321q-.491.515-1.288 1.448t-1.706 2.074q-.91 1.142-1.83 2.381-.92 1.24-1.657 2.37h6.63v2.479h-10.213v-1.842a23.23 23.23 0 0 1 1.35-2.135q.81-1.153 1.67-2.32t1.705-2.222q.848-1.055 1.51-1.841h-5.916v-2.479h9.746zm1.62 4.099a8.062 8.062 0 0 1 .504-2.97 6.228 6.228 0 0 1 1.338-2.124 5.525 5.525 0 0 1 1.915-1.276 5.93 5.93 0 0 1 2.209-.43 5.292 5.292 0 0 1 4.136 1.645 7.122 7.122 0 0 1 1.485 4.91q0 .245-.012.552a9.18 9.18 0 0 1-.037.552h-8.469a3.382 3.382 0 0 0 1.092 2.394 4.153 4.153 0 0 0 2.812.847 9.217 9.217 0 0 0 1.975-.197 8.137 8.137 0 0 0 1.411-.417l.394 2.43a4.753 4.753 0 0 1-.676.258 9.486 9.486 0 0 1-.981.245q-.553.111-1.19.185a11.307 11.307 0 0 1-1.302.073 7.875 7.875 0 0 1-2.946-.503 5.477 5.477 0 0 1-2.061-1.4 5.718 5.718 0 0 1-1.203-2.11 8.62 8.62 0 0 1-.393-2.664zm8.617-1.326a3.911 3.911 0 0 0-.172-1.166 2.813 2.813 0 0 0-.504-.957 2.378 2.378 0 0 0-.81-.638 2.587 2.587 0 0 0-1.141-.234 2.66 2.66 0 0 0-1.204.258 2.74 2.74 0 0 0-.87.675 3.094 3.094 0 0 0-.553.958 5.174 5.174 0 0 0-.27 1.104zM68.03 56.693V39.68h10.923v2.627h-7.83v4.197h6.97v2.578h-6.97v4.983h8.42v2.627zm24.203-.663q-.86.22-2.234.454a18.078 18.078 0 0 1-3.019.233 6.65 6.65 0 0 1-2.59-.442 4.147 4.147 0 0 1-1.669-1.227 4.83 4.83 0 0 1-.896-1.878 9.956 9.956 0 0 1-.27-2.393v-7.193h2.97v6.726a5.428 5.428 0 0 0 .601 2.946 2.355 2.355 0 0 0 2.1.884q.54 0 1.141-.05a6.086 6.086 0 0 0 .896-.122V43.584h2.97zm10.949-9.5a9.576 9.576 0 0 0-1.019-.257 7.514 7.514 0 0 0-1.51-.136 6.024 6.024 0 0 0-1.043.099 6.234 6.234 0 0 0-.774.172v10.285h-2.97V44.468a16.37 16.37 0 0 1 2.148-.601 13.41 13.41 0 0 1 2.86-.283q.295 0 .688.037t.785.098q.392.062.761.148t.59.159zm14.041 3.412a8.282 8.282 0 0 1-.442 2.774 6.145 6.145 0 0 1-1.252 2.136 5.623 5.623 0 0 1-1.95 1.375 6.304 6.304 0 0 1-2.517.49 6.207 6.207 0 0 1-2.504-.49 5.652 5.652 0 0 1-1.94-1.375 6.289 6.289 0 0 1-1.264-2.136 8.088 8.088 0 0 1-.454-2.774 7.983 7.983 0 0 1 .454-2.761 6.204 6.204 0 0 1 1.277-2.124 5.627 5.627 0 0 1 1.951-1.362 6.284 6.284 0 0 1 2.48-.48 6.373 6.373 0 0 1 2.491.48 5.481 5.481 0 0 1 1.952 1.362 6.32 6.32 0 0 1 1.264 2.124 7.983 7.983 0 0 1 .454 2.761zm-3.044 0a5.005 5.005 0 0 0-.823-3.031 2.916 2.916 0 0 0-4.59 0 5.009 5.009 0 0 0-.822 3.031 5.111 5.111 0 0 0 .822 3.069 2.898 2.898 0 0 0 4.59 0 5.107 5.107 0 0 0 .823-3.069zm17.527.344a9.115 9.115 0 0 1-.38 2.7 6.297 6.297 0 0 1-1.093 2.111 4.854 4.854 0 0 1-1.78 1.375 5.722 5.722 0 0 1-2.418.49 5.977 5.977 0 0 1-1.669-.22 6.24 6.24 0 0 1-1.252-.491v4.983h-2.97V44.271q.907-.244 2.234-.466a17.003 17.003 0 0 1 2.799-.221 7.488 7.488 0 0 1 2.724.467 5.68 5.68 0 0 1 2.05 1.338 5.897 5.897 0 0 1 1.301 2.111 8.06 8.06 0 0 1 .454 2.786zm-3.044.049a4.79 4.79 0 0 0-.895-3.093 3.503 3.503 0 0 0-2.885-1.105q-.418 0-.871.037a4.836 4.836 0 0 0-.897.16v7.34a4.58 4.58 0 0 0 1.043.503 4.074 4.074 0 0 0 1.388.233 2.656 2.656 0 0 0 2.368-1.104 5.218 5.218 0 0 0 .75-2.971zm5.254-.295a8.062 8.062 0 0 1 .503-2.97 6.23 6.23 0 0 1 1.338-2.123 5.526 5.526 0 0 1 1.915-1.277 5.929 5.929 0 0 1 2.209-.43 5.292 5.292 0 0 1 4.137 1.645 7.122 7.122 0 0 1 1.484 4.91q0 .245-.012.552c-.009.205-.02.39-.037.553h-8.469a3.381 3.381 0 0 0 1.092 2.393 4.153 4.153 0 0 0 2.812.847 9.21 9.21 0 0 0 1.975-.196 8.128 8.128 0 0 0 1.411-.417l.394 2.43a4.754 4.754 0 0 1-.676.257 9.454 9.454 0 0 1-.981.245q-.553.111-1.19.185a11.306 11.306 0 0 1-1.302.073 7.873 7.873 0 0 1-2.945-.503 5.477 5.477 0 0 1-2.062-1.399 5.72 5.72 0 0 1-1.203-2.111 8.621 8.621 0 0 1-.393-2.663zm8.616-1.325a3.913 3.913 0 0 0-.172-1.166 2.814 2.814 0 0 0-.504-.958 2.376 2.376 0 0 0-.81-.638 2.585 2.585 0 0 0-1.141-.233 2.658 2.658 0 0 0-1.203.258 2.74 2.74 0 0 0-.871.675 3.093 3.093 0 0 0-.553.957 5.181 5.181 0 0 0-.27 1.105zm4.32 12.544a8.77 8.77 0 0 1-.896-.062 3.975 3.975 0 0 1-1.018-.233l.392-2.43a4.333 4.333 0 0 0 1.3.172 1.638 1.638 0 0 0 1.45-.601 3.178 3.178 0 0 0 .417-1.805V43.854h2.97V56.35a5.083 5.083 0 0 1-1.19 3.707 4.61 4.61 0 0 1-3.425 1.203zm4.934-21.16a1.704 1.704 0 0 1-.54 1.325 1.834 1.834 0 0 1-1.276.491 1.863 1.863 0 0 1-1.301-.491 1.702 1.702 0 0 1-.54-1.325 1.733 1.733 0 0 1 .54-1.35 1.864 1.864 0 0 1 1.3-.492 1.835 1.835 0 0 1 1.277.491 1.736 1.736 0 0 1 .54 1.35zm6.53 14.164a3.91 3.91 0 0 0 1.718-.283 1.002 1.002 0 0 0 .54-.97 1.258 1.258 0 0 0-.577-1.055 8.504 8.504 0 0 0-1.902-.909 14.967 14.967 0 0 1-1.485-.626 5.063 5.063 0 0 1-1.167-.773 3.159 3.159 0 0 1-.772-1.068 3.716 3.716 0 0 1-.282-1.534 3.344 3.344 0 0 1 1.3-2.786 5.589 5.589 0 0 1 3.536-1.019 10.907 10.907 0 0 1 2.16.209 10.51 10.51 0 0 1 1.546.405l-.54 2.405a7.272 7.272 0 0 0-1.252-.404 7.552 7.552 0 0 0-1.768-.185 3.083 3.083 0 0 0-1.473.307 1.01 1.01 0 0 0-.564.945 1.37 1.37 0 0 0 .11.565 1.211 1.211 0 0 0 .38.454 3.875 3.875 0 0 0 .713.417 10.895 10.895 0 0 0 1.08.43 16.556 16.556 0 0 1 1.792.773 4.85 4.85 0 0 1 1.215.86 2.94 2.94 0 0 1 .7 1.092 4.384 4.384 0 0 1 .22 1.473 3.173 3.173 0 0 1-1.362 2.786 6.786 6.786 0 0 1-3.892.945 10.639 10.639 0 0 1-2.724-.282 14.031 14.031 0 0 1-1.449-.454l.516-2.48a13.222 13.222 0 0 0 1.583.515 8.153 8.153 0 0 0 2.1.247zm10.826-5.401q.564-.59 1.203-1.264.637-.675 1.252-1.35t1.166-1.301q.552-.626.945-1.093h3.51q-1.228 1.375-2.59 2.848t-2.736 2.872a17.231 17.231 0 0 1 1.546 1.485q.81.872 1.57 1.854t1.425 1.964a20.335 20.335 0 0 1 1.104 1.816h-3.436q-.443-.76-1.019-1.596t-1.24-1.62q-.662-.785-1.35-1.485a11.613 11.613 0 0 0-1.35-1.19v5.891h-2.97V40.172l2.97-.49zm13.721-8.763a1.705 1.705 0 0 1-.54 1.325 1.833 1.833 0 0 1-1.276.491 1.863 1.863 0 0 1-1.3-.491 1.701 1.701 0 0 1-.54-1.325 1.733 1.733 0 0 1 .54-1.351 1.864 1.864 0 0 1 1.3-.49 1.835 1.835 0 0 1 1.276.49 1.736 1.736 0 0 1 .54 1.35zm-.32 16.594h-2.97V43.854h2.97zm2.923-6.653a8.06 8.06 0 0 1 .503-2.97 6.228 6.228 0 0 1 1.338-2.123 5.526 5.526 0 0 1 1.915-1.277 5.929 5.929 0 0 1 2.209-.43 5.292 5.292 0 0 1 4.136 1.645 7.122 7.122 0 0 1 1.485 4.91q0 .245-.012.552c-.009.205-.02.39-.037.553h-8.469a3.381 3.381 0 0 0 1.092 2.393 4.153 4.153 0 0 0 2.811.847 9.21 9.21 0 0 0 1.976-.196 8.128 8.128 0 0 0 1.411-.417l.394 2.43a4.754 4.754 0 0 1-.676.257 9.454 9.454 0 0 1-.982.245q-.552.111-1.19.185a11.306 11.306 0 0 1-1.301.073 7.873 7.873 0 0 1-2.946-.503 5.477 5.477 0 0 1-2.061-1.399 5.72 5.72 0 0 1-1.203-2.111 8.621 8.621 0 0 1-.393-2.663zm8.616-1.325a3.913 3.913 0 0 0-.172-1.166 2.816 2.816 0 0 0-.504-.958 2.377 2.377 0 0 0-.81-.638 2.585 2.585 0 0 0-1.141-.233 2.658 2.658 0 0 0-1.203.258 2.74 2.74 0 0 0-.872.675 3.093 3.093 0 0 0-.552.957 5.181 5.181 0 0 0-.27 1.105zM71.03 68.046a6.246 6.246 0 0 1 3.636.899 3.07 3.07 0 0 1 1.272 2.68 3.642 3.642 0 0 1-.349 1.662 2.854 2.854 0 0 1-1.004 1.117 4.579 4.579 0 0 1-1.596.624 10.503 10.503 0 0 1-2.122.194H69.62v4.164h-1.572V68.32a8.907 8.907 0 0 1 1.483-.218q.818-.057 1.498-.057zm.129 1.377q-1.004 0-1.539.048v4.407h1.182a9.13 9.13 0 0 0 1.458-.106 3.302 3.302 0 0 0 1.094-.356 1.761 1.761 0 0 0 .689-.689 2.283 2.283 0 0 0 .243-1.117 2.06 2.06 0 0 0-.252-1.07 1.89 1.89 0 0 0-.68-.672 2.942 2.942 0 0 0-.996-.348 7.077 7.077 0 0 0-1.2-.097zm9.671 1.361q.195 0 .446.024t.494.065q.242.04.445.08a2.846 2.846 0 0 1 .3.073l-.259 1.313a5.062 5.062 0 0 0-.591-.154 5.168 5.168 0 0 0-1.061-.09 3.932 3.932 0 0 0-.835.09c-.275.06-.456.1-.542.121v7.08H77.72v-8.068a10.163 10.163 0 0 1 1.329-.364 8.538 8.538 0 0 1 1.781-.17zm10.498 4.196a5.33 5.33 0 0 1-.292 1.814 4.153 4.153 0 0 1-.818 1.393 3.602 3.602 0 0 1-1.256.899 4.148 4.148 0 0 1-3.175 0 3.597 3.597 0 0 1-1.255-.899 4.147 4.147 0 0 1-.819-1.393 5.769 5.769 0 0 1 0-3.621 4.136 4.136 0 0 1 .819-1.401 3.592 3.592 0 0 1 1.255-.9 4.148 4.148 0 0 1 3.175 0 3.597 3.597 0 0 1 1.256.9 4.142 4.142 0 0 1 .818 1.4 5.352 5.352 0 0 1 .292 1.807zm-1.572 0a3.628 3.628 0 0 0-.64-2.26 2.235 2.235 0 0 0-3.483 0 4.31 4.31 0 0 0 0 4.52 2.234 2.234 0 0 0 3.483 0 3.626 3.626 0 0 0 .64-2.26zm8.894 3.563a4.005 4.005 0 0 1-.753.332 3.815 3.815 0 0 1-1.304.203 4.185 4.185 0 0 1-1.434-.243 3.11 3.11 0 0 1-1.175-.754 3.637 3.637 0 0 1-.794-1.271 5.076 5.076 0 0 1-.291-1.814 4.992 4.992 0 0 1 .275-1.693 3.758 3.758 0 0 1 .802-1.329 3.676 3.676 0 0 1 1.288-.874 4.434 4.434 0 0 1 1.717-.316 9.676 9.676 0 0 1 1.839.154q.786.154 1.32.283v7.517a3.554 3.554 0 0 1-1.005 2.819 4.536 4.536 0 0 1-3.045.874 8.28 8.28 0 0 1-1.498-.129 8.598 8.598 0 0 1-1.224-.308l.276-1.312a7.037 7.037 0 0 0 1.11.316 6.649 6.649 0 0 0 1.368.138 2.851 2.851 0 0 0 1.936-.535 2.189 2.189 0 0 0 .592-1.701zm-.016-6.253a5.082 5.082 0 0 0-.608-.122 7.368 7.368 0 0 0-1.028-.056 2.291 2.291 0 0 0-1.872.794 3.2 3.2 0 0 0-.656 2.106 3.695 3.695 0 0 0 .187 1.247 2.466 2.466 0 0 0 .502.859 1.964 1.964 0 0 0 .729.502 2.313 2.313 0 0 0 .85.162 3.421 3.421 0 0 0 1.102-.17 2.704 2.704 0 0 0 .794-.397zm7.127-1.506q.195 0 .446.024c.167.016.332.038.494.065s.31.054.446.08a2.846 2.846 0 0 1 .3.073l-.26 1.313a5.05 5.05 0 0 0-.591-.154 5.167 5.167 0 0 0-1.061-.09 3.932 3.932 0 0 0-.835.09q-.413.089-.542.121v7.08h-1.507v-8.068a10.158 10.158 0 0 1 1.329-.364 8.536 8.536 0 0 1 1.781-.17zm5.783-.194a4.366 4.366 0 0 1 1.532.234 2.487 2.487 0 0 1 1.004.664 2.52 2.52 0 0 1 .543 1.02 4.956 4.956 0 0 1 .162 1.304v5.266l-.543.088q-.348.056-.786.106-.437.048-.948.089t-1.012.04a5.547 5.547 0 0 1-1.312-.146 2.938 2.938 0 0 1-1.037-.462 2.112 2.112 0 0 1-.68-.834 2.924 2.924 0 0 1-.243-1.247 2.4 2.4 0 0 1 .283-1.199 2.258 2.258 0 0 1 .77-.81 3.57 3.57 0 0 1 1.134-.454 6.181 6.181 0 0 1 1.36-.145 5.54 5.54 0 0 1 .932.09 16.77 16.77 0 0 1 .607.12v-.42a3.408 3.408 0 0 0-.08-.737 1.694 1.694 0 0 0-.292-.648 1.477 1.477 0 0 0-.575-.454 2.26 2.26 0 0 0-.948-.17 7.161 7.161 0 0 0-1.304.105 4.647 4.647 0 0 0-.834.219l-.179-1.247a4.633 4.633 0 0 1 .973-.252 8.434 8.434 0 0 1 1.473-.12zm.13 7.548q.535 0 .948-.024a4.144 4.144 0 0 0 .688-.09v-2.51a1.908 1.908 0 0 0-.526-.138 5.81 5.81 0 0 0-.883-.057 5.732 5.732 0 0 0-.72.05 2.211 2.211 0 0 0-.697.202 1.488 1.488 0 0 0-.527.42 1.106 1.106 0 0 0-.21.706 1.209 1.209 0 0 0 .518 1.125 2.693 2.693 0 0 0 1.41.316zm5.524-6.934q.518-.128 1.369-.275a11.768 11.768 0 0 1 1.968-.145 3.702 3.702 0 0 1 1.361.218 2.381 2.381 0 0 1 .923.64c.076-.053.194-.129.356-.226a3.945 3.945 0 0 1 .6-.284 6.28 6.28 0 0 1 .794-.243 4.027 4.027 0 0 1 .94-.105 3.828 3.828 0 0 1 1.588.283 2.286 2.286 0 0 1 .964.802 3.117 3.117 0 0 1 .47 1.231 9.28 9.28 0 0 1 .12 1.556v4.73h-1.506V74.98a9.604 9.604 0 0 0-.073-1.28 2.484 2.484 0 0 0-.276-.89 1.26 1.26 0 0 0-.55-.527 2.05 2.05 0 0 0-.9-.17 3.337 3.337 0 0 0-1.255.202 2.485 2.485 0 0 0-.673.365 5.501 5.501 0 0 1 .195.924 8.255 8.255 0 0 1 .065 1.052v4.73h-1.507V74.98a8.732 8.732 0 0 0-.08-1.28 2.604 2.604 0 0 0-.284-.89 1.27 1.27 0 0 0-.55-.527 2.008 2.008 0 0 0-.884-.17 10.988 10.988 0 0 0-.98.057 6.807 6.807 0 0 0-.689.105v7.112h-1.507zm23.117 3.483q.26.325.656.851t.819 1.167q.42.64.833 1.336a13.608 13.608 0 0 1 .706 1.345h-1.718q-.324-.616-.704-1.248t-.77-1.206q-.39-.575-.77-1.078t-.688-.875a5.5 5.5 0 0 1-.43.017h-1.854v4.39h-1.571V68.32a8.892 8.892 0 0 1 1.482-.218q.818-.057 1.498-.057a6.134 6.134 0 0 1 3.605.89 3.06 3.06 0 0 1 1.239 2.658 3.114 3.114 0 0 1-.59 1.911 3.485 3.485 0 0 1-1.743 1.182zm-2.38-5.264q-1.006 0-1.54.048V73.7h1.117a11.796 11.796 0 0 0 1.458-.081 3.311 3.311 0 0 0 1.094-.308 1.644 1.644 0 0 0 .688-.64 2.143 2.143 0 0 0 .244-1.094 2.078 2.078 0 0 0-.244-1.053 1.798 1.798 0 0 0-.656-.664 2.867 2.867 0 0 0-.972-.34 6.931 6.931 0 0 0-1.19-.097zm6.43 5.573a5.36 5.36 0 0 1 .324-1.953 4.075 4.075 0 0 1 .858-1.385 3.496 3.496 0 0 1 1.232-.826 3.844 3.844 0 0 1 1.426-.275 3.242 3.242 0 0 1 2.607 1.06 4.878 4.878 0 0 1 .907 3.233v.251a2.295 2.295 0 0 1-.015.283h-5.768a3.079 3.079 0 0 0 .762 1.993 2.786 2.786 0 0 0 2.073.68 5.506 5.506 0 0 0 1.337-.138 4.78 4.78 0 0 0 .817-.267l.211 1.264a4.48 4.48 0 0 1-.964.307 6.832 6.832 0 0 1-1.563.162 4.965 4.965 0 0 1-1.903-.332 3.549 3.549 0 0 1-1.32-.915 3.724 3.724 0 0 1-.77-1.385 5.872 5.872 0 0 1-.251-1.757zm5.783-.827a2.53 2.53 0 0 0-.51-1.676 1.759 1.759 0 0 0-1.45-.657 1.988 1.988 0 0 0-.915.203 2.167 2.167 0 0 0-.673.526 2.423 2.423 0 0 0-.429.745 3.632 3.632 0 0 0-.203.86zm8.942 4.374a4.02 4.02 0 0 1-.753.332 3.82 3.82 0 0 1-1.305.203 4.182 4.182 0 0 1-1.433-.243 3.115 3.115 0 0 1-1.175-.754 3.647 3.647 0 0 1-.793-1.271 5.073 5.073 0 0 1-.292-1.814 4.995 4.995 0 0 1 .275-1.693 3.766 3.766 0 0 1 .802-1.329 3.672 3.672 0 0 1 1.288-.874 4.437 4.437 0 0 1 1.717-.316 9.675 9.675 0 0 1 1.839.153q.787.154 1.32.284v7.517a3.558 3.558 0 0 1-1.004 2.819 4.54 4.54 0 0 1-3.046.874 8.275 8.275 0 0 1-1.498-.13 8.572 8.572 0 0 1-1.224-.307l.276-1.312a7.07 7.07 0 0 0 1.11.315 6.65 6.65 0 0 0 1.368.138 2.853 2.853 0 0 0 1.937-.535 2.19 2.19 0 0 0 .591-1.7zm-.017-6.253a5.058 5.058 0 0 0-.607-.122 7.36 7.36 0 0 0-1.028-.056 2.292 2.292 0 0 0-1.871.794 3.2 3.2 0 0 0-.657 2.106 3.705 3.705 0 0 0 .187 1.247 2.474 2.474 0 0 0 .502.859 1.967 1.967 0 0 0 .73.502 2.31 2.31 0 0 0 .85.162 3.423 3.423 0 0 0 1.102-.17 2.71 2.71 0 0 0 .793-.397zm4.764-2.851a.97.97 0 0 1-.688-.267 1.06 1.06 0 0 1 0-1.442 1.02 1.02 0 0 1 1.377 0 1.056 1.056 0 0 1 0 1.442.968.968 0 0 1-.689.267zm.762 9.947h-1.507v-8.424h1.507zm9.945-4.406a5.33 5.33 0 0 1-.29 1.814 4.155 4.155 0 0 1-.819 1.393 3.595 3.595 0 0 1-1.256.899 4.146 4.146 0 0 1-3.175 0 3.604 3.604 0 0 1-1.255-.899 4.153 4.153 0 0 1-.818-1.393 5.76 5.76 0 0 1 0-3.621 4.142 4.142 0 0 1 .818-1.401 3.599 3.599 0 0 1 1.255-.9 4.146 4.146 0 0 1 3.175 0 3.59 3.59 0 0 1 1.256.9 4.144 4.144 0 0 1 .818 1.4 5.352 5.352 0 0 1 .291 1.807zm-1.57 0a3.625 3.625 0 0 0-.64-2.26 2.236 2.236 0 0 0-3.484 0 4.313 4.313 0 0 0 0 4.52 2.235 2.235 0 0 0 3.483 0 3.623 3.623 0 0 0 .64-2.26zm3.612-3.776q.519-.128 1.377-.275a11.927 11.927 0 0 1 1.977-.145 4.283 4.283 0 0 1 1.669.283 2.615 2.615 0 0 1 1.06.794 3.076 3.076 0 0 1 .56 1.223 7.134 7.134 0 0 1 .161 1.571v4.73h-1.506V74.98a7.183 7.183 0 0 0-.105-1.328 2.248 2.248 0 0 0-.349-.891 1.384 1.384 0 0 0-.647-.494 2.853 2.853 0 0 0-1.005-.154 11.255 11.255 0 0 0-.996.056 6.488 6.488 0 0 0-.689.106v7.112h-1.507zm11.94-.614a4.365 4.365 0 0 1 1.531.234 2.486 2.486 0 0 1 1.004.664 2.52 2.52 0 0 1 .543 1.02 4.956 4.956 0 0 1 .162 1.304v5.266l-.543.088c-.233.038-.494.073-.785.106s-.608.062-.948.089-.678.04-1.013.04a5.54 5.54 0 0 1-1.311-.146 2.929 2.929 0 0 1-1.038-.462 2.108 2.108 0 0 1-.68-.834 2.915 2.915 0 0 1-.243-1.247 2.395 2.395 0 0 1 .284-1.199 2.25 2.25 0 0 1 .77-.81 3.554 3.554 0 0 1 1.133-.454 6.18 6.18 0 0 1 1.36-.145 5.54 5.54 0 0 1 .932.09 15.773 15.773 0 0 1 .607.12v-.42a3.408 3.408 0 0 0-.08-.737 1.695 1.695 0 0 0-.292-.648 1.477 1.477 0 0 0-.575-.454 2.26 2.26 0 0 0-.948-.17 7.152 7.152 0 0 0-1.304.105 4.627 4.627 0 0 0-.834.219l-.178-1.247a4.632 4.632 0 0 1 .971-.252 8.444 8.444 0 0 1 1.475-.12zm.13 7.548q.534 0 .947-.024a4.144 4.144 0 0 0 .689-.09v-2.51a1.907 1.907 0 0 0-.527-.138 5.81 5.81 0 0 0-.883-.057 5.734 5.734 0 0 0-.72.05 2.224 2.224 0 0 0-.697.202 1.498 1.498 0 0 0-.527.42 1.105 1.105 0 0 0-.21.706 1.207 1.207 0 0 0 .519 1.125 2.69 2.69 0 0 0 1.409.316zm8.051 1.248a2.887 2.887 0 0 1-1.977-.6 2.367 2.367 0 0 1-.583-1.766V66.912l1.507-.26v10.125a2.454 2.454 0 0 0 .064.616.837.837 0 0 0 .211.389.9.9 0 0 0 .389.218 3.935 3.935 0 0 0 .6.122zm1.814-8.182q.519-.128 1.377-.275a11.927 11.927 0 0 1 1.976-.145 4.283 4.283 0 0 1 1.67.283 2.615 2.615 0 0 1 1.06.794 3.076 3.076 0 0 1 .56 1.223 7.134 7.134 0 0 1 .161 1.571v4.73h-1.506V74.98a7.183 7.183 0 0 0-.105-1.328 2.247 2.247 0 0 0-.349-.891 1.383 1.383 0 0 0-.647-.494 2.853 2.853 0 0 0-1.005-.154 11.255 11.255 0 0 0-.996.056 6.488 6.488 0 0 0-.689.106v7.112h-1.507zm7.937 9.753a2.828 2.828 0 0 0 .462.154 2.224 2.224 0 0 0 .559.073 2.195 2.195 0 0 0 1.394-.397 3.422 3.422 0 0 0 .907-1.288q-1.021-1.944-1.904-4.123a35.925 35.925 0 0 1-1.466-4.414h1.62q.178.729.43 1.571t.558 1.733q.308.892.664 1.782t.745 1.718q.617-1.701 1.07-3.37t.86-3.434h1.554q-.583 2.38-1.296 4.576t-1.54 4.107a8.709 8.709 0 0 1-.671 1.255 3.793 3.793 0 0 1-.77.867 2.821 2.821 0 0 1-.948.502 4.063 4.063 0 0 1-1.19.162 3.028 3.028 0 0 1-.373-.024 4.536 4.536 0 0 1-.72-.154 1.67 1.67 0 0 1-.22-.081z" fill="#1d1d1b"/></svg>