<svg xmlns="http://www.w3.org/2000/svg" xmlns:xlink="http://www.w3.org/1999/xlink" viewBox="0 0 374.925 450.883"><defs><linearGradient id="linear-gradient" x1="145.411" y1="255.989" x2="357.913" y2="94.705" gradientUnits="userSpaceOnUse"><stop offset="0" stop-color="#006b43"/><stop offset="0.088" stop-color="#017960"/><stop offset="0.232" stop-color="#018c8a"/><stop offset="0.379" stop-color="#029cac"/><stop offset="0.528" stop-color="#02a8c7"/><stop offset="0.679" stop-color="#03b1da"/><stop offset="0.835" stop-color="#03b6e5"/><stop offset="1" stop-color="#03b8e9"/></linearGradient></defs><g id="Layer_2" data-name="Layer 2"><g id="Layer_1-2" data-name="Layer 1"><path d="M235.909,137.358v77.063h31.979a66.04,66.04,0,0,1-32.984,8.532,56.209,56.209,0,0,1-23.2-4.622,51.053,51.053,0,0,1-17.582-12.97,62.322,62.322,0,0,1-11.738-20.573,83.086,83.086,0,0,1-4.32-27.647,83.6,83.6,0,0,1,4.336-27.488,66.634,66.634,0,0,1,11.66-21.1,50.7,50.7,0,0,1,17.071-13.324,49.591,49.591,0,0,1,21.74-4.713,58.436,58.436,0,0,1,31.086,8.942,56.322,56.322,0,0,1,21.924,23.437l5.412,10.825L366.71,75.98l-3.947-7.472a111.742,111.742,0,0,0-21.927-28.871,141.571,141.571,0,0,0-29.606-21.5A144.271,144.271,0,0,0,275.538,4.553,171.85,171.85,0,0,0,235.719,0a162.192,162.192,0,0,0-62.312,11.968A158.977,158.977,0,0,0,123.192,44.6a151.222,151.222,0,0,0-45.837,109.69q0,10.729,1.027,20.863l-.108.062.123.091A163.441,163.441,0,0,0,89.52,221.269c8.073,19.62,19.09,36.49,32.745,50.138A138.987,138.987,0,0,0,170.546,302.8a157.687,157.687,0,0,0,57.429,10.667,117.292,117.292,0,0,0,61.328-16.66v14.622h85.622V137.358Zm-33.018,87.715c1.527.845,3.086,1.649,4.7,2.377a65.8,65.8,0,0,0,27.309,5.5q34.64,0,61.139-28.532H245.909V173.577L304.428,191.7c-.034.382-.058.767-.058,1.159a12.708,12.708,0,0,0,12.476,12.7l5.737,12.506L267.568,263.48a17.408,17.408,0,0,0-27.6-.014L178.593,233.64a21.744,21.744,0,0,0,.568-2.469Zm-74.917-66.987a16.555,16.555,0,0,0,8.291,3l12.961,46.067a21.925,21.925,0,0,0-6.2,3.853L96.437,176.279Zm58.63,53.875a61.412,61.412,0,0,0,5.55,5.546l-13.642,3.5a21.958,21.958,0,0,0-19.338-15.424l-13.153-46.749a16.636,16.636,0,0,0,8.222-14.347c0-.512-.031-1.016-.076-1.516l16.7-9.637a97.128,97.128,0,0,0-2.812,23.8,92.6,92.6,0,0,0,4.891,30.977A71.916,71.916,0,0,0,186.6,211.961ZM232.866,80.513A59.205,59.205,0,0,0,206.78,86.22a61.046,61.046,0,0,0-20.38,15.9c-1.268,1.51-2.466,3.095-3.614,4.733L198.572,41.2a10.452,10.452,0,0,0,1.931-.823l40.525,22.985a12.71,12.71,0,0,0,15.111,12.367L266.5,89.381A68.269,68.269,0,0,0,232.866,80.513ZM298.79,115.38l-33.622-44.3,82.938,6.546ZM235.719,10a161.067,161.067,0,0,1,37.5,4.28,133.672,133.672,0,0,1,33.219,12.635,130.993,130.993,0,0,1,27.513,19.972,101.688,101.688,0,0,1,16.9,20.927l-84.534-6.672A12.708,12.708,0,0,0,251.058,50.77l-26.12-40.424Q230.265,10.007,235.719,10ZM177.23,21.209a146.313,146.313,0,0,1,36.986-9.817l-.359.232,25.325,39.193L205.953,31.971c.023-.286.043-.574.043-.867a10.569,10.569,0,0,0-21.071-1.189L139.169,43.763A150.823,150.823,0,0,1,177.23,21.209ZM123.173,59.053,188.666,39.23l.079.065L168.59,123.11l-18.338,10.579a16.611,16.611,0,0,0-12.669-5.857c-.095,0-.187.013-.281.014L119.243,63.66Q121.159,61.317,123.173,59.053ZM87.355,154.288a141.208,141.208,0,0,1,11.413-56.86,145.518,145.518,0,0,1,12.937-23.64l16.1,57.235a16.569,16.569,0,0,0-5.914,19.026L87.929,169.643Q87.367,162.152,87.355,154.288Zm11.413,63.176A147.766,147.766,0,0,1,89.5,183.583l47.716,35.567a22.006,22.006,0,0,0-1.181,12.778l-26.6,6.834A156.519,156.519,0,0,1,98.768,217.464Zm120.658,85.759a146.125,146.125,0,0,1-45.253-9.743,128.449,128.449,0,0,1-44.836-29.143A130.536,130.536,0,0,1,115.23,247.6l25.138-6.46a21.936,21.936,0,0,0,33.284,1.217l62.723,30.482c-.031.426-.065.852-.065,1.287a17.362,17.362,0,0,0,4.384,11.539Zm79.877-1.8V277.38q-28.2,23.751-64.181,25.852l14.684-12.122a17.4,17.4,0,0,0,21.407-16.984c0-.223-.025-.44-.034-.661l55.718-46,33.925,73.96Zm65.622-15.04L334.877,220.88l.1-.081-.3-.366-8.55-18.641a12.76,12.76,0,0,0,2.06-2.743l36.743,11.375Zm0-86.432-35.768-11.074a12.689,12.689,0,0,0-19.78-6.124l-63.468-19.649V147.358H364.925Z" fill="url(#linear-gradient)"/><path d="M35.1,352.177v-1.922h4V358.6h-4a6.619,6.619,0,0,0-2.508-3.312,6.748,6.748,0,0,0-3.945-1.235,6.826,6.826,0,0,0-3.57.93,6.2,6.2,0,0,0-2.4,2.625,8.756,8.756,0,0,0-.843,3.945,9.115,9.115,0,0,0,1.851,6.039,6.277,6.277,0,0,0,5.086,2.211,5.8,5.8,0,0,0,3.516-1.008,5.428,5.428,0,0,0,1.953-2.9H30.08v-4H41.158a13.317,13.317,0,0,1-1.524,6.578,10.076,10.076,0,0,1-4.375,4.172,14.989,14.989,0,0,1-6.82,1.437,15.826,15.826,0,0,1-6.992-1.453,10.532,10.532,0,0,1-4.6-4.187,12.555,12.555,0,0,1-1.609-6.485,12.034,12.034,0,0,1,1.633-6.265,11.434,11.434,0,0,1,4.476-4.289,13.273,13.273,0,0,1,6.422-1.539Q32.486,349.865,35.1,352.177Z" fill="#231f20"/><path d="M69.062,362.318a11.857,11.857,0,0,1-1.57,6.281,9.967,9.967,0,0,1-4.336,3.891,14.745,14.745,0,0,1-6.39,1.312H43.781v-4h3.578V354.255H43.781v-4h12.7a15.872,15.872,0,0,1,6.461,1.243,9.721,9.721,0,0,1,4.469,3.953A13.029,13.029,0,0,1,69.062,362.318Zm-6.406-.2q0-3.891-1.8-5.875a6.812,6.812,0,0,0-5.3-1.985H53.469V369.8h1.437a9.237,9.237,0,0,0,4.883-1.07,5.24,5.24,0,0,0,2.289-2.719A11.8,11.8,0,0,0,62.656,362.115Z" fill="#231f20"/><path d="M79.233,354.255l3.422,5.75,3.532-5.75H83.749v-4H94.14v4H91.233l-6.109,9.2V369.8h3.3v4H75.687v-4h3.328v-6.344l-6.375-9.2H69.765v-4h11.75v4Z" fill="#231f20"/><path d="M114.81,354.255h-3.031v-4h10.515v4h-3.281v19.7h-5.219L103.607,356.49V369.8h2.953v4H96.248v-4h3.171V354.255H96.248v-4h9.89l8.672,14.719Zm-7.125-5.437,2.594-5.391h6.328l-6.172,5.391Z" fill="#231f20"/><path d="M135.543,352.208v-1.953h4v7.125h-4a4.471,4.471,0,0,0-1.117-2.586,3.033,3.033,0,0,0-2.242-.867,2.58,2.58,0,0,0-1.656.547,1.687,1.687,0,0,0-.688,1.375,1.926,1.926,0,0,0,.438,1.266,3.652,3.652,0,0,0,1.125.9q.687.368,2.062.977l.953.406a12.988,12.988,0,0,1,4.7,3.156,6.636,6.636,0,0,1,1.586,4.531,6.963,6.963,0,0,1-1.86,5.118,6.7,6.7,0,0,1-5,1.882,5.59,5.59,0,0,1-4.765-2.3V373.8h-4v-8h4a5.177,5.177,0,0,0,1.07,3.164,3.21,3.21,0,0,0,2.555,1.086,2.487,2.487,0,0,0,1.82-.734,2.41,2.41,0,0,0,.742-1.781,2.753,2.753,0,0,0-.851-1.946,9.252,9.252,0,0,0-2.9-1.773,14.579,14.579,0,0,1-5.054-3.3,5.933,5.933,0,0,1-1.571-4.063,6.623,6.623,0,0,1,.828-3.281A6.1,6.1,0,0,1,128,350.841a6.211,6.211,0,0,1,3.18-.851,5.51,5.51,0,0,1,2.5.562A4.807,4.807,0,0,1,135.543,352.208Z" fill="#231f20"/><path d="M152.823,354.255V369.8h2.75v4H143.542v-4h3.141V354.255h-3.141v-4h12.266v4Zm13.7,0-6.656,6.453L167.6,369.8h2.438v4H157.4v-4h2.75l-7.125-8.359,7.672-7.188h-2.812v-4H169.4v4Z" fill="#231f20"/><path d="M187.744,354.255l4.922,15.547h2.813v4H183.9v-4h3.016l-1.125-4h-6.109l-1.25,4h3.14v4H171.166v-4h2.906l4.578-15.547h-3.14v-4h15.406v4Zm-4.906.953-2.109,7.11h4.093Z" fill="#231f20"/><path d="M218.648,352.208v-1.953h4v7.125h-4a4.471,4.471,0,0,0-1.117-2.586,3.035,3.035,0,0,0-2.242-.867,2.581,2.581,0,0,0-1.657.547,1.689,1.689,0,0,0-.687,1.375,1.926,1.926,0,0,0,.437,1.266,3.664,3.664,0,0,0,1.125.9q.687.368,2.063.977l.953.406a12.983,12.983,0,0,1,4.695,3.156,6.636,6.636,0,0,1,1.586,4.531,6.967,6.967,0,0,1-1.859,5.118,6.706,6.706,0,0,1-5,1.882,5.593,5.593,0,0,1-4.766-2.3V373.8h-4v-8h4a5.171,5.171,0,0,0,1.071,3.164,3.208,3.208,0,0,0,2.554,1.086,2.49,2.49,0,0,0,1.821-.734,2.414,2.414,0,0,0,.742-1.781,2.75,2.75,0,0,0-.852-1.946,9.245,9.245,0,0,0-2.9-1.773,14.584,14.584,0,0,1-5.055-3.3,5.932,5.932,0,0,1-1.57-4.063,6.623,6.623,0,0,1,.828-3.281,6.1,6.1,0,0,1,2.289-2.336,6.211,6.211,0,0,1,3.18-.851,5.513,5.513,0,0,1,2.5.562A4.814,4.814,0,0,1,218.648,352.208Z" fill="#231f20"/><path d="M235.927,354.255V369.8h3.626v4H226.24v-4h3.547V354.255H226.24v-4h13.313v4Z" fill="#231f20"/><path d="M258.646,357.708v-3.453h-7.3v5.407h5.89v3.968h-5.89V369.8h7.3v-3.484h4.515V373.8H242.4v-4h2.843V354.255H242.4v-4h20.765v7.453Z" fill="#231f20"/><path d="M286.848,352.068v-1.813h4v8.282h-4q-1.767-4.485-5.891-4.485a6.377,6.377,0,0,0-3.633,1.063,7.126,7.126,0,0,0-2.469,2.9,9.281,9.281,0,0,0-.882,4.07,8.736,8.736,0,0,0,.836,3.836,6.968,6.968,0,0,0,2.336,2.782,6.156,6.156,0,0,0,7.632-.625,8.337,8.337,0,0,0,2.383-4.383l4.641,2.2q-2.625,8.189-11.641,8.187a14.656,14.656,0,0,1-6.773-1.484,10.532,10.532,0,0,1-4.461-4.219,12.652,12.652,0,0,1-1.563-6.39,12.127,12.127,0,0,1,1.61-6.219,11.465,11.465,0,0,1,4.445-4.336,12.889,12.889,0,0,1,6.352-1.57A11.129,11.129,0,0,1,286.848,352.068Zm-8.735-3.25,2.594-5.391h6.328l-6.172,5.391Z" fill="#231f20"/><path d="M25.439,390.609v-1.953h4v7.125h-4a4.465,4.465,0,0,0-1.117-2.586,3.035,3.035,0,0,0-2.242-.867,2.577,2.577,0,0,0-1.657.547,1.689,1.689,0,0,0-.687,1.375,1.921,1.921,0,0,0,.437,1.265,3.679,3.679,0,0,0,1.125.9q.687.368,2.063.976l.953.406a12.988,12.988,0,0,1,4.7,3.157,6.634,6.634,0,0,1,1.586,4.531,6.966,6.966,0,0,1-1.859,5.117,6.707,6.707,0,0,1-5,1.883,5.593,5.593,0,0,1-4.766-2.3V412.2h-4v-8h4a5.176,5.176,0,0,0,1.071,3.164,3.211,3.211,0,0,0,2.554,1.086,2.491,2.491,0,0,0,1.821-.735,2.414,2.414,0,0,0,.742-1.781,2.748,2.748,0,0,0-.852-1.945,9.244,9.244,0,0,0-2.9-1.774,14.57,14.57,0,0,1-5.055-3.3,5.93,5.93,0,0,1-1.57-4.062,6.623,6.623,0,0,1,.828-3.281,6.087,6.087,0,0,1,2.289-2.336,6.2,6.2,0,0,1,3.18-.852,5.514,5.514,0,0,1,2.5.563A4.806,4.806,0,0,1,25.439,390.609Z" fill="#231f20"/><path d="M41.438,392.656v11a9.566,9.566,0,0,0,.368,3.008,2.622,2.622,0,0,0,1.023,1.453,3.286,3.286,0,0,0,1.719.4,2.755,2.755,0,0,0,2.414-1.117,7.146,7.146,0,0,0,.789-3.93V392.656H45.47v-4h9.406v4H52v11.937q0,4.125-1.867,6.008t-6.227,1.883a12.339,12.339,0,0,1-4.961-.828,5.323,5.323,0,0,1-2.734-2.781,13.219,13.219,0,0,1-.883-5.344V392.656H32.548v-4H43.782v4Z" fill="#231f20"/><path d="M78.531,396.14q0,3.844-2.4,5.664t-7.461,1.821H66.2V408.2h3.3v4H57.094v-4h2.968V392.656H57.094v-4H68.547q5.046,0,7.515,1.836A6.579,6.579,0,0,1,78.531,396.14Zm-6.469,0a3.637,3.637,0,0,0-.593-2.242,2.787,2.787,0,0,0-1.711-1.008,12.719,12.719,0,0,0-2.586-.234H66.2v7.062h.969a9.028,9.028,0,0,0,3.023-.4,2.564,2.564,0,0,0,1.469-1.164A4.369,4.369,0,0,0,72.062,396.14Z" fill="#231f20"/><path d="M96.906,396.109v-3.453h-7.3v5.406H95.5v3.969H89.609V408.2h7.3v-3.485h4.515V412.2H80.656v-4H83.5V392.656H80.656v-4h20.765v7.453Z" fill="#231f20"/><path d="M125.843,395.078a6.256,6.256,0,0,1-1.008,3.625,7.127,7.127,0,0,1-3.055,2.39l3.8,7.11h3.047v4h-7.172l-5.312-10.3h-2.688v6.3h2.953v4H104.077v-4h3.235V392.656h-3.235v-4h13.438a10.048,10.048,0,0,1,6.117,1.648A5.594,5.594,0,0,1,125.843,395.078Zm-6.406.265a2.4,2.4,0,0,0-.86-2.015,3.71,3.71,0,0,0-2.344-.672h-2.781v5.469h2.25Q119.436,398.125,119.437,395.343Z" fill="#231f20"/><path d="M135.28,392.656l3.812,11.3,3.61-11.3H140.53v-4h8.484v4h-2.172l3.86,11.3,3.718-11.3h-2.375v-4H161.5v4h-2.563l-6.531,19.672h-4.36l-3.7-10.75-3.515,10.75h-4.516l-6.719-19.672h-2.5v-4h10.625v4Z" fill="#231f20"/><path d="M172.279,392.656V408.2H175.9v4H162.591v-4h3.547V392.656h-3.547v-4H175.9v4Z" fill="#231f20"/><path d="M186.013,408.2h7.734v-4.516h3.969V412.2H178.685v-4l11.156-15.547h-6.547v4.25h-3.969v-8.25H197.5V392.2Z" fill="#231f20"/><path d="M209.4,392.656l3.422,5.75,3.531-5.75h-2.438v-4h10.391v4H221.4l-6.11,9.2V408.2h3.3v4H205.856v-4h3.328v-6.344l-6.375-9.2h-2.875v-4h11.75v4Z" fill="#231f20"/><path d="M235.121,392.656v19.265q0,7.548-6.969,7.547a18.952,18.952,0,0,1-3.547-.422v-4.281a7.025,7.025,0,0,0,1.781.281,2.323,2.323,0,0,0,2.055-.828,4.575,4.575,0,0,0,.57-2.562v-19h-3.484v-4h12.828v4Z" fill="#231f20"/><path d="M259.059,392.656h-3.032v-4h10.516v4h-3.281v19.7h-5.219L247.855,394.89V408.2h2.954v4H240.5v-4h3.172V392.656H240.5v-4h9.891l8.672,14.719Z" fill="#231f20"/><path d="M268,400.359a12.033,12.033,0,0,1,1.641-6.313,11.2,11.2,0,0,1,4.617-4.257,16.127,16.127,0,0,1,13.687,0,11.143,11.143,0,0,1,4.594,4.273,13.048,13.048,0,0,1,0,12.641,11.065,11.065,0,0,1-4.609,4.265,15.959,15.959,0,0,1-13.578,0,11.347,11.347,0,0,1-4.672-4.265A11.922,11.922,0,0,1,268,400.359Zm19.609-.031a9.494,9.494,0,0,0-.781-3.9,6.636,6.636,0,0,0-2.258-2.8,6.271,6.271,0,0,0-6.914,0,6.709,6.709,0,0,0-2.257,2.8,9.4,9.4,0,0,0-.79,3.9,9.736,9.736,0,0,0,.805,4.039,6.655,6.655,0,0,0,2.274,2.812,5.775,5.775,0,0,0,3.39,1.024,5.993,5.993,0,0,0,3.477-1.024,6.445,6.445,0,0,0,2.273-2.812A9.994,9.994,0,0,0,287.6,400.328Z" fill="#231f20"/><path d="M298.447,406.312v-4.578h9.469v4.578Z" fill="#231f20"/><path d="M0,444.711v-4.578H9.469v4.578Z" fill="#231f20"/><path d="M31.875,428.868v-1.813h4v8.281h-4q-1.765-4.484-5.891-4.484a6.376,6.376,0,0,0-3.632,1.063,7.112,7.112,0,0,0-2.469,2.9,9.267,9.267,0,0,0-.883,4.07,8.736,8.736,0,0,0,.836,3.836,6.973,6.973,0,0,0,2.336,2.781,6.154,6.154,0,0,0,7.633-.625,8.337,8.337,0,0,0,2.383-4.382l4.64,2.2q-2.625,8.188-11.64,8.187a14.663,14.663,0,0,1-6.774-1.484,10.544,10.544,0,0,1-4.461-4.219,12.651,12.651,0,0,1-1.562-6.39A12.136,12.136,0,0,1,14,432.571a11.478,11.478,0,0,1,4.445-4.336,12.889,12.889,0,0,1,6.352-1.57A11.127,11.127,0,0,1,31.875,428.868Z" fill="#231f20"/><path d="M39.141,438.758a12.038,12.038,0,0,1,1.64-6.312,11.218,11.218,0,0,1,4.617-4.258,14.832,14.832,0,0,1,6.852-1.523,14.733,14.733,0,0,1,6.836,1.523,11.149,11.149,0,0,1,4.594,4.273,13.055,13.055,0,0,1,0,12.641,11.064,11.064,0,0,1-4.61,4.266,14.829,14.829,0,0,1-6.82,1.515,14.749,14.749,0,0,1-6.758-1.515A11.356,11.356,0,0,1,40.82,445.1,11.919,11.919,0,0,1,39.141,438.758Zm19.609-.031a9.5,9.5,0,0,0-.781-3.9,6.637,6.637,0,0,0-2.258-2.8,6.271,6.271,0,0,0-6.914,0,6.705,6.705,0,0,0-2.258,2.8,9.409,9.409,0,0,0-.789,3.9,9.732,9.732,0,0,0,.8,4.039,6.67,6.67,0,0,0,2.273,2.813,5.787,5.787,0,0,0,3.391,1.023,6,6,0,0,0,3.476-1.023,6.449,6.449,0,0,0,2.274-2.813A10.007,10.007,0,0,0,58.75,438.727Z" fill="#231f20"/><path d="M82.2,431.055,87.125,446.6h2.813v4H78.359v-4h3.016l-1.125-4H74.141l-1.25,4h3.14v4H65.625v-4h2.906l4.578-15.547h-3.14v-4H85.375v4Zm-4.906.953-2.109,7.11h4.093Z" fill="#231f20"/><path d="M109.719,428.868v-1.813h4v8.281h-4q-1.765-4.484-5.891-4.484a6.377,6.377,0,0,0-3.633,1.063,7.117,7.117,0,0,0-2.468,2.9,9.267,9.267,0,0,0-.883,4.07,8.736,8.736,0,0,0,.836,3.836,6.973,6.973,0,0,0,2.336,2.781,6.153,6.153,0,0,0,7.632-.625,8.324,8.324,0,0,0,2.383-4.382l4.641,2.2q-2.625,8.188-11.641,8.187a14.662,14.662,0,0,1-6.773-1.484A10.538,10.538,0,0,1,91.8,445.18a12.652,12.652,0,0,1-1.563-6.39,12.137,12.137,0,0,1,1.61-6.219,11.472,11.472,0,0,1,4.445-4.336,12.889,12.889,0,0,1,6.352-1.57A11.129,11.129,0,0,1,109.719,428.868Z" fill="#231f20"/><path d="M125.625,431.055v5.11h6.437v-5.11h-2.406v-4h11.3v4h-2.937V446.6h2.937v4h-11.3v-4h2.406V440.2h-6.437V446.6h2.469v4h-11.36v-4h2.938V431.055h-2.938v-4h11.36v4Z" fill="#231f20"/><path d="M152.188,431.055V446.6h3.624v4H142.5v-4h3.547V431.055H142.5v-4h13.312v4Z" fill="#231f20"/><path d="M175.7,431.055h-3.031v-4h10.516v4h-3.282v19.7h-5.218L164.5,433.29V446.6h2.953v4H157.141v-4h3.171V431.055h-3.171v-4h9.89l8.672,14.719Z" fill="#231f20"/><path d="M203.922,428.977v-1.922h4V435.4h-4a6.631,6.631,0,0,0-2.508-3.313,6.756,6.756,0,0,0-3.945-1.234,6.832,6.832,0,0,0-3.571.93,6.2,6.2,0,0,0-2.4,2.625,8.756,8.756,0,0,0-.844,3.945,9.112,9.112,0,0,0,1.852,6.039,6.276,6.276,0,0,0,5.086,2.211,5.793,5.793,0,0,0,3.515-1.008,5.421,5.421,0,0,0,1.953-2.9h-4.156v-4h11.078a13.316,13.316,0,0,1-1.523,6.578,10.082,10.082,0,0,1-4.375,4.172,14.989,14.989,0,0,1-6.82,1.437,15.834,15.834,0,0,1-6.993-1.453,10.535,10.535,0,0,1-4.6-4.187,12.558,12.558,0,0,1-1.61-6.485,12.034,12.034,0,0,1,1.633-6.265,11.443,11.443,0,0,1,4.477-4.289,13.27,13.27,0,0,1,6.422-1.539Q201.312,426.665,203.922,428.977Z" fill="#231f20"/><path d="M213.282,438.758a12.038,12.038,0,0,1,1.64-6.312,11.214,11.214,0,0,1,4.618-4.258,16.137,16.137,0,0,1,13.687,0,11.162,11.162,0,0,1,4.594,4.273,13.048,13.048,0,0,1,0,12.641,11.07,11.07,0,0,1-4.61,4.266,15.969,15.969,0,0,1-13.578,0,11.35,11.35,0,0,1-4.672-4.266A11.91,11.91,0,0,1,213.282,438.758Zm19.609-.031a9.519,9.519,0,0,0-.781-3.9,6.645,6.645,0,0,0-2.258-2.8,6.271,6.271,0,0,0-6.914,0,6.705,6.705,0,0,0-2.258,2.8,9.393,9.393,0,0,0-.789,3.9,9.732,9.732,0,0,0,.805,4.039,6.655,6.655,0,0,0,2.273,2.813,5.787,5.787,0,0,0,3.391,1.023,6,6,0,0,0,3.476-1.023,6.456,6.456,0,0,0,2.274-2.813A10.024,10.024,0,0,0,232.891,438.727Z" fill="#231f20"/><path d="M246.923,431.055l3.812,11.3,3.61-11.3h-2.172v-4h8.484v4h-2.172l3.86,11.3,3.718-11.3h-2.375v-4h9.454v4h-2.563l-6.531,19.672h-4.36l-3.7-10.75-3.515,10.75h-4.516l-6.719-19.672h-2.5v-4H249.36v4Z" fill="#231f20"/><path d="M286.938,431.055,291.86,446.6h2.813v4H283.1v-4h3.015l-1.125-4h-6.109l-1.25,4h3.141v4H270.36v-4h2.907l4.578-15.547H274.7v-4H290.11v4Zm-4.906.953-2.109,7.11h4.094Z" fill="#231f20"/></g></g></svg>