<svg xmlns="http://www.w3.org/2000/svg" xmlns:xlink="http://www.w3.org/1999/xlink" viewBox="0 0 95.29 81.681"><defs><clipPath id="clip-path" transform="translate(0 0)"><path d="M21.713,38.03V48.762l.038,0a22.415,22.415,0,0,0,10.841-2.5V35.539A22.421,22.421,0,0,1,21.751,38.03Z" fill="none" clip-rule="evenodd"/></clipPath><linearGradient id="linear-gradient" x1="-350.909" y1="597.848" x2="-349.909" y2="597.848" gradientTransform="translate(3839.385 -7864.92) scale(10.879 13.226)" gradientUnits="userSpaceOnUse"><stop offset="0" stop-color="#2d3680"/><stop offset="0.59" stop-color="#267398"/><stop offset="1" stop-color="#1cb6b2"/></linearGradient><clipPath id="clip-path-2" transform="translate(0 0)"><path d="M10.839,2.491V13.225a22.406,22.406,0,0,1,10.84-2.493h.04V0c-.014,0-.025,0-.04,0a22.455,22.455,0,0,0-10.84,2.491" fill="none" clip-rule="evenodd"/></clipPath><linearGradient id="linear-gradient-2" x1="-350.905" y1="597.848" x2="-349.905" y2="597.848" gradientTransform="translate(3828.865 -7900.291) scale(10.88 13.226)" gradientUnits="userSpaceOnUse"><stop offset="0" stop-color="#d0e19b"/><stop offset="0.4" stop-color="#7aa98c"/><stop offset="0.68" stop-color="#0a8380"/><stop offset="1" stop-color="#1cb6b2"/></linearGradient><clipPath id="clip-path-3" transform="translate(0 0)"><path d="M21.719,32.239h-.04a22.4,22.4,0,0,0-10.84,2.492V45.462a22.419,22.419,0,0,1,10.84-2.492h.04Z" fill="none" clip-rule="evenodd"/></clipPath><linearGradient id="linear-gradient-3" x1="-350.903" y1="597.847" x2="-349.904" y2="597.847" gradientTransform="translate(3829.044 -7866.347) scale(10.881 13.223)" gradientUnits="userSpaceOnUse"><stop offset="0" stop-color="#d0e19b"/><stop offset="0.42" stop-color="#7aa98c"/><stop offset="0.72" stop-color="#0a8380"/><stop offset="1" stop-color="#1cb6b2"/></linearGradient><clipPath id="clip-path-4" transform="translate(0 0)"><path d="M21.713,16.525h.1a22.412,22.412,0,0,0,10.783-2.493V3.3A22.448,22.448,0,0,1,21.751,5.794h-.038Z" fill="none" clip-rule="evenodd"/></clipPath><linearGradient id="linear-gradient-4" x1="-350.909" y1="597.847" x2="-349.909" y2="597.847" gradientTransform="translate(3839.385 -7895.116) scale(10.879 13.222)" xlink:href="#linear-gradient"/><clipPath id="clip-path-5" transform="translate(0 0)"><path d="M43.432,16.929h-.056c-10.787.017-10.806,4.984-21.625,4.984h-.038V32.644h.038c10.838,0,10.838-4.982,21.681-4.982Z" fill="none" clip-rule="evenodd"/></clipPath><linearGradient id="linear-gradient-5" x1="-330.027" y1="598.298" x2="-329.027" y2="598.298" gradientTransform="translate(8210.985 -9377.627) scale(24.814 15.715)" gradientUnits="userSpaceOnUse"><stop offset="0" stop-color="#2d3680"/><stop offset="0.4" stop-color="#267398"/><stop offset="1" stop-color="#1cb6b2"/></linearGradient><clipPath id="clip-path-6" transform="translate(0 0)"><path d="M21.719,16.119h-.04C10.841,16.119,10.841,21.1,0,21.1V31.832c10.841,0,10.841-4.981,21.679-4.981l.04,0Z" fill="none" clip-rule="evenodd"/></clipPath><linearGradient id="linear-gradient-6" x1="-330.026" y1="598.297" x2="-329.026" y2="598.297" gradientTransform="translate(8186.888 -9376.901) scale(24.816 15.713)" gradientUnits="userSpaceOnUse"><stop offset="0" stop-color="#d0e19b"/><stop offset="0.51" stop-color="#7aa98c"/><stop offset="0.86" stop-color="#0a8380"/><stop offset="1" stop-color="#1cb6b2"/></linearGradient></defs><g id="Layer_2" data-name="Layer 2"><g id="Layer_1-2" data-name="Layer 1"><path d="M44.032,70.079V68.584H42.42v.461h1.124v1.034a1.059,1.059,0,0,1-1.115,1.19c-.653,0-1.107-.405-1.107-1.272V67.55c0-.868.4-1.273,1.066-1.273.644,0,1.057.372,1.1,1.174h.5A1.531,1.531,0,0,0,42.388,65.8c-.951,0-1.562.6-1.562,1.744V70a1.558,1.558,0,0,0,1.6,1.751,1.532,1.532,0,0,0,1.6-1.669" transform="translate(0 0)" fill="#2a3580" fill-rule="evenodd"/><path d="M45.38,70.1V68.856c0-.826.322-1.173.958-1.173.545,0,.9.479.9,1.173v1.265c0,.81-.405,1.189-.9,1.189C45.734,71.31,45.38,70.955,45.38,70.1Zm2.337-4.422h-.479v2.033a1.221,1.221,0,0,0-1.008-.486c-.834,0-1.347.553-1.347,1.627V70.1c0,1.1.563,1.661,1.347,1.661a1.236,1.236,0,0,0,1.025-.5l.066.4h.4Z" transform="translate(0 0)" fill="#2a3580" fill-rule="evenodd"/><path d="M48.618,73.245h.28c.6,0,.844-.405,1.034-1.05L51.4,67.328h-.512l-.951,3.165L48.85,67.328h-.522l1.39,3.9-.274.892c-.107.355-.232.645-.611.645h-.215Z" transform="translate(0 0)" fill="#2a3580" fill-rule="evenodd"/><path d="M52.007,71.665h.487V69.038c0-.843.4-1.348,1-1.348.569,0,.8.4.8,1.274v2.7h.489V68.889c0-1.19-.462-1.66-1.166-1.66a1.228,1.228,0,0,0-1.123.635l-.083-.536h-.4Zm1.544-5.933-.619.933h.478l.72-.933Z" transform="translate(0 0)" fill="#2a3580" fill-rule="evenodd"/><path d="M55.591,68.393c0,1.488,2.232,1.1,2.232,2.158,0,.462-.314.734-.851.734a.854.854,0,0,1-.95-.908h-.487a1.336,1.336,0,0,0,1.437,1.388,1.208,1.208,0,0,0,1.348-1.2c0-1.528-2.232-1.14-2.232-2.156,0-.447.3-.711.81-.711a.786.786,0,0,1,.859.859h.488A1.261,1.261,0,0,0,56.9,67.229,1.17,1.17,0,0,0,55.591,68.393Z" transform="translate(0 0)" fill="#2a3580" fill-rule="evenodd"/><polygon points="59.632 65.682 59.145 65.682 59.145 71.665 59.632 71.665 59.632 69.93 60.063 69.46 61.525 71.665 62.112 71.665 60.394 69.078 61.898 67.328 61.278 67.328 59.632 69.261 59.632 65.682" fill="#2a3580" fill-rule="evenodd"/><path d="M62.5,66.129a.4.4,0,1,0,.4-.4.373.373,0,0,0-.4.4m.156,5.536h.487V67.328h-.487Z" transform="translate(0 0)" fill="#2a3580" fill-rule="evenodd"/><path d="M64.624,68.773c0-.727.347-1.066.918-1.066.594,0,.949.339.949,1.066v.5H64.624Zm-.5,0V70.2a1.36,1.36,0,0,0,1.4,1.545,1.382,1.382,0,0,0,1.511-1.413h-.487a.9.9,0,0,1-1.007.934c-.571,0-.918-.338-.918-1.066v-.47h2.355v-.96a1.383,1.383,0,0,0-1.446-1.544A1.366,1.366,0,0,0,64.128,68.773Z" transform="translate(0 0)" fill="#2a3580" fill-rule="evenodd"/><path d="M69.78,67.516V70.03a1.543,1.543,0,0,0,1.579,1.735,1.58,1.58,0,0,0,1.62-1.67h-.5c-.082.8-.464,1.208-1.124,1.208-.637,0-1.083-.413-1.083-1.273V67.516c0-.858.43-1.272,1.05-1.272.652,0,1.05.389,1.106,1.207h.5a1.55,1.55,0,0,0-1.6-1.67,1.529,1.529,0,0,0-1.546,1.735" transform="translate(0 0)" fill="#2a3580" fill-rule="evenodd"/><path d="M74.2,68.773c0-.727.347-1.066.918-1.066.594,0,.949.339.949,1.066v.5H74.2Zm-.5,0V70.2a1.359,1.359,0,0,0,1.4,1.545,1.384,1.384,0,0,0,1.513-1.413h-.488a.9.9,0,0,1-1.007.934c-.571,0-.918-.338-.918-1.066v-.47h2.355v-.96a1.382,1.382,0,0,0-1.446-1.544A1.366,1.366,0,0,0,73.705,68.773Z" transform="translate(0 0)" fill="#2a3580" fill-rule="evenodd"/><path d="M77.531,71.665h.487V69.038c0-.843.4-1.348,1-1.348.57,0,.8.4.8,1.274v2.7h.489V68.889c0-1.19-.464-1.66-1.166-1.66a1.23,1.23,0,0,0-1.125.635l-.082-.536h-.405Z" transform="translate(0 0)" fill="#2a3580" fill-rule="evenodd"/><path d="M83.092,71.708v-.463h-.248c-.512,0-.743-.3-.743-.868V67.782h.893v-.454H82.1v-1h-.488v1h-.66v.454h.66v2.595a1.169,1.169,0,0,0,1.231,1.331Z" transform="translate(0 0)" fill="#2a3580" fill-rule="evenodd"/><path d="M85.861,67.807v-.53a1.806,1.806,0,0,0-.439-.041,1.236,1.236,0,0,0-1.131.645v-.008l-.083-.545H83.8v4.337h.488V69.038c0-.826.4-1.323,1.024-1.323a1.514,1.514,0,0,1,.546.092" transform="translate(0 0)" fill="#2a3580" fill-rule="evenodd"/><path d="M89.266,71.665V67.328h-.488v2.627c0,.844-.4,1.348-1,1.348-.57,0-.8-.4-.8-1.273v-2.7h-.487V70.1c0,1.19.462,1.661,1.165,1.661a1.227,1.227,0,0,0,1.124-.637l.082.537Z" transform="translate(0 0)" fill="#2a3580" fill-rule="evenodd"/><path d="M90.357,71.665h.486V69.038c0-.843.388-1.348.967-1.348.479,0,.769.349.769,1.257v2.718h.487V69.038c0-.843.405-1.348.993-1.348.47,0,.743.349.743,1.257v2.718h.488v-2.76c0-1.149-.456-1.676-1.124-1.676a1.227,1.227,0,0,0-1.207.833,1.047,1.047,0,0,0-1.041-.833,1.157,1.157,0,0,0-1.082.66l-.076-.561h-.4Z" transform="translate(0 0)" fill="#2a3580" fill-rule="evenodd"/><polygon points="43.429 75.797 40.619 75.797 40.619 76.276 42.809 76.276 40.512 81.193 40.512 81.582 43.47 81.582 43.47 81.103 41.115 81.103 43.429 76.145 43.429 75.797" fill="#2a3580" fill-rule="evenodd"/><path d="M44.5,80.019V78.772c0-.825.322-1.174.959-1.174.546,0,.9.479.9,1.174v1.265c0,.81-.405,1.189-.9,1.189C44.85,81.226,44.5,80.872,44.5,80.019Zm2.338,1.563V75.6h-.479v2.034a1.217,1.217,0,0,0-1.008-.488c-.835,0-1.347.554-1.347,1.628v1.247c0,1.1.562,1.662,1.347,1.662a1.238,1.238,0,0,0,1.026-.5l.065.4Z" transform="translate(0 0)" fill="#2a3580" fill-rule="evenodd"/><path d="M47.924,81.582h.488V78.954c0-.826.405-1.322,1.024-1.322a1.518,1.518,0,0,1,.546.091v-.53a1.793,1.793,0,0,0-.438-.041,1.237,1.237,0,0,0-1.132.645v-.008l-.084-.546h-.4Z" transform="translate(0 0)" fill="#2a3580" fill-rule="evenodd"/><path d="M50.982,80.11v-1.4c0-.752.363-1.091.95-1.091s.951.339.951,1.091v1.4c0,.753-.363,1.092-.951,1.092S50.982,80.863,50.982,80.11Zm-.5-1.4v1.4a1.451,1.451,0,1,0,2.893,0v-1.4a1.451,1.451,0,1,0-2.893,0Z" transform="translate(0 0)" fill="#2a3580" fill-rule="evenodd"/><path d="M54.783,81.582h.537l.529-2.157c.124-.495.264-1.191.3-1.471h.016c.033.28.173.976.3,1.471l.528,2.157h.538L58.6,77.243h-.512l-.538,2.363c-.107.447-.232,1.125-.28,1.365h-.017c-.049-.273-.19-1.009-.313-1.53l-.521-2.115h-.529l-.521,2.115c-.124.521-.264,1.257-.314,1.53h-.017c-.049-.24-.173-.918-.28-1.365l-.537-2.363h-.514Z" transform="translate(0 0)" fill="#2a3580" fill-rule="evenodd"/><path d="M59.212,81.582H59.7V77.243h-.487Zm-.157-5.538a.4.4,0,1,0,.4-.4A.373.373,0,0,0,59.055,76.044Z" transform="translate(0 0)" fill="#2a3580" fill-rule="evenodd"/><path d="M61.055,80.359c0-.554.339-.851.976-.851h.875v.851a.823.823,0,0,1-.9.843C61.443,81.2,61.055,80.929,61.055,80.359Zm2.338,1.223v-3a1.285,1.285,0,0,0-1.33-1.437,1.262,1.262,0,0,0-1.372,1.231h.488a.79.79,0,0,1,.867-.76c.563,0,.86.339.86.975v.463h-.86c-.95,0-1.487.463-1.487,1.3a1.268,1.268,0,0,0,1.371,1.33,1.167,1.167,0,0,0,1-.5l.04.4Z" transform="translate(0 0)" fill="#2a3580" fill-rule="evenodd"/><path d="M40.28,41.5V52.073a17.258,17.258,0,0,0,.264,3.663,5.16,5.16,0,0,0,2.549,3.28,8.507,8.507,0,0,0,4.161.938,8.5,8.5,0,0,0,4.159-.938,5.586,5.586,0,0,0,2.7-3.9,21.18,21.18,0,0,0,.236-3.868V45.539H47.37V49.73h1.2v2.343q0,3.4-.733,3.838a.9.9,0,0,1-.995.088q-.792-.438-.791-3.516V41.175q0-2.9.644-3.281a.985.985,0,0,1,1.2-.059q.672.322.673,4.424h5.773a22.617,22.617,0,0,0-.236-4.043,5.932,5.932,0,0,0-2.607-3.75,7.15,7.15,0,0,0-3.9-.938,8.7,8.7,0,0,0-4.247.938Q40.281,36.2,40.28,41.5" transform="translate(0 0)" fill="#2a3580" fill-rule="evenodd"/><path d="M56.422,41.115V53.009q0,4.483,2.784,6.124a8.566,8.566,0,0,0,4.306.907,8.164,8.164,0,0,0,3.9-.76,5.413,5.413,0,0,0,2.754-3.106,16.5,16.5,0,0,0,.323-3.985V51.077H64.831v.761q0,3.31-.674,3.984a.813.813,0,0,1-1.172.059q-.615-.439-.614-3.37V41.291q0-3.076.7-3.575a.835.835,0,0,1,1.026,0q.76.5.762,4.249h5.712c0-.078.005-.205.014-.381s.015-.361.015-.557c0-.215.006-.42.015-.615s.014-.352.014-.469q0-3.957-2.666-5.537a8.6,8.6,0,0,0-4.306-.819,9.176,9.176,0,0,0-4.336.79q-2.9,1.641-2.9,6.738" transform="translate(0 0)" fill="#2a3580" fill-rule="evenodd"/><polygon points="71.781 59.896 84.796 59.896 84.796 54.446 79.399 54.446 86.02 33.675 72.971 33.675 72.971 39.036 78.314 39.036 71.781 59.896" fill="#2a3580" fill-rule="evenodd"/><g clip-path="url(#clip-path)"><rect x="21.713" y="35.539" width="10.879" height="13.225" fill="url(#linear-gradient)"/></g><g clip-path="url(#clip-path-2)"><rect x="10.839" width="10.88" height="13.225" fill="url(#linear-gradient-2)"/></g><g clip-path="url(#clip-path-3)"><rect x="10.839" y="32.239" width="10.881" height="13.223" fill="url(#linear-gradient-3)"/></g><g clip-path="url(#clip-path-4)"><rect x="21.713" y="3.303" width="10.879" height="13.223" fill="url(#linear-gradient-4)"/></g><g clip-path="url(#clip-path-5)"><rect x="21.713" y="16.929" width="21.719" height="15.715" fill="url(#linear-gradient-5)"/></g><g clip-path="url(#clip-path-6)"><rect y="16.119" width="21.719" height="15.712" fill="url(#linear-gradient-6)"/></g></g></g></svg>