<svg xmlns="http://www.w3.org/2000/svg" viewBox="0 0 128.758 119.095"><path d="M77.12,37.47q0,.693-.231.837a1.471,1.471,0,0,1-.748.144H66.974v9.224c0,.461-.077.741-.231.836a1.485,1.485,0,0,1-.75.144h-3.92c-.46,0-.74-.077-.835-.23a1.472,1.472,0,0,1-.144-.75V38.451H51.87c-.462,0-.741-.076-.836-.231a1.457,1.457,0,0,1-.145-.75V33.55q0-.691.231-.835a1.472,1.472,0,0,1,.75-.144h9.224V23.4q0-.693.23-.835a1.468,1.468,0,0,1,.749-.145h3.92c.461,0,.741.078.836.231a1.471,1.471,0,0,1,.145.749v9.167h9.167c.46,0,.739.076.834.229a1.467,1.467,0,0,1,.145.75Z" fill="#593202"/><path d="M87.665,13.533,84.48,16.718a.829.829,0,0,0-.039,1.129,26.986,26.986,0,0,1,0,35.385.829.829,0,0,0,.039,1.129l3.185,3.185a.83.83,0,0,0,1.206-.034,33.181,33.181,0,0,0,0-43.945.829.829,0,0,0-1.2-.034" fill="#9e3a31"/><path d="M36.96,35.539a26.932,26.932,0,0,1,6.608-17.693.828.828,0,0,0-.039-1.129l-3.184-3.184a.829.829,0,0,0-1.206.034,33.182,33.182,0,0,0,0,43.944.829.829,0,0,0,1.206.035l3.184-3.185a.828.828,0,0,0,.039-1.129A26.93,26.93,0,0,1,36.96,35.539" fill="#f0ab58"/><path d="M45.183,15.064a.829.829,0,0,0,1.129.039,26.992,26.992,0,0,1,35.386,0,.828.828,0,0,0,1.129-.038l3.184-3.185a.829.829,0,0,0-.034-1.2,33.18,33.18,0,0,0-43.945,0A.829.829,0,0,0,42,11.879Z" fill="#31475f"/><path d="M82.826,56.015a.828.828,0,0,0-1.129-.039,26.991,26.991,0,0,1-35.386,0,.828.828,0,0,0-1.129.039L42,59.2a.829.829,0,0,0,.035,1.2,33.179,33.179,0,0,0,43.944,0,.828.828,0,0,0,.034-1.2Z" fill="#436b35"/><path d="M0,95.456H1.562v-8.1H0V85.6H5.336v1.753H3.773v8.1H5.336v1.753H0Z" fill="#050505"/><path d="M6.443,95.532H7.7V90.653H6.443V88.975H9.8v1.03a4.853,4.853,0,0,1,3.049-1.239,2.275,2.275,0,0,1,2.459,2.554v4.212h1.257v1.677H11.894V95.532h1.258v-4c0-.685-.248-1.067-1.01-1.067a4.015,4.015,0,0,0-2.288.953v4.117h1.258v1.677H6.443Z" fill="#050505"/><path d="M17.463,96.961V94.636h1.715v1.029a7.036,7.036,0,0,0,1.525.19c.972,0,1.353-.381,1.353-.8,0-1.468-4.517-.649-4.517-3.736,0-1.506,1.067-2.554,3.316-2.554a10.711,10.711,0,0,1,2.916.458v2.325H22.037V90.424a6.5,6.5,0,0,0-1.163-.115c-.972,0-1.276.382-1.276.782,0,1.582,4.536.629,4.536,3.812,0,1.22-.649,2.516-3.412,2.516A12.81,12.81,0,0,1,17.463,96.961Z" fill="#050505"/><path d="M26.137,94.941V90.672h-1.43v-1.7h1.43V86.88H28.29v2.095h2.249v1.7H28.29v4.155c0,.781.457.934,1.106.934a3.977,3.977,0,0,0,1.277-.21v1.582a7.427,7.427,0,0,1-1.964.286C26.67,97.419,26.137,96.446,26.137,94.941Z" fill="#050505"/><path d="M32.009,100.582l.61-1.429a2.859,2.859,0,0,0,1.391.419,1.213,1.213,0,0,0,1.277-.953l.439-1.41H34.144l-1.907-6.575h-.971V88.975h4.288v1.678H34.448l1.526,5.793,1.867-5.793H36.717V88.975h4.154v1.659h-.933l-2.764,8.252c-.495,1.487-1.334,2.325-2.859,2.325A4.607,4.607,0,0,1,32.009,100.582Z" fill="#050505"/><path d="M42.837,94.941V90.672h-1.43v-1.7h1.43V86.88H44.99v2.095h2.249v1.7H44.99v4.155c0,.781.457.934,1.106.934a3.977,3.977,0,0,0,1.277-.21v1.582a7.427,7.427,0,0,1-1.964.286C43.37,97.419,42.837,96.446,42.837,94.941Z" fill="#050505"/><path d="M49.3,94.865V90.653H48.022V88.975h3.431v5.68c0,.686.248,1.068,1.01,1.068a3.983,3.983,0,0,0,2.287-.934V90.653H53.321V88.975H56.9v6.557h1.258v1.677H54.808V96.2a4.843,4.843,0,0,1-3.05,1.22A2.275,2.275,0,0,1,49.3,94.865Z" fill="#050505"/><path d="M59.633,94.941V90.672H58.2v-1.7h1.43V86.88h2.153v2.095h2.249v1.7H61.786v4.155c0,.781.457.934,1.106.934a3.977,3.977,0,0,0,1.277-.21v1.582a7.427,7.427,0,0,1-1.964.286C60.166,97.419,59.633,96.446,59.633,94.941Z" fill="#050505"/><path d="M69.813,87.355h-1.3V85.6h5.108v1.753h-1.64l2.231,7.3,2.325-6.765-.191-.535H74.883V85.6h5.2v1.753H78.428l2.325,7.224,2.191-7.224h-1.62V85.6h5.108v1.753H85.117l-3.2,9.854H79.762l-2.231-6.423-2.343,6.423H73.034Z" fill="#050505"/><path d="M86.819,95.532h1.258V90.653H86.819V88.975H90.23v6.557h1.258v1.677H86.819Zm2.23-10.711a1.487,1.487,0,1,1-1.487,1.487A1.489,1.489,0,0,1,89.049,84.821Z" fill="#050505"/><path d="M92.1,93.093c0-2.5,1.429-4.327,4.04-4.327,2.591,0,3.773,1.83,3.773,4.1a5,5,0,0,1-.076.915H94.272a2.2,2.2,0,0,0,2.478,2,5.518,5.518,0,0,0,2.648-.762v1.659a6.032,6.032,0,0,1-2.972.743A3.984,3.984,0,0,1,92.1,93.093Zm2.153-.821h3.641c-.077-.971-.458-1.943-1.716-1.943C94.939,90.329,94.405,91.244,94.253,92.272Z" fill="#050505"/><path d="M100.869,93.093c0-2.65,1.544-4.327,3.869-4.327a3.671,3.671,0,0,1,2.172.648V85.431h-1.562v-1.7h3.716v11.8h1.258v1.677H107.1v-.915a3.3,3.3,0,0,1-2.555,1.125C102.337,97.419,100.869,95.665,100.869,93.093Zm6.041,2V90.92a2.63,2.63,0,0,0-1.6-.515c-1.506,0-2.23,1.029-2.23,2.65,0,1.448.591,2.724,2.077,2.724A2.653,2.653,0,0,0,106.91,95.094Z" fill="#050505"/><path d="M111.222,95.875l4.344-5.394h-2.477v1.468h-1.773V88.975h6.938v1.3L113.832,95.7h2.859v-1.62h1.734v3.126h-7.2Z" fill="#050505"/><path d="M119.9,100.582l.61-1.429a2.855,2.855,0,0,0,1.39.419,1.214,1.214,0,0,0,1.278-.953l.438-1.41H122.03l-1.906-6.575h-.972V88.975h4.288v1.678h-1.105l1.525,5.793,1.868-5.793H124.6V88.975h4.154v1.659h-.934l-2.763,8.252c-.5,1.487-1.334,2.325-2.859,2.325A4.6,4.6,0,0,1,119.9,100.582Z" fill="#050505"/><path d="M9.59,113.148h1.258v-4.879H9.59v-1.677H13v6.556h1.258v1.677H9.59Zm2.229-10.711a1.487,1.487,0,1,1-1.486,1.487A1.489,1.489,0,0,1,11.819,102.437Z" fill="#050505"/><path d="M19.446,113.072h1.563v-8.1H19.446v-1.753h5.279v1.753H23.22v8.1h1.753v1.753H19.446Zm4.326-3.945v-.134l3.792-4.06H26.307v-1.714H31.4v1.753H30.042l-3.621,3.945,3.507,4.155h1.658v1.753H28.518Z" fill="#050505"/><path d="M32.22,110.709a4.027,4.027,0,0,1,4.345-4.326,4.326,4.326,0,1,1,0,8.652A4.027,4.027,0,0,1,32.22,110.709Zm6.461,0c0-1.506-.649-2.707-2.116-2.707s-2.116,1.2-2.116,2.707.649,2.706,2.116,2.706S38.681,112.214,38.681,110.709Z" fill="#050505"/><path d="M41.732,113.167h1.106V108.25H41.732v-1.658H44.82v.953a3.984,3.984,0,0,1,2.725-1.162,2.057,2.057,0,0,1,2.1,1.238,4.162,4.162,0,0,1,2.82-1.238c1.43,0,2.325.819,2.325,2.515v4.269h1.125v1.658H51.548v-1.658h1.124v-4.136c0-.685-.248-1.01-.953-1.01a2.927,2.927,0,0,0-1.849.763v4.383H51v1.658H46.631v-1.658h1.124v-4.136c0-.685-.248-1.01-.953-1.01a2.915,2.915,0,0,0-1.849.8v4.345h1.125v1.658H41.732Z" fill="#050505"/><path d="M56.24,116.922H57.5v-8.653H56.24v-1.677H59.5v.895a3.278,3.278,0,0,1,2.535-1.1c2.23,0,3.659,1.7,3.659,4.268,0,2.65-1.5,4.384-3.869,4.384a3.675,3.675,0,0,1-2.172-.648v2.535h1.5v1.7H56.24Zm3.412-8.2v4.155a2.439,2.439,0,0,0,1.6.514c1.506,0,2.229-1.047,2.229-2.668,0-1.448-.59-2.706-2.077-2.706A2.539,2.539,0,0,0,59.652,108.726Z" fill="#050505"/><path d="M66.688,110.709c0-2.5,1.43-4.326,4.041-4.326,2.591,0,3.773,1.829,3.773,4.1a5.081,5.081,0,0,1-.076.915H68.861a2.2,2.2,0,0,0,2.478,2,5.529,5.529,0,0,0,2.648-.761v1.658a6.032,6.032,0,0,1-2.972.743A3.985,3.985,0,0,1,66.688,110.709Zm2.154-.82h3.64c-.076-.972-.458-1.944-1.715-1.944C69.528,107.945,68.994,108.86,68.842,109.889Z" fill="#050505"/><path d="M76.487,112.558v-4.27H75.058v-1.7h1.429v-2.1h2.154v2.1H80.89v1.7H78.641v4.155c0,.781.457.934,1.1.934a3.977,3.977,0,0,0,1.277-.21v1.582a7.384,7.384,0,0,1-1.963.286C77.021,115.035,76.487,114.062,76.487,112.558Z" fill="#050505"/><path d="M81.615,110.709c0-2.5,1.43-4.326,4.04-4.326,2.592,0,3.774,1.829,3.774,4.1a5.081,5.081,0,0,1-.076.915H83.788a2.2,2.2,0,0,0,2.478,2,5.529,5.529,0,0,0,2.648-.761v1.658a6.036,6.036,0,0,1-2.973.743A3.985,3.985,0,0,1,81.615,110.709Zm2.154-.82h3.64c-.076-.972-.458-1.944-1.716-1.944C84.455,107.945,83.921,108.86,83.769,109.889Z" fill="#050505"/><path d="M90.252,113.148H91.51v-4.879H90.252v-1.677h3.354v1.029a4.86,4.86,0,0,1,3.049-1.238,2.275,2.275,0,0,1,2.459,2.553v4.212h1.258v1.677H95.7v-1.677h1.259v-4c0-.685-.248-1.067-1.011-1.067a4.015,4.015,0,0,0-2.287.953v4.117h1.258v1.677H90.252Z" fill="#050505"/><path d="M100.985,110.747a4.007,4.007,0,0,1,4.365-4.364,9.063,9.063,0,0,1,2.972.552v2.783h-1.791v-1.6a3.959,3.959,0,0,0-.953-.114c-1.582,0-2.363,1.011-2.363,2.669,0,1.619.743,2.706,2.439,2.706a5.793,5.793,0,0,0,2.592-.725v1.7a6.184,6.184,0,0,1-2.934.686C102.624,115.035,100.985,113.529,100.985,110.747Z" fill="#050505"/><path d="M108.84,117.7c.839-.477,1.677-1.01,1.677-2.173v-7.261h-1.334v-1.677h3.488v8.958c0,2.363-1.582,2.934-3.2,3.545Zm2.649-15.266A1.487,1.487,0,1,1,110,103.924,1.489,1.489,0,0,1,111.489,102.437Z" fill="#050505"/><path d="M114.082,113.148h1.258v-4.879h-1.258v-1.677h3.411v6.556h1.258v1.677h-4.669Zm2.23-10.711a1.487,1.487,0,1,1-1.487,1.487A1.489,1.489,0,0,1,116.312,102.437Z" fill="#050505"/><path d="M99.543,35.539A35.539,35.539,0,1,1,64,0,35.539,35.539,0,0,1,99.543,35.539" fill="#fff"/><path d="M77.12,37.47q0,.693-.231.837a1.471,1.471,0,0,1-.748.144H66.974v9.224c0,.461-.077.741-.231.836a1.485,1.485,0,0,1-.75.144h-3.92c-.46,0-.74-.077-.835-.23a1.472,1.472,0,0,1-.144-.75V38.451H51.87c-.462,0-.741-.076-.836-.231a1.457,1.457,0,0,1-.145-.75V33.55q0-.691.231-.835a1.472,1.472,0,0,1,.75-.144h9.224V23.4q0-.693.23-.835a1.468,1.468,0,0,1,.749-.145h3.92c.461,0,.741.078.836.231a1.471,1.471,0,0,1,.145.749v9.167h9.167c.46,0,.739.076.834.229a1.467,1.467,0,0,1,.145.75Z" fill="#593202"/><path d="M87.665,13.533,84.48,16.718a.829.829,0,0,0-.039,1.129,26.986,26.986,0,0,1,0,35.385.829.829,0,0,0,.039,1.129l3.185,3.185a.83.83,0,0,0,1.206-.034,33.181,33.181,0,0,0,0-43.945.829.829,0,0,0-1.2-.034" fill="#9e3a31"/><path d="M36.96,35.539a26.932,26.932,0,0,1,6.608-17.693.828.828,0,0,0-.039-1.129l-3.184-3.184a.829.829,0,0,0-1.206.034,33.182,33.182,0,0,0,0,43.944.829.829,0,0,0,1.206.035l3.184-3.185a.828.828,0,0,0,.039-1.129A26.93,26.93,0,0,1,36.96,35.539" fill="#f0ab58"/><path d="M45.183,15.064a.829.829,0,0,0,1.129.039,26.992,26.992,0,0,1,35.386,0,.828.828,0,0,0,1.129-.038l3.184-3.185a.829.829,0,0,0-.034-1.2,33.18,33.18,0,0,0-43.945,0A.829.829,0,0,0,42,11.879Z" fill="#31475f"/><path d="M82.826,56.015a.828.828,0,0,0-1.129-.039,26.991,26.991,0,0,1-35.386,0,.828.828,0,0,0-1.129.039L42,59.2a.829.829,0,0,0,.035,1.2,33.179,33.179,0,0,0,43.944,0,.828.828,0,0,0,.034-1.2Z" fill="#436b35"/></svg>