<svg xmlns="http://www.w3.org/2000/svg" viewBox="0 0 306.6746 66.3669"><path d="M46.299,35.1145q0,.6915-.231.836a1.4706,1.4706,0,0,1-.748.144H36.153V45.32c0,.46-.077.74-.231.835a1.4725,1.4725,0,0,1-.75.145h-3.92c-.46,0-.74-.077-.835-.231a1.47,1.47,0,0,1-.144-.749v-9.225H21.048c-.461,0-.74-.076-.836-.23a1.4741,1.4741,0,0,1-.144-.75v-3.92q0-.6915.231-.836a1.4673,1.4673,0,0,1,.749-.144h9.225v-9.167q0-.6915.231-.835a1.4615,1.4615,0,0,1,.748-.145h3.92c.462,0,.74.078.836.231a1.4708,1.4708,0,0,1,.145.749v9.167H45.32c.46,0,.739.077.835.231a1.47,1.47,0,0,1,.144.749Z" fill="#593202"/><path d="M56.8437,11.1767l-3.185,3.185a.8271.8271,0,0,0-.038,1.129,26.9937,26.9937,0,0,1,0,35.386.8271.8271,0,0,0,.038,1.129l3.185,3.184a.8287.8287,0,0,0,1.205-.034,33.1785,33.1785,0,0,0,0-43.944.8279.8279,0,0,0-1.205-.035" fill="#9e3a31"/><path d="M6.139,33.1833A26.932,26.932,0,0,1,12.747,15.49a.8282.8282,0,0,0-.039-1.129l-3.185-3.184a.8278.8278,0,0,0-1.205.034,33.1785,33.1785,0,0,0,0,43.944.8287.8287,0,0,0,1.205.035l3.185-3.185a.8282.8282,0,0,0,.039-1.129,26.9248,26.9248,0,0,1-6.608-17.693" fill="#f0ab58"/><path d="M14.3619,12.708a.8282.8282,0,0,0,1.129.039,26.9906,26.9906,0,0,1,35.386,0,.8282.8282,0,0,0,1.129-.039L55.19,9.523a.8287.8287,0,0,0-.034-1.205,33.18,33.18,0,0,0-43.945,0,.8287.8287,0,0,0-.034,1.205Z" fill="#31475f"/><path d="M52.0054,53.6589a.8282.8282,0,0,0-1.129-.039,26.9906,26.9906,0,0,1-35.386,0,.8282.8282,0,0,0-1.129.039l-3.184,3.185a.8279.8279,0,0,0,.034,1.205,33.1785,33.1785,0,0,0,43.944,0,.8279.8279,0,0,0,.034-1.205Z" fill="#436b35"/><path d="M79.324,23.4128H82.11V8.9709H79.324V5.8444h9.5147V8.9709H86.0521V23.4128h2.7866v3.1264H79.324Z" fill="#050505"/><path d="M90.6048,23.549h2.2427V14.85H90.6048V11.86h5.9805v1.8349a8.6557,8.6557,0,0,1,5.437-2.209c2.6845,0,4.3838,1.5293,4.3838,4.5537v7.51h2.2426v2.99h-8.3256v-2.99h2.2431V16.4128c0-1.2232-.4419-1.9029-1.8012-1.9029a7.1437,7.1437,0,0,0-4.0777,1.6993v7.34H98.93v2.99H90.6048Z" fill="#050505"/><path d="M110.074,26.0974V21.9518h3.0581v1.835a12.6272,12.6272,0,0,0,2.7188.34c1.7329,0,2.4126-.68,2.4126-1.4272,0-2.6167-8.0537-1.1553-8.0537-6.66,0-2.6845,1.9028-4.5537,5.9126-4.5537a19.1193,19.1193,0,0,1,5.1992.8155v4.146h-3.0923V14.4421a11.5081,11.5081,0,0,0-2.0727-.2041c-1.733,0-2.2769.68-2.2769,1.393,0,2.8208,8.0879,1.1216,8.0879,6.7964,0,2.1748-1.1558,4.4859-6.083,4.4859A22.8672,22.8672,0,0,1,110.074,26.0974Z" fill="#050505"/><path d="M125.33,22.4953V14.8835H122.782V11.86H125.33V8.1213h3.84V11.86h4.01v3.0239h-4.01v7.4082c0,1.3931.8159,1.665,1.9712,1.665a7.0663,7.0663,0,0,0,2.2769-.374v2.8208a13.2081,13.2081,0,0,1-3.5.51C126.282,26.9133,125.33,25.18,125.33,22.4953Z" fill="#050505"/><path d="M135.66,32.5539l1.0879-2.5483a5.0845,5.0845,0,0,0,2.48.7475,2.1631,2.1631,0,0,0,2.2764-1.6992l.7812-2.5147h-2.82l-3.3974-11.7236h-1.7334V11.86H141.98v2.99H140.01l2.7187,10.33,3.33-10.33h-2.0049V11.86h7.4082v2.956h-1.665L144.869,29.53c-.8838,2.6509-2.3789,4.146-5.0977,4.146A8.2169,8.2169,0,0,1,135.66,32.5539Z" fill="#050505"/><path d="M154.79,22.4953V14.8835H152.241V11.86H154.79V8.1213h3.84V11.86h4.01v3.0239h-4.01v7.4082c0,1.3931.8154,1.665,1.9707,1.665a7.0685,7.0685,0,0,0,2.2773-.374v2.8208a13.206,13.206,0,0,1-3.5.51C155.741,26.9133,154.79,25.18,154.79,22.4953Z" fill="#050505"/><path d="M166.1385,22.36V14.85h-2.2764V11.86h6.1162V21.9855c0,1.2237.4424,1.9034,1.8008,1.9034a7.1017,7.1017,0,0,0,4.0781-1.6651V14.85h-2.5488V11.86h6.3887V23.549H181.94v2.99h-5.9814V24.7385a8.6284,8.6284,0,0,1-5.4365,2.1748C167.8377,26.9133,166.1385,25.384,166.1385,22.36Z" fill="#050505"/><path d="M184.35,22.4953V14.8835h-2.5488V11.86H184.35V8.1213h3.84V11.86h4.01v3.0239h-4.01v7.4082c0,1.3931.8155,1.665,1.9707,1.665a7.0691,7.0691,0,0,0,2.2774-.374v2.8208a13.2066,13.2066,0,0,1-3.5.51C185.3016,26.9133,184.35,25.18,184.35,22.4953Z" fill="#050505"/><path d="M202.4949,8.9709h-2.31V5.8444h9.1074V8.9709H206.369l3.9755,13.0146,4.1465-12.063-.34-.9516H211.534V5.8444h9.2773V8.9709h-2.956L222.0008,21.85,225.908,8.9709H223.02V5.8444h9.1065V8.9709H229.782l-5.7089,17.5683h-3.84l-3.9756-11.4516-4.18,11.4516h-3.84Z" fill="#050505"/><path d="M232.6336,23.549h2.2432V14.85h-2.2432V11.86h6.083V23.549H240.96v2.99h-8.3262ZM236.61,4.4514a2.6506,2.6506,0,1,1-2.6514,2.65A2.654,2.654,0,0,1,236.61,4.4514Z" fill="#050505"/><path d="M241.8416,19.1994c0-4.4517,2.5488-7.7139,7.2041-7.7139,4.6211,0,6.7285,3.2622,6.7285,7.3062a9.0808,9.0808,0,0,1-.1357,1.6308h-9.9229c.3741,2.3111,1.7666,3.5679,4.418,3.5679a9.8492,9.8492,0,0,0,4.7227-1.3589v2.9561a10.74,10.74,0,0,1-5.3008,1.3257C244.39,26.9133,241.8416,23.6511,241.8416,19.1994Zm3.84-1.4614h6.49c-.1358-1.7329-.8154-3.4658-3.0576-3.4658C246.9051,14.2722,245.9539,15.903,245.6815,17.738Z" fill="#050505"/><path d="M257.3026,19.1994c0-4.7236,2.7529-7.7139,6.8984-7.7139a6.5529,6.5529,0,0,1,3.874,1.1553V5.5388h-2.7871V2.5143h6.627V23.549h2.2421v2.99h-5.7421V24.9084a5.877,5.877,0,0,1-4.5538,2.0049C259.9188,26.9133,257.3026,23.7868,257.3026,19.1994Zm10.7724,3.5679V15.3254a4.6972,4.6972,0,0,0-2.8545-.9175c-2.6846,0-3.9756,1.835-3.9756,4.7236,0,2.5826,1.0528,4.8589,3.7032,4.8589A4.7324,4.7324,0,0,0,268.075,22.7673Z" fill="#050505"/><path d="M275.5828,24.16l7.7481-9.6167h-4.418V17.16h-3.16V11.86h12.3692v2.31l-7.8838,9.6846h5.0977V20.9665h3.0918v5.5727H275.5828Z" fill="#050505"/><path d="M290.8729,32.5539l1.0879-2.5483a5.0842,5.0842,0,0,0,2.48.7475,2.1631,2.1631,0,0,0,2.2764-1.6992l.7812-2.5147h-2.82l-3.3974-11.7236h-1.7334V11.86h7.6455v2.99h-1.9707l2.7187,10.33,3.33-10.33h-2.0049V11.86h7.4082v2.956H305.01L300.0818,29.53c-.8837,2.6509-2.3789,4.146-5.0976,4.146A8.2169,8.2169,0,0,1,290.8729,32.5539Z" fill="#050505"/><path d="M79.0862,54.9455h2.2427V46.2463H79.0862v-2.99h6.0826v11.69h2.2426v2.99H79.0862Zm3.9756-19.0977a2.6507,2.6507,0,1,1-2.65,2.65A2.6537,2.6537,0,0,1,83.0618,35.8478Z" fill="#050505"/><path d="M96.6531,54.81h2.7862V40.3674H96.6531V37.2409h9.4126v3.1265h-2.6845V54.81h3.1264v3.1259H96.6531Zm7.7139-7.0347v-.2378L111.1292,40.3h-2.2427V37.2409h9.0728v3.1265h-2.4126L109.09,47.4016l6.2525,7.4082h2.9565v3.1259h-5.4712Z" fill="#050505"/><path d="M119.2484,50.5959c0-4.5537,2.7866-7.7139,7.748-7.7139s7.7476,3.16,7.7476,7.7139-2.7867,7.7139-7.7476,7.7139S119.2484,55.15,119.2484,50.5959Zm11.52,0c0-2.6846-1.1558-4.8257-3.772-4.8257s-3.772,2.1411-3.772,4.8257,1.1553,4.8252,3.772,4.8252S130.7684,53.2805,130.7684,50.5959Z" fill="#050505"/><path d="M136,54.98h1.9707V46.2121H136V43.256h5.5049v1.6988a7.1072,7.1072,0,0,1,4.8594-2.0728,3.6707,3.6707,0,0,1,3.7383,2.209,7.42,7.42,0,0,1,5.0293-2.209c2.5478,0,4.1455,1.461,4.1455,4.4854V54.98h2.0048v2.956H153.5V54.98h2.0049v-7.374c0-1.2237-.4414-1.8013-1.6992-1.8013a5.2112,5.2112,0,0,0-3.2959,1.3594V54.98h2.0049v2.956h-7.7813V54.98h2.0049v-7.374c0-1.2237-.4424-1.8013-1.6992-1.8013a5.1968,5.1968,0,0,0-3.2959,1.4272V54.98h2.0049v2.956H136Z" fill="#050505"/><path d="M161.6541,61.674h2.2432V46.2463h-2.2432v-2.99h5.8106v1.5967a5.8378,5.8378,0,0,1,4.5195-1.9707c3.9756,0,6.5244,3.0244,6.5244,7.6113,0,4.7237-2.6846,7.8165-6.8984,7.8165a6.5515,6.5515,0,0,1-3.8731-1.1553v4.52h2.6846v3.0244h-8.7676Zm6.083-14.6123V54.47a4.3541,4.3541,0,0,0,2.8545.917c2.6836,0,3.9756-1.8691,3.9756-4.7568,0-2.583-1.0537-4.8257-3.7041-4.8257A4.5264,4.5264,0,0,0,167.7371,47.0617Z" fill="#050505"/><path d="M180.1043,50.5959c0-4.4517,2.5488-7.7139,7.2041-7.7139,4.6211,0,6.7285,3.2622,6.7285,7.3057a9.1053,9.1053,0,0,1-.1357,1.6318h-9.9229c.3741,2.3106,1.7666,3.5674,4.418,3.5674a9.8391,9.8391,0,0,0,4.7227-1.3594v2.9571a10.7461,10.7461,0,0,1-5.3008,1.3252C182.6531,58.31,180.1043,55.0471,180.1043,50.5959Zm3.84-1.4614h6.49c-.1358-1.7329-.8154-3.4659-3.0576-3.4659C185.1678,45.6686,184.2166,47.3,183.9442,49.1345Z" fill="#050505"/><path d="M197.3651,53.8918V46.28h-2.5489V43.256h2.5489V39.5178h3.84V43.256h4.01V46.28h-4.01v7.4077c0,1.3935.8154,1.665,1.9707,1.665a7.0981,7.0981,0,0,0,2.2773-.373V57.8a13.2266,13.2266,0,0,1-3.5.51C198.3162,58.31,197.3651,56.5764,197.3651,53.8918Z" fill="#050505"/><path d="M206.3348,50.5959c0-4.4517,2.5488-7.7139,7.2041-7.7139,4.6211,0,6.7285,3.2622,6.7285,7.3057a9.1053,9.1053,0,0,1-.1357,1.6318h-9.9229c.374,2.3106,1.7666,3.5674,4.418,3.5674a9.8383,9.8383,0,0,0,4.7226-1.3594v2.9571a10.7455,10.7455,0,0,1-5.3008,1.3252C208.8836,58.31,206.3348,55.0471,206.3348,50.5959Zm3.84-1.4614h6.49c-.1358-1.7329-.8155-3.4659-3.0577-3.4659C211.3983,45.6686,210.4471,47.3,210.1746,49.1345Z" fill="#050505"/><path d="M221.5233,54.9455h2.2431V46.2463h-2.2431v-2.99h5.9814v1.835a8.6528,8.6528,0,0,1,5.4365-2.209c2.6846,0,4.3838,1.5293,4.3838,4.5537v7.51h2.2422v2.99H231.242v-2.99h2.2432V47.8093c0-1.2232-.4424-1.9029-1.8008-1.9029a7.1421,7.1421,0,0,0-4.0781,1.6993v7.34h2.2431v2.99h-8.3261Z" fill="#050505"/><path d="M240.449,50.6633c0-5.1309,3.16-7.7813,7.7823-7.7813a16.1822,16.1822,0,0,1,5.3007.9854v4.9614h-3.1943V45.9743a7.059,7.059,0,0,0-1.6992-.2041c-2.82,0-4.2139,1.8013-4.2139,4.7573,0,2.8887,1.3252,4.8252,4.35,4.8252a10.3615,10.3615,0,0,0,4.6221-1.291v3.0244a11.0279,11.0279,0,0,1-5.2334,1.2237C243.3719,58.31,240.449,55.6252,240.449,50.6633Z" fill="#050505"/><path d="M254.2781,63.0666c1.4952-.85,2.99-1.8008,2.99-3.874V46.2463H254.89v-2.99h6.2187V59.2267c0,4.2139-2.82,5.2334-5.709,6.3213Zm4.7237-27.2188a2.6507,2.6507,0,1,1-2.65,2.65A2.6541,2.6541,0,0,1,259.0018,35.8478Z" fill="#050505"/><path d="M263.4188,54.9455h2.2431V46.2463h-2.2431v-2.99h6.083v11.69h2.2431v2.99h-8.3261Zm3.9765-19.0977a2.6507,2.6507,0,1,1-2.6513,2.65A2.654,2.654,0,0,1,267.3953,35.8478Z" fill="#050505"/><path d="M46.299,35.1145q0,.6915-.231.836a1.4706,1.4706,0,0,1-.748.144H36.153V45.32c0,.46-.077.74-.231.835a1.4725,1.4725,0,0,1-.75.145h-3.92c-.46,0-.74-.077-.835-.231a1.47,1.47,0,0,1-.144-.749v-9.225H21.048c-.461,0-.74-.076-.836-.23a1.4741,1.4741,0,0,1-.144-.75v-3.92q0-.6915.231-.836a1.4673,1.4673,0,0,1,.749-.144h9.225v-9.167q0-.6915.231-.835a1.4615,1.4615,0,0,1,.748-.145h3.92c.462,0,.74.078.836.231a1.4708,1.4708,0,0,1,.145.749v9.167H45.32c.46,0,.739.077.835.231a1.47,1.47,0,0,1,.144.749Z" fill="#593202"/><path d="M56.8437,11.1767l-3.185,3.185a.8271.8271,0,0,0-.038,1.129,26.9937,26.9937,0,0,1,0,35.386.8271.8271,0,0,0,.038,1.129l3.185,3.184a.8287.8287,0,0,0,1.205-.034,33.1785,33.1785,0,0,0,0-43.944.8279.8279,0,0,0-1.205-.035" fill="#9e3a31"/><path d="M6.139,33.1833A26.932,26.932,0,0,1,12.747,15.49a.8282.8282,0,0,0-.039-1.129l-3.185-3.184a.8278.8278,0,0,0-1.205.034,33.1785,33.1785,0,0,0,0,43.944.8287.8287,0,0,0,1.205.035l3.185-3.185a.8282.8282,0,0,0,.039-1.129,26.9248,26.9248,0,0,1-6.608-17.693" fill="#f0ab58"/><path d="M14.3619,12.708a.8282.8282,0,0,0,1.129.039,26.9906,26.9906,0,0,1,35.386,0,.8282.8282,0,0,0,1.129-.039L55.19,9.523a.8287.8287,0,0,0-.034-1.205,33.18,33.18,0,0,0-43.945,0,.8287.8287,0,0,0-.034,1.205Z" fill="#31475f"/><path d="M52.0054,53.6589a.8282.8282,0,0,0-1.129-.039,26.9906,26.9906,0,0,1-35.386,0,.8282.8282,0,0,0-1.129.039l-3.184,3.185a.8279.8279,0,0,0,.034,1.205,33.1785,33.1785,0,0,0,43.944,0,.8279.8279,0,0,0,.034-1.205Z" fill="#436b35"/><path d="M79.324,23.4128H82.11V8.9709H79.324V5.8444h9.5147V8.9709H86.0521V23.4128h2.7866v3.1264H79.324Z" fill="#050505"/><path d="M90.6048,23.549h2.2427V14.85H90.6048V11.86h5.9805v1.8349a8.6557,8.6557,0,0,1,5.437-2.209c2.6845,0,4.3838,1.5293,4.3838,4.5537v7.51h2.2426v2.99h-8.3256v-2.99h2.2431V16.4128c0-1.2232-.4419-1.9029-1.8012-1.9029a7.1437,7.1437,0,0,0-4.0777,1.6993v7.34H98.93v2.99H90.6048Z" fill="#050505"/><path d="M110.074,26.0974V21.9518h3.0581v1.835a12.6272,12.6272,0,0,0,2.7188.34c1.7329,0,2.4126-.68,2.4126-1.4272,0-2.6167-8.0537-1.1553-8.0537-6.66,0-2.6845,1.9028-4.5537,5.9126-4.5537a19.1193,19.1193,0,0,1,5.1992.8155v4.146h-3.0923V14.4421a11.5081,11.5081,0,0,0-2.0727-.2041c-1.733,0-2.2769.68-2.2769,1.393,0,2.8208,8.0879,1.1216,8.0879,6.7964,0,2.1748-1.1558,4.4859-6.083,4.4859A22.8672,22.8672,0,0,1,110.074,26.0974Z" fill="#050505"/><path d="M125.33,22.4953V14.8835H122.782V11.86H125.33V8.1213h3.84V11.86h4.01v3.0239h-4.01v7.4082c0,1.3931.8159,1.665,1.9712,1.665a7.0663,7.0663,0,0,0,2.2769-.374v2.8208a13.2081,13.2081,0,0,1-3.5.51C126.282,26.9133,125.33,25.18,125.33,22.4953Z" fill="#050505"/><path d="M135.66,32.5539l1.0879-2.5483a5.0845,5.0845,0,0,0,2.48.7475,2.1631,2.1631,0,0,0,2.2764-1.6992l.7812-2.5147h-2.82l-3.3974-11.7236h-1.7334V11.86H141.98v2.99H140.01l2.7187,10.33,3.33-10.33h-2.0049V11.86h7.4082v2.956h-1.665L144.869,29.53c-.8838,2.6509-2.3789,4.146-5.0977,4.146A8.2169,8.2169,0,0,1,135.66,32.5539Z" fill="#050505"/><path d="M154.79,22.4953V14.8835H152.241V11.86H154.79V8.1213h3.84V11.86h4.01v3.0239h-4.01v7.4082c0,1.3931.8154,1.665,1.9707,1.665a7.0685,7.0685,0,0,0,2.2773-.374v2.8208a13.206,13.206,0,0,1-3.5.51C155.741,26.9133,154.79,25.18,154.79,22.4953Z" fill="#050505"/><path d="M166.1385,22.36V14.85h-2.2764V11.86h6.1162V21.9855c0,1.2237.4424,1.9034,1.8008,1.9034a7.1017,7.1017,0,0,0,4.0781-1.6651V14.85h-2.5488V11.86h6.3887V23.549H181.94v2.99h-5.9814V24.7385a8.6284,8.6284,0,0,1-5.4365,2.1748C167.8377,26.9133,166.1385,25.384,166.1385,22.36Z" fill="#050505"/><path d="M184.35,22.4953V14.8835h-2.5488V11.86H184.35V8.1213h3.84V11.86h4.01v3.0239h-4.01v7.4082c0,1.3931.8155,1.665,1.9707,1.665a7.0691,7.0691,0,0,0,2.2774-.374v2.8208a13.2066,13.2066,0,0,1-3.5.51C185.3016,26.9133,184.35,25.18,184.35,22.4953Z" fill="#050505"/><path d="M202.4949,8.9709h-2.31V5.8444h9.1074V8.9709H206.369l3.9755,13.0146,4.1465-12.063-.34-.9516H211.534V5.8444h9.2773V8.9709h-2.956L222.0008,21.85,225.908,8.9709H223.02V5.8444h9.1065V8.9709H229.782l-5.7089,17.5683h-3.84l-3.9756-11.4516-4.18,11.4516h-3.84Z" fill="#050505"/><path d="M232.6336,23.549h2.2432V14.85h-2.2432V11.86h6.083V23.549H240.96v2.99h-8.3262ZM236.61,4.4514a2.6506,2.6506,0,1,1-2.6514,2.65A2.654,2.654,0,0,1,236.61,4.4514Z" fill="#050505"/><path d="M241.8416,19.1994c0-4.4517,2.5488-7.7139,7.2041-7.7139,4.6211,0,6.7285,3.2622,6.7285,7.3062a9.0808,9.0808,0,0,1-.1357,1.6308h-9.9229c.3741,2.3111,1.7666,3.5679,4.418,3.5679a9.8492,9.8492,0,0,0,4.7227-1.3589v2.9561a10.74,10.74,0,0,1-5.3008,1.3257C244.39,26.9133,241.8416,23.6511,241.8416,19.1994Zm3.84-1.4614h6.49c-.1358-1.7329-.8154-3.4658-3.0576-3.4658C246.9051,14.2722,245.9539,15.903,245.6815,17.738Z" fill="#050505"/><path d="M257.3026,19.1994c0-4.7236,2.7529-7.7139,6.8984-7.7139a6.5529,6.5529,0,0,1,3.874,1.1553V5.5388h-2.7871V2.5143h6.627V23.549h2.2421v2.99h-5.7421V24.9084a5.877,5.877,0,0,1-4.5538,2.0049C259.9188,26.9133,257.3026,23.7868,257.3026,19.1994Zm10.7724,3.5679V15.3254a4.6972,4.6972,0,0,0-2.8545-.9175c-2.6846,0-3.9756,1.835-3.9756,4.7236,0,2.5826,1.0528,4.8589,3.7032,4.8589A4.7324,4.7324,0,0,0,268.075,22.7673Z" fill="#050505"/><path d="M275.5828,24.16l7.7481-9.6167h-4.418V17.16h-3.16V11.86h12.3692v2.31l-7.8838,9.6846h5.0977V20.9665h3.0918v5.5727H275.5828Z" fill="#050505"/><path d="M290.8729,32.5539l1.0879-2.5483a5.0842,5.0842,0,0,0,2.48.7475,2.1631,2.1631,0,0,0,2.2764-1.6992l.7812-2.5147h-2.82l-3.3974-11.7236h-1.7334V11.86h7.6455v2.99h-1.9707l2.7187,10.33,3.33-10.33h-2.0049V11.86h7.4082v2.956H305.01L300.0818,29.53c-.8837,2.6509-2.3789,4.146-5.0976,4.146A8.2169,8.2169,0,0,1,290.8729,32.5539Z" fill="#050505"/><path d="M79.0862,54.9455h2.2427V46.2463H79.0862v-2.99h6.0826v11.69h2.2426v2.99H79.0862Zm3.9756-19.0977a2.6507,2.6507,0,1,1-2.65,2.65A2.6537,2.6537,0,0,1,83.0618,35.8478Z" fill="#050505"/><path d="M96.6531,54.81h2.7862V40.3674H96.6531V37.2409h9.4126v3.1265h-2.6845V54.81h3.1264v3.1259H96.6531Zm7.7139-7.0347v-.2378L111.1292,40.3h-2.2427V37.2409h9.0728v3.1265h-2.4126L109.09,47.4016l6.2525,7.4082h2.9565v3.1259h-5.4712Z" fill="#050505"/><path d="M119.2484,50.5959c0-4.5537,2.7866-7.7139,7.748-7.7139s7.7476,3.16,7.7476,7.7139-2.7867,7.7139-7.7476,7.7139S119.2484,55.15,119.2484,50.5959Zm11.52,0c0-2.6846-1.1558-4.8257-3.772-4.8257s-3.772,2.1411-3.772,4.8257,1.1553,4.8252,3.772,4.8252S130.7684,53.2805,130.7684,50.5959Z" fill="#050505"/><path d="M136,54.98h1.9707V46.2121H136V43.256h5.5049v1.6988a7.1072,7.1072,0,0,1,4.8594-2.0728,3.6707,3.6707,0,0,1,3.7383,2.209,7.42,7.42,0,0,1,5.0293-2.209c2.5478,0,4.1455,1.461,4.1455,4.4854V54.98h2.0048v2.956H153.5V54.98h2.0049v-7.374c0-1.2237-.4414-1.8013-1.6992-1.8013a5.2112,5.2112,0,0,0-3.2959,1.3594V54.98h2.0049v2.956h-7.7813V54.98h2.0049v-7.374c0-1.2237-.4424-1.8013-1.6992-1.8013a5.1968,5.1968,0,0,0-3.2959,1.4272V54.98h2.0049v2.956H136Z" fill="#050505"/><path d="M161.6541,61.674h2.2432V46.2463h-2.2432v-2.99h5.8106v1.5967a5.8378,5.8378,0,0,1,4.5195-1.9707c3.9756,0,6.5244,3.0244,6.5244,7.6113,0,4.7237-2.6846,7.8165-6.8984,7.8165a6.5515,6.5515,0,0,1-3.8731-1.1553v4.52h2.6846v3.0244h-8.7676Zm6.083-14.6123V54.47a4.3541,4.3541,0,0,0,2.8545.917c2.6836,0,3.9756-1.8691,3.9756-4.7568,0-2.583-1.0537-4.8257-3.7041-4.8257A4.5264,4.5264,0,0,0,167.7371,47.0617Z" fill="#050505"/><path d="M180.1043,50.5959c0-4.4517,2.5488-7.7139,7.2041-7.7139,4.6211,0,6.7285,3.2622,6.7285,7.3057a9.1053,9.1053,0,0,1-.1357,1.6318h-9.9229c.3741,2.3106,1.7666,3.5674,4.418,3.5674a9.8391,9.8391,0,0,0,4.7227-1.3594v2.9571a10.7461,10.7461,0,0,1-5.3008,1.3252C182.6531,58.31,180.1043,55.0471,180.1043,50.5959Zm3.84-1.4614h6.49c-.1358-1.7329-.8154-3.4659-3.0576-3.4659C185.1678,45.6686,184.2166,47.3,183.9442,49.1345Z" fill="#050505"/><path d="M197.3651,53.8918V46.28h-2.5489V43.256h2.5489V39.5178h3.84V43.256h4.01V46.28h-4.01v7.4077c0,1.3935.8154,1.665,1.9707,1.665a7.0981,7.0981,0,0,0,2.2773-.373V57.8a13.2266,13.2266,0,0,1-3.5.51C198.3162,58.31,197.3651,56.5764,197.3651,53.8918Z" fill="#050505"/><path d="M206.3348,50.5959c0-4.4517,2.5488-7.7139,7.2041-7.7139,4.6211,0,6.7285,3.2622,6.7285,7.3057a9.1053,9.1053,0,0,1-.1357,1.6318h-9.9229c.374,2.3106,1.7666,3.5674,4.418,3.5674a9.8383,9.8383,0,0,0,4.7226-1.3594v2.9571a10.7455,10.7455,0,0,1-5.3008,1.3252C208.8836,58.31,206.3348,55.0471,206.3348,50.5959Zm3.84-1.4614h6.49c-.1358-1.7329-.8155-3.4659-3.0577-3.4659C211.3983,45.6686,210.4471,47.3,210.1746,49.1345Z" fill="#050505"/><path d="M221.5233,54.9455h2.2431V46.2463h-2.2431v-2.99h5.9814v1.835a8.6528,8.6528,0,0,1,5.4365-2.209c2.6846,0,4.3838,1.5293,4.3838,4.5537v7.51h2.2422v2.99H231.242v-2.99h2.2432V47.8093c0-1.2232-.4424-1.9029-1.8008-1.9029a7.1421,7.1421,0,0,0-4.0781,1.6993v7.34h2.2431v2.99h-8.3261Z" fill="#050505"/><path d="M240.449,50.6633c0-5.1309,3.16-7.7813,7.7823-7.7813a16.1822,16.1822,0,0,1,5.3007.9854v4.9614h-3.1943V45.9743a7.059,7.059,0,0,0-1.6992-.2041c-2.82,0-4.2139,1.8013-4.2139,4.7573,0,2.8887,1.3252,4.8252,4.35,4.8252a10.3615,10.3615,0,0,0,4.6221-1.291v3.0244a11.0279,11.0279,0,0,1-5.2334,1.2237C243.3719,58.31,240.449,55.6252,240.449,50.6633Z" fill="#050505"/><path d="M254.2781,63.0666c1.4952-.85,2.99-1.8008,2.99-3.874V46.2463H254.89v-2.99h6.2187V59.2267c0,4.2139-2.82,5.2334-5.709,6.3213Zm4.7237-27.2188a2.6507,2.6507,0,1,1-2.65,2.65A2.6541,2.6541,0,0,1,259.0018,35.8478Z" fill="#050505"/><path d="M263.4188,54.9455h2.2431V46.2463h-2.2431v-2.99h6.083v11.69h2.2431v2.99h-8.3261Zm3.9765-19.0977a2.6507,2.6507,0,1,1-2.6513,2.65A2.654,2.654,0,0,1,267.3953,35.8478Z" fill="#050505"/></svg>