<svg xmlns="http://www.w3.org/2000/svg" viewBox="0 0 192.786 55.405"><g id="Layer_2" data-name="Layer 2"><g id="Layer_1-2" data-name="Layer 1"><polygon points="61.782 30.834 68.24 30.834 65.026 21.893 61.782 30.834" fill="#b12028"/><path d="M72.791.292H0V55.405H75.411l0-.006,117.372-.285V0Zm-34.875,37.5H33.737V23.762L28.244,37.789H26.432L20.939,23.762V37.789H16.79V18.3h5.815l4.733,12.157L32.072,18.3h5.844Zm32.691,0L69.38,34.428H60.672l-1.228,3.361H54.886L62.425,18.3h5.2l7.509,19.491ZM189.786,52.121,76.551,52.4l9.293-24.548-9.3-24.565,113.242-.276Z" fill="#b12028"/><path d="M99.324,30.805H96.285v6.983H92.136V18.3h9.117c4.062,0,6.545,2.659,6.545,6.282a5.594,5.594,0,0,1-4.266,5.787l4.383,7.421h-4.763Zm1.315-8.941H96.285V27.24h4.354a2.7,2.7,0,1,0,0-5.376Z" fill="#b12028"/><polygon points="126.114 18.298 139.906 18.298 139.906 21.864 130.263 21.864 130.263 26.1 139.701 26.1 139.701 29.665 130.263 29.665 130.263 34.195 139.906 34.195 139.906 37.788 126.114 37.788 126.114 18.298" fill="#b12028"/><polygon points="171.692 29.607 162.487 29.607 162.487 37.788 158.338 37.788 158.338 18.298 162.487 18.298 162.487 25.955 171.692 25.955 171.692 18.298 175.87 18.298 175.87 37.788 171.692 37.788 171.692 29.607" fill="#b12028"/></g></g></svg>