<svg xmlns="http://www.w3.org/2000/svg" viewBox="0 0 437.514 338.472"><g id="Layer_2" data-name="Layer 2"><g id="Layer_1-2" data-name="Layer 1"><path d="M136.931,49.578a3.631,3.631,0,1,0-3.017-1.621A3.625,3.625,0,0,0,136.931,49.578Z" fill="none"/><path d="M157.994,49.241c0-19.674-12.755-25.458-24.08-25.037a31.338,31.338,0,0,0-4.958.585c-4.541.908-8.43,2.743-10.533,4.911-6.395,6.589-4.663,27.011-6.5,27.011s.473-22.045-6.562-27.792a20.965,20.965,0,0,0-5.6-3.158c-13.21-5.174-35.56-1.64-35.56,23.48,0,20.946,21.421,29.668,35.56,33.144a87.366,87.366,0,0,0,12.162,2.153A109.417,109.417,0,0,0,128.956,79.3c1.622-.646,3.286-1.356,4.958-2.137C145.769,71.633,157.994,62.673,157.994,49.241Zm-69.443,6.1a7.491,7.491,0,1,1,7.492-7.491A7.491,7.491,0,0,1,88.551,55.34ZM113.317,80.5A44.7,44.7,0,0,0,102.846,72a55.324,55.324,0,0,1,10.471-10.9A53.491,53.491,0,0,1,123.431,72,42.587,42.587,0,0,0,113.317,80.5ZM128.956,50.88a7.543,7.543,0,1,1,4.958,4.21A7.461,7.461,0,0,1,128.956,50.88Z" fill="none"/><path d="M89.681,42.328A3.625,3.625,0,1,0,93.3,45.953,3.626,3.626,0,0,0,89.681,42.328Z" fill="none"/><path d="M143.661,327.278l.4-51.424-10.149-11.5v68.3A53.328,53.328,0,0,0,143.661,327.278Z" fill="#1fa138"/><path d="M136.931,42.328a3.625,3.625,0,1,1-3.017,5.629V55.09a7.491,7.491,0,1,0,0-14.482V43.95A3.619,3.619,0,0,1,136.931,42.328Z" fill="#1fa138"/><path d="M157.994,49.241c0,13.432-12.225,22.392-24.08,27.922V101.1a9.274,9.274,0,0,1,6.115,3.682l.068.1.079-.091a11.768,11.768,0,0,1,9.3-3.966c4.184,0,7.463,1.4,9.226,3.95,1.269,1.8,1.809,4.057,1.809,7.531v12.958c0,1.512.681,1.717,1.345,1.717a4.825,4.825,0,0,0,2.3-.787l.321-.241-.282,5.315-.076.052a10.521,10.521,0,0,1-5.689,1.621c-2.6,0-4.471-.754-5.547-2.236a8.734,8.734,0,0,1-1.183-5.059V113.578c0-1.962-.063-3.236-.916-4.394a4.587,4.587,0,0,0-3.723-1.637,4.966,4.966,0,0,0-3.976,1.83c-.873,1.165-1.229,2.676-1.229,5.216v17.956h-7.944V208.63c15.513-17.145,43.32-52.555,43.218-91.054-.083-30.908-13.055-45.333-13.055-45.333s2.832-53.4-26.791-65.692a33.961,33.961,0,0,0-3.372-1.623V24.2C145.239,23.783,157.994,29.567,157.994,49.241Z" fill="#1fa138"/><path d="M105.36,28.919c7.035,5.747,4.726,27.792,6.562,27.792s.106-20.422,6.5-27.011c2.1-2.168,5.992-4,10.533-4.911V3.091A65.821,65.821,0,0,0,108.965,0a67.379,67.379,0,0,0-9.2.638V25.761A20.965,20.965,0,0,1,105.36,28.919Z" fill="#cd131d"/><path d="M113.317,61.1A55.324,55.324,0,0,0,102.846,72a44.7,44.7,0,0,1,10.471,8.5A42.587,42.587,0,0,1,123.431,72,53.491,53.491,0,0,0,113.317,61.1Z" fill="#cd131d"/><path d="M128.956,213.96V107.6c-.183-.017-.358-.052-.548-.052a4.954,4.954,0,0,0-3.977,1.83c-.875,1.165-1.231,2.675-1.231,5.216v17.956h-8.815V107.737H110.7V101.4h9.013l1.443,3.725.1-.13a11.214,11.214,0,0,1,7.695-4.041V79.3a109.417,109.417,0,0,1-17.034,5.238A87.366,87.366,0,0,1,99.76,82.385v254.26c9.221,1.141,19.352.934,29.2-2.16V258.743l-9.594-10.867-9.681,6,15.382-20.67s-2.733-11.524-1.276-13.831C124.051,218.961,125.982,217.073,128.956,213.96Z" fill="#cd131d"/><path d="M128.312,47.849a7.461,7.461,0,0,0,.644,3.031V44.819A7.456,7.456,0,0,0,128.312,47.849Z" fill="#cd131d"/><path d="M88.551,40.358a7.491,7.491,0,1,0,7.492,7.491A7.492,7.492,0,0,0,88.551,40.358Zm1.13,9.22A3.625,3.625,0,1,1,93.3,45.953,3.625,3.625,0,0,1,89.681,49.578Z" fill="#f39200"/><path d="M64.2,49.241c0-25.12,22.35-28.654,35.56-23.48V.638A71.782,71.782,0,0,0,81.369,5.784C70.915,10.241,62.44,18.845,57.253,30.628V188.346c.778-.424,1.562-.839,2.362-1.236,0,0-.86.849-2.362,2.472V270.06A50.094,50.094,0,0,1,71.02,259.947l-6.158,65.846a108.6,108.6,0,0,0,34.9,10.852V82.385C85.621,78.909,64.2,70.187,64.2,49.241Z" fill="#f39200"/><path d="M17.5,175.009s-24.612,70.3-8.2,79.523c0,0,10.832-40.412,40.689-61.64V75.288C42.04,86.607,17.959,124.983,17.5,175.009Z" fill="#e42313"/><path d="M0,328.291s11.487.576,14.22,0,2.736,5.188,3.282,8.645,12.306,0,12.306,0S33.294,303,49.987,278.916V197.98C33.226,218.509.409,266.533,0,328.291Z" fill="#e42313"/><path d="M52.505,71.861s-.945,1.187-2.518,3.427v117.6a72.179,72.179,0,0,1,7.266-4.546V30.628C52.342,41.785,50.378,55.792,52.505,71.861Z" fill="#23201c"/><path d="M49.987,197.98v80.936a67.851,67.851,0,0,1,7.266-8.856V189.582C55.559,191.413,53.04,194.24,49.987,197.98Z" fill="#23201c"/><path d="M133.914,24.2V4.928c-1.307-.558-2.973-1.2-4.958-1.837v21.7A31.338,31.338,0,0,1,133.914,24.2Z" fill="#0578be"/><path d="M133.914,101.1V77.163c-1.672.781-3.336,1.491-4.958,2.137v21.651a15.305,15.305,0,0,1,1.862-.125A16.485,16.485,0,0,1,133.914,101.1Z" fill="#0578be"/><path d="M133.041,132.549V113.578c0-1.962-.061-3.236-.915-4.394a4.418,4.418,0,0,0-3.17-1.585V213.96c1.433-1.5,3.106-3.284,4.958-5.33V132.549Z" fill="#0578be"/><path d="M133.914,332.662v-68.3l-4.958-5.616v75.742Q131.451,333.7,133.914,332.662Z" fill="#0578be"/><path d="M133.914,47.957a3.61,3.61,0,0,1,0-4.007V40.608a7.5,7.5,0,0,0-4.958,4.211V50.88a7.5,7.5,0,0,0,4.958,4.21Z" fill="#0578be"/><path d="M141.858,132.549V114.593c0-2.54.356-4.051,1.229-5.216a4.966,4.966,0,0,1,3.976-1.83,4.587,4.587,0,0,1,3.723,1.637c.853,1.158.916,2.432.916,4.394v12.069a8.734,8.734,0,0,0,1.183,5.059c1.076,1.482,2.943,2.236,5.547,2.236a10.521,10.521,0,0,0,5.689-1.621l.076-.052.282-5.315-.321.241a4.825,4.825,0,0,1-2.3.787c-.664,0-1.345-.2-1.345-1.717V112.307c0-3.474-.54-5.727-1.809-7.531-1.763-2.547-5.042-3.95-9.226-3.95a11.768,11.768,0,0,0-9.3,3.966l-.079.091-.068-.1a9.274,9.274,0,0,0-6.115-3.682v31.445Z" fill="#fff"/><path d="M121.261,104.992l-.1.13-1.443-3.725H110.7v6.34h3.683v24.812H123.2V114.593c0-2.541.356-4.051,1.231-5.216a4.954,4.954,0,0,1,3.977-1.83c.19,0,.365.035.548.052v-6.648A11.214,11.214,0,0,0,121.261,104.992Z" fill="#fff"/><path d="M133.041,113.578v18.971h.873V101.1a16.485,16.485,0,0,0-3.1-.278,15.305,15.305,0,0,0-1.862.125V107.6a4.418,4.418,0,0,1,3.17,1.585C132.98,110.342,133.041,111.616,133.041,113.578Z" fill="#fff"/><path d="M217.155,97.942H200.294V108.6h13.76v6.266h-13.76v17.637h-8.98V91.611h25.841Z" fill="#545656"/><path d="M252.04,131.213a11.014,11.014,0,0,1-2.584,1.195,10.122,10.122,0,0,1-3.165.485,7.342,7.342,0,0,1-3.392-.776,4.425,4.425,0,0,1-2.165-2.455,10.656,10.656,0,0,1-3.844,2.52,14.1,14.1,0,0,1-5.2.9q-5.685,0-8.592-3.036a9.276,9.276,0,0,1-2.1-3.65,16.472,16.472,0,0,1-.614-4.749V101.173h8.592V120.3a14.938,14.938,0,0,0,.194,2.616,4.452,4.452,0,0,0,4.91,3.715,5.667,5.667,0,0,0,2.616-.549,5.3,5.3,0,0,0,1.776-1.454,5.694,5.694,0,0,0,1.035-2.357,16.777,16.777,0,0,0,.257-3.134V101.173h8.593v24.1q0,1.938,1.55,1.937a4.066,4.066,0,0,0,1.324-.258,3.627,3.627,0,0,0,1.131-.582Z" fill="#545656"/><path d="M285.052,132.505H276.46V113.383a14.948,14.948,0,0,0-.195-2.617,4.452,4.452,0,0,0-4.91-3.714,5.667,5.667,0,0,0-2.616.549,5.325,5.325,0,0,0-1.776,1.453,5.676,5.676,0,0,0-1.034,2.358,16.6,16.6,0,0,0-.258,3.133v17.96h-8.592v-25.26h-3.747v-6.072h8.85l1.55,4a11.307,11.307,0,0,1,4.07-3.327,13.142,13.142,0,0,1,5.944-1.26q5.684,0,8.593,3.037a9.315,9.315,0,0,1,2.1,3.649,16.544,16.544,0,0,1,.614,4.748Z" fill="#545656"/><path d="M322.391,131.213a10.886,10.886,0,0,1-2.616,1.195,10.434,10.434,0,0,1-3.2.485,7.541,7.541,0,0,1-3.424-.776,4.648,4.648,0,0,1-2.262-2.584,9.551,9.551,0,0,1-3.617,2.616,12.4,12.4,0,0,1-4.91.937q-6.073,0-9.5-3.876t-3.424-10.982a21.371,21.371,0,0,1,1.162-7.2,15.713,15.713,0,0,1,3.36-5.587,14.751,14.751,0,0,1,5.362-3.586,19.252,19.252,0,0,1,7.171-1.26,20.594,20.594,0,0,1,3.618.323V94.39H306.37V88.316h12.339V125.27q0,1.938,1.486,1.937a4.366,4.366,0,0,0,1.357-.258,3.591,3.591,0,0,0,1.162-.582Zm-12.274-24.872a11.381,11.381,0,0,0-2.972-.323,7.85,7.85,0,0,0-6.654,3.068q-2.327,3.07-2.326,8.754a12.8,12.8,0,0,0,1.486,6.461,5.158,5.158,0,0,0,4.845,2.584,6.365,6.365,0,0,0,2.584-.485,4.379,4.379,0,0,0,1.745-1.325,5.445,5.445,0,0,0,1-2.067,11.934,11.934,0,0,0,.291-2.842Z" fill="#545656"/><path d="M356.113,131.277a8.055,8.055,0,0,1-2.487,1.163,11.4,11.4,0,0,1-3.263.453,7.382,7.382,0,0,1-3.52-.808,4.051,4.051,0,0,1-2.036-2.487,8.206,8.206,0,0,1-3.553,2.584,13.121,13.121,0,0,1-4.91.9,11.752,11.752,0,0,1-8.075-2.681q-3.037-2.681-3.037-7.719,0-5.235,3.36-7.914a13.87,13.87,0,0,1,8.916-2.681,20.31,20.31,0,0,1,3.391.29,16.757,16.757,0,0,1,2.94.743v-.84a10.891,10.891,0,0,0-.259-2.584,4.628,4.628,0,0,0-.969-1.874q-1.486-1.678-5.233-1.678a20.026,20.026,0,0,0-4.684.581,20.777,20.777,0,0,0-4.684,1.744v-5.815a21.634,21.634,0,0,1,5.04-1.55,31.055,31.055,0,0,1,5.684-.517q7.428,0,10.918,3.3a7.652,7.652,0,0,1,2.132,3.327,15.091,15.091,0,0,1,.646,4.684V125.27q0,1.938,1.486,1.937a4.361,4.361,0,0,0,1.357-.258,3.58,3.58,0,0,0,1.162-.582Zm-12.274-13.5a8.7,8.7,0,0,0-1.971-.548,14.046,14.046,0,0,0-2.487-.227,5.247,5.247,0,0,0-4.167,1.519,5.543,5.543,0,0,0-1.325,3.779,5.3,5.3,0,0,0,1.325,3.908,5.492,5.492,0,0,0,7.332-.161,5.647,5.647,0,0,0,1.293-3.941Z" fill="#545656"/><path d="M377.819,112.22a11.982,11.982,0,0,0-1.646-4.264,3.757,3.757,0,0,0-3.328-1.551,4.869,4.869,0,0,0-4.586,2.811,15.332,15.332,0,0,0-1.487,7.2q0,5.362,1.971,8.011t6.234,2.648a15.935,15.935,0,0,0,5.007-.84,19.439,19.439,0,0,0,4.619-2.2l-.323,6.072a18.356,18.356,0,0,1-4.942,2.132,21.876,21.876,0,0,1-6.04.84q-7.237,0-11.242-4.134t-4-11.952a21.605,21.605,0,0,1,1-6.783,14.662,14.662,0,0,1,2.875-5.168,12.585,12.585,0,0,1,4.62-3.3,15.853,15.853,0,0,1,6.234-1.163,14.146,14.146,0,0,1,8.656,2.584,9.765,9.765,0,0,1,2.681,3.166,16.343,16.343,0,0,1,1.518,4.264Z" fill="#545656"/><path d="M401.205,133.022a34.9,34.9,0,0,1-.356,5.394,8.492,8.492,0,0,1-1.647,3.908q-2.65,3.424-8.915,3.424a22.3,22.3,0,0,1-3.327-.258,16.354,16.354,0,0,1-3.133-.775l.322-5.943a11.64,11.64,0,0,0,4.587.9,3.464,3.464,0,0,0,3.036-1.195,7.588,7.588,0,0,0,.84-4.167V107.245h-3.94v-6.072h12.533Zm.193-40.377a4.73,4.73,0,0,1-1.324,3.392,4.4,4.4,0,0,1-3.327,1.389,4.721,4.721,0,0,1-3.424-1.389,4.563,4.563,0,0,1-1.421-3.392,4.743,4.743,0,0,1,4.78-4.781,4.514,4.514,0,0,1,3.36,1.389A4.676,4.676,0,0,1,401.4,92.645Z" fill="#545656"/><path d="M437.192,131.277a8.044,8.044,0,0,1-2.487,1.163,11.4,11.4,0,0,1-3.263.453,7.382,7.382,0,0,1-3.52-.808,4.051,4.051,0,0,1-2.036-2.487,8.2,8.2,0,0,1-3.553,2.584,13.119,13.119,0,0,1-4.909.9,11.753,11.753,0,0,1-8.076-2.681q-3.038-2.681-3.037-7.719,0-5.235,3.36-7.914a13.872,13.872,0,0,1,8.916-2.681,20.31,20.31,0,0,1,3.391.29,16.757,16.757,0,0,1,2.94.743v-.84a10.891,10.891,0,0,0-.259-2.584,4.628,4.628,0,0,0-.969-1.874q-1.486-1.678-5.233-1.678a20.026,20.026,0,0,0-4.684.581,20.752,20.752,0,0,0-4.683,1.744v-5.815a21.61,21.61,0,0,1,5.039-1.55,31.055,31.055,0,0,1,5.684-.517q7.428,0,10.918,3.3a7.652,7.652,0,0,1,2.132,3.327,15.089,15.089,0,0,1,.647,4.684V125.27q0,1.938,1.485,1.937a4.356,4.356,0,0,0,1.357-.258,3.57,3.57,0,0,0,1.162-.582Zm-12.274-13.5a8.7,8.7,0,0,0-1.971-.548A14.046,14.046,0,0,0,420.46,117a5.248,5.248,0,0,0-4.167,1.519,5.542,5.542,0,0,0-1.324,3.779,5.3,5.3,0,0,0,1.324,3.908,5.492,5.492,0,0,0,7.332-.161,5.647,5.647,0,0,0,1.293-3.941Z" fill="#545656"/></g></g></svg>