<svg xmlns="http://www.w3.org/2000/svg" viewBox="0 0 166.294 63.542"><g id="Layer_2" data-name="Layer 2"><g id="Layer_1-2" data-name="Layer 1"><path d="M43.379,20.32c1.132,0,1.748-.716,1.748-1.92s-.616-1.935-1.748-1.935H41.287V20.32Zm-2.092,5.145a2.061,2.061,0,0,1-.716.1,1.97,1.97,0,0,1-.746-.1V15.248h3.741A2.93,2.93,0,0,1,46.647,18.4a2.925,2.925,0,0,1-3.081,3.137H41.287Z" fill="#5c5c5c"/><path d="M50.545,22.04c-.96,0-1.462.372-1.462,1.274,0,.933.474,1.291,1.247,1.291,1.132,0,1.663-.96,1.663-1.978v-.5c-.331-.028-.9-.086-1.448-.086m.143-4.156c2.078,0,2.737.932,2.737,2.78v4.8a1.134,1.134,0,0,1-.558.1,1.486,1.486,0,0,1-.574-.1l-.215-.918a2.306,2.306,0,0,1-2.25,1.161,2.1,2.1,0,0,1-2.22-2.395c0-1.561.96-2.248,2.75-2.248a15.4,15.4,0,0,1,1.635.086v-.531c0-.974-.374-1.534-1.477-1.534a5.948,5.948,0,0,0-1.92.359,1.133,1.133,0,0,1-.329-.43,1.247,1.247,0,0,1-.087-.6,6.226,6.226,0,0,1,2.508-.53" fill="#5c5c5c"/><path d="M57.91,16.909a1.215,1.215,0,0,1-.817-.444l1.362-2.02a1.436,1.436,0,0,1,1.247.531Zm3.368,8.556a2.064,2.064,0,0,1-.717.1,1.96,1.96,0,0,1-.716-.1V20.306c0-.8-.415-1.261-1.332-1.261a1.956,1.956,0,0,0-1.62.918v5.5a2.16,2.16,0,0,1-.716.1,1.873,1.873,0,0,1-.717-.1V18.128a1.873,1.873,0,0,1,.717-.1,2.16,2.16,0,0,1,.716.1v.659a2.779,2.779,0,0,1,2.164-.9,2.026,2.026,0,0,1,2.221,2.164Z" fill="#5c5c5c"/><path d="M65.693,17.884a4.068,4.068,0,0,1,2.019.387,1.461,1.461,0,0,1-.372,1.018,5.322,5.322,0,0,0-1.505-.229c-.974,0-1.461.357-1.461,1.031,0,.7.9.875,1.805,1.176.932.3,1.906.743,1.906,2.148,0,1.448-.9,2.294-2.722,2.294a5.107,5.107,0,0,1-2.393-.516,1.464,1.464,0,0,1,.386-1.061,6.12,6.12,0,0,0,1.935.358c.874,0,1.376-.329,1.376-1.032,0-.787-.789-.959-1.634-1.2-.975-.287-2.035-.7-2.035-2.122,0-1.346.875-2.249,2.7-2.249" fill="#5c5c5c"/><path d="M71.64,22.857c0,1.3.415,1.691,1.432,1.691a3.946,3.946,0,0,0,.6-.057,1.639,1.639,0,0,1,.1.573,1.555,1.555,0,0,1-.072.515,4.06,4.06,0,0,1-1.032.13c-1.763,0-2.465-.961-2.465-2.781V19.1H69.1a1.466,1.466,0,0,1-.086-.531,1.4,1.4,0,0,1,.086-.544h1.1v-1.3a2.446,2.446,0,0,1,1.434-.286v1.591H73.5a1.362,1.362,0,0,1,.086.53,1.607,1.607,0,0,1-.086.545H71.64Z" fill="#5c5c5c"/><path d="M80.252,21.581a9.916,9.916,0,0,1-.386-2.064h-.058a9.212,9.212,0,0,1-.4,2.064l-1.132,3.884a2.792,2.792,0,0,1-.817.1,3.03,3.03,0,0,1-.831-.1l-2.164-7.338a2.179,2.179,0,0,1,.716-.1,1.142,1.142,0,0,1,.616.1L77.157,22.7a9.038,9.038,0,0,1,.3,1.4H77.5a11.767,11.767,0,0,1,.315-1.4l1.319-4.572a3.109,3.109,0,0,1,.774-.1,1.931,1.931,0,0,1,.7.1l1.276,4.543a7.965,7.965,0,0,1,.287,1.433h.042a13.851,13.851,0,0,1,.359-1.419l1.348-4.557a1.717,1.717,0,0,1,.63-.1,1.346,1.346,0,0,1,.615.1L83,25.465a2.982,2.982,0,0,1-.816.1,3.158,3.158,0,0,1-.83-.1Z" fill="#5c5c5c"/><path d="M89.3,18.988c-1.046,0-1.719.6-1.719,2.808s.673,2.809,1.719,2.809S91,24,91,21.8s-.658-2.808-1.7-2.808m0-1.1c1.978,0,3.182,1.075,3.182,3.912s-1.219,3.913-3.182,3.913-3.181-1.075-3.181-3.913,1.219-3.912,3.181-3.912" fill="#5c5c5c"/><path d="M99.212,21.581a9.916,9.916,0,0,1-.386-2.064h-.057a9.288,9.288,0,0,1-.4,2.064l-1.133,3.884a2.785,2.785,0,0,1-.816.1,3.02,3.02,0,0,1-.831-.1l-2.165-7.338a2.19,2.19,0,0,1,.717-.1,1.154,1.154,0,0,1,.617.1l1.36,4.572a8.95,8.95,0,0,1,.3,1.4h.042a11.818,11.818,0,0,1,.316-1.4l1.318-4.572a3.106,3.106,0,0,1,.773-.1,1.937,1.937,0,0,1,.7.1l1.276,4.543a7.965,7.965,0,0,1,.287,1.433h.043a13.26,13.26,0,0,1,.358-1.419l1.346-4.557a1.733,1.733,0,0,1,.631-.1,1.359,1.359,0,0,1,.616.1l-2.163,7.338a3,3,0,0,1-.817.1,3.183,3.183,0,0,1-.832-.1Z" fill="#5c5c5c"/><path d="M108.944,26.668c-.516,1.577-1.017,2.479-2.566,2.479A2.074,2.074,0,0,1,105.59,29a1.663,1.663,0,0,1-.1-.53,1.341,1.341,0,0,1,.116-.574,4.116,4.116,0,0,0,.644.057c.645,0,.975-.17,1.4-1.519l.3-.873a1.392,1.392,0,0,1-.459-.1l-2.722-7.338a2.346,2.346,0,0,1,.744-.1,2.255,2.255,0,0,1,.746.1l1.633,4.357a13.569,13.569,0,0,1,.5,1.676h.058s.144-.673.458-1.663l1.419-4.37a1.923,1.923,0,0,1,.7-.1,2.015,2.015,0,0,1,.673.1Z" fill="#5c5c5c"/><path d="M117.685,25.465a2.156,2.156,0,0,1-.744.1,2.057,2.057,0,0,1-.717-.1V15.248h5.7a1.387,1.387,0,0,1,.116.586,1.515,1.515,0,0,1-.116.6h-4.241v3.5h3.755a1.33,1.33,0,0,1,.114.574,1.642,1.642,0,0,1-.114.616h-3.755Z" fill="#5c5c5c"/><path d="M123.317,18.128a2.067,2.067,0,0,1,.718-.1,1.957,1.957,0,0,1,.715.1v5.159c0,.8.416,1.261,1.333,1.261a1.946,1.946,0,0,0,1.619-.917v-5.5a2.16,2.16,0,0,1,.716-.1,1.858,1.858,0,0,1,.716.1v7.337a1.858,1.858,0,0,1-.716.1,2.16,2.16,0,0,1-.716-.1v-.659a2.8,2.8,0,0,1-2.164.9,2.027,2.027,0,0,1-2.221-2.165Z" fill="#5c5c5c"/><path d="M137.044,25.465a2.061,2.061,0,0,1-.716.1,1.966,1.966,0,0,1-.716-.1V20.306c0-.8-.416-1.261-1.332-1.261a1.959,1.959,0,0,0-1.621.918v5.5a2.16,2.16,0,0,1-.716.1,1.864,1.864,0,0,1-.716-.1V18.128a1.864,1.864,0,0,1,.716-.1,2.16,2.16,0,0,1,.716.1v.659a2.783,2.783,0,0,1,2.166-.9,2.024,2.024,0,0,1,2.219,2.164Z" fill="#5c5c5c"/><path d="M141.974,19.06c-1.145,0-1.718.6-1.718,2.736s.573,2.737,1.718,2.737a1.64,1.64,0,0,0,1.563-1.834V20.85a1.634,1.634,0,0,0-1.563-1.79m2.294-4.242a1.917,1.917,0,0,1,.7.1V25.466a1.739,1.739,0,0,1-.6.1,2.2,2.2,0,0,1-.646-.1l-.1-.775a2.352,2.352,0,0,1-2.148,1.018c-1.635,0-2.7-.99-2.7-3.913s1.061-3.912,2.7-3.912a2.324,2.324,0,0,1,2.062.932v-3.9a2.1,2.1,0,0,1,.731-.1" fill="#5c5c5c"/><path d="M147.005,18.128a2.06,2.06,0,0,1,.718-.1,1.954,1.954,0,0,1,.714.1v5.159c0,.8.418,1.261,1.334,1.261a1.946,1.946,0,0,0,1.619-.917v-5.5a2.152,2.152,0,0,1,.716-.1,1.873,1.873,0,0,1,.717.1v7.337a1.873,1.873,0,0,1-.717.1,2.152,2.152,0,0,1-.716-.1v-.659a2.8,2.8,0,0,1-2.165.9,2.026,2.026,0,0,1-2.22-2.165Z" fill="#5c5c5c"/><path d="M157.28,17.884a4.082,4.082,0,0,1,2.021.387,1.461,1.461,0,0,1-.373,1.018,5.31,5.31,0,0,0-1.5-.229c-.976,0-1.462.357-1.462,1.031,0,.7.9.875,1.805,1.176.932.3,1.907.743,1.907,2.148,0,1.448-.9,2.294-2.725,2.294a5.1,5.1,0,0,1-2.391-.516,1.46,1.46,0,0,1,.387-1.061,6.1,6.1,0,0,0,1.935.358c.872,0,1.374-.329,1.374-1.032,0-.787-.788-.959-1.633-1.2-.976-.287-2.035-.7-2.035-2.122,0-1.346.875-2.249,2.694-2.249" fill="#5c5c5c"/><path d="M166.207,24.389a1.611,1.611,0,0,1,.087.588,1.821,1.821,0,0,1-.087.588h-5.316a2.606,2.606,0,0,1-.086-.616,1.95,1.95,0,0,1,.086-.56L164.7,19.2h-3.568a1.987,1.987,0,0,1-.086-.6,1.577,1.577,0,0,1,.086-.573h5.072a1.457,1.457,0,0,1,.087.559,1.928,1.928,0,0,1-.087.617l-3.8,5.186Z" fill="#5c5c5c"/><path d="M41.287,37.258h2.02a1.611,1.611,0,0,0,1.749-1.79,1.616,1.616,0,0,0-1.749-1.806h-2.02Zm2.207-4.814a2.874,2.874,0,0,1,3.081,3.024,2.815,2.815,0,0,1-2.021,2.866l2.493,4.326a2.954,2.954,0,0,1-.859.1,2.86,2.86,0,0,1-.831-.1l-2.379-4.184H41.287V42.66a2.045,2.045,0,0,1-.717.1,1.94,1.94,0,0,1-.744-.1V32.444Z" fill="#5c5c5c"/><path d="M51.419,36.212c-.931,0-1.591.617-1.706,2.207H52.78a4.834,4.834,0,0,0,.043-.644c0-.846-.344-1.563-1.4-1.563m-1.706,3.224c.115,1.706.8,2.25,1.992,2.25a3.475,3.475,0,0,0,1.691-.415,1.475,1.475,0,0,1,.459,1.031,4.227,4.227,0,0,1-2.379.6c-2.207,0-3.238-1.361-3.238-3.955,0-2.708,1.274-3.87,3.181-3.87a2.587,2.587,0,0,1,2.837,2.881,6.1,6.1,0,0,1-.158,1.476Z" fill="#5c5c5c"/><path d="M61.751,42.661a2.064,2.064,0,0,1-.717.1,1.96,1.96,0,0,1-.716-.1V37.5c0-.8-.416-1.261-1.333-1.261a1.961,1.961,0,0,0-1.619.916v5.5a2.16,2.16,0,0,1-.716.1,1.873,1.873,0,0,1-.717-.1V32.114a1.873,1.873,0,0,1,.717-.1,2.16,2.16,0,0,1,.716.1v3.87a2.774,2.774,0,0,1,2.164-.9,2.025,2.025,0,0,1,2.221,2.163Z" fill="#5c5c5c"/><path d="M66.265,39.235c-.96,0-1.462.374-1.462,1.277,0,.93.473,1.289,1.246,1.289,1.133,0,1.663-.96,1.663-1.979v-.5c-.329-.029-.9-.086-1.447-.086m.143-4.155c2.078,0,2.737.932,2.737,2.78v4.8a1.118,1.118,0,0,1-.559.1,1.458,1.458,0,0,1-.573-.1l-.215-.917a2.3,2.3,0,0,1-2.25,1.161,2.094,2.094,0,0,1-2.22-2.392c0-1.563.959-2.25,2.751-2.25a15.329,15.329,0,0,1,1.633.086v-.531c0-.974-.372-1.533-1.476-1.533a5.971,5.971,0,0,0-1.92.358,1.112,1.112,0,0,1-.329-.429,1.235,1.235,0,0,1-.087-.6,6.226,6.226,0,0,1,2.508-.53" fill="#5c5c5c"/><path d="M74.176,36.256a1.622,1.622,0,0,0-1.562,1.8V39.9a1.639,1.639,0,0,0,1.562,1.834c1.146,0,1.72-.6,1.72-2.736s-.574-2.737-1.72-2.737m-1.562-.244a2.3,2.3,0,0,1,2.064-.932c1.632,0,2.693.99,2.693,3.913S76.31,42.9,74.678,42.9a2.3,2.3,0,0,1-2.064-.93v.687a2.127,2.127,0,0,1-.731.1,1.944,1.944,0,0,1-.7-.1V32.114a1.909,1.909,0,0,1,.7-.1,2.089,2.089,0,0,1,.731.1Z" fill="#5c5c5c"/><path d="M80.61,42.661a2.064,2.064,0,0,1-.717.1,1.879,1.879,0,0,1-.717-.1V35.325a1.863,1.863,0,0,1,.717-.1,2.045,2.045,0,0,1,.717.1Zm.028-8.884a2.252,2.252,0,0,1-.745.1,2.051,2.051,0,0,1-.745-.1V32.431a2.015,2.015,0,0,1,.745-.1,2.212,2.212,0,0,1,.745.1Z" fill="#5c5c5c"/><path d="M84.207,42.661a2.064,2.064,0,0,1-.717.1,1.864,1.864,0,0,1-.716-.1V32.114a1.864,1.864,0,0,1,.716-.1,2.064,2.064,0,0,1,.717.1Z" fill="#5c5c5c"/><path d="M87.8,42.661a2.047,2.047,0,0,1-.716.1,1.861,1.861,0,0,1-.715-.1V35.325a1.844,1.844,0,0,1,.715-.1,2.029,2.029,0,0,1,.716.1Zm.029-8.884a2.252,2.252,0,0,1-.745.1,2.058,2.058,0,0,1-.745-.1V32.431a2.021,2.021,0,0,1,.745-.1,2.212,2.212,0,0,1,.745.1Z" fill="#5c5c5c"/><path d="M91.846,40.052c0,1.306.416,1.691,1.433,1.691a3.964,3.964,0,0,0,.6-.057,1.668,1.668,0,0,1,.1.573,1.541,1.541,0,0,1-.072.515,4.047,4.047,0,0,1-1.031.131c-1.763,0-2.464-.961-2.464-2.782V36.3h-1.1a1.461,1.461,0,0,1-.086-.529,1.418,1.418,0,0,1,.086-.546h1.1v-1.3a2.428,2.428,0,0,1,1.432-.285v1.589h1.862a1.363,1.363,0,0,1,.087.531,1.581,1.581,0,0,1-.087.544H91.846Z" fill="#5c5c5c"/><path d="M97.821,39.235c-.959,0-1.461.374-1.461,1.277,0,.93.473,1.289,1.247,1.289,1.131,0,1.661-.96,1.661-1.979v-.5c-.327-.029-.9-.086-1.447-.086m.144-4.155c2.077,0,2.736.932,2.736,2.78v4.8a1.108,1.108,0,0,1-.557.1,1.467,1.467,0,0,1-.574-.1l-.214-.917A2.306,2.306,0,0,1,97.105,42.9a2.1,2.1,0,0,1-2.221-2.392c0-1.563.96-2.25,2.752-2.25a15.291,15.291,0,0,1,1.632.086v-.531c0-.974-.371-1.533-1.475-1.533a5.98,5.98,0,0,0-1.921.358,1.146,1.146,0,0,1-.329-.429,1.249,1.249,0,0,1-.087-.6,6.24,6.24,0,0,1,2.509-.53" fill="#5c5c5c"/><path d="M103.884,38.993c0,1.876.6,2.693,1.978,2.693a3.7,3.7,0,0,0,1.347-.243,1.5,1.5,0,0,1,.415,1.032,3.9,3.9,0,0,1-2.064.429c-2.092,0-3.152-1.361-3.152-3.911s1.06-3.913,3.152-3.913a3.765,3.765,0,0,1,1.921.358,1.468,1.468,0,0,1-.415,1.033,3.474,3.474,0,0,0-1.261-.216c-1.375,0-1.921.875-1.921,2.738" fill="#5c5c5c"/><path d="M110.634,33.763a2.248,2.248,0,0,1-.746.1,2.058,2.058,0,0,1-.745-.1V32.415a2.058,2.058,0,0,1,.745-.1,2.248,2.248,0,0,1,.746.1Zm-1.462,1.562a1.86,1.86,0,0,1,.716-.1,2.048,2.048,0,0,1,.718.1v8.7c0,1.519-.731,2.321-2.079,2.321a3.114,3.114,0,0,1-.96-.128,1.267,1.267,0,0,1-.043-.33,1.472,1.472,0,0,1,.143-.731,2.445,2.445,0,0,0,.531.057c.644,0,.974-.344.974-1.132Z" fill="#5c5c5c"/><path d="M114.188,42.661a2.057,2.057,0,0,1-.717.1,1.87,1.87,0,0,1-.716-.1V35.325a1.854,1.854,0,0,1,.716-.1,2.038,2.038,0,0,1,.717.1Zm.028-8.884a2.245,2.245,0,0,1-.745.1,2.051,2.051,0,0,1-.745-.1V32.431a2.015,2.015,0,0,1,.745-.1,2.2,2.2,0,0,1,.745.1Z" fill="#5c5c5c"/><path d="M123.359,33.518c-1.519,0-2.507.916-2.507,4.084s.988,4.084,2.507,4.084c1.534,0,2.508-.917,2.508-4.084s-.974-4.084-2.508-4.084m0-1.218c2.48,0,4.042,1.591,4.042,5.3s-1.534,5.3-4.042,5.3-4.04-1.591-4.04-5.3c0-3.682,1.563-5.3,4.04-5.3" fill="#5c5c5c"/><path d="M131.643,35.08a4.073,4.073,0,0,1,2.021.388,1.467,1.467,0,0,1-.373,1.017,5.3,5.3,0,0,0-1.5-.23c-.976,0-1.462.358-1.462,1.032,0,.7.9.874,1.806,1.175.931.3,1.905.745,1.905,2.15,0,1.447-.9,2.292-2.722,2.292a5.112,5.112,0,0,1-2.393-.516,1.456,1.456,0,0,1,.388-1.06,6.087,6.087,0,0,0,1.934.359c.872,0,1.375-.33,1.375-1.033,0-.788-.788-.96-1.633-1.2-.975-.288-2.035-.7-2.035-2.122,0-1.346.874-2.25,2.694-2.25" fill="#5c5c5c"/><path d="M138.607,31.642a1.438,1.438,0,0,1,1.247.529l-1.791,1.935a1.223,1.223,0,0,1-.818-.444Zm-.085,4.542c-1.047,0-1.721.6-1.721,2.809s.674,2.808,1.721,2.808,1.7-.6,1.7-2.808-.66-2.809-1.7-2.809m0-1.1c1.976,0,3.18,1.075,3.18,3.913s-1.218,3.911-3.18,3.911-3.182-1.074-3.182-3.911,1.217-3.913,3.182-3.913" fill="#5c5c5c"/><path d="M146.46,36.256a1.622,1.622,0,0,0-1.563,1.8V39.9a1.64,1.64,0,0,0,1.563,1.834c1.145,0,1.719-.6,1.719-2.736s-.574-2.737-1.719-2.737m-1.563-.244a2.3,2.3,0,0,1,2.065-.932c1.633,0,2.693.99,2.693,3.913S148.6,42.9,146.962,42.9a2.3,2.3,0,0,1-2.065-.93v.687a2.114,2.114,0,0,1-.729.1,1.94,1.94,0,0,1-.7-.1V32.114a1.906,1.906,0,0,1,.7-.1,2.076,2.076,0,0,1,.729.1Z" fill="#5c5c5c"/><path d="M41.975,53.337a12.233,12.233,0,0,1-.846-1.848h-.057s.1.96.1,2.407v5.962a1.773,1.773,0,0,1-.689.1,1.6,1.6,0,0,1-.659-.1V49.741a3.019,3.019,0,0,1,.874-.1,2.844,2.844,0,0,1,.86.1L45.127,56.2a17.037,17.037,0,0,1,.889,1.906h.043s-.1-1.059-.1-2.391V49.741a1.77,1.77,0,0,1,.688-.1,1.5,1.5,0,0,1,.657.1V59.858a2.664,2.664,0,0,1-.843.1,3.031,3.031,0,0,1-.875-.1Z" fill="#5c5c5c"/><path d="M51.09,59.859a2.064,2.064,0,0,1-.717.1,1.87,1.87,0,0,1-.716-.1V52.521a1.854,1.854,0,0,1,.716-.1,2.045,2.045,0,0,1,.717.1Zm.028-8.885a2.232,2.232,0,0,1-.745.1,2.033,2.033,0,0,1-.745-.1V49.627a2.033,2.033,0,0,1,.745-.1,2.232,2.232,0,0,1,.745.1Z" fill="#5c5c5c"/><path d="M56.061,53.409c-.931,0-1.59.617-1.7,2.207h3.066a4.838,4.838,0,0,0,.043-.645c0-.844-.343-1.562-1.405-1.562m-1.7,3.225c.114,1.706.8,2.25,1.991,2.25a3.48,3.48,0,0,0,1.692-.416A1.477,1.477,0,0,1,58.5,59.5a4.223,4.223,0,0,1-2.379.6c-2.206,0-3.239-1.361-3.239-3.955,0-2.709,1.276-3.87,3.181-3.87A2.588,2.588,0,0,1,58.9,55.158a6.061,6.061,0,0,1-.159,1.476Z" fill="#5c5c5c"/><path d="M63.571,53.452a1.622,1.622,0,0,0-1.562,1.806v1.834a1.64,1.64,0,0,0,1.562,1.835c1.147,0,1.72-.6,1.72-2.737s-.573-2.738-1.72-2.738m.5-1.175c1.634,0,2.694.988,2.694,3.913S65.707,60.1,64.073,60.1a2.29,2.29,0,0,1-2.064-.933v4.014a2.409,2.409,0,0,1-.73.086,2.209,2.209,0,0,1-.7-.086V52.521a1.909,1.909,0,0,1,.7-.1,2.079,2.079,0,0,1,.73.1v.687a2.293,2.293,0,0,1,2.064-.931" fill="#5c5c5c"/><path d="M71.411,53.409c-.932,0-1.591.617-1.706,2.207h3.066a4.789,4.789,0,0,0,.044-.645c0-.844-.344-1.562-1.4-1.562m-1.706,3.225c.115,1.706.8,2.25,1.992,2.25a3.473,3.473,0,0,0,1.691-.416,1.482,1.482,0,0,1,.459,1.032,4.232,4.232,0,0,1-2.38.6c-2.206,0-3.238-1.361-3.238-3.955,0-2.709,1.275-3.87,3.182-3.87a2.587,2.587,0,0,1,2.837,2.881,6.134,6.134,0,0,1-.157,1.476Z" fill="#5c5c5c"/><path d="M77.329,49.211a2.061,2.061,0,0,1,.716.1v3.941l1-.573a1.2,1.2,0,0,1,.444.773l-1.447.846v5.56a2.061,2.061,0,0,1-.716.1,1.864,1.864,0,0,1-.716-.1v-4.73l-.961.545a1.412,1.412,0,0,1-.443-.773l1.4-.8V49.311a1.864,1.864,0,0,1,.716-.1" fill="#5c5c5c"/><path d="M86.658,59.858a2.054,2.054,0,0,1-.716.1,1.969,1.969,0,0,1-.717-.1V54.7c0-.8-.415-1.262-1.332-1.262a1.958,1.958,0,0,0-1.62.918v5.5a2.16,2.16,0,0,1-.716.1,1.873,1.873,0,0,1-.717-.1V52.52a1.873,1.873,0,0,1,.717-.1,2.16,2.16,0,0,1,.716.1v.659a2.781,2.781,0,0,1,2.164-.9,2.025,2.025,0,0,1,2.221,2.165Z" fill="#5c5c5c"/><path d="M91.559,53.381c-1.046,0-1.72.6-1.72,2.809S90.513,59,91.559,59s1.706-.6,1.706-2.808-.659-2.809-1.706-2.809m0-1.1c1.978,0,3.181,1.075,3.181,3.913S93.522,60.1,91.559,60.1s-3.182-1.076-3.182-3.912,1.218-3.913,3.182-3.913" fill="#5c5c5c"/><path d="M98.868,52.277a4.073,4.073,0,0,1,2.021.387,1.458,1.458,0,0,1-.372,1.017,5.333,5.333,0,0,0-1.506-.229c-.974,0-1.461.359-1.461,1.032,0,.7.9.875,1.806,1.175.93.3,1.906.744,1.906,2.149,0,1.448-.9,2.294-2.723,2.294a5.114,5.114,0,0,1-2.394-.516,1.462,1.462,0,0,1,.388-1.061,6.1,6.1,0,0,0,1.934.359c.875,0,1.376-.33,1.376-1.032,0-.788-.789-.96-1.634-1.2-.975-.286-2.034-.7-2.034-2.12,0-1.348.873-2.25,2.693-2.25" fill="#5c5c5c"/><path d="M105.891,53.452a1.623,1.623,0,0,0-1.563,1.806v1.834a1.641,1.641,0,0,0,1.563,1.835c1.145,0,1.719-.6,1.719-2.737s-.574-2.738-1.719-2.738m.5-1.175c1.633,0,2.693.988,2.693,3.913s-1.06,3.912-2.693,3.912a2.294,2.294,0,0,1-2.065-.933v4.014a2.409,2.409,0,0,1-.73.086,2.2,2.2,0,0,1-.7-.086V52.521a1.9,1.9,0,0,1,.7-.1,2.079,2.079,0,0,1,.73.1v.687a2.3,2.3,0,0,1,2.065-.931" fill="#5c5c5c"/><path d="M114.059,52.293a2.261,2.261,0,0,1,1.247.357,1.632,1.632,0,0,1-.631,1.2,1.441,1.441,0,0,0-.889-.3,1.856,1.856,0,0,0-1.476,1.09v5.216a2.061,2.061,0,0,1-.716.1,1.879,1.879,0,0,1-.717-.1V52.521a1.879,1.879,0,0,1,.717-.1,2.061,2.061,0,0,1,.716.1v.99a2.088,2.088,0,0,1,1.749-1.218" fill="#5c5c5c"/><path d="M118.888,56.433c-.96,0-1.462.372-1.462,1.275,0,.932.474,1.29,1.247,1.29,1.132,0,1.663-.96,1.663-1.978v-.5c-.33-.03-.9-.087-1.448-.087m.143-4.156c2.078,0,2.738.931,2.738,2.781v4.8a1.132,1.132,0,0,1-.559.1,1.473,1.473,0,0,1-.574-.1l-.215-.917a2.3,2.3,0,0,1-2.25,1.161,2.1,2.1,0,0,1-2.22-2.394c0-1.562.96-2.25,2.75-2.25a15.4,15.4,0,0,1,1.635.086v-.53c0-.974-.374-1.534-1.477-1.534a5.958,5.958,0,0,0-1.921.359,1.167,1.167,0,0,1-.329-.43,1.246,1.246,0,0,1-.085-.6,6.219,6.219,0,0,1,2.507-.53" fill="#5c5c5c"/><path d="M128.849,55.975a9.968,9.968,0,0,1-.388-2.064H128.4a9.232,9.232,0,0,1-.4,2.064l-1.132,3.884a2.822,2.822,0,0,1-.817.1,3.056,3.056,0,0,1-.83-.1l-2.165-7.339a2.179,2.179,0,0,1,.716-.1,1.149,1.149,0,0,1,.617.1l1.361,4.573a9.014,9.014,0,0,1,.3,1.4h.043a11.724,11.724,0,0,1,.315-1.4l1.319-4.573a3.109,3.109,0,0,1,.774-.1,1.915,1.915,0,0,1,.7.1l1.277,4.545a8.016,8.016,0,0,1,.287,1.432h.043a13.392,13.392,0,0,1,.359-1.42l1.345-4.557a1.733,1.733,0,0,1,.631-.1,1.353,1.353,0,0,1,.616.1L131.6,59.859a3.027,3.027,0,0,1-.816.1,3.213,3.213,0,0,1-.831-.1Z" fill="#5c5c5c"/><path d="M140.987,59.858a2.067,2.067,0,0,1-.718.1,1.966,1.966,0,0,1-.716-.1V54.7c0-.8-.415-1.262-1.333-1.262a1.955,1.955,0,0,0-1.618.918v5.5a2.163,2.163,0,0,1-.717.1,1.873,1.873,0,0,1-.717-.1V52.52a1.873,1.873,0,0,1,.717-.1,2.163,2.163,0,0,1,.717.1v.659a2.778,2.778,0,0,1,2.164-.9,2.026,2.026,0,0,1,2.221,2.165Z" fill="#5c5c5c"/><path d="M146.36,61.062c-.516,1.577-1.016,2.48-2.564,2.48a2.064,2.064,0,0,1-.789-.144,1.67,1.67,0,0,1-.1-.53,1.4,1.4,0,0,1,.113-.574,4.089,4.089,0,0,0,.646.058c.645,0,.975-.172,1.405-1.52l.3-.874a1.432,1.432,0,0,1-.459-.1L142.19,52.52a2.357,2.357,0,0,1,.745-.1,2.263,2.263,0,0,1,.746.1l1.633,4.357a13.66,13.66,0,0,1,.5,1.677h.056s.143-.673.458-1.662l1.419-4.372a1.923,1.923,0,0,1,.7-.1,2.039,2.039,0,0,1,.674.1Z" fill="#5c5c5c"/><path d="M151.634,56.189c0,1.878.6,2.694,1.977,2.694a3.7,3.7,0,0,0,1.348-.243,1.5,1.5,0,0,1,.415,1.031,3.882,3.882,0,0,1-2.064.431c-2.092,0-3.152-1.362-3.152-3.913s1.06-3.912,3.152-3.912a3.761,3.761,0,0,1,1.921.359,1.473,1.473,0,0,1-.415,1.032,3.477,3.477,0,0,0-1.262-.216c-1.374,0-1.92.874-1.92,2.737" fill="#5c5c5c"/><path d="M162.712,59.858a2.067,2.067,0,0,1-.718.1,1.95,1.95,0,0,1-.715-.1V54.7c0-.8-.417-1.262-1.333-1.262a1.961,1.961,0,0,0-1.619.918v5.5a2.169,2.169,0,0,1-.719.1,1.883,1.883,0,0,1-.716-.1V49.311a1.883,1.883,0,0,1,.716-.1,2.169,2.169,0,0,1,.719.1v3.868a2.779,2.779,0,0,1,2.163-.9,2.027,2.027,0,0,1,2.222,2.165Z" fill="#5c5c5c"/><path d="M3.287,31.457A1.321,1.321,0,0,0,1.966,32.78V58.566a1.322,1.322,0,1,0,2.643,0V32.78a1.323,1.323,0,0,0-1.322-1.323" fill="#40ab3d"/><path d="M11.983,47.4c2.309-6.645,7.047-11.331,13.083-13-2.077,5.524-6.36,11.148-13.083,13M26.85,31.3c-7.371,1.1-13.323,5.908-16.52,13.107C10.165,38.56,11,32.07,13.382,26.819a1.323,1.323,0,0,0-2.41-1.09C5.691,37.376,7.421,53.512,10.95,59.24A1.322,1.322,0,1,0,13.2,57.853a20.9,20.9,0,0,1-2.324-7.5c9.755-1.738,15.407-10.065,17.445-17.392v-.013a1.256,1.256,0,0,0,.033-.537A1.323,1.323,0,0,0,26.85,31.3" fill="#40ab3d"/><path d="M1.321,38.749a1.324,1.324,0,0,1-.286-2.615l10.674-2.36a1.323,1.323,0,0,1,.575,2.582L1.607,38.715a1.263,1.263,0,0,1-.286.034" fill="#e53b33"/><path d="M24.558,17.507a10.015,10.015,0,0,1-9.738,7.63,10.149,10.149,0,0,1-2.429-.3A10.041,10.041,0,0,1,5.064,12.675L7.027,4.739,9.533,8.892a1.317,1.317,0,0,0,1.813.452l5.75-3.47,2.784,4.617-5.752,3.462a1.323,1.323,0,0,0,.682,2.458,1.3,1.3,0,0,0,.68-.192l6.887-4.142h0l4.143-2.5Zm4.8-11.779a1.327,1.327,0,0,0-1.471-.065L22.146,9.127,18.681,3.375a1.3,1.3,0,0,0-.816-.6,1.331,1.331,0,0,0-1,.15L11.114,6.394,7.645.639A1.321,1.321,0,0,0,5.23,1L2.5,12.041a12.685,12.685,0,0,0,9.257,15.366,12.67,12.67,0,0,0,15.371-9.265L29.858,7.111a1.328,1.328,0,0,0-.5-1.383" fill="#e53b33"/></g></g></svg>