<svg data-name="Layer 1" xmlns="http://www.w3.org/2000/svg" width="430.453" height="99.538" viewBox="0 0 430.453 99.538"><path d="M189.442 24.908c-.966 0-1.857.04-2.674.108v8.11h1.99a20.437 20.437 0 0 0 2.928-.184 6.027 6.027 0 0 0 2.12-.65 3.176 3.176 0 0 0 1.286-1.264 4.231 4.231 0 0 0 .433-2.03 4.048 4.048 0 0 0-.433-1.952 3.259 3.259 0 0 0-1.252-1.269 5.715 5.715 0 0 0-1.936-.668 14.223 14.223 0 0 0-2.461-.201m-.324-3.942q5.435 0 8.308 1.99a6.882 6.882 0 0 1 2.879 6.08q0 5.104-5.035 6.912c.461.558.978 1.229 1.561 2.029a66.514 66.514 0 0 1 1.772 2.587 58.411 58.411 0 0 1 1.735 2.862 39.92 39.92 0 0 1 1.491 2.876h-5.106q-.692-1.304-1.488-2.625a79.79 79.79 0 0 0-1.61-2.57q-.816-1.248-1.61-2.354-.796-1.1-1.486-1.973a9.991 9.991 0 0 1-.867.037h-2.894v9.485h-4.567V21.58a24.69 24.69 0 0 1 3.554-.492 49.952 49.952 0 0 1 3.363-.121m29.575 9.48c-.487.503-1.113 1.22-1.9 2.134-.784.919-1.622 1.936-2.52 3.06q-1.34 1.685-2.692 3.513-1.36 1.827-2.443 3.493h9.767v3.655h-15.054V43.59a34.3 34.3 0 0 1 1.992-3.153q1.194-1.7 2.46-3.421 1.27-1.716 2.517-3.274c.83-1.038 1.575-1.945 2.225-2.713h-8.724v-3.66h14.372zm15.311 4.524a5.725 5.725 0 0 0-.254-1.718 4.093 4.093 0 0 0-.737-1.411 3.595 3.595 0 0 0-1.2-.944 3.807 3.807 0 0 0-1.682-.343 3.923 3.923 0 0 0-1.776.38 4.08 4.08 0 0 0-1.282.996 4.515 4.515 0 0 0-.814 1.41 7.983 7.983 0 0 0-.404 1.63zM221.3 36.925a11.819 11.819 0 0 1 .743-4.378 9.2 9.2 0 0 1 1.968-3.133 8.24 8.24 0 0 1 2.828-1.884 8.8 8.8 0 0 1 3.257-.63 7.798 7.798 0 0 1 6.103 2.426q2.196 2.428 2.188 7.236c0 .247-.006.516-.02.816-.011.303-.033.577-.053.814h-12.488a4.965 4.965 0 0 0 1.608 3.527 6.12 6.12 0 0 0 4.149 1.255 13.724 13.724 0 0 0 2.91-.292 12.012 12.012 0 0 0 2.082-.616l.584 3.582a6.79 6.79 0 0 1-1 .384 13.959 13.959 0 0 1-1.442.363c-.547.107-1.13.2-1.761.268a16.405 16.405 0 0 1-1.914.11 11.62 11.62 0 0 1-4.347-.74 8.158 8.158 0 0 1-3.044-2.068 8.395 8.395 0 0 1-1.772-3.113 12.65 12.65 0 0 1-.579-3.927m20.668-.07a11.507 11.507 0 0 1 .658-3.927 9.273 9.273 0 0 1 1.857-3.169 8.654 8.654 0 0 1 2.954-2.098 9.666 9.666 0 0 1 3.911-.762 13.174 13.174 0 0 1 5.066.979l-.938 3.582a9.958 9.958 0 0 0-1.719-.539 9.144 9.144 0 0 0-2.047-.219 4.78 4.78 0 0 0-3.91 1.61 6.928 6.928 0 0 0-1.338 4.543 7.112 7.112 0 0 0 1.27 4.47q1.257 1.65 4.268 1.65a11.612 11.612 0 0 0 2.208-.218 10.404 10.404 0 0 0 1.883-.543l.615 3.62a9.31 9.31 0 0 1-2.192.65 15.345 15.345 0 0 1-3.022.288 11.044 11.044 0 0 1-4.22-.738 8.041 8.041 0 0 1-2.964-2.067 8.445 8.445 0 0 1-1.756-3.15 12.987 12.987 0 0 1-.584-3.961m31.386-6.409a53.716 53.716 0 0 0-1.9 2.134 108.14 108.14 0 0 0-2.515 3.06q-1.337 1.685-2.698 3.513-1.355 1.827-2.447 3.493h9.775v3.655h-15.054V43.59a33.28 33.28 0 0 1 1.988-3.153q1.193-1.7 2.463-3.421 1.267-1.716 2.513-3.274a146.525 146.525 0 0 1 2.228-2.713h-8.725v-3.66h14.372zm16.832 6.478a7.043 7.043 0 0 0-1.322-4.558 5.167 5.167 0 0 0-4.253-1.63c-.408 0-.839.017-1.283.051a7.16 7.16 0 0 0-1.323.24v10.825a7.054 7.054 0 0 0 1.537.736 5.948 5.948 0 0 0 2.042.347 3.915 3.915 0 0 0 3.497-1.63 7.71 7.71 0 0 0 1.105-4.38m4.486-.071a13.323 13.323 0 0 1-.561 3.982 9.309 9.309 0 0 1-1.606 3.112 7.152 7.152 0 0 1-2.628 2.027 8.425 8.425 0 0 1-3.565.726 8.67 8.67 0 0 1-2.46-.327 9.007 9.007 0 0 1-1.847-.728v7.35h-4.38V27.985c.888-.24 1.987-.47 3.292-.684a24.825 24.825 0 0 1 4.126-.331 10.983 10.983 0 0 1 4.019.69 8.414 8.414 0 0 1 3.024 1.972 8.64 8.64 0 0 1 1.917 3.113 11.866 11.866 0 0 1 .67 4.11m17.157-.038a7.342 7.342 0 0 0-1.209-4.467 4.301 4.301 0 0 0-6.77 0 7.395 7.395 0 0 0-1.215 4.467 7.58 7.58 0 0 0 1.214 4.527 4.276 4.276 0 0 0 6.771 0 7.526 7.526 0 0 0 1.209-4.527m4.494 0a12.173 12.173 0 0 1-.653 4.09 9.045 9.045 0 0 1-1.847 3.152 8.379 8.379 0 0 1-2.874 2.028 9.368 9.368 0 0 1-3.716.723 9.206 9.206 0 0 1-3.69-.723 8.4 8.4 0 0 1-2.86-2.028 9.241 9.241 0 0 1-1.86-3.152 11.744 11.744 0 0 1-.674-4.09 11.614 11.614 0 0 1 .674-4.072 9.153 9.153 0 0 1 1.877-3.132 8.243 8.243 0 0 1 2.886-2.006 9.189 9.189 0 0 1 3.647-.707 9.402 9.402 0 0 1 3.68.707 8.093 8.093 0 0 1 2.873 2.006 9.356 9.356 0 0 1 1.87 3.132 11.82 11.82 0 0 1 .667 4.072m9.26 6.333a5.778 5.778 0 0 0 2.538-.414 1.483 1.483 0 0 0 .801-1.43 1.846 1.846 0 0 0-.855-1.554 12.246 12.246 0 0 0-2.807-1.34 20.518 20.518 0 0 1-2.188-.928 7.373 7.373 0 0 1-1.722-1.136 4.684 4.684 0 0 1-1.139-1.577 5.485 5.485 0 0 1-.414-2.26 4.933 4.933 0 0 1 1.915-4.109 8.23 8.23 0 0 1 5.216-1.503 16.01 16.01 0 0 1 3.18.307 15.744 15.744 0 0 1 2.289.6l-.802 3.544a10.856 10.856 0 0 0-1.846-.596 11.142 11.142 0 0 0-2.605-.273 4.562 4.562 0 0 0-2.17.453 1.48 1.48 0 0 0-.838 1.393 1.977 1.977 0 0 0 .164.833 1.838 1.838 0 0 0 .56.674 5.855 5.855 0 0 0 1.054.614 15.84 15.84 0 0 0 1.589.632 24.256 24.256 0 0 1 2.644 1.14 7.16 7.16 0 0 1 1.793 1.264 4.364 4.364 0 0 1 1.028 1.616 6.257 6.257 0 0 1 .33 2.17 4.673 4.673 0 0 1-2.011 4.109 9.981 9.981 0 0 1-5.735 1.392 15.8 15.8 0 0 1-4.021-.415 20.598 20.598 0 0 1-2.138-.67l.765-3.659a18.47 18.47 0 0 0 2.333.761 11.825 11.825 0 0 0 3.093.362m24.367-6.225a7.076 7.076 0 0 0-1.323-4.558 5.161 5.161 0 0 0-4.252-1.63c-.415 0-.844.017-1.292.051a7.126 7.126 0 0 0-1.314.24v10.825a6.725 6.725 0 0 0 1.538.736 5.963 5.963 0 0 0 2.041.347 3.927 3.927 0 0 0 3.498-1.63 7.687 7.687 0 0 0 1.104-4.38m4.486-.071a13.548 13.548 0 0 1-.56 3.982 9.185 9.185 0 0 1-1.615 3.112 7.109 7.109 0 0 1-2.62 2.027 8.418 8.418 0 0 1-3.564.726 9.152 9.152 0 0 1-4.308-1.055v7.35h-4.381V27.985c.895-.24 1.988-.47 3.293-.684a24.835 24.835 0 0 1 4.126-.331 11.015 11.015 0 0 1 4.024.69 8.405 8.405 0 0 1 3.016 1.972 8.756 8.756 0 0 1 1.92 3.113 11.842 11.842 0 0 1 .669 4.11m17.163-.038a7.395 7.395 0 0 0-1.215-4.467 4.301 4.301 0 0 0-6.77 0 7.362 7.362 0 0 0-1.209 4.467 7.546 7.546 0 0 0 1.21 4.527 4.276 4.276 0 0 0 6.77 0 7.58 7.58 0 0 0 1.214-4.527m4.486 0a12.17 12.17 0 0 1-.651 4.09 9.09 9.09 0 0 1-1.847 3.152 8.402 8.402 0 0 1-2.88 2.028 9.316 9.316 0 0 1-3.709.723 9.189 9.189 0 0 1-3.69-.722 8.4 8.4 0 0 1-2.86-2.029 9.241 9.241 0 0 1-1.86-3.152 11.744 11.744 0 0 1-.674-4.09 11.614 11.614 0 0 1 .674-4.071 9.115 9.115 0 0 1 1.88-3.132 8.317 8.317 0 0 1 2.872-2.007A9.279 9.279 0 0 1 367 26.9a9.443 9.443 0 0 1 3.679.707 8.075 8.075 0 0 1 2.874 2.006 9.212 9.212 0 0 1 1.861 3.132 11.614 11.614 0 0 1 .674 4.072m11.109 9.847a11.806 11.806 0 0 1-3.238-.435 4.884 4.884 0 0 1-2.045-1.141 3.981 3.981 0 0 1-1.067-1.845 9.356 9.356 0 0 1-.308-2.515V22.187l4.377-.724v18.432a6.18 6.18 0 0 0 .125 1.341 2.112 2.112 0 0 0 .46.924 1.978 1.978 0 0 0 .88.577 6.78 6.78 0 0 0 1.43.306zm8.577-.363h-4.375V27.37h4.375zm.473-24.467a2.515 2.515 0 0 1-.795 1.953 2.703 2.703 0 0 1-1.884.723 2.74 2.74 0 0 1-1.914-.723 2.515 2.515 0 0 1-.796-1.952 2.554 2.554 0 0 1 .796-1.992 2.738 2.738 0 0 1 1.914-.726 2.7 2.7 0 0 1 1.884.726 2.553 2.553 0 0 1 .795 1.991m4.885.353l4.383-.722v5.904h6.732v3.66h-6.732v7.71a5.58 5.58 0 0 0 .723 3.254 2.858 2.858 0 0 0 2.46.981 8.021 8.021 0 0 0 2.122-.254 13.171 13.171 0 0 0 1.464-.474l.727 3.48a17.775 17.775 0 0 1-1.996.668 10.89 10.89 0 0 1-2.894.343 9.123 9.123 0 0 1-3.381-.543 4.99 4.99 0 0 1-2.158-1.576 6.157 6.157 0 0 1-1.118-2.499 15.055 15.055 0 0 1-.332-3.345zm22.012 21.041a16.424 16.424 0 0 0 3.078-.22v-4.85a9.363 9.363 0 0 0-1.05-.22 10.43 10.43 0 0 0-1.524-.107 10.88 10.88 0 0 0-1.464.108 4.77 4.77 0 0 0-1.343.399 2.446 2.446 0 0 0-.954.815 2.252 2.252 0 0 0-.362 1.321 2.319 2.319 0 0 0 .977 2.154 5.027 5.027 0 0 0 2.642.6m-.365-16.33a10.736 10.736 0 0 1 3.658.543 5.941 5.941 0 0 1 2.373 1.517 5.769 5.769 0 0 1 1.269 2.378 11.767 11.767 0 0 1 .374 3.058v11.474q-1.007.215-3.056.527a31.641 31.641 0 0 1-4.618.307 13.907 13.907 0 0 1-3.11-.325 6.577 6.577 0 0 1-2.407-1.051 4.909 4.909 0 0 1-1.554-1.884 6.486 6.486 0 0 1-.564-2.858 5.574 5.574 0 0 1 .63-2.753 5.241 5.241 0 0 1 1.726-1.829 7.407 7.407 0 0 1 2.515-1.011 14.262 14.262 0 0 1 2.988-.309 12.971 12.971 0 0 1 1.515.091 13.729 13.729 0 0 1 1.705.307v-.723a5.546 5.546 0 0 0-.182-1.446 2.911 2.911 0 0 0-.637-1.213 2.986 2.986 0 0 0-1.192-.816 5.173 5.173 0 0 0-1.863-.292 16.935 16.935 0 0 0-2.79.22 11.522 11.522 0 0 0-2.059.506l-.546-3.547a16.927 16.927 0 0 1 2.424-.577 18.81 18.81 0 0 1 3.401-.293m-233.16 31.57c-1.153 0-2.105.04-2.86.11v8.547h2.216a11.151 11.151 0 0 0 5.067-.928 3.562 3.562 0 0 0 1.773-3.492 4.143 4.143 0 0 0-.475-2.06 3.348 3.348 0 0 0-1.299-1.306 6.256 6.256 0 0 0-1.98-.67 14.487 14.487 0 0 0-2.443-.201m-.32-3.942q5.463 0 8.376 1.99c1.947 1.328 2.912 3.402 2.912 6.228a8.52 8.52 0 0 1-.773 3.782 6.59 6.59 0 0 1-2.261 2.567 10.461 10.461 0 0 1-3.62 1.468 22.779 22.779 0 0 1-4.89.47h-2.282v8.831h-4.56V55.142a22.84 22.84 0 0 1 3.529-.488q1.94-.127 3.57-.127m27.22 15.856a7.351 7.351 0 0 0-1.216-4.47 4.298 4.298 0 0 0-6.763 0 7.382 7.382 0 0 0-1.215 4.47 7.532 7.532 0 0 0 1.215 4.523 4.264 4.264 0 0 0 6.763 0 7.501 7.501 0 0 0 1.216-4.523m4.488 0a12.207 12.207 0 0 1-.652 4.088 8.922 8.922 0 0 1-1.845 3.15 8.268 8.268 0 0 1-2.877 2.027 9.276 9.276 0 0 1-3.715.724 9.081 9.081 0 0 1-3.686-.724 8.247 8.247 0 0 1-2.859-2.027 9.165 9.165 0 0 1-1.87-3.15 11.902 11.902 0 0 1-.67-4.088 11.732 11.732 0 0 1 .67-4.071 9.098 9.098 0 0 1 1.883-3.132 8.225 8.225 0 0 1 2.882-2.011 9.239 9.239 0 0 1 3.65-.706 9.427 9.427 0 0 1 3.677.706 7.996 7.996 0 0 1 2.876 2.01 9.252 9.252 0 0 1 1.868 3.133 11.788 11.788 0 0 1 .668 4.07m11.116 9.845a12.118 12.118 0 0 1-3.243-.431 5.077 5.077 0 0 1-2.047-1.143 4.095 4.095 0 0 1-1.067-1.85 9.511 9.511 0 0 1-.306-2.512V55.795l4.38-.726v18.392a6.338 6.338 0 0 0 .127 1.338 2.14 2.14 0 0 0 .453.922 2.087 2.087 0 0 0 .89.58 6.795 6.795 0 0 0 1.427.31zm8.903-3.511a5.77 5.77 0 0 0 2.534-.415 1.485 1.485 0 0 0 .796-1.428 1.843 1.843 0 0 0-.85-1.558 12.42 12.42 0 0 0-2.806-1.338 22.252 22.252 0 0 1-2.188-.926 7.328 7.328 0 0 1-1.722-1.141 4.537 4.537 0 0 1-1.139-1.572 5.522 5.522 0 0 1-.416-2.264 4.923 4.923 0 0 1 1.917-4.106 8.248 8.248 0 0 1 5.211-1.507 16.35 16.35 0 0 1 3.194.307 16.056 16.056 0 0 1 2.28.601l-.802 3.547a10.473 10.473 0 0 0-1.841-.597 11.093 11.093 0 0 0-2.61-.27 4.589 4.589 0 0 0-2.175.45 1.488 1.488 0 0 0-.827 1.394 2.077 2.077 0 0 0 .158.833 1.802 1.802 0 0 0 .564.67 5.582 5.582 0 0 0 1.045.614 17.113 17.113 0 0 0 1.594.636 23.926 23.926 0 0 1 2.648 1.14 7.372 7.372 0 0 1 1.796 1.265 4.408 4.408 0 0 1 1.027 1.61 6.575 6.575 0 0 1 .323 2.175 4.67 4.67 0 0 1-2.01 4.105 9.984 9.984 0 0 1-5.74 1.396 15.747 15.747 0 0 1-4.01-.42 19.895 19.895 0 0 1-2.138-.67l.759-3.653a20.319 20.319 0 0 0 2.328.76 11.991 11.991 0 0 0 3.1.362m16.178-8.4c.558-.574 1.147-1.197 1.778-1.86.626-.667 1.246-1.328 1.847-1.992.597-.665 1.174-1.304 1.721-1.92a108.56 108.56 0 0 0 1.39-1.61h5.175q-1.802 2.022-3.804 4.202-2.004 2.168-4.032 4.234a23.84 23.84 0 0 1 2.277 2.187q1.193 1.285 2.317 2.734c.744.968 1.444 1.93 2.09 2.896a30.27 30.27 0 0 1 1.627 2.676h-5.074q-.646-1.119-1.498-2.35-.85-1.232-1.83-2.393a42.209 42.209 0 0 0-1.987-2.186 16.81 16.81 0 0 0-1.997-1.758v8.687h-4.381V55.795l4.38-.726zm22.23 8.474a16.641 16.641 0 0 0 3.081-.217v-4.85a7.747 7.747 0 0 0-1.056-.22 9.843 9.843 0 0 0-1.524-.111 10.027 10.027 0 0 0-1.458.111 4.644 4.644 0 0 0-1.349.397 2.514 2.514 0 0 0-.957.814 2.752 2.752 0 0 0 .623 3.476 5.006 5.006 0 0 0 2.64.6m-.362-16.33a10.72 10.72 0 0 1 3.655.547 5.858 5.858 0 0 1 2.37 1.517 5.747 5.747 0 0 1 1.269 2.373 11.533 11.533 0 0 1 .383 3.059v11.478a55.85 55.85 0 0 1-3.062.522 31.178 31.178 0 0 1-4.615.309 14.128 14.128 0 0 1-3.115-.324 6.585 6.585 0 0 1-2.408-1.054 4.944 4.944 0 0 1-1.554-1.883 6.468 6.468 0 0 1-.558-2.86 5.585 5.585 0 0 1 .628-2.751 5.26 5.26 0 0 1 1.723-1.826 7.3 7.3 0 0 1 2.514-1.01 13.881 13.881 0 0 1 2.982-.31 13.079 13.079 0 0 1 1.523.09 13.456 13.456 0 0 1 1.708.308v-.726a5.432 5.432 0 0 0-.187-1.445 2.992 2.992 0 0 0-.631-1.215 3.027 3.027 0 0 0-1.198-.816 5.19 5.19 0 0 0-1.864-.288 16.547 16.547 0 0 0-2.789.22 11.74 11.74 0 0 0-2.058.506l-.547-3.55a17.485 17.485 0 0 1 2.43-.578 19.113 19.113 0 0 1 3.401-.292" fill="#1d1d1b"/><path fill="#fff" d="M0 0h149.149v49.776H0z"/><path fill="#b61f2b" d="M0 49.776h149.149v49.763H0z"/><path d="M.465.47h148.218v98.597H.465zM0 99.538h149.15V0H0z" fill="#878787"/></svg>