<svg xmlns="http://www.w3.org/2000/svg" viewBox="0 0 222.059 162.944"><g id="Layer_2" data-name="Layer 2"><g id="Layer_1-2" data-name="Layer 1"><path d="M213.109,13.868c6.91.489,6.836,10,4.6,14.383.195.231.351.414.511.6-1.1,4.125-5.378,17.34-5.015,21.57,1.18-.113,5.73-1.176,6.2-.641.309.348-.191.958.207,1.153.606.3,2.363-.328,2.426.344.555,5.8-8.672,2.593-11.41,6.2a226.247,226.247,0,0,0-7.891,40.32c-.234,2.043-1.109,3.934,1,6.555.32.4.492,1.027.234,1.242-.4.332-.972.371-1.285.648-.5.45,2,4.36,1.754,5.192-.25.859-1.6.176-1.441,1.187.14.852,1.234,1.211,1.09,2.024-.2,1.109-1.227,1.058-1.9,1.949-7.547-4.277-8-20.258-6.894-27.766.117-.781-.418-2.047-.344-2.336.1-.41,1.457-.172,1.586-1.086.1-.679-1.024-.668-.992-.968.257-2.395,1.839-1.434,2.2-3.453.187-1.04-1.649.011-1.6-1.2.047-1.093.949-2.152,1.035-2.691l3.031-19.4c.04-.238-.21-.64-.511-.6-2.2.308-5.918,1.73-8.453.629-4.192-6.778,5.519-5.938,9.812-6.418,1.574-1.68,2.289-2.785,1.156-5.883L206.2,24.814C207.175,19.724,210.625,18.837,213.109,13.868ZM66.824,80.634c.9-.531,1.8-1.059,2.656-1.551.781.449,1.524.852,2.219,1.293,1.769-.633,1.769-.633,5.535-3.133a14.042,14.042,0,0,1,1.266.832c5.707-2.558,7.543,4.637,8.554,8.157-.722,1.015-.343,7.621-.168,9.226-5.7,12.832-18.218,40.727-35.019,21.047C48.246,104.142,57.789,88.345,66.824,80.634ZM25.312,23.962c1.149-.328.3-1.437,1.375-1.609.977-.157.61,1.258,1.262,1.5.68.257.723-1.207,1.582-1.063,1.984.336,2.758,3.27,3.23,4.879a15.818,15.818,0,0,1-.093,5.2C29.433,40.1,22.394,55.845,12.922,44.747a11.029,11.029,0,0,1-.313-1.429c-1.976,4.175-1.68,8.984,2.547,13.937C30.6,69.407,50.2,89.755,38.039,111.021c-4.141,7.242-11.766,12.047-20.52,16.863-.312.285-13.176,7.019-14.535,4.562a1.52,1.52,0,0,1,.621-2.093c3.379-1.254,8.121-3.59,9.449-5.332,1.766-.664,1.36.64,2.625-1.024.286-.375.707.285,1.036.043.339-.258-.168-1.2.1-1.429.246-.215,1,.511,1.4.265s-.711-1.7-.426-1.992c.433-.445,1.105.773,2-.055,3.933-3.636,4.437-2.554,7.7-6.312.277-.321.91.957,1.566.406.5-.426-1.16-2.266-.379-3.016.5-.476,1.754.571,2.329-.136.511-.637-.7-1.465-.586-1.785.218-.625,1.523-.184,1.836-.774.617-1.168-1.137-1.344-1.008-2.73.2-2.121,1.91-2.707,1.34-8.176C28.855,76.146-.133,70.478,0,50.1.1,35.165,14.152,23.517,23.316,22.946,24.41,22.876,24.39,24.228,25.312,23.962Zm85.715,48.469c2.766.14,4.215,5.68,5.961,5.7,1.363.016,7.426-2.223,10.586-2.152,5.094.109,9.094,2.64,11.316,9.429-1.254,17.844-11.5,34.711-28.617,40.75-4.273,1.864-4.344,2.973-6.375,5.032-1.2,3.316-8.848,24.574-10.742,29.449-2.109,4.051-5.691,1.957-5.508-.1l3.918-19.351c-2.738-2.457-.012-.524.84-2.2.109-.215-.781-.84-.41-1.594.472-.973,2.117.222,2.359-.614s-1.207-.96-1.019-1.609c.2-.691,1.836-.3,1.7-1.133-.129-.789-1.449-.355-1.664-.625-.43-.543-.008-.8.008-1.66.019-.8.742-1.25.828-1.988a12.141,12.141,0,0,1,.711-3.7c.472-.977,3.382-2.7,3.511-3.633.192-1.367-1.781-.867-1.871-2.11-.062-.859,1.426-1,1.379-2.367-.055-1.48-1.816.512-1.965-1.218-.168-2,3.532-1.02,2.106-3.071-1.078-1.554-.637-2.328.465-3.492L104.191,81.9C105.3,76.329,108.152,72.282,111.027,72.431Zm49.637,2.68c.5-.532,1.129-1.575,1.683-1.2,3.758,2.52,1.825,4.352,3.84,4.3,3.321-.082,1.434-2.289,3.574-2.617.633-.1,3.063,2.672,3.2.926.019-.266-1.063-.993-.86-1.258a3.355,3.355,0,0,1,3.028-.844c.566.117,0,.942.554,1.125s.75-.43,1.012-.379c1.422.266-.312,2.1-.922,2.278-.25.074-.742-.1-1.07-.075-1.762.168-.762,3.641.937,2.774,1.747-.887.207-2.254,1.508-2.36.973-.074,0,.871.692.954.609.074.66-1.125,1.25-.415.945,1.129-1.258,1.707-1.266,2.45,0,.281.047.382.938.511.4.059.609-.6.941-.539,1.168.2.473,3.168-.2,3.153-.723-.024-.059-.9-.832-.914-.6-.016-1.121.3-1.028,1.031.094.754,2.633,1.781,2.575,2.773-.094,1.571-2.188-1.16-2.067,1.024.059,1.023,1.508.746,1.512,1.816,0,1.11-1.555.6-1.367,1.168,2.507,7.734-15.856,29.793-25.422,24.75-1.9-1.461-4.746-4.41-5.781-5.187C145.441,96.388,151.437,84.954,160.664,75.111Z" fill="#0091ca" fill-rule="evenodd"/><path d="M44.941,19.263q48.968,14.665,73.348,42.5Q154.67,23.116,208.75,4.142C156.918-3.78,96.734-1.171,44.941,19.263Z" fill="#ffc81d" fill-rule="evenodd"/></g></g></svg>