<svg xmlns="http://www.w3.org/2000/svg" viewBox="0 0 147.903 116.634"><g id="Layer_2" data-name="Layer 2"><g id="Layer_1-2" data-name="Layer 1"><path d="M76.446,38.145a.54.54,0,0,1-.118.271.558.558,0,0,1-.656,0c-.116-.081-.118-.239-.135-.369v-.006a29.709,29.709,0,0,0-.2-4.3,76.2,76.2,0,0,0-2.273-9.79,5.522,5.522,0,0,0-.349-1.069c-.117-.224-.367-.376-.519-.583l-.6-1.035-.54-.944-.932-1.3a10.939,10.939,0,0,0-1.637-1.578c-.154-.161-.251-.359-.405-.521-.382-.4-1.6-1.2-1.19-1.828.321-.5.9-.163,1.337-.006l.66.158a25.262,25.262,0,0,0,4.308.213c1.69-.033,3.4-.4,5.08-.585l1.935-.127,1.574.088,2.058.221a30.153,30.153,0,0,1,4.045.434c2.75.7,5.5,1.222,8.174,2.118a30.588,30.588,0,0,1,3.576,1.265l1.728.972,1.2.725a9.353,9.353,0,0,1,1.938,1.345l.349.15.01-.005c.513.252.626.325.628.8l-.466-.409a5.165,5.165,0,0,1-.031.535c.008.147.012.295.012.465-.022.05-.08.052-.151.04a.706.706,0,0,1-.294-.085.61.61,0,0,1-.357-.325h0a1.3,1.3,0,0,1-.722-.495,1.581,1.581,0,0,1-.55-.4c-1.311-.769-2.6-1.554-3.927-2.308a29.17,29.17,0,0,0-3.4-1.214L93.927,18.1c-1.427-.392-2.893-.684-4.339-1.024l-2.066-.539a28.033,28.033,0,0,0-3.832-.415l-2.057-.231a25.589,25.589,0,0,0-6.351.429,28.453,28.453,0,0,1-3.96.153,15.6,15.6,0,0,1-2.5-.2c.419.427.847.847,1.3,1.247,1.43,1.3,2.128,3.038,3.211,4.542a4.377,4.377,0,0,1,.587,1.09c1.138,4.312,2.654,8.895,2.554,13.338,0,.121.012.34.02.591a.5.5,0,0,1,.216-.3,15.55,15.55,0,0,1,1.547-.949c.794-.38,1.585-.858,2.395-1.193a9.631,9.631,0,0,1,1.608-.405,33.528,33.528,0,0,1,4.71-.736c2.348-.1,4.645-.143,7-.134a20.488,20.488,0,0,1,4.094.673,44.789,44.789,0,0,1,6.314,2.265,46.819,46.819,0,0,1,5.742,2.489,14.432,14.432,0,0,1,2.676,2.386l.184,0c0-.094,0-.187,0-.28.039-.177.165-.334.194-.512a11.912,11.912,0,0,0,.01-1.763l-.174-1.288a8,8,0,0,0-.168-1.283c-.774-1.854-1.494-3.712-2.184-5.592-.907-1.756-1.764-3.531-2.694-5.277a1.786,1.786,0,0,0-.337-.348c.474.236.582.537.833.948l.76,1.395.6,1.114.926,1.683c.768,1.758,1.471,3.538,2.231,5.3a13.715,13.715,0,0,1,.731,4.734c-.013.458-.2.857-.2,1.323-.008.41-.527.368-.889.311-.226-.035-.947-.855-1.092-1l-.825-.779a14.6,14.6,0,0,0-3.4-1.823l-1.565-.675c-2.07-.686-4.052-1.505-6.1-2.234a36.377,36.377,0,0,0-4.42-1.03,22.3,22.3,0,0,0-3.027-.065l-1.87.008-1.639.086a22.854,22.854,0,0,0-3.2.233c-1.247.292-2.506.49-3.755.769a10.9,10.9,0,0,0-2,.837,18.079,18.079,0,0,0-2.335,1.35c-.027.2-.121.3-.382.385-.041.188-.16.278-.464.356h0Z" fill="#0d2355"/><path d="M129.083,51.229l.389.181-.127.022-.024.011.115.1-.478-.18a.789.789,0,0,1-.6-.364l-.09-.054A21.1,21.1,0,0,1,123.29,47.4a13.394,13.394,0,0,0-1.621-1.3c-2.506-1.439-5.163-2.735-7.884-4a45.764,45.764,0,0,0-5.36-1.53c-4.969-1.409-9.863-2.78-15.1-3.74-6.188-.864-12.452-1.814-18.78-2.119a35.38,35.38,0,0,1-5.388-.288l.076.041A16.356,16.356,0,0,1,73.3,37.119c1.786,1.821,2.259,3.89,2.821,5.974a73.154,73.154,0,0,0,2.055,7.963,31.349,31.349,0,0,1,.671,6.119L78.7,58.981l-.268,1.508a20.284,20.284,0,0,1-.274,2.322c.181-.144.209-.324.437-.423.5-.214,1.061-.346,1.566-.583A44.147,44.147,0,0,1,88.417,59a48.709,48.709,0,0,1,8.863-.837l2.685.006a90.142,90.142,0,0,1,9.388.6c2.668.424,5.122.913,7.677,1.564,2.011.654,3.828,1.334,5.723,2.118,1.4.636,2.63,1.338,3.91,2.07,1.843,1.384,4.034,2.872,5.058,4.632.008-.524.013-1.055.017-1.587a12.1,12.1,0,0,0,.276-1.5c-.389-2.968-.931-5.913-1.2-8.885a47.319,47.319,0,0,0-.3-7.718l.225.577a43.594,43.594,0,0,1,.507,6.582c.164,2.848.824,5.66,1.273,8.493a38.627,38.627,0,0,1-.088,4.459c0,.333.156.693-.079.989-.19.24-.583-.05-.742-.125-.225-.107-.176-.322-.245-.479a7.581,7.581,0,0,0-1.912-2.488,37.992,37.992,0,0,0-4.678-3.3,43.349,43.349,0,0,0-4.469-2.045,56.566,56.566,0,0,0-6.067-1.843l-2.871-.544a77.947,77.947,0,0,0-18.41-.613l-2.295.216a43.4,43.4,0,0,0-7.611,2.1c-1.252.522-2.31,1.106-3.623,1.554a1.9,1.9,0,0,1-1.04.668c-.332.142-.767.585-1.14.609-1.323.08-.373-1.257-.285-1.63a18.657,18.657,0,0,0,.2-2.249l.253-1.508a22.883,22.883,0,0,0-.113-4.524,16.528,16.528,0,0,0-.466-3.127,73.918,73.918,0,0,1-2.144-8.022c-.548-1.966-.985-3.88-2.669-5.6A13.129,13.129,0,0,0,68.99,35.6a3.758,3.758,0,0,0-.769-.354c-.149-.04-.32-.037-.471-.074a.972.972,0,0,1-.568-.423c-.69-.258-1.06-.8-.312-1.121l.011-.006c.664-.543,2.485-.112,3.323-.081,1.49.118,2.837.167,4.338.164l1.92.085,1.968.165c5.143.478,10.161,1.14,15.242,1.832,5.363.96,10.366,2.336,15.454,3.76a48.923,48.923,0,0,1,5.642,1.609c2.83,1.3,5.584,2.636,8.188,4.122a31.637,31.637,0,0,1,3.478,2.824,22.9,22.9,0,0,0,2.393,1.609c.383.244.72.212.983.536a1,1,0,0,1,.436.237.6.6,0,0,1,.421.656l-.938-.042-.753.034,0,0Z" fill="#0d2355"/><path d="M144.791,101.83l.435.062a12.7,12.7,0,0,0-3.008,3.539,7.524,7.524,0,0,0-1.119,3.659,1.982,1.982,0,0,0,.4,1.323,1.374,1.374,0,0,0,1.108.475,1.916,1.916,0,0,0,.464-.059,2.064,2.064,0,0,0,.453-.182,12.928,12.928,0,0,0,1.578-3.088,8.828,8.828,0,0,0,.6-2.849,1.479,1.479,0,0,0-.179-.8.582.582,0,0,0-.515-.279.794.794,0,0,0-.259.041.927.927,0,0,0-.247.131l-.134-.151,2.632-2a.836.836,0,0,1,.656.515,2.868,2.868,0,0,1,.241,1.282,7.668,7.668,0,0,1-.795,3.211,11.642,11.642,0,0,1-2.183,3.163,16.234,16.234,0,0,1-2.522,2.155,3.916,3.916,0,0,1-1.853.823,1.487,1.487,0,0,1-1.235-.59,2.5,2.5,0,0,1-.465-1.59,8.07,8.07,0,0,1,1.581-4.423,17.441,17.441,0,0,1,4.356-4.364Zm-7.52-1.738c.382-.132.773-.29,1.171-.468s.805-.382,1.212-.6c-.17.483-.369,1.012-.595,1.58s-.513,1.235-.846,1.993h2.45l-1.378.911-1.441-.022q-.55,1.605-1.5,3.84a11.1,11.1,0,0,0-.95,2.778,1.016,1.016,0,0,0,.1.5.485.485,0,0,0,.319.225,5.958,5.958,0,0,0,.807-.787,6.884,6.884,0,0,0,.648-.909l.313.476A14.984,14.984,0,0,1,135.438,112a2.89,2.89,0,0,1-1.635.861.818.818,0,0,1-.682-.386,1.692,1.692,0,0,1-.28-1.005,12.753,12.753,0,0,1,1.242-3.646c.169-.382.3-.678.39-.879.1-.22.229-.529.393-.919a14.607,14.607,0,0,0,.795-2.02.581.581,0,0,0-.217-.4,3.333,3.333,0,0,0-.679-.452l.851-.575.849.04a13.5,13.5,0,0,1,.446-1.5c.2-.569.325-.914.36-1.027Zm-5.839,5.769-.3-.081a2.151,2.151,0,0,0,.244-.443,1.039,1.039,0,0,0,.081-.384,1.1,1.1,0,0,0-.5-.914,2.081,2.081,0,0,0-1.271-.37,2.187,2.187,0,0,0-1.227.354.875.875,0,0,0-.211,1.494,8.743,8.743,0,0,0,1.482,1.051c.045.026.114.072.2.132.9.563,1.354,1.11,1.354,1.625a1.964,1.964,0,0,1-.348.983,9.2,9.2,0,0,1-1.074,1.36,9.3,9.3,0,0,1-1.87,1.62,3.082,3.082,0,0,1-1.566.438,2.506,2.506,0,0,1-1.361-.357,1.756,1.756,0,0,1-.765-1,9.178,9.178,0,0,1,.958-1.317,17.53,17.53,0,0,1,1.358-1.41l.268.123a2.633,2.633,0,0,0-.414.559,1.076,1.076,0,0,0-.134.5.944.944,0,0,0,.429.8,1.955,1.955,0,0,0,1.149.309,2.513,2.513,0,0,0,1.34-.347.97.97,0,0,0,.566-.782q0-.6-1.525-1.5c-.06-.032-.1-.059-.125-.072a5.006,5.006,0,0,1-1.34-1.035,1.61,1.61,0,0,1-.381-1.035,1.738,1.738,0,0,1,.232-.832,5.123,5.123,0,0,1,.751-.984,8.2,8.2,0,0,1,1.965-1.588,3.883,3.883,0,0,1,1.864-.586,2.457,2.457,0,0,1,1.331.374c.4.25.595.507.595.768a2.368,2.368,0,0,1-.419.758c-.28.411-.73,1.014-1.341,1.8Zm-7.867,4.3.066.454a9.538,9.538,0,0,1-1.826,1.481,3.131,3.131,0,0,1-1.431.569.53.53,0,0,1-.441-.185.858.858,0,0,1-.152-.551,4.742,4.742,0,0,1,.274-1.4,13.933,13.933,0,0,1,.8-1.894l-.089-.019a20.808,20.808,0,0,1-2.862,2.977,3.954,3.954,0,0,1-2.061,1.113.6.6,0,0,1-.542-.271,1.669,1.669,0,0,1-.172-.858,6.708,6.708,0,0,1,.408-2.141,13.889,13.889,0,0,1,1.167-2.5,15.214,15.214,0,0,1,1.429-2.012,8.509,8.509,0,0,1,1.537-1.441,8.619,8.619,0,0,1,1.826-1.021,4.649,4.649,0,0,1,1.375-.424,1.14,1.14,0,0,1,.643.266,1.819,1.819,0,0,1,.554.642,3.2,3.2,0,0,0,.666-.336,1.77,1.77,0,0,1,.409-.228.176.176,0,0,1,.095.024.1.1,0,0,1,.041.086,7.22,7.22,0,0,1-.491,1.061c-.327.645-.621,1.257-.875,1.828a33.626,33.626,0,0,0-1.292,3.127,6.559,6.559,0,0,0-.432,1.884.582.582,0,0,0,.089.347.3.3,0,0,0,.256.126.839.839,0,0,0,.447-.175,3.541,3.541,0,0,0,.584-.532Zm-1.244-5.908a1.725,1.725,0,0,0-.5-.764,1.07,1.07,0,0,0-.685-.3.989.989,0,0,0-.551.288,5.214,5.214,0,0,0-.736.814,12.125,12.125,0,0,0-1.557,2.913,8.015,8.015,0,0,0-.643,2.652,1.291,1.291,0,0,0,.11.581.343.343,0,0,0,.3.207c.268,0,.691-.293,1.268-.874a12.275,12.275,0,0,0,1.682-2.176,14.551,14.551,0,0,0,.789-1.558c.376-.812.727-1.492,1.046-2.037l-.045-.06Zm-8.463-1.02q.885-.362,1.712-.765c.551-.269.84-.406.861-.406a.135.135,0,0,1,.077.016.109.109,0,0,1,.036.067q0,.041-.923,1.811t-1.718,3.671c-.453,1.083-.747,1.819-.878,2.2a2.961,2.961,0,0,0-.2.859.445.445,0,0,0,.084.272.282.282,0,0,0,.219.121.95.95,0,0,0,.6-.381,6.646,6.646,0,0,0,.781-1.113l-.349,1.475q-1.385.96-2.117,1.368a2.661,2.661,0,0,1-1.049.408.572.572,0,0,1-.473-.236.969.969,0,0,1-.184-.61,14.515,14.515,0,0,1,1.351-3.56q1.353-2.936,2.171-5.2m.572-3.24a10.174,10.174,0,0,0,.836-.709c.269-.253.537-.529.8-.825a10.1,10.1,0,0,0,1.165.258,8.376,8.376,0,0,0,1.1.1,2.472,2.472,0,0,1-1.014,1.093,2.834,2.834,0,0,1-1.483.419,3.058,3.058,0,0,1-.709-.08,3.29,3.29,0,0,1-.688-.25ZM95.492,112.648q1.621-3.8,2.406-6.132a12.315,12.315,0,0,0,.783-3.321v-.142c0-.006,0-.019,0-.03a1.011,1.011,0,0,1-.024-.182l.4-.173a12.248,12.248,0,0,1,1.87-.738.272.272,0,0,1,.223.08.4.4,0,0,1,.069.256,12.852,12.852,0,0,1-1.054,3.148q-.872,2.113-1.376,3.465l.191.09c.7-1.163,1.405-2.243,2.107-3.235s1.427-1.916,2.156-2.762c.17-.081.415-.193.728-.333a10.98,10.98,0,0,1,1.878-.75.273.273,0,0,1,.2.08.3.3,0,0,1,.084.214,17.4,17.4,0,0,1-1.146,2.869c-.762,1.7-1.433,3.321-2,4.847l.179.1q.349-.471,1.019-1.424a66.464,66.464,0,0,1,4.531-5.837c.224-.107.519-.252.876-.432a6.037,6.037,0,0,1,1.1-.5.308.308,0,0,1,.211.08.261.261,0,0,1,.092.194,14.737,14.737,0,0,1-1.309,3.514l-.135.315q-.741,1.6-1.125,2.644a5.219,5.219,0,0,0-.387,1.4.635.635,0,0,0,.128.432.513.513,0,0,0,.4.143,1.17,1.17,0,0,0,.235-.03,1.788,1.788,0,0,0,.288-.091l.07.293q-1.578.992-2.356,1.413a3.157,3.157,0,0,1-.992.425.44.44,0,0,1-.368-.181.829.829,0,0,1-.135-.5,9.233,9.233,0,0,1,1.03-2.688c.209-.422.37-.752.48-.989.387-.806.7-1.5.935-2.09a4.663,4.663,0,0,0,.354-1.08.266.266,0,0,0-.056-.175.2.2,0,0,0-.158-.067c-.23,0-.855.667-1.873,1.993s-2.174,3.007-3.463,5.033c-.327.114-.783.269-1.355.46s-.956.325-1.14.39q.662-1.653,1.733-4.178a17.549,17.549,0,0,0,1.286-3.577.181.181,0,0,0-.223-.224q-.492,0-1.93,2.062a37.889,37.889,0,0,0-2.9,5.067c-.393.122-.8.256-1.224.4s-.858.292-1.305.454Zm-7.62-3.679.983-.058a6.762,6.762,0,0,1-2.07,2.74,4.263,4.263,0,0,1-2.415,1.206,1.459,1.459,0,0,1-1.185-.582,2.3,2.3,0,0,1-.47-1.486,7.6,7.6,0,0,1,.726-3.044,10.413,10.413,0,0,1,4.4-4.854,5.041,5.041,0,0,1,2.345-.728,1,1,0,0,1,.643.2.649.649,0,0,1,.254.526,2.08,2.08,0,0,1-.486,1.142,5.553,5.553,0,0,1-1.283,1.234,10.662,10.662,0,0,1-2.037,1.166,5.607,5.607,0,0,1-1.813.467,5.435,5.435,0,0,0-.4,1.172,6.161,6.161,0,0,0-.128,1.274,2.2,2.2,0,0,0,.363,1.365,1.258,1.258,0,0,0,1.057.47c.08,0,.146,0,.188,0a1.061,1.061,0,0,0,.125-.016,3.167,3.167,0,0,0,.691-.9,6.706,6.706,0,0,0,.506-1.293ZM85.927,105.8a2,2,0,0,0,.426.111,3.5,3.5,0,0,0,.533.04c.05,0,.119,0,.2-.008s.211-.022.381-.04a3.387,3.387,0,0,0,.863-.869,1.648,1.648,0,0,0,.325-.892.726.726,0,0,0-.178-.494.579.579,0,0,0-.45-.2,1.31,1.31,0,0,0-.3.062.292.292,0,0,0-.057.021,5.4,5.4,0,0,0-1.038,1.014,4.838,4.838,0,0,0-.707,1.259Zm-4.373-5.83c.273-.215.544-.446.8-.69a10.894,10.894,0,0,0,.807-.845,5.5,5.5,0,0,0,1.039.283,6.561,6.561,0,0,0,1.084.091h.182a3.206,3.206,0,0,1-1.12,1.105,2.862,2.862,0,0,1-1.444.389,2.914,2.914,0,0,1-.676-.083,3.474,3.474,0,0,1-.675-.247Zm-.293,2.961c.432-.148,1.281-.484,2.54-1l.134-.061q-1.563,3.474-3.171,7.5a48.052,48.052,0,0,1-1.888,4.42,9.708,9.708,0,0,1-1.891,1.911,4.006,4.006,0,0,1-1.533.936.508.508,0,0,1-.441-.3,1.6,1.6,0,0,1-.173-.787,2.773,2.773,0,0,1,.123-.779,4.7,4.7,0,0,1,.357-.857l.393-.355a3.916,3.916,0,0,0-.1.489,3.792,3.792,0,0,0-.033.47,1.243,1.243,0,0,0,.09.486.876.876,0,0,0,.268.353c.373-.274,1.058-1.567,2.046-3.867s2.088-5.154,3.281-8.553m-5.866-1.1.435.062a12.721,12.721,0,0,0-3.008,3.539A7.534,7.534,0,0,0,71.7,109.09a1.982,1.982,0,0,0,.4,1.323,1.372,1.372,0,0,0,1.108.475,1.929,1.929,0,0,0,.464-.059,2.057,2.057,0,0,0,.452-.182,12.894,12.894,0,0,0,1.579-3.088,8.849,8.849,0,0,0,.6-2.849,1.489,1.489,0,0,0-.178-.8.582.582,0,0,0-.515-.279.8.8,0,0,0-.26.041.958.958,0,0,0-.247.131l-.134-.151,2.633-2a.834.834,0,0,1,.655.515,2.855,2.855,0,0,1,.241,1.282,7.668,7.668,0,0,1-.8,3.211,11.575,11.575,0,0,1-2.183,3.163,16.188,16.188,0,0,1-2.522,2.155,3.91,3.91,0,0,1-1.852.823,1.491,1.491,0,0,1-1.236-.59,2.5,2.5,0,0,1-.465-1.59,8.072,8.072,0,0,1,1.582-4.423,17.424,17.424,0,0,1,4.356-4.364ZM54.432,112.648q1.621-3.8,2.406-6.132a12.275,12.275,0,0,0,.783-3.321v-.142c0-.006,0-.019,0-.03a1.011,1.011,0,0,1-.024-.182l.4-.173a12.216,12.216,0,0,1,1.869-.738.274.274,0,0,1,.224.08.4.4,0,0,1,.068.256,12.852,12.852,0,0,1-1.054,3.148c-.58,1.409-1.042,2.564-1.376,3.465l.191.09c.7-1.163,1.406-2.243,2.108-3.235s1.426-1.916,2.156-2.762c.17-.081.414-.193.727-.333a10.936,10.936,0,0,1,1.879-.75.277.277,0,0,1,.2.08.3.3,0,0,1,.082.214,17.4,17.4,0,0,1-1.146,2.869c-.762,1.7-1.432,3.321-2,4.847l.179.1q.348-.471,1.019-1.424a66.3,66.3,0,0,1,4.53-5.837c.224-.107.519-.252.877-.432a6.08,6.08,0,0,1,1.095-.5.307.307,0,0,1,.211.08.259.259,0,0,1,.093.194,14.762,14.762,0,0,1-1.31,3.514l-.134.315q-.742,1.6-1.125,2.644a5.2,5.2,0,0,0-.388,1.4.63.63,0,0,0,.129.432.511.511,0,0,0,.4.143,1.17,1.17,0,0,0,.235-.03,1.829,1.829,0,0,0,.289-.091l.069.293q-1.576.992-2.356,1.413a3.156,3.156,0,0,1-.991.425.442.442,0,0,1-.369-.181.836.836,0,0,1-.134-.5,9.2,9.2,0,0,1,1.03-2.688c.208-.422.369-.752.48-.989.386-.806.7-1.5.935-2.09a4.717,4.717,0,0,0,.354-1.08.266.266,0,0,0-.057-.175.2.2,0,0,0-.157-.067c-.23,0-.856.667-1.874,1.993S62.785,109.77,61.5,111.8c-.327.114-.783.269-1.354.46s-.957.325-1.141.39q.662-1.653,1.733-4.178a17.549,17.549,0,0,0,1.286-3.577.18.18,0,0,0-.223-.224q-.49,0-1.93,2.062a38.109,38.109,0,0,0-2.9,5.067c-.393.122-.8.256-1.223.4s-.858.292-1.3.454Z" fill="#ef7d00"/><path d="M122.758,91.877l13.856-20.61H147.9L147.9,95.735c-3.918-1.238-7.683-3.584-21.477-3.964-1.136-.029-2.45.042-3.661.106M134.5,90.034h3.784l.346-3.193c.019-.172.037-.423.07-.75.135-1.331.256-2.4.376-3.212.08-.541.142-.958.192-1.25s.1-.569.155-.826q-.547,1.2-1.091,2.3c-.366.742-.691,1.411-1.018,1.986Zm-23.952,3.409L117.9,71.267h10.882l-6.852,20.705c-3.22.275-6.865.8-11.384,1.471m-84.487,7.593,9.85-29.769h8.01a42.823,42.823,0,0,1,6.166.368,13.128,13.128,0,0,1,3.93,1.117,10.311,10.311,0,0,1,4.646,4.789,12.238,12.238,0,0,1,.812,7.045,17.759,17.759,0,0,1-2.654,7.045,18.877,18.877,0,0,1-5.359,5.483,21.069,21.069,0,0,1-6.816,3q-1.068.264-2.279.452c-2.723.163-5.55.319-8.466.472Zm13.7-8.948h.125a9.112,9.112,0,0,0,5.87-1.832,7.536,7.536,0,0,0,2.759-5,4.268,4.268,0,0,0-.9-3.692,4.842,4.842,0,0,0-3.737-1.354h-.207ZM26.226,97.579a29.862,29.862,0,0,1-6.671,3.193A21.4,21.4,0,0,1,13,101.827q-6.649,0-10.188-3.867T.189,87.876A20.526,20.526,0,0,1,2.13,81.643a20.153,20.153,0,0,1,3.819-5.254,18.673,18.673,0,0,1,6.388-4.31,20.02,20.02,0,0,1,7.675-1.485,14.613,14.613,0,0,1,7.8,1.908A10.918,10.918,0,0,1,32.3,78.221L22.158,81.8a3.979,3.979,0,0,0-1.533-1.582,4.582,4.582,0,0,0-2.239-.507,6.732,6.732,0,0,0-4.919,2.083,9.274,9.274,0,0,0-2.575,5.379,5.435,5.435,0,0,0,.959,4.414,4.9,4.9,0,0,0,4.028,1.666c.249,0,.5-.007.757-.028s.518-.055.78-.1l.975-2.908H14.552l2.224-6.753h14.1ZM97.2,71.267H76.5L73.293,75.4c-.05.055-.124.138-.225.263a18.335,18.335,0,0,0-2.386,3.721c0-.626-.04-1.27-.1-1.944s-.17-1.423-.314-2.269l-.716-3.9H57.875l4.719,17.407L59.022,99.421c3.968-.31,7.684-.629,11.176-.952l3.192-9.636L84.409,76.768l-6.83,20.976c4.1-.426,7.843-.853,11.278-1.274L90.1,92.7l.077-.242a62.586,62.586,0,0,0,1.913-6.795l2.119,10.127c5.629-.743,10.327-1.445,14.357-2.049l7.452-22.473H105.273l-5.135,15.491a33.668,33.668,0,0,0-.786-5.344c-.065-.312-.114-.541-.14-.694Z" fill="#0d2355"/><path d="M92.73,2.978h-.5c-.243-.239.487-.005.5,0m.372.093c.188-.046.225-.157-.191-.409a.884.884,0,0,0-.365-.121,1.579,1.579,0,0,0-.864-.264c-.066-.031-.132-.059-.2-.088l0,0a1.523,1.523,0,0,0-1.014-.4,2.575,2.575,0,0,0-.319-.132A15.414,15.414,0,0,0,88.06.867C86.9.62,85.744.4,84.62.265A15.4,15.4,0,0,0,82.749.172L81.459.09A27.92,27.92,0,0,0,78.584.028l-.865.053a10.708,10.708,0,0,0-2.106.09A15.942,15.942,0,0,1,73.185.62L72.79.863l0-.005c-.623-.032-1.24-.005-1.844,0-.533.033-.166.654.319.891l.127.063a.936.936,0,0,0,.433.183,1.44,1.44,0,0,0,.775.68c.193.165.43.329.6.47.458.415.785.844,1.276,1.249A6.585,6.585,0,0,1,75.5,5.38a5.854,5.854,0,0,0,.38.578c.475.637.664,1.219,1.161,1.862a3.081,3.081,0,0,1,.257.4c.7,1.3,1.425,2.61,2.1,3.914.166.272.376.5.561.761v0a2.674,2.674,0,0,0,.425,1.042c.2.3.682.467.73.179.136-.016.215-.039.234-.106.1-.015.174-.047.2-.117.192-.006.328-.035.345-.155a1.169,1.169,0,0,0,.539-.236c.355.023.373-.055.468-.242.27-.011.311-.061.415-.247a.951.951,0,0,0,.754-.378,1.081,1.081,0,0,0,.64-.259h.011c.276,0,.354-.22.573-.264.122-.023.287.021.411,0s.185-.1.305-.119a5.691,5.691,0,0,1,.667,0l1.251-.006a2.195,2.195,0,0,1,.355-.008c.216.03.446.1.66.127.4.043.816-.075,1.2-.013a6.863,6.863,0,0,0,1.463.251h.1l.024.01a1.273,1.273,0,0,0,.694.1,4.462,4.462,0,0,0,1.076.238.513.513,0,0,0,.386.139c.148.008,1.034.368,1.078.229a1.927,1.927,0,0,0,.834.258l.035,0c.211.082.433.152.647.23.219.187.262.076.473.161.467.176.933.34,1.4.5s.92.273,1.384.443c.182.159.243.119.444.121.244,0,1.341.356,1.292-.014.194-.02.43-.086.429-.247.116-.073.075-.151-.01-.277.2-.105-.086-.432-.242-.721l-.633-1.163-.84-1.543A2.713,2.713,0,0,0,99.62,10a4.123,4.123,0,0,1-.458-.787,2.088,2.088,0,0,0-.268-.334c-.213-.219-.249-.389-.478-.62-.191-.192-.146-.218-.266-.409-.109-.171-.29-.312-.409-.493-.145-.219-.184-.261-.316-.268l-.053-.122c-.149-.335-.586-.648-.808-.985-.143-.218-.171-.245-.308-.247-.135-.241.018-.1-.355-.334a1.834,1.834,0,0,1-.319-.265c-.119-.124-1.4-1.349-1.421-1.354a.555.555,0,0,0-.122,0c-.25-.24-.214-.359-.487-.36-.155-.118-.3-.235-.45-.351m-.091.016a2.057,2.057,0,0,0,.569.445l.086,0c.179.245.234.363.477.384a7.407,7.407,0,0,0,.711.72,6.223,6.223,0,0,0,1.124,1c.085.222.141.3.324.315a3.246,3.246,0,0,0,.577.709.856.856,0,0,1,.156.172c.146.272.132.459.4.5a.869.869,0,0,0,.245.332c.25.267.251.452.552.749.113.111.1.178.17.287a2.133,2.133,0,0,0,.3.34c.241.246.323.669.519.932.079.106.215.191.305.294a.717.717,0,0,1,.088.192q.9,1.723,1.813,3.448c-.117.043-.1.152.044.366l-.21.116-.023-.015c-.247.029-.337.037-.32.135a2.769,2.769,0,0,1-.521-.035,1.177,1.177,0,0,0-.509-.115,2.85,2.85,0,0,0-.816-.3c-.8-.252-1.611-.622-2.4-.836h-.039a2.746,2.746,0,0,0-1.186-.375h0a1.842,1.842,0,0,0-.821-.259c-.313-.047-.639-.2-.938-.245a3.537,3.537,0,0,0-1.1-.28c-.27-.07-.511-.068-.77-.142-.369-.1-.646-.1-1.009-.168a9.547,9.547,0,0,0-1.109-.2,6.233,6.233,0,0,1-1.242-.039,12.529,12.529,0,0,0-2.228-.092c-.518,0-.91.116-1.412.129-.13.074-.254.146-.392.213l-.045.027a1.223,1.223,0,0,0-.569.254h-.007c-.232-.017-.353-.018-.379.142a3.286,3.286,0,0,0-.395.228h0c-.353-.026-.372.054-.468.236-.273.01-.316.059-.423.241a1.272,1.272,0,0,0-.653.252c-.24.03-.375.04-.4.124a.455.455,0,0,0-.306.062l-.034-.061L80.734,13c-.233-.366-.5-.68-.689-1.043l-.595-1.123-.926-1.747a10.085,10.085,0,0,0-.858-1.475,6.167,6.167,0,0,1-.645-1.132,7.24,7.24,0,0,0-.512-.746,7.136,7.136,0,0,0-1.646-1.8,2.649,2.649,0,0,1-.266-.25,6.961,6.961,0,0,0-1.489-1.373l0,0a.73.73,0,0,0-.427-.3L72.663,2a.761.761,0,0,0-.307-.39h.463a1.487,1.487,0,0,0,1.029-.255h.028a7.531,7.531,0,0,0,1.483-.242,6.893,6.893,0,0,1,1.6-.237l.7,0,.992,0c.325-.02.6-.118.934-.123.3-.005.645.1.956.127,1.191.005,2.425.135,3.611.139a14.471,14.471,0,0,1,1.967.242l1.262.256c.371.073.805.123,1.175.235A4.433,4.433,0,0,1,89,1.972c.408.177.85.362,1.263.51a.812.812,0,0,0,.595.178,1.6,1.6,0,0,0,.573.3l.024.011a.964.964,0,0,0,.653.195,1.122,1.122,0,0,0,.859.261L92.431,3.1a4.384,4.384,0,0,0,.58-.014" fill="#0d2355"/></g></g></svg>