<svg height="27.0297" viewBox="0 0 134.5923 27.0297" width="134.5923" xmlns="http://www.w3.org/2000/svg"><path d="m94.048 0h40.5443v27.0297h-40.5443z" fill="#164193"/><path d="m113.456 5.891.857-.625.855.625-.327-1.009.87-.625h-1.071l-.327-1.021-.326 1.021h-1.075l.868.625z" fill="#ffec00"/><path d="m109.028 7.079.857-.625.855.625-.326-1.009.869-.625h-1.071l-.329-1.024-.327 1.027-1.069-.003.868.625z" fill="#ffec00"/><path d="m106.643 7.67-.326 1.025-1.071-.002.867.625-.324 1.009.854-.623.858.623-.326-1.009.87-.625h-1.072z" fill="#ffec00"/><path d="m105.458 14.121.852.627-.324-1.009.87-.625h-1.071l-.327-1.024-.332 1.027-1.07-.003.868.625-.324 1.009z" fill="#ffec00"/><path d="m106.973 17.549-.33-1.022-.326 1.022h-1.072l.868.627-.325 1.006.855-.624.858.624-.327-1.006.87-.627z" fill="#ffec00"/><path d="m110.217 20.795-.327-1.022-.33 1.024-1.071-.002.87.625-.324 1.008.855-.624.857.624-.326-1.008.87-.625z" fill="#ffec00"/><path d="m114.64 21.97-.327-1.024-.327 1.024h-1.074l.87.623-.327 1.011.858-.624.857.624-.329-1.011.873-.623z" fill="#ffec00"/><path d="m119.062 20.795-.329-1.022-.33 1.024-1.066-.002.865.625-.324 1.008.855-.624.857.624-.326-1.008.873-.625z" fill="#ffec00"/><path d="m122.309 17.549-.329-1.022-.327 1.022h-1.069l.868.627-.33 1.006.858-.624.857.624-.327-1.006.871-.627z" fill="#ffec00"/><path d="m124.554 13.102h-1.072l-.324-1.024-.331 1.024h-1.068l.869.625-.33 1.009.86-.625.855.625-.326-1.009z" fill="#ffec00"/><path d="m121.123 10.311.857-.621.858.621-.327-1.009.87-.621h-1.071l-.33-1.027-.326 1.029-1.07-.002.868.621z" fill="#ffec00"/><path d="m118.746 4.421-.324 1.027-1.074-.002.87.625-.324 1.011.857-.628.852.628-.324-1.011.867-.625h-1.071z" fill="#ffec00"/><g fill="#1d1d1b"><path d="m0 20.414v-4.4608h2.7229v.5343h-2.0983v1.3259h1.8666v.5215h-1.8666v1.5451h2.2593v.5343z"/><path d="m6.1475 20.2466q-.2059.0517-.544.1094a4.6661 4.6661 0 0 1 -.7821.058 1.6544 1.6544 0 0 1 -.65-.1127 1.0485 1.0485 0 0 1 -.4249-.3185 1.2925 1.2925 0 0 1 -.2316-.4861 2.5232 2.5232 0 0 1 -.0708-.621v-1.88h.5987v1.7508a1.516 1.516 0 0 0 .1931.8754.7519.7519 0 0 0 .65.2639c.0644 0 .1308-.0019.1994-.0064s.1331-.01.1933-.0161.1146-.0128.1642-.0192a.48.48 0 0 0 .106-.0225v-2.8256h.5988z"/><path d="m8.3811 16.996q.0774 0 .1771.01t.1963.0258c.0643.0109.1233.0215.177.0322a1.1593 1.1593 0 0 1 .1191.0289l-.103.5215a2.0248 2.0248 0 0 0 -.235-.0611 2.06 2.06 0 0 0 -.4216-.0354 1.5686 1.5686 0 0 0 -.3316.0354q-.1641.0352-.2155.0482v2.813h-.5988v-3.206a4.0469 4.0469 0 0 1 .528-.145 3.3932 3.3932 0 0 1 .708-.0675z"/><path d="m12.5523 18.6632a2.1168 2.1168 0 0 1 -.1159.721 1.6493 1.6493 0 0 1 -.3251.5535 1.43 1.43 0 0 1 -.4988.3572 1.6485 1.6485 0 0 1 -1.2618 0 1.4278 1.4278 0 0 1 -.4988-.3572 1.646 1.646 0 0 1 -.3251-.5535 2.2909 2.2909 0 0 1 0-1.4389 1.6421 1.6421 0 0 1 .3251-.5566 1.4283 1.4283 0 0 1 .4988-.3574 1.6485 1.6485 0 0 1 1.2618 0 1.43 1.43 0 0 1 .4988.3574 1.6453 1.6453 0 0 1 .3251.5566 2.126 2.126 0 0 1 .1159.7179zm-.6245 0a1.4419 1.4419 0 0 0 -.2542-.8981.8882.8882 0 0 0 -1.384 0 1.7127 1.7127 0 0 0 0 1.796.8879.8879 0 0 0 1.384 0 1.44 1.44 0 0 0 .2542-.8979z"/><path d="m16.3116 18.7468a2.3589 2.3589 0 0 1 -.1.7016 1.5921 1.5921 0 0 1 -.2928.5538 1.3333 1.3333 0 0 1 -.4732.36 1.5181 1.5181 0 0 1 -.64.1287 1.5559 1.5559 0 0 1 -.5119-.0773 1.6015 1.6015 0 0 1 -.3314-.148v1.339h-.5987v-4.4346q.2124-.0513.531-.1126a3.952 3.952 0 0 1 .7371-.0611 1.8757 1.8757 0 0 1 .6952.1223 1.4893 1.4893 0 0 1 .5279.3476 1.5388 1.5388 0 0 1 .338.55 2.114 2.114 0 0 1 .1188.7306zm-.6245 0a1.2853 1.2853 0 0 0 -.29-.9012.9986.9986 0 0 0 -.7724-.3155 3.5426 3.5426 0 0 0 -.4216.0194 1.7043 1.7043 0 0 0 -.2414.0451v2.1113a1.2244 1.2244 0 0 0 .3153.1738 1.1847 1.1847 0 0 0 .4507.0838.9623.9623 0 0 0 .441-.0935.8078.8078 0 0 0 .2992-.2574 1.09 1.09 0 0 0 .1675-.3862 2.122 2.122 0 0 0 .0517-.4796z"/><path d="m16.9358 18.67a2.1356 2.1356 0 0 1 .1288-.7757 1.62 1.62 0 0 1 .3411-.55 1.39 1.39 0 0 1 .4893-.3283 1.528 1.528 0 0 1 .5663-.1094 1.2888 1.2888 0 0 1 1.0365.4216 1.94 1.94 0 0 1 .36 1.2842v.1a.9506.9506 0 0 1 -.0064.1126h-2.2914a1.2238 1.2238 0 0 0 .3027.7917 1.1068 1.1068 0 0 0 .8238.27 2.1863 2.1863 0 0 0 .5312-.0547 1.905 1.905 0 0 0 .325-.1061l.0837.5021a1.7776 1.7776 0 0 1 -.3831.1222 2.7106 2.7106 0 0 1 -.621.0644 1.9722 1.9722 0 0 1 -.7565-.1319 1.4081 1.4081 0 0 1 -.5246-.3637 1.4819 1.4819 0 0 1 -.3058-.55 2.3292 2.3292 0 0 1 -.0996-.699zm2.298-.3283a1.0045 1.0045 0 0 0 -.2028-.6662.6979.6979 0 0 0 -.5761-.2608.7913.7913 0 0 0 -.3637.0805.8562.8562 0 0 0 -.267.2092.96.96 0 0 0 -.1708.2956 1.4629 1.4629 0 0 0 -.08.3412z"/><path d="m20.1413 21.6177a1.34 1.34 0 0 1 -.1994-.0191 1.0308 1.0308 0 0 1 -.2061-.0517l.0773-.4891a1.1342 1.1342 0 0 0 .148.0322 1.02 1.02 0 0 0 .1545.0128.4991.4991 0 0 0 .441-.19.975.975 0 0 0 .1319-.5569v-3.2891h.5987v3.2832a1.3568 1.3568 0 0 1 -.2929.956 1.1134 1.1134 0 0 1 -.853.3117zm.8433-5.156a.3847.3847 0 0 1 -.2736-.1062.4209.4209 0 0 1 0-.5729.4051.4051 0 0 1 .5471 0 .42.42 0 0 1 0 .5729.3844.3844 0 0 1 -.2735.1062z"/><path d="m23.0639 19.9055a1.1772 1.1772 0 0 0 .5438-.0966.3263.3263 0 0 0 .1772-.3089.4106.4106 0 0 0 -.1739-.3477 2.7628 2.7628 0 0 0 -.5729-.29q-.1932-.0773-.37-.1578a1.2988 1.2988 0 0 1 -.3058-.19.83.83 0 0 1 -.2058-.2641.8418.8418 0 0 1 -.0773-.38.8529.8529 0 0 1 .3283-.7048 1.4 1.4 0 0 1 .8947-.2608 2.514 2.514 0 0 1 .2832.0161q.1414.0163.2639.0386t.2157.0483q.0931.0259.1448.045l-.1098.5162a1.501 1.501 0 0 0 -.3024-.1064 1.9561 1.9561 0 0 0 -.4957-.0547.917.917 0 0 0 -.4378.1.3306.3306 0 0 0 -.1866.3121.4253.4253 0 0 0 .0419.1932.4448.4448 0 0 0 .1286.1512 1.0524 1.0524 0 0 0 .2158.1255q.1287.0579.3089.1224.238.09.4249.177a1.3347 1.3347 0 0 1 .3186.2028.7763.7763 0 0 1 .2027.28 1.0164 1.0164 0 0 1 .0708.4024.7979.7979 0 0 1 -.3444.7016 1.7131 1.7131 0 0 1 -.9815.2382 2.5582 2.5582 0 0 1 -.6952-.0741q-.2511-.0738-.3413-.1125l.1094-.5149q.1032.0384.3283.1158a1.8982 1.8982 0 0 0 .5989.0769z"/><path d="m26.3339 18.573a4.0418 4.0418 0 0 1 .4086.3669q.2157.2191.4249.4732t.396.5149a5.77 5.77 0 0 1 .3153.486h-.7016a5.3249 5.3249 0 0 0 -.3122-.46q-.1771-.2348-.37-.4507a5.3068 5.3068 0 0 0 -.3927-.3958 3.5358 3.5358 0 0 0 -.38-.3024v1.6089h-.5988v-4.8922l.5988-.103v3.0512q.1545-.1543.341-.3411t.3669-.38q.18-.1929.3413-.37t.2767-.3122h.7019q-.1481.1609-.3218.3539t-.3605.39q-.1869.1965-.3766.3925t-.3572.3699z"/><path d="m28.7477 16.4617a.3847.3847 0 0 1 -.2736-.1062.4209.4209 0 0 1 0-.5729.4053.4053 0 0 1 .5472 0 .42.42 0 0 1 0 .5729.3847.3847 0 0 1 -.2736.1062zm.3023 3.9523h-.5987v-3.3472h.5987z"/><path d="m31.5412 20.414v-4.4608h2.6909v.5343h-2.0664v1.3453h1.8343v.5277h-1.8343v2.0535z"/><path d="m37.4312 20.2466q-.2061.0517-.544.1094a4.6661 4.6661 0 0 1 -.7821.058 1.6544 1.6544 0 0 1 -.65-.1127 1.0475 1.0475 0 0 1 -.4248-.3185 1.2927 1.2927 0 0 1 -.2317-.4861 2.5232 2.5232 0 0 1 -.0708-.621v-1.88h.5987v1.7508a1.516 1.516 0 0 0 .1931.8754.7519.7519 0 0 0 .65.2639c.0645 0 .1308-.0019.2-.0064s.1331-.01.1932-.0161.1147-.0128.1642-.0192a.4826.4826 0 0 0 .1061-.0225v-2.8256h.5987z"/><path d="m38.4289 17.1633q.2061-.0513.5471-.11a4.7379 4.7379 0 0 1 .7854-.0578 1.7 1.7 0 0 1 .663.1126 1.0384 1.0384 0 0 1 .4216.3154 1.22 1.22 0 0 1 .2221.4861 2.8188 2.8188 0 0 1 .0645.6243v1.88h-.5988v-1.7507a2.8765 2.8765 0 0 0 -.0417-.5279.8915.8915 0 0 0 -.1386-.3541.5481.5481 0 0 0 -.2574-.1963 1.1307 1.1307 0 0 0 -.3991-.0612c-.0644 0-.131.0024-.2.0064s-.1342.01-.1963.0161-.1182.014-.1675.0228-.0847.0149-.1061.0192v2.8258h-.5987z"/><path d="m44.2543 15.4446.5986-.103v4.8984q-.2061.0579-.5277.1158a4.2087 4.2087 0 0 1 -.74.058 1.8761 1.8761 0 0 1 -.6952-.1222 1.4855 1.4855 0 0 1 -.5278-.3477 1.531 1.531 0 0 1 -.3379-.55 2.1065 2.1065 0 0 1 -.1192-.73 2.3814 2.3814 0 0 1 .1-.7082 1.5859 1.5859 0 0 1 .2929-.5535 1.3335 1.3335 0 0 1 .4731-.36 1.52 1.52 0 0 1 .6406-.1288 1.5524 1.5524 0 0 1 .5117.0774 1.6057 1.6057 0 0 1 .3315.148zm0 2.253a1.2373 1.2373 0 0 0 -.3154-.1739 1.19 1.19 0 0 0 -.4506-.0836.9656.9656 0 0 0 -.441.0933.812.812 0 0 0 -.2994.2575 1.0855 1.0855 0 0 0 -.1672.3894 2.1552 2.1552 0 0 0 -.0516.4829 1.2972 1.2972 0 0 0 .29.9043.9933.9933 0 0 0 .7726.3186 3.0736 3.0736 0 0 0 .4083-.0225 1.8974 1.8974 0 0 0 .2543-.0483z"/><path d="m48.5158 20.2466q-.2061.0517-.5441.1094a4.6653 4.6653 0 0 1 -.7821.058 1.6542 1.6542 0 0 1 -.65-.1127 1.0478 1.0478 0 0 1 -.4249-.3185 1.2942 1.2942 0 0 1 -.2317-.4861 2.528 2.528 0 0 1 -.0708-.621v-1.88h.5988v1.7508a1.5169 1.5169 0 0 0 .193.8754.752.752 0 0 0 .65.2639c.0645 0 .1308-.0019.2-.0064s.1331-.01.1932-.0161.1147-.0128.1642-.0192a.48.48 0 0 0 .1061-.0225v-2.8256h.5988z"/><path d="m50.2922 19.9055a1.1772 1.1772 0 0 0 .5438-.0966.3263.3263 0 0 0 .1772-.3089.4106.4106 0 0 0 -.1739-.3477 2.7628 2.7628 0 0 0 -.5729-.29q-.1932-.0773-.37-.1578a1.3009 1.3009 0 0 1 -.3058-.19.83.83 0 0 1 -.2058-.2641.8418.8418 0 0 1 -.0772-.38.8528.8528 0 0 1 .3282-.7048 1.4 1.4 0 0 1 .8947-.2608 2.5144 2.5144 0 0 1 .2833.0161q.1414.0163.2638.0386t.2158.0483q.093.0259.1447.045l-.1094.5152a1.5047 1.5047 0 0 0 -.3025-.1064 1.9561 1.9561 0 0 0 -.4957-.0547.9163.9163 0 0 0 -.4377.1.3305.3305 0 0 0 -.1867.3121.4253.4253 0 0 0 .0419.1932.4452.4452 0 0 0 .1287.1512 1.0488 1.0488 0 0 0 .2157.1255q.1287.0579.3089.1224.238.09.4249.177a1.3327 1.3327 0 0 1 .3186.2028.7763.7763 0 0 1 .2027.28 1.0163 1.0163 0 0 1 .0709.4024.7982.7982 0 0 1 -.3444.7016 1.7137 1.7137 0 0 1 -.9816.2382 2.5587 2.5587 0 0 1 -.6952-.0741q-.2511-.0738-.3413-.1125l.11-.5149q.103.0384.3283.1158a1.8971 1.8971 0 0 0 .598.0779z"/><path d="m54.5729 17.5174q-.1352.1481-.3572.4184t-.4764.5986q-.2542.3282-.5084.6887t-.4475.6888h1.8411v.5021h-2.5557v-.3991q.1546-.283.38-.6243t.4731-.6791q.248-.3381.4829-.6373t.4088-.5052h-1.6545v-.5022h2.4138z"/><path d="m57.8815 19.8733q.9784 0 .9784-.6693a.67.67 0 0 0 -.0869-.351.8382.8382 0 0 0 -.235-.2509 1.6349 1.6349 0 0 0 -.3379-.1836q-.19-.0771-.4022-.1544a4.1072 4.1072 0 0 1 -.4636-.19 1.62 1.62 0 0 1 -.38-.2511 1.0643 1.0643 0 0 1 -.2541-.3444 1.1312 1.1312 0 0 1 -.0933-.4827 1.1185 1.1185 0 0 1 .3991-.9142 1.6831 1.6831 0 0 1 1.1006-.3283 2.9132 2.9132 0 0 1 .7371.0869 1.6962 1.6962 0 0 1 .4861.19l-.2.5085a1.7662 1.7662 0 0 0 -.4022-.1641 2.1626 2.1626 0 0 0 -.6213-.0805 1.39 1.39 0 0 0 -.3346.0385.8611.8611 0 0 0 -.27.1161.5709.5709 0 0 0 -.1833.1963.5574.5574 0 0 0 -.0678.28.5955.5955 0 0 0 .0709.3025.7006.7006 0 0 0 .2.2157 1.7121 1.7121 0 0 0 .2993.1705q.17.0772.3767.1545.2895.1158.531.2317a1.7349 1.7349 0 0 1 .4183.2768 1.11 1.11 0 0 1 .2736.383 1.3446 1.3446 0 0 1 .0966.5375 1.0524 1.0524 0 0 1 -.428.9012 2.005 2.005 0 0 1 -1.207.3154 3.1076 3.1076 0 0 1 -.486-.0353 3.6041 3.6041 0 0 1 -.396-.0837 2.2456 2.2456 0 0 1 -.2994-.103q-.1257-.0544-.1963-.0933l.1866-.5149a2.8047 2.8047 0 0 0 .45.1866 2.3151 2.3151 0 0 0 .7406.103z"/><path d="m63.147 18.7468a2.3589 2.3589 0 0 1 -.1.7016 1.5921 1.5921 0 0 1 -.2928.5538 1.3342 1.3342 0 0 1 -.4732.36 1.5183 1.5183 0 0 1 -.6405.1287 1.5557 1.5557 0 0 1 -.5118-.0773 1.599 1.599 0 0 1 -.3314-.148v1.339h-.5987v-4.4346q.2124-.0513.531-.1126a3.9513 3.9513 0 0 1 .7371-.0611 1.8748 1.8748 0 0 1 .6951.1223 1.4888 1.4888 0 0 1 .528.3476 1.5386 1.5386 0 0 1 .3379.55 2.114 2.114 0 0 1 .1193.7306zm-.6246 0a1.2848 1.2848 0 0 0 -.29-.9012.9984.9984 0 0 0 -.7724-.3156 3.5426 3.5426 0 0 0 -.4216.0194 1.7043 1.7043 0 0 0 -.2414.0451v2.1113a1.2227 1.2227 0 0 0 .3153.1738 1.1844 1.1844 0 0 0 .4507.0838.9625.9625 0 0 0 .441-.0935.8093.8093 0 0 0 .2992-.2574 1.0885 1.0885 0 0 0 .1674-.3862 2.1163 2.1163 0 0 0 .0518-.4795z"/><path d="m66.9127 18.6632a2.1193 2.1193 0 0 1 -.1158.721 1.6511 1.6511 0 0 1 -.3252.5535 1.43 1.43 0 0 1 -.4988.3572 1.6483 1.6483 0 0 1 -1.2617 0 1.4269 1.4269 0 0 1 -.4988-.3572 1.6445 1.6445 0 0 1 -.3252-.5535 2.2909 2.2909 0 0 1 0-1.4389 1.6406 1.6406 0 0 1 .3252-.5566 1.4274 1.4274 0 0 1 .4988-.3574 1.6483 1.6483 0 0 1 1.2617 0 1.43 1.43 0 0 1 .4988.3574 1.6472 1.6472 0 0 1 .3252.5566 2.1285 2.1285 0 0 1 .1158.7179zm-.6245 0a1.4419 1.4419 0 0 0 -.2542-.8981.8882.8882 0 0 0 -1.384 0 1.7127 1.7127 0 0 0 0 1.796.8879.8879 0 0 0 1.384 0 1.44 1.44 0 0 0 .2542-.8979z"/><path d="m68.8178 20.4785a1.1473 1.1473 0 0 1 -.7852-.2383.94.94 0 0 1 -.2319-.7016v-1.3131l-.3669.1866-.2058-.3991.5727-.29v-2.2012l.5988-.103v1.9955l.47-.2446.1994.3993-.6693.3475v1.5255a.9648.9648 0 0 0 .0258.2447.3344.3344 0 0 0 .0836.1544.3585.3585 0 0 0 .1544.0869 1.5848 1.5848 0 0 0 .2383.0484z"/><path d="m69.3521 18.67a2.1356 2.1356 0 0 1 .1288-.7757 1.6214 1.6214 0 0 1 .3411-.55 1.39 1.39 0 0 1 .4894-.3283 1.5276 1.5276 0 0 1 .5663-.1094 1.289 1.289 0 0 1 1.0365.4216 1.94 1.94 0 0 1 .36 1.2842v.1a.9506.9506 0 0 1 -.0064.1126h-2.2913a1.2243 1.2243 0 0 0 .3026.7917 1.1069 1.1069 0 0 0 .8239.27 2.1869 2.1869 0 0 0 .5312-.0547 1.9112 1.9112 0 0 0 .325-.1061l.0836.5021a1.7763 1.7763 0 0 1 -.383.1222 2.7116 2.7116 0 0 1 -.6211.0644 1.9722 1.9722 0 0 1 -.7565-.1319 1.41 1.41 0 0 1 -.5246-.3637 1.4833 1.4833 0 0 1 -.3058-.55 2.3292 2.3292 0 0 1 -.0997-.699zm2.298-.3283a1.0034 1.0034 0 0 0 -.2028-.6662.6977.6977 0 0 0 -.576-.2608.7917.7917 0 0 0 -.3638.0805.8573.8573 0 0 0 -.267.2092.9594.9594 0 0 0 -.1705.2956 1.4578 1.4578 0 0 0 -.08.3412z"/><path d="m74.56 20.42a1.8225 1.8225 0 0 1 -.7113-.1286 1.4312 1.4312 0 0 1 -.5149-.36 1.4941 1.4941 0 0 1 -.3122-.55 2.2851 2.2851 0 0 1 -.103-.7049 2.1269 2.1269 0 0 1 .1127-.7079 1.6669 1.6669 0 0 1 .3186-.5569 1.4292 1.4292 0 0 1 .5052-.3669 1.6348 1.6348 0 0 1 .6663-.1321 2.6806 2.6806 0 0 1 .4507.0386 2.0909 2.0909 0 0 1 .4313.1224l-.1352.5086a1.4453 1.4453 0 0 0 -.3122-.1031 1.7628 1.7628 0 0 0 -.3766-.0386.9521.9521 0 0 0 -.7693.3155 1.39 1.39 0 0 0 -.2672.92 1.8886 1.8886 0 0 0 .0612.4958 1.0184 1.0184 0 0 0 .1932.386.8586.8586 0 0 0 .338.248 1.2928 1.2928 0 0 0 .5019.0869 1.8963 1.8963 0 0 0 .4313-.0452 1.575 1.575 0 0 0 .3027-.0964l.0836.5021a.6375.6375 0 0 1 -.148.0611 2.0777 2.0777 0 0 1 -.2189.0514c-.0817.0152-.1684.028-.2607.0387a2.3429 2.3429 0 0 1 -.2672.0155z"/><path d="m78.2867 17.5174q-.135.1481-.3571.4184t-.4764.5986q-.2542.3282-.5085.6887t-.4474.6888h1.841v.5021h-2.5556v-.3991q.1545-.283.38-.6243t.473-.6791q.248-.3381.4829-.6373t.4088-.5052h-1.6545v-.5022h2.4138z"/><path d="m79.0655 17.1633q.2061-.0513.5472-.11a4.7379 4.7379 0 0 1 .7854-.0578 1.7 1.7 0 0 1 .6629.1126 1.037 1.037 0 0 1 .4216.3154 1.22 1.22 0 0 1 .2222.4861 2.825 2.825 0 0 1 .0644.6243v1.88h-.5992v-1.7507a2.8765 2.8765 0 0 0 -.0417-.5279.8929.8929 0 0 0 -.1385-.3541.5483.5483 0 0 0 -.2575-.1963 1.13 1.13 0 0 0 -.3991-.0612c-.0644 0-.1309.0024-.1994.0064s-.1343.01-.1964.0161-.1181.014-.1674.0228-.0848.0149-.1061.0192v2.8258h-.5988z"/><path d="m82.22 21.0384a1.1313 1.1313 0 0 0 .1835.0611.8849.8849 0 0 0 .2222.0291.8718.8718 0 0 0 .5535-.1577 1.36 1.36 0 0 0 .3605-.5118q-.4056-.7725-.7565-1.6382a14.2282 14.2282 0 0 1 -.5824-1.7541h.6437q.0708.29.1706.6244t.2219.6888q.1223.3542.2641.7079t.2961.6824q.2444-.6757.4249-1.3389t.3411-1.3646h.6179q-.2316.9462-.5149 1.8184t-.6116 1.6319a3.4675 3.4675 0 0 1 -.2671.4988 1.5039 1.5039 0 0 1 -.3058.3444 1.1149 1.1149 0 0 1 -.3766.2 1.6146 1.6146 0 0 1 -.473.0642 1.1976 1.1976 0 0 1 -.148-.0095q-.0776-.01-.1514-.0257c-.05-.0109-.0945-.0226-.1352-.0356a.6489.6489 0 0 1 -.0869-.032z"/><path d="m17.151 11.4154a3.1869 3.1869 0 0 1 -1.19-.2 2.1984 2.1984 0 0 1 -.8244-.5609 2.2824 2.2824 0 0 1 -.4827-.8487 3.5 3.5 0 0 1 -.1562-1.0729v-4.2229h1.2388v4.1061a2.6437 2.6437 0 0 0 .1025.7852 1.3726 1.3726 0 0 0 .2925.5316 1.1705 1.1705 0 0 0 .4488.3023 1.6339 1.6339 0 0 0 .58.0976 1.6759 1.6759 0 0 0 .5854-.0976 1.1623 1.1623 0 0 0 .4543-.3023 1.3714 1.3714 0 0 0 .2926-.5316 2.6437 2.6437 0 0 0 .1025-.7852v-4.1061h1.2386v4.2231a3.4069 3.4069 0 0 1 -.1609 1.0729 2.3392 2.3392 0 0 1 -.4878.8487 2.1854 2.1854 0 0 1 -.8338.5609 3.2663 3.2663 0 0 1 -1.2002.1998z"/><path d="m21.2867 6.47a7.9719 7.9719 0 0 1 .8876-.1852 7.642 7.642 0 0 1 1.21-.0879 2.7834 2.7834 0 0 1 1.0437.1707 1.629 1.629 0 0 1 .6682.4781 1.8253 1.8253 0 0 1 .3511.7413 4.1378 4.1378 0 0 1 .1025.9509v2.8678h-1.18v-2.6823a3.8788 3.8788 0 0 0 -.0538-.6975 1.2356 1.2356 0 0 0 -.1756-.4682.7033.7033 0 0 0 -.3315-.2635 1.4038 1.4038 0 0 0 -.5121-.0828 3.913 3.913 0 0 0 -.4683.0293q-.2439.0291-.3609.0487v4.1163h-1.18z"/><path d="m28.251 4.812a.6766.6766 0 0 1 -.2146.5265.7286.7286 0 0 1 -.5072.1952.7411.7411 0 0 1 -.517-.1952.6766.6766 0 0 1 -.2146-.5265.69.69 0 0 1 .2146-.5367.7419.7419 0 0 1 .517-.195.7293.7293 0 0 1 .5072.195.69.69 0 0 1 .2146.5367zm-.1267 6.5937h-1.18v-5.1013h1.18z"/><path d="m31.2649 6.08a2.8911 2.8911 0 0 1 .9852.1463 1.5773 1.5773 0 0 1 .6389.41 1.5384 1.5384 0 0 1 .3413.6389 3.1265 3.1265 0 0 1 .1025.8242v3.0921q-.2733.0585-.8242.1415a8.4173 8.4173 0 0 1 -1.2437.0828 3.7391 3.7391 0 0 1 -.8389-.0877 1.76 1.76 0 0 1 -.6487-.2829 1.3308 1.3308 0 0 1 -.4194-.5071 1.7585 1.7585 0 0 1 -.1512-.7707 1.4872 1.4872 0 0 1 .1708-.7413 1.4013 1.4013 0 0 1 .4633-.4926 2.0055 2.0055 0 0 1 .6779-.273 3.8139 3.8139 0 0 1 .8048-.0831 3.6727 3.6727 0 0 1 .41.0245 3.8343 3.8343 0 0 1 .4584.0828v-.195a1.5369 1.5369 0 0 0 -.0486-.39.8157.8157 0 0 0 -.1708-.3268.8036.8036 0 0 0 -.3219-.22 1.3992 1.3992 0 0 0 -.5023-.078 4.4625 4.4625 0 0 0 -.7513.0586 3.3 3.3 0 0 0 -.5558.1366l-.1463-.9559a4.6622 4.6622 0 0 1 .6535-.1562 5.145 5.145 0 0 1 .9165-.078zm.0976 4.3992a4.3935 4.3935 0 0 0 .829-.0586v-1.307a2.26 2.26 0 0 0 -.2828-.0586 2.6274 2.6274 0 0 0 -.41-.0293 2.7127 2.7127 0 0 0 -.395.0293 1.2284 1.2284 0 0 0 -.3609.1073.6577.6577 0 0 0 -.2585.2194.6125.6125 0 0 0 -.0975.3561.6237.6237 0 0 0 .2634.58 1.3587 1.3587 0 0 0 .7123.1613z"/><path d="m36.9906 11.4057v-6.76h4.3406v1.0443h-3.1112v1.668h2.77v1.0239h-2.77v1.98h3.3457v1.0436z"/><path d="m46.6082 11.1424q-.3417.0876-.8877.1805a7.1835 7.1835 0 0 1 -1.2.0925 2.6427 2.6427 0 0 1 -1.0291-.1756 1.6485 1.6485 0 0 1 -.6631-.4875 1.918 1.918 0 0 1 -.3562-.7462 3.9558 3.9558 0 0 1 -.1074-.9511v-2.8581h1.1805v2.6731a2.1566 2.1566 0 0 0 .2388 1.1705.9358.9358 0 0 0 .8341.351q.2145 0 .4536-.0194a2.4159 2.4159 0 0 0 .356-.0487v-4.1265h1.18z"/><path d="m50.9585 7.3674a3.8146 3.8146 0 0 0 -.4048-.1023 2.9912 2.9912 0 0 0 -.6-.0537 2.3926 2.3926 0 0 0 -.4146.039 2.4762 2.4762 0 0 0 -.3073.0683v4.087h-1.18v-4.8577a6.4991 6.4991 0 0 1 .8535-.2388 5.3255 5.3255 0 0 1 1.1363-.1123q.117 0 .2732.0147c.104.01.208.0229.3122.039s.2047.0359.3023.0586.1756.0439.2341.0633z"/><path d="m56.5379 8.7234a3.2947 3.2947 0 0 1 -.1756 1.1022 2.4392 2.4392 0 0 1 -.4974.8485 2.233 2.233 0 0 1 -.7756.5463 2.5009 2.5009 0 0 1 -1 .195 2.4667 2.4667 0 0 1 -.995-.195 2.2443 2.2443 0 0 1 -.7706-.5463 2.4992 2.4992 0 0 1 -.5023-.8485 3.2125 3.2125 0 0 1 -.1805-1.1022 3.1718 3.1718 0 0 1 .1805-1.0974 2.4673 2.4673 0 0 1 .5073-.8438 2.2371 2.2371 0 0 1 .7753-.5413 2.4974 2.4974 0 0 1 .9853-.19 2.534 2.534 0 0 1 .99.19 2.18 2.18 0 0 1 .7754.5413 2.5148 2.5148 0 0 1 .5024.8438 3.1741 3.1741 0 0 1 .1808 1.0974zm-1.2095 0a1.9925 1.9925 0 0 0 -.3267-1.2047 1.159 1.159 0 0 0 -1.8242 0 1.99 1.99 0 0 0 -.3268 1.2047 2.0305 2.0305 0 0 0 .3268 1.2192 1.1515 1.1515 0 0 0 1.8242 0 2.0326 2.0326 0 0 0 .3267-1.2192z"/><path d="m62.2927 8.86a3.6147 3.6147 0 0 1 -.1511 1.0731 2.5016 2.5016 0 0 1 -.434.8388 1.9306 1.9306 0 0 1 -.7076.5461 2.2762 2.2762 0 0 1 -.9608.195 2.378 2.378 0 0 1 -.6634-.0877 2.48 2.48 0 0 1 -.4975-.1952v1.98h-1.18v-6.7401q.3609-.0972.8877-.1852a6.7508 6.7508 0 0 1 1.1119-.0879 2.9766 2.9766 0 0 1 1.0828.1855 2.2579 2.2579 0 0 1 .8145.5316 2.3421 2.3421 0 0 1 .5169.8387 3.2046 3.2046 0 0 1 .1806 1.1073zm-1.21.02a1.903 1.903 0 0 0 -.356-1.2291 1.3911 1.3911 0 0 0 -1.1461-.4389q-.1659 0-.3463.0146a1.9258 1.9258 0 0 0 -.3561.0634v2.9165a1.8226 1.8226 0 0 0 .4147.2 1.6174 1.6174 0 0 0 .551.0926 1.0558 1.0558 0 0 0 .9413-.4389 2.0726 2.0726 0 0 0 .298-1.1808z"/><path d="m63.1705 8.7624a3.2024 3.2024 0 0 1 .2-1.18 2.4742 2.4742 0 0 1 .5316-.8436 2.1985 2.1985 0 0 1 .7608-.5074 2.3575 2.3575 0 0 1 .8779-.17 2.1022 2.1022 0 0 1 1.6436.6534 2.8286 2.8286 0 0 1 .59 1.9509q0 .0975-.0048.2194t-.0148.22h-3.3648a1.3449 1.3449 0 0 0 .4342.9511 1.6488 1.6488 0 0 0 1.1168.3364 3.6611 3.6611 0 0 0 .7852-.078 3.25 3.25 0 0 0 .5609-.1657l.156.9656a1.8711 1.8711 0 0 1 -.2682.1025 3.7721 3.7721 0 0 1 -.39.0974q-.2194.0439-.4731.0731a4.4869 4.4869 0 0 1 -.517.0293 3.1275 3.1275 0 0 1 -1.17-.2 2.1784 2.1784 0 0 1 -.8194-.5561 2.2729 2.2729 0 0 1 -.4778-.8389 3.4191 3.4191 0 0 1 -.1571-1.0594zm3.4236-.5268a1.5543 1.5543 0 0 0 -.0681-.4633 1.12 1.12 0 0 0 -.2-.38.9468.9468 0 0 0 -.3219-.2536 1.0277 1.0277 0 0 0 -.4536-.0928 1.0552 1.0552 0 0 0 -.4779.1025 1.0878 1.0878 0 0 0 -.3463.2683 1.2263 1.2263 0 0 0 -.2194.38 2.0456 2.0456 0 0 0 -.1073.439z"/><path d="m68.311 13.22q-.1269 0-.356-.0244a1.5877 1.5877 0 0 1 -.4049-.0926l.1561-.9656a1.7217 1.7217 0 0 0 .5169.0681.6509.6509 0 0 0 .5755-.2389 1.2628 1.2628 0 0 0 .1658-.7169v-4.9453h1.18v4.9647a2.02 2.02 0 0 1 -.473 1.473 1.832 1.832 0 0 1 -1.3604.4779zm1.9606-8.408a.6766.6766 0 0 1 -.2146.5265.7289.7289 0 0 1 -.5072.1952.7408.7408 0 0 1 -.517-.1952.6759.6759 0 0 1 -.2146-.5265.6888.6888 0 0 1 .2146-.5367.7415.7415 0 0 1 .517-.195.73.73 0 0 1 .5072.195.69.69 0 0 1 .2146.5367z"/><path d="m72.8662 10.44a1.5527 1.5527 0 0 0 .6827-.1122.3986.3986 0 0 0 .2147-.3853.5.5 0 0 0 -.2292-.42 3.3867 3.3867 0 0 0 -.7559-.3608 5.973 5.973 0 0 1 -.59-.2488 2.0069 2.0069 0 0 1 -.4633-.3073 1.2562 1.2562 0 0 1 -.3073-.4243 1.48 1.48 0 0 1 -.1122-.61 1.33 1.33 0 0 1 .5171-1.1071 2.2207 2.2207 0 0 1 1.4045-.4047 4.3316 4.3316 0 0 1 .8583.0828 4.1822 4.1822 0 0 1 .6147.1611l-.2146.9557a2.908 2.908 0 0 0 -.4975-.1608 3.0015 3.0015 0 0 0 -.7023-.0732 1.2254 1.2254 0 0 0 -.5859.1229.4006.4006 0 0 0 -.2243.3756.5437.5437 0 0 0 .0439.2243.4787.4787 0 0 0 .1513.18 1.5392 1.5392 0 0 0 .2829.1659 4.34 4.34 0 0 0 .4291.1707 6.5706 6.5706 0 0 1 .7121.3072 1.9269 1.9269 0 0 1 .4827.3414 1.1683 1.1683 0 0 1 .2781.4341 1.7311 1.7311 0 0 1 .0879.5853 1.2611 1.2611 0 0 1 -.5415 1.1071 2.6956 2.6956 0 0 1 -1.546.3754 4.2278 4.2278 0 0 1 -1.0828-.1121 5.5833 5.5833 0 0 1 -.5755-.1805l.2049-.9852a5.264 5.264 0 0 0 .6292.2049 3.2354 3.2354 0 0 0 .8342.0979z"/><path d="m77.1676 8.2941q.2244-.234.4781-.5024t.4975-.5364q.2435-.2681.4633-.5169t.3754-.434h1.395q-.4881.5461-1.0291 1.1313t-1.0878 1.1412a6.811 6.811 0 0 1 .6145.59q.3219.3463.6244.7365t.5657.78a7.9876 7.9876 0 0 1 .4389.7217h-1.3654q-.1758-.3021-.4049-.634t-.4924-.6438q-.2634-.312-.5367-.59a4.5948 4.5948 0 0 0 -.5365-.473v2.341h-1.18v-6.5642l1.18-.195z"/><path d="m83.0006 6.08a2.8921 2.8921 0 0 1 .9853.1463 1.5773 1.5773 0 0 1 .6389.41 1.5384 1.5384 0 0 1 .3413.6389 3.1308 3.1308 0 0 1 .1024.8242v3.0921q-.2733.0585-.8242.1415a8.4173 8.4173 0 0 1 -1.2437.0828 3.74 3.74 0 0 1 -.8389-.0877 1.76 1.76 0 0 1 -.6486-.2829 1.331 1.331 0 0 1 -.4195-.5071 1.7585 1.7585 0 0 1 -.1511-.7707 1.4872 1.4872 0 0 1 .1707-.7413 1.4013 1.4013 0 0 1 .4633-.4926 2.0063 2.0063 0 0 1 .6779-.273 3.8139 3.8139 0 0 1 .8048-.0831 3.6727 3.6727 0 0 1 .41.0245 3.8357 3.8357 0 0 1 .4585.0828v-.195a1.5279 1.5279 0 0 0 -.0488-.39.813.813 0 0 0 -.1707-.3268.8039.8039 0 0 0 -.3218-.22 1.4 1.4 0 0 0 -.5024-.078 4.46 4.46 0 0 0 -.7512.0586 3.2994 3.2994 0 0 0 -.5559.1366l-.1469-.956a4.6622 4.6622 0 0 1 .6535-.1562 5.1459 5.1459 0 0 1 .9171-.0779zm.0976 4.3992a4.3947 4.3947 0 0 0 .8291-.0586v-1.307a2.2621 2.2621 0 0 0 -.2829-.0586 2.6274 2.6274 0 0 0 -.41-.0293 2.7127 2.7127 0 0 0 -.395.0293 1.2284 1.2284 0 0 0 -.3609.1073.6568.6568 0 0 0 -.2584.2194.6118.6118 0 0 0 -.0976.3561.6238.6238 0 0 0 .2635.58 1.3583 1.3583 0 0 0 .7122.1613z"/></g></svg>