<svg data-name="Layer 1" xmlns="http://www.w3.org/2000/svg" width="302.241" height="68.025" viewBox="0 0 302.241 68.025"><path fill="#164193" d="M200.205 0h102.036v68.025H200.205z"/><path fill="#ffec00" d="M249.049 14.827l2.158-1.573 2.151 1.573-.823-2.541 2.19-1.571h-2.696l-.822-2.572-.823 2.572h-2.704l2.183 1.571-.814 2.541zm-11.144 2.989l2.158-1.573 2.151 1.573-.821-2.539 2.188-1.573h-2.696l-.827-2.578-.823 2.585-2.691-.007 2.183 1.573-.822 2.539zm-6.001 1.486l-.823 2.579-2.695-.005 2.183 1.573-.816 2.54 2.151-1.567 2.158 1.567-.821-2.54 2.19-1.573h-2.698l-.829-2.574zm-2.984 16.235l2.144 1.58-.816-2.542 2.19-1.57h-2.695l-.823-2.578-.836 2.584-2.691-.006 2.183 1.57-.814 2.542 2.158-1.58zm3.812 8.627l-.829-2.571-.821 2.571h-2.697l2.183 1.579-.816 2.533 2.151-1.573 2.158 1.573-.821-2.533 2.19-1.579h-2.698zm8.165 8.169l-.823-2.571-.829 2.578-2.696-.007 2.19 1.573-.816 2.539 2.151-1.573 2.158 1.573-.821-2.539 2.19-1.573h-2.704zm11.13 2.959l-.822-2.578-.823 2.578h-2.702l2.19 1.568-.823 2.544 2.158-1.572 2.158 1.572-.829-2.544 2.197-1.568h-2.704zm11.131-2.959l-.829-2.571-.829 2.578-2.684-.007 2.178 1.573-.816 2.539 2.151-1.573 2.158 1.573-.823-2.539 2.198-1.573h-2.704zm8.171-8.169l-.829-2.571-.821 2.571h-2.692l2.184 1.579-.829 2.533 2.158-1.573 2.158 1.573-.823-2.533 2.191-1.579h-2.697zm5.65-11.191h-2.697l-.816-2.578-.835 2.578h-2.687l2.186 1.573-.829 2.539 2.165-1.573 2.151 1.573-.821-2.539 2.183-1.573zm-8.635-7.023l2.157-1.564 2.158 1.564-.823-2.539 2.19-1.564h-2.695l-.83-2.583-.821 2.589-2.692-.006 2.185 1.564-.829 2.539zm-5.983-14.823l-.814 2.584-2.704-.007 2.19 1.573-.816 2.545 2.158-1.58 2.144 1.58-.816-2.545 2.183-1.573h-2.695l-.83-2.577z"/><path d="M40.09 44.28V33.055h6.853V34.4h-5.28v3.337h4.697v1.312h-4.698v3.888h5.686v1.345zm15.472-.42q-.519.13-1.37.275a11.774 11.774 0 0 1-1.968.146 4.165 4.165 0 0 1-1.636-.284 2.637 2.637 0 0 1-1.07-.802 3.256 3.256 0 0 1-.583-1.223 6.362 6.362 0 0 1-.178-1.563v-4.73h1.507v4.406a3.818 3.818 0 0 0 .486 2.203 1.893 1.893 0 0 0 1.636.664c.162 0 .33-.004.502-.016a14.14 14.14 0 0 0 .9-.089 1.218 1.218 0 0 0 .267-.056v-7.112h1.507zm5.621-8.182q.194 0 .445.024t.495.065q.242.041.445.081a2.88 2.88 0 0 1 .3.073l-.26 1.313a5.05 5.05 0 0 0-.59-.154 5.168 5.168 0 0 0-1.062-.09 3.932 3.932 0 0 0-.834.09q-.413.089-.543.121v7.08h-1.507v-8.068a10.173 10.173 0 0 1 1.329-.365 8.543 8.543 0 0 1 1.782-.17zm10.497 4.196a5.333 5.333 0 0 1-.291 1.815 4.154 4.154 0 0 1-.819 1.393 3.6 3.6 0 0 1-1.255.899 4.148 4.148 0 0 1-3.176 0 3.596 3.596 0 0 1-1.255-.9 4.144 4.144 0 0 1-.818-1.392 5.769 5.769 0 0 1 0-3.621 4.133 4.133 0 0 1 .818-1.401 3.59 3.59 0 0 1 1.255-.9 4.148 4.148 0 0 1 3.176 0 3.593 3.593 0 0 1 1.255.9 4.143 4.143 0 0 1 .819 1.4 5.354 5.354 0 0 1 .291 1.807zm-1.572 0a3.628 3.628 0 0 0-.64-2.26 2.235 2.235 0 0 0-3.483 0 4.31 4.31 0 0 0 0 4.52 2.235 2.235 0 0 0 3.483 0 3.626 3.626 0 0 0 .64-2.26zm11.033.211a5.932 5.932 0 0 1-.251 1.765 3.998 3.998 0 0 1-.737 1.393 3.358 3.358 0 0 1-1.19.908 3.822 3.822 0 0 1-1.612.324 3.922 3.922 0 0 1-1.289-.195 4.036 4.036 0 0 1-.834-.372v3.37h-1.507V36.115q.535-.128 1.337-.283a9.938 9.938 0 0 1 1.855-.154 4.72 4.72 0 0 1 1.75.308 3.749 3.749 0 0 1 1.328.875 3.874 3.874 0 0 1 .85 1.385 5.321 5.321 0 0 1 .3 1.839zm-1.572 0a3.234 3.234 0 0 0-.729-2.268 2.513 2.513 0 0 0-1.944-.794 8.92 8.92 0 0 0-1.06.049 4.256 4.256 0 0 0-.608.113v5.313a3.082 3.082 0 0 0 .794.438 2.98 2.98 0 0 0 1.134.21 2.422 2.422 0 0 0 1.11-.235 2.033 2.033 0 0 0 .753-.647 2.737 2.737 0 0 0 .421-.972 5.331 5.331 0 0 0 .13-1.207zm3.143-.195a5.37 5.37 0 0 1 .324-1.952 4.076 4.076 0 0 1 .859-1.385 3.495 3.495 0 0 1 1.231-.826 3.842 3.842 0 0 1 1.425-.276 3.244 3.244 0 0 1 2.609 1.061 4.883 4.883 0 0 1 .907 3.232v.252a2.415 2.415 0 0 1-.016.283h-5.768a3.082 3.082 0 0 0 .762 1.992 2.786 2.786 0 0 0 2.073.68 5.511 5.511 0 0 0 1.337-.137 4.795 4.795 0 0 0 .818-.267l.21 1.263a4.48 4.48 0 0 1-.964.308 6.827 6.827 0 0 1-1.563.162 4.963 4.963 0 0 1-1.904-.332 3.546 3.546 0 0 1-1.32-.915 3.732 3.732 0 0 1-.77-1.385 5.856 5.856 0 0 1-.25-1.758zm5.783-.826a2.527 2.527 0 0 0-.51-1.677 1.757 1.757 0 0 0-1.45-.656 1.99 1.99 0 0 0-.915.203 2.158 2.158 0 0 0-.672.526 2.419 2.419 0 0 0-.43.745 3.673 3.673 0 0 0-.203.859zm2.285 8.246a3.379 3.379 0 0 1-.503-.048 2.599 2.599 0 0 1-.518-.13l.194-1.231a2.857 2.857 0 0 0 .373.08 2.584 2.584 0 0 0 .388.033 1.256 1.256 0 0 0 1.11-.478 2.453 2.453 0 0 0 .332-1.401v-8.278h1.507v8.261a3.413 3.413 0 0 1-.737 2.406 2.802 2.802 0 0 1-2.147.786zm2.12-12.976a.969.969 0 0 1-.688-.267 1.06 1.06 0 0 1 0-1.442 1.02 1.02 0 0 1 1.377 0 1.058 1.058 0 0 1 0 1.442.969.969 0 0 1-.689.267zM98.134 43a2.963 2.963 0 0 0 1.369-.242.821.821 0 0 0 .446-.778 1.034 1.034 0 0 0-.438-.875 6.94 6.94 0 0 0-1.442-.729q-.486-.194-.931-.397a3.27 3.27 0 0 1-.77-.477 2.084 2.084 0 0 1-.518-.665 2.118 2.118 0 0 1-.194-.955 2.146 2.146 0 0 1 .826-1.774 3.525 3.525 0 0 1 2.251-.656 6.333 6.333 0 0 1 .713.04q.356.04.664.097t.543.121q.235.065.365.114l-.276 1.296a3.786 3.786 0 0 0-.761-.268 4.914 4.914 0 0 0-1.248-.137 2.308 2.308 0 0 0-1.101.25.832.832 0 0 0-.47.786 1.071 1.071 0 0 0 .105.487 1.12 1.12 0 0 0 .324.38 2.65 2.65 0 0 0 .543.316q.324.145.777.308.6.227 1.07.445a3.357 3.357 0 0 1 .801.51 1.957 1.957 0 0 1 .51.705 2.56 2.56 0 0 1 .179 1.012 2.009 2.009 0 0 1-.867 1.766 4.312 4.312 0 0 1-2.47.6 6.44 6.44 0 0 1-1.75-.187q-.632-.186-.858-.283l.275-1.296q.26.097.826.292a4.774 4.774 0 0 0 1.507.195zm8.23-3.353a10.164 10.164 0 0 1 1.028.924q.543.551 1.07 1.19t.996 1.296a14.407 14.407 0 0 1 .793 1.224h-1.765a13.359 13.359 0 0 0-.786-1.159q-.446-.59-.932-1.134a13.338 13.338 0 0 0-.988-.996 8.923 8.923 0 0 0-.955-.761v4.05h-1.507V31.968l1.507-.259v7.679l.858-.858q.47-.47.923-.957.454-.485.86-.93t.696-.786h1.766q-.373.405-.81.89t-.908.98q-.47.495-.947.988t-.9.932zm6.075-5.313a.969.969 0 0 1-.689-.267 1.06 1.06 0 0 1 0-1.442 1.02 1.02 0 0 1 1.377 0 1.058 1.058 0 0 1 0 1.442.969.969 0 0 1-.688.267zm.761 9.947h-1.507v-8.424h1.507zm6.269-.001V33.055h6.772V34.4h-5.2v3.386h4.616v1.328h-4.616v5.168zm14.823-.42q-.518.13-1.37.275a11.772 11.772 0 0 1-1.967.146 4.164 4.164 0 0 1-1.637-.284 2.636 2.636 0 0 1-1.069-.802 3.256 3.256 0 0 1-.583-1.223 6.362 6.362 0 0 1-.178-1.563v-4.73h1.507v4.406a3.817 3.817 0 0 0 .485 2.203 1.893 1.893 0 0 0 1.637.664c.162 0 .329-.004.502-.016s.335-.024.486-.04.288-.032.413-.049a1.215 1.215 0 0 0 .267-.056v-7.112h1.507zm2.511-7.76q.518-.13 1.377-.276a11.927 11.927 0 0 1 1.976-.145 4.278 4.278 0 0 1 1.669.283 2.612 2.612 0 0 1 1.06.794 3.069 3.069 0 0 1 .56 1.223 7.1 7.1 0 0 1 .162 1.571v4.73H142.1v-4.406a7.231 7.231 0 0 0-.105-1.328 2.248 2.248 0 0 0-.349-.891 1.381 1.381 0 0 0-.648-.495 2.85 2.85 0 0 0-1.004-.153 11.255 11.255 0 0 0-.996.056 5.86 5.86 0 0 0-.421.057l-.268.049v7.112h-1.506zm14.66-4.326l1.507-.26v12.33q-.519.145-1.328.29a10.616 10.616 0 0 1-1.864.147 4.722 4.722 0 0 1-1.75-.308 3.737 3.737 0 0 1-1.328-.875 3.853 3.853 0 0 1-.85-1.385 5.305 5.305 0 0 1-.3-1.839 5.995 5.995 0 0 1 .25-1.782 3.989 3.989 0 0 1 .738-1.393 3.352 3.352 0 0 1 1.19-.907 3.824 3.824 0 0 1 1.612-.324 3.905 3.905 0 0 1 1.288.194 4.037 4.037 0 0 1 .834.373zm0 5.67a3.122 3.122 0 0 0-.794-.437 2.99 2.99 0 0 0-1.133-.21 2.427 2.427 0 0 0-1.11.235 2.04 2.04 0 0 0-.754.648 2.728 2.728 0 0 0-.42.98 5.413 5.413 0 0 0-.13 1.215 3.265 3.265 0 0 0 .728 2.276 2.5 2.5 0 0 0 1.945.801 7.715 7.715 0 0 0 1.028-.056 4.803 4.803 0 0 0 .64-.122zm10.725 6.416q-.519.13-1.37.275a11.773 11.773 0 0 1-1.967.146 4.165 4.165 0 0 1-1.637-.284 2.637 2.637 0 0 1-1.069-.802 3.256 3.256 0 0 1-.583-1.223 6.362 6.362 0 0 1-.178-1.563v-4.73h1.507v4.406a3.817 3.817 0 0 0 .485 2.203 1.893 1.893 0 0 0 1.637.664c.162 0 .329-.004.502-.016s.335-.024.486-.04.288-.032.413-.049a1.217 1.217 0 0 0 .267-.056v-7.112h1.507zm4.471-.86a2.963 2.963 0 0 0 1.368-.242.821.821 0 0 0 .446-.778 1.034 1.034 0 0 0-.437-.875 6.94 6.94 0 0 0-1.442-.729q-.487-.194-.932-.397a3.27 3.27 0 0 1-.77-.477 2.085 2.085 0 0 1-.518-.665 2.118 2.118 0 0 1-.194-.955 2.146 2.146 0 0 1 .826-1.774 3.525 3.525 0 0 1 2.251-.656 6.333 6.333 0 0 1 .713.04q.356.04.664.097t.543.121q.235.065.364.114l-.275 1.296a3.786 3.786 0 0 0-.761-.268 4.914 4.914 0 0 0-1.248-.137 2.308 2.308 0 0 0-1.101.25.832.832 0 0 0-.47.786 1.071 1.071 0 0 0 .105.487 1.12 1.12 0 0 0 .324.38 2.65 2.65 0 0 0 .543.316q.324.145.777.308.6.227 1.07.445a3.355 3.355 0 0 1 .801.51 1.957 1.957 0 0 1 .51.705 2.56 2.56 0 0 1 .178 1.012 2.009 2.009 0 0 1-.866 1.766 4.312 4.312 0 0 1-2.47.6 6.44 6.44 0 0 1-1.75-.187q-.632-.186-.86-.283l.276-1.296q.26.097.826.292a4.774 4.774 0 0 0 1.509.195zm10.773-6.01q-.34.373-.9 1.054t-1.198 1.506q-.64.826-1.28 1.733t-1.126 1.734h4.633v1.264h-6.431v-1.005q.389-.713.956-1.571t1.19-1.71q.624-.85 1.215-1.603t1.03-1.272h-4.165v-1.263h6.075zM18.738 59.432q.26.325.656.851t.819 1.167q.42.64.834 1.336a13.726 13.726 0 0 1 .705 1.345h-1.717q-.325-.616-.705-1.248t-.77-1.206q-.388-.575-.77-1.078t-.688-.875q-.21.017-.43.017h-1.854v4.39h-1.571V53.066a8.894 8.894 0 0 1 1.482-.219q.818-.056 1.499-.056a6.136 6.136 0 0 1 3.604.89 3.06 3.06 0 0 1 1.24 2.658 3.111 3.111 0 0 1-.592 1.911 3.482 3.482 0 0 1-1.742 1.182zm-2.381-5.264q-1.004 0-1.539.048v4.229h1.118a11.802 11.802 0 0 0 1.458-.081 3.317 3.317 0 0 0 1.093-.309 1.643 1.643 0 0 0 .689-.64 2.144 2.144 0 0 0 .243-1.093 2.08 2.08 0 0 0-.243-1.053 1.798 1.798 0 0 0-.656-.664 2.876 2.876 0 0 0-.972-.34 6.939 6.939 0 0 0-1.191-.097zm14.337 5.556a5.33 5.33 0 0 1-.291 1.815 4.154 4.154 0 0 1-.818 1.393 3.6 3.6 0 0 1-1.256.899 4.148 4.148 0 0 1-3.175 0 3.596 3.596 0 0 1-1.256-.9 4.145 4.145 0 0 1-.818-1.392 5.769 5.769 0 0 1 0-3.621 4.135 4.135 0 0 1 .818-1.401 3.59 3.59 0 0 1 1.256-.9 4.148 4.148 0 0 1 3.175 0 3.594 3.594 0 0 1 1.255.9 4.143 4.143 0 0 1 .819 1.4 5.352 5.352 0 0 1 .291 1.807zm-1.571 0a3.628 3.628 0 0 0-.64-2.26 2.235 2.235 0 0 0-3.483 0 4.31 4.31 0 0 0 0 4.52 2.235 2.235 0 0 0 3.483 0 3.626 3.626 0 0 0 .64-2.26zM38 56.84q-.34.373-.899 1.054T35.902 59.4q-.64.826-1.28 1.733t-1.126 1.734h4.634v1.264h-6.432v-1.005q.39-.712.956-1.571t1.19-1.709q.624-.851 1.216-1.604t1.028-1.272h-4.163v-1.263H38zm8.846 7.29q-.454-1.166-.964-2.664t-.932-3.119q-.422 1.62-.923 3.119t-.956 2.665h-1.312q-.746-1.669-1.458-3.808t-1.345-4.616h1.62q.162.762.389 1.652t.478 1.782q.25.891.526 1.717t.519 1.442q.275-.761.542-1.612t.51-1.717q.243-.867.462-1.701t.381-1.563h1.247q.146.729.356 1.563t.454 1.701q.243.866.51 1.717t.544 1.612q.243-.615.51-1.442t.526-1.717q.26-.89.486-1.782t.389-1.652h1.555q-.632 2.478-1.345 4.616t-1.458 3.808zm12.863-4.406a5.333 5.333 0 0 1-.292 1.815 4.152 4.152 0 0 1-.818 1.393 3.6 3.6 0 0 1-1.256.899 4.148 4.148 0 0 1-3.175 0 3.595 3.595 0 0 1-1.255-.9 4.145 4.145 0 0 1-.819-1.392 5.769 5.769 0 0 1 0-3.621 4.135 4.135 0 0 1 .819-1.401 3.589 3.589 0 0 1 1.255-.9 4.148 4.148 0 0 1 3.175 0 3.593 3.593 0 0 1 1.256.9 4.141 4.141 0 0 1 .818 1.4 5.354 5.354 0 0 1 .291 1.807zm-1.572 0a3.629 3.629 0 0 0-.64-2.26 2.235 2.235 0 0 0-3.483 0 4.31 4.31 0 0 0 0 4.52 2.235 2.235 0 0 0 3.483 0 3.627 3.627 0 0 0 .64-2.26zm2.236 7.436a3.379 3.379 0 0 1-.502-.048 2.6 2.6 0 0 1-.519-.13l.194-1.231a2.859 2.859 0 0 0 .373.08 2.586 2.586 0 0 0 .389.033 1.256 1.256 0 0 0 1.11-.478 2.453 2.453 0 0 0 .332-1.401v-8.278h1.506v8.261a3.413 3.413 0 0 1-.737 2.406 2.802 2.802 0 0 1-2.146.786zm2.122-12.976a.969.969 0 0 1-.689-.267 1.06 1.06 0 0 1 0-1.442 1.02 1.02 0 0 1 1.377 0 1.058 1.058 0 0 1 0 1.442.969.969 0 0 1-.688.267zm9.979 9.526q-.519.13-1.37.275a11.774 11.774 0 0 1-1.968.146 4.165 4.165 0 0 1-1.636-.284 2.636 2.636 0 0 1-1.07-.802 3.254 3.254 0 0 1-.582-1.223 6.362 6.362 0 0 1-.179-1.563v-4.73h1.507v4.406a3.818 3.818 0 0 0 .486 2.203 1.893 1.893 0 0 0 1.636.665c.162 0 .33-.005.502-.017a14.14 14.14 0 0 0 .9-.088 1.218 1.218 0 0 0 .267-.057v-7.112h1.507zm11.76-4.278q.26.325.657.851t.818 1.167q.421.64.834 1.336a13.726 13.726 0 0 1 .705 1.345h-1.717q-.325-.615-.705-1.247t-.77-1.207q-.388-.575-.77-1.078t-.688-.874q-.21.016-.43.016h-1.854v4.39h-1.571V53.066a8.894 8.894 0 0 1 1.482-.219q.818-.056 1.499-.056a6.136 6.136 0 0 1 3.604.89 3.06 3.06 0 0 1 1.24 2.658 3.111 3.111 0 0 1-.592 1.911 3.482 3.482 0 0 1-1.742 1.182zm-2.381-5.264q-1.004 0-1.539.048v4.229h1.118a11.802 11.802 0 0 0 1.458-.081 3.317 3.317 0 0 0 1.093-.309 1.643 1.643 0 0 0 .689-.64 2.144 2.144 0 0 0 .243-1.093 2.08 2.08 0 0 0-.243-1.053 1.798 1.798 0 0 0-.656-.664 2.876 2.876 0 0 0-.972-.34 6.939 6.939 0 0 0-1.191-.097zm6.431 5.572a5.37 5.37 0 0 1 .324-1.952 4.074 4.074 0 0 1 .859-1.385 3.497 3.497 0 0 1 1.231-.826 3.845 3.845 0 0 1 1.426-.275 3.244 3.244 0 0 1 2.608 1.06 4.883 4.883 0 0 1 .907 3.232v.252a2.392 2.392 0 0 1-.016.283h-5.767a3.081 3.081 0 0 0 .761 1.993 2.786 2.786 0 0 0 2.073.68 5.511 5.511 0 0 0 1.337-.138 4.794 4.794 0 0 0 .818-.267l.21 1.264a4.476 4.476 0 0 1-.964.307 6.827 6.827 0 0 1-1.563.163 4.963 4.963 0 0 1-1.904-.332 3.545 3.545 0 0 1-1.32-.916 3.732 3.732 0 0 1-.77-1.385 5.859 5.859 0 0 1-.25-1.758zm5.783-.826a2.527 2.527 0 0 0-.51-1.676 1.757 1.757 0 0 0-1.45-.657 1.99 1.99 0 0 0-.915.203 2.155 2.155 0 0 0-.672.526 2.419 2.419 0 0 0-.43.745 3.678 3.678 0 0 0-.202.86zm8.943 4.374a4.01 4.01 0 0 1-.753.332 3.815 3.815 0 0 1-1.304.203 4.185 4.185 0 0 1-1.434-.243 3.11 3.11 0 0 1-1.175-.753 3.637 3.637 0 0 1-.794-1.272 5.076 5.076 0 0 1-.291-1.815 4.992 4.992 0 0 1 .275-1.692 3.76 3.76 0 0 1 .802-1.329 3.68 3.68 0 0 1 1.288-.875 4.436 4.436 0 0 1 1.717-.315 9.676 9.676 0 0 1 1.838.153q.786.154 1.32.284v7.517a3.555 3.555 0 0 1-1.004 2.819 4.536 4.536 0 0 1-3.045.874 8.28 8.28 0 0 1-1.499-.13 8.61 8.61 0 0 1-1.223-.307l.275-1.312a7.034 7.034 0 0 0 1.11.316 6.648 6.648 0 0 0 1.369.137 2.852 2.852 0 0 0 1.936-.534 2.189 2.189 0 0 0 .591-1.701zm-.016-6.253a5.078 5.078 0 0 0-.608-.122 7.364 7.364 0 0 0-1.028-.056 2.292 2.292 0 0 0-1.871.794 3.2 3.2 0 0 0-.657 2.106 3.696 3.696 0 0 0 .187 1.247 2.467 2.467 0 0 0 .502.859 1.966 1.966 0 0 0 .729.502 2.312 2.312 0 0 0 .85.162 3.42 3.42 0 0 0 1.101-.17 2.703 2.703 0 0 0 .794-.397zm4.762-2.851a.969.969 0 0 1-.688-.267 1.06 1.06 0 0 1 0-1.442 1.02 1.02 0 0 1 1.377 0 1.058 1.058 0 0 1 0 1.442.969.969 0 0 1-.689.267zm.762 9.947h-1.507v-8.424h1.507zm9.947-4.407a5.33 5.33 0 0 1-.292 1.815 4.154 4.154 0 0 1-.818 1.393 3.6 3.6 0 0 1-1.255.899 4.148 4.148 0 0 1-3.176 0 3.596 3.596 0 0 1-1.255-.9 4.145 4.145 0 0 1-.818-1.392 5.769 5.769 0 0 1 0-3.621 4.135 4.135 0 0 1 .818-1.401 3.59 3.59 0 0 1 1.255-.9 4.148 4.148 0 0 1 3.176 0 3.594 3.594 0 0 1 1.255.9 4.143 4.143 0 0 1 .818 1.4 5.352 5.352 0 0 1 .292 1.807zm-1.572 0a3.628 3.628 0 0 0-.64-2.26 2.235 2.235 0 0 0-3.483 0 4.31 4.31 0 0 0 0 4.52 2.235 2.235 0 0 0 3.483 0 3.626 3.626 0 0 0 .64-2.26zm3.612-3.774q.519-.129 1.377-.275a11.918 11.918 0 0 1 1.977-.146 4.278 4.278 0 0 1 1.668.283 2.613 2.613 0 0 1 1.061.794 3.072 3.072 0 0 1 .56 1.223 7.1 7.1 0 0 1 .162 1.571v4.73h-1.507v-4.406a7.223 7.223 0 0 0-.105-1.328 2.248 2.248 0 0 0-.348-.891 1.38 1.38 0 0 0-.648-.495 2.85 2.85 0 0 0-1.005-.153 11.255 11.255 0 0 0-.996.056 5.823 5.823 0 0 0-.421.058l-.267.048v7.112h-1.507zm11.94-.616a4.362 4.362 0 0 1 1.53.235 2.483 2.483 0 0 1 1.005.664 2.52 2.52 0 0 1 .543 1.02 4.93 4.93 0 0 1 .162 1.305v5.265l-.543.089q-.348.057-.786.105-.437.049-.947.09t-1.012.04a5.553 5.553 0 0 1-1.313-.146 2.938 2.938 0 0 1-1.037-.462 2.112 2.112 0 0 1-.68-.834 2.924 2.924 0 0 1-.243-1.247 2.4 2.4 0 0 1 .283-1.199 2.258 2.258 0 0 1 .77-.81 3.568 3.568 0 0 1 1.134-.453 6.18 6.18 0 0 1 1.361-.146q.226 0 .47.024c.162.016.316.038.462.065l.38.073.227.048v-.421a3.407 3.407 0 0 0-.08-.737 1.689 1.689 0 0 0-.292-.648 1.475 1.475 0 0 0-.575-.454 2.258 2.258 0 0 0-.948-.17 7.146 7.146 0 0 0-1.304.105 4.645 4.645 0 0 0-.835.219L130 55.707a4.641 4.641 0 0 1 .972-.252 8.434 8.434 0 0 1 1.474-.12zm.13 7.55q.534 0 .947-.025a4.142 4.142 0 0 0 .688-.09v-2.51a1.912 1.912 0 0 0-.526-.138 5.81 5.81 0 0 0-.883-.057 5.732 5.732 0 0 0-.72.05 2.217 2.217 0 0 0-.697.202 1.49 1.49 0 0 0-.527.42 1.105 1.105 0 0 0-.21.706 1.209 1.209 0 0 0 .518 1.125 2.696 2.696 0 0 0 1.41.316zm8.05 1.246a2.887 2.887 0 0 1-1.976-.6 2.366 2.366 0 0 1-.583-1.765V51.657l1.506-.26v10.125a2.428 2.428 0 0 0 .065.616.842.842 0 0 0 .21.389.905.905 0 0 0 .39.218 3.94 3.94 0 0 0 .599.122zm1.815-8.18q.518-.129 1.377-.275a11.918 11.918 0 0 1 1.977-.146 4.278 4.278 0 0 1 1.668.283 2.612 2.612 0 0 1 1.061.794 3.069 3.069 0 0 1 .56 1.223 7.1 7.1 0 0 1 .161 1.572v4.73h-1.507v-4.407a7.231 7.231 0 0 0-.105-1.328 2.248 2.248 0 0 0-.348-.891 1.38 1.38 0 0 0-.648-.495 2.85 2.85 0 0 0-1.005-.153c-.162 0-.33.006-.501.016s-.338.024-.495.04-.297.036-.421.058l-.267.048v7.112h-1.507zm8.748 3.79a5.37 5.37 0 0 1 .324-1.952 4.076 4.076 0 0 1 .859-1.385 3.497 3.497 0 0 1 1.231-.826 3.845 3.845 0 0 1 1.425-.275 3.244 3.244 0 0 1 2.609 1.06 4.883 4.883 0 0 1 .907 3.232v.252a2.392 2.392 0 0 1-.016.283h-5.768a3.081 3.081 0 0 0 .762 1.993 2.786 2.786 0 0 0 2.073.68 5.511 5.511 0 0 0 1.337-.138 4.794 4.794 0 0 0 .818-.267l.21 1.264a4.476 4.476 0 0 1-.964.307 6.827 6.827 0 0 1-1.563.163 4.963 4.963 0 0 1-1.904-.332 3.545 3.545 0 0 1-1.32-.916 3.73 3.73 0 0 1-.77-1.385 5.856 5.856 0 0 1-.25-1.758zm5.783-.826a2.527 2.527 0 0 0-.51-1.676 1.756 1.756 0 0 0-1.45-.657 1.99 1.99 0 0 0-.915.203 2.155 2.155 0 0 0-.672.526 2.419 2.419 0 0 0-.43.745 3.678 3.678 0 0 0-.202.86zm8.943 4.374a4.01 4.01 0 0 1-.754.332 3.815 3.815 0 0 1-1.304.203 4.184 4.184 0 0 1-1.434-.243 3.109 3.109 0 0 1-1.174-.753 3.637 3.637 0 0 1-.794-1.272 5.076 5.076 0 0 1-.291-1.815 4.992 4.992 0 0 1 .275-1.692 3.76 3.76 0 0 1 .802-1.329 3.68 3.68 0 0 1 1.288-.875 4.436 4.436 0 0 1 1.717-.315 9.676 9.676 0 0 1 1.839.153q.785.154 1.32.284v7.517a3.555 3.555 0 0 1-1.005 2.819 4.536 4.536 0 0 1-3.045.874 8.28 8.28 0 0 1-1.499-.13 8.61 8.61 0 0 1-1.223-.307l.275-1.312a7.037 7.037 0 0 0 1.11.316 6.648 6.648 0 0 0 1.369.137 2.852 2.852 0 0 0 1.936-.534 2.189 2.189 0 0 0 .591-1.701zm-.016-6.253a5.08 5.08 0 0 0-.608-.122 7.364 7.364 0 0 0-1.029-.056 2.292 2.292 0 0 0-1.87.794 3.2 3.2 0 0 0-.657 2.106 3.696 3.696 0 0 0 .186 1.247 2.466 2.466 0 0 0 .502.859 1.965 1.965 0 0 0 .73.502 2.312 2.312 0 0 0 .85.162 3.42 3.42 0 0 0 1.102-.17 2.705 2.705 0 0 0 .794-.397zm11.452 2.689a5.333 5.333 0 0 1-.29 1.815 4.152 4.152 0 0 1-.82 1.393 3.6 3.6 0 0 1-1.255.899 4.147 4.147 0 0 1-3.175 0 3.595 3.595 0 0 1-1.255-.9 4.145 4.145 0 0 1-.819-1.392 5.769 5.769 0 0 1 0-3.621 4.135 4.135 0 0 1 .819-1.401 3.589 3.589 0 0 1 1.255-.9 4.147 4.147 0 0 1 3.175 0 3.593 3.593 0 0 1 1.256.9 4.141 4.141 0 0 1 .818 1.4 5.354 5.354 0 0 1 .292 1.807zm-1.571 0a3.629 3.629 0 0 0-.64-2.26 2.235 2.235 0 0 0-3.483 0 4.31 4.31 0 0 0 0 4.52 2.235 2.235 0 0 0 3.483 0 3.627 3.627 0 0 0 .64-2.26zM6.677 21.634a8.018 8.018 0 0 1-2.994-.503 5.526 5.526 0 0 1-2.075-1.411 5.744 5.744 0 0 1-1.215-2.136 8.812 8.812 0 0 1-.393-2.7V4.254h3.118V14.59a6.653 6.653 0 0 0 .258 1.976 3.452 3.452 0 0 0 .736 1.338 2.943 2.943 0 0 0 1.13.76 4.114 4.114 0 0 0 1.46.247 4.219 4.219 0 0 0 1.472-.246 2.925 2.925 0 0 0 1.142-.76 3.45 3.45 0 0 0 .736-1.339 6.653 6.653 0 0 0 .258-1.976V4.254h3.117v10.63a8.574 8.574 0 0 1-.405 2.7 5.887 5.887 0 0 1-1.227 2.136 5.497 5.497 0 0 1-2.098 1.412 8.219 8.219 0 0 1-3.02.502zM17.085 9.188a20.053 20.053 0 0 1 2.234-.466 19.23 19.23 0 0 1 3.044-.221 7.003 7.003 0 0 1 2.627.43 4.098 4.098 0 0 1 1.681 1.203A4.592 4.592 0 0 1 27.555 12a10.418 10.418 0 0 1 .258 2.393v7.217h-2.97v-6.75a9.758 9.758 0 0 0-.135-1.756 3.108 3.108 0 0 0-.442-1.178 1.768 1.768 0 0 0-.835-.664 3.524 3.524 0 0 0-1.288-.208 9.854 9.854 0 0 0-1.179.074q-.614.073-.908.122v10.36h-2.97zm17.527-4.173a1.703 1.703 0 0 1-.54 1.326 1.833 1.833 0 0 1-1.276.49 1.865 1.865 0 0 1-1.301-.49 1.703 1.703 0 0 1-.54-1.326 1.735 1.735 0 0 1 .54-1.35 1.867 1.867 0 0 1 1.3-.49 1.836 1.836 0 0 1 1.277.49 1.735 1.735 0 0 1 .54 1.35zm-.319 16.595h-2.97V8.771h2.97zm7.904-13.404a7.278 7.278 0 0 1 2.48.369 3.967 3.967 0 0 1 1.608 1.03 3.869 3.869 0 0 1 .859 1.609 7.866 7.866 0 0 1 .258 2.074v7.782q-.688.147-2.074.356a21.19 21.19 0 0 1-3.13.209 9.417 9.417 0 0 1-2.112-.221 4.434 4.434 0 0 1-1.632-.712 3.354 3.354 0 0 1-1.056-1.276 4.425 4.425 0 0 1-.38-1.94 3.742 3.742 0 0 1 .43-1.866 3.527 3.527 0 0 1 1.166-1.24 5.045 5.045 0 0 1 1.706-.687 9.597 9.597 0 0 1 2.026-.209 9.245 9.245 0 0 1 1.03.062 9.642 9.642 0 0 1 1.154.208v-.49a3.854 3.854 0 0 0-.122-.982 2.048 2.048 0 0 0-.43-.823 2.022 2.022 0 0 0-.81-.552 3.523 3.523 0 0 0-1.265-.197 11.232 11.232 0 0 0-1.89.148 8.301 8.301 0 0 0-1.4.344l-.367-2.406a11.733 11.733 0 0 1 1.644-.393 12.959 12.959 0 0 1 2.307-.197zm.246 11.072a11.064 11.064 0 0 0 2.086-.148v-3.289a5.713 5.713 0 0 0-.712-.147 6.616 6.616 0 0 0-1.03-.074 6.83 6.83 0 0 0-.995.074 3.092 3.092 0 0 0-.908.27 1.653 1.653 0 0 0-.65.552 1.54 1.54 0 0 0-.246.896 1.57 1.57 0 0 0 .663 1.46 3.42 3.42 0 0 0 1.792.406zm14.164 2.332V4.598H67.53v2.626H59.7v4.198h6.972V14H59.7v4.983h8.42v2.627zm24.204-.663q-.86.22-2.234.454a18.089 18.089 0 0 1-3.02.233 6.651 6.651 0 0 1-2.59-.442 4.148 4.148 0 0 1-1.669-1.227 4.83 4.83 0 0 1-.896-1.878 9.96 9.96 0 0 1-.27-2.393V8.5h2.971v6.726a5.427 5.427 0 0 0 .601 2.946 2.355 2.355 0 0 0 2.1.883q.54 0 1.14-.048a6.09 6.09 0 0 0 .897-.123V8.501h2.97zm10.949-9.5a9.53 9.53 0 0 0-1.02-.258 7.506 7.506 0 0 0-1.51-.135 6.025 6.025 0 0 0-1.043.098 6.246 6.246 0 0 0-.773.172V21.61h-2.97V9.385a16.37 16.37 0 0 1 2.148-.601 13.404 13.404 0 0 1 2.86-.283q.294 0 .687.037c.262.024.524.058.786.098s.515.09.76.148.442.11.59.159zm14.04 3.413a8.294 8.294 0 0 1-.441 2.773 6.136 6.136 0 0 1-1.252 2.135 5.624 5.624 0 0 1-1.952 1.375 6.296 6.296 0 0 1-2.516.491 6.208 6.208 0 0 1-2.504-.49 5.654 5.654 0 0 1-1.94-1.376 6.292 6.292 0 0 1-1.263-2.135 8.088 8.088 0 0 1-.455-2.774 7.983 7.983 0 0 1 .455-2.762 6.208 6.208 0 0 1 1.276-2.123 5.629 5.629 0 0 1 1.952-1.362 6.285 6.285 0 0 1 2.48-.48 6.378 6.378 0 0 1 2.492.48 5.49 5.49 0 0 1 1.951 1.362 6.327 6.327 0 0 1 1.264 2.123 7.983 7.983 0 0 1 .454 2.762zm-3.043 0a5.013 5.013 0 0 0-.822-3.033 2.917 2.917 0 0 0-4.591 0 5.01 5.01 0 0 0-.822 3.032 5.11 5.11 0 0 0 .822 3.068 2.898 2.898 0 0 0 4.59 0 5.114 5.114 0 0 0 .823-3.068zm17.527.342a9.098 9.098 0 0 1-.38 2.701 6.296 6.296 0 0 1-1.093 2.111 4.858 4.858 0 0 1-1.78 1.375 5.728 5.728 0 0 1-2.418.49 5.983 5.983 0 0 1-1.669-.22 6.24 6.24 0 0 1-1.252-.491v4.983h-2.97V9.188q.908-.244 2.234-.466a16.99 16.99 0 0 1 2.798-.221 7.49 7.49 0 0 1 2.725.467 5.68 5.68 0 0 1 2.05 1.337 5.894 5.894 0 0 1 1.301 2.111 8.06 8.06 0 0 1 .454 2.786zm-3.044.05a4.788 4.788 0 0 0-.896-3.093 3.501 3.501 0 0 0-2.884-1.105q-.418 0-.872.037a4.837 4.837 0 0 0-.896.16v7.34a4.583 4.583 0 0 0 1.044.503 4.07 4.07 0 0 0 1.387.233 2.658 2.658 0 0 0 2.369-1.105 5.219 5.219 0 0 0 .748-2.97zm5.253-.295a8.06 8.06 0 0 1 .503-2.97 6.225 6.225 0 0 1 1.338-2.123 5.531 5.531 0 0 1 1.915-1.277 5.936 5.936 0 0 1 2.209-.43 5.29 5.29 0 0 1 4.136 1.645 7.117 7.117 0 0 1 1.486 4.91c0 .164-.005.348-.013.552s-.02.39-.037.553h-8.469a3.385 3.385 0 0 0 1.093 2.393 4.15 4.15 0 0 0 2.81.847 9.218 9.218 0 0 0 1.976-.197 8.18 8.18 0 0 0 1.412-.417l.392 2.43a4.694 4.694 0 0 1-.675.258 9.5 9.5 0 0 1-.982.245q-.552.11-1.19.184a11.282 11.282 0 0 1-1.3.074 7.872 7.872 0 0 1-2.947-.503 5.48 5.48 0 0 1-2.062-1.4 5.724 5.724 0 0 1-1.202-2.11 8.606 8.606 0 0 1-.393-2.664zm8.616-1.325a3.91 3.91 0 0 0-.172-1.166 2.823 2.823 0 0 0-.503-.958 2.389 2.389 0 0 0-.81-.638 2.586 2.586 0 0 0-1.141-.233 2.656 2.656 0 0 0-1.203.257 2.736 2.736 0 0 0-.872.676 3.09 3.09 0 0 0-.552.957 5.152 5.152 0 0 0-.27 1.105zm4.321 12.544q-.32 0-.896-.062a3.999 3.999 0 0 1-1.02-.233l.394-2.43a4.335 4.335 0 0 0 1.3.171 1.638 1.638 0 0 0 1.449-.6 3.178 3.178 0 0 0 .418-1.805V8.771h2.97v12.495a5.084 5.084 0 0 1-1.19 3.707 4.61 4.61 0 0 1-3.425 1.203zm4.934-21.16a1.703 1.703 0 0 1-.54 1.325 1.834 1.834 0 0 1-1.276.491 1.864 1.864 0 0 1-1.301-.491 1.7 1.7 0 0 1-.54-1.325 1.733 1.733 0 0 1 .54-1.351 1.866 1.866 0 0 1 1.3-.49 1.836 1.836 0 0 1 1.277.49 1.735 1.735 0 0 1 .54 1.35zm6.529 14.164a3.911 3.911 0 0 0 1.719-.282 1.003 1.003 0 0 0 .54-.97 1.258 1.258 0 0 0-.577-1.056 8.507 8.507 0 0 0-1.902-.908 15.04 15.04 0 0 1-1.486-.626 5.06 5.06 0 0 1-1.166-.773 3.162 3.162 0 0 1-.773-1.068 3.726 3.726 0 0 1-.282-1.535 3.346 3.346 0 0 1 1.301-2.786 5.59 5.59 0 0 1 3.535-1.018 10.9 10.9 0 0 1 2.16.208 10.529 10.529 0 0 1 1.547.406l-.54 2.405a7.307 7.307 0 0 0-1.252-.405 7.552 7.552 0 0 0-1.768-.184 3.083 3.083 0 0 0-1.473.307 1.008 1.008 0 0 0-.564.945 1.367 1.367 0 0 0 .11.564 1.206 1.206 0 0 0 .38.455 3.875 3.875 0 0 0 .712.417 10.994 10.994 0 0 0 1.08.43 16.557 16.557 0 0 1 1.792.773 4.853 4.853 0 0 1 1.215.86 2.94 2.94 0 0 1 .7 1.092 4.36 4.36 0 0 1 .221 1.473 3.173 3.173 0 0 1-1.362 2.786 6.785 6.785 0 0 1-3.891.945 10.645 10.645 0 0 1-2.725-.282 14.041 14.041 0 0 1-1.448-.455l.515-2.48a13.269 13.269 0 0 0 1.584.517 8.146 8.146 0 0 0 2.099.245zm10.826-5.401q.565-.59 1.203-1.265t1.252-1.35q.613-.674 1.166-1.3t.945-1.093h3.51q-1.228 1.375-2.59 2.847t-2.737 2.873a17.102 17.102 0 0 1 1.546 1.485q.81.871 1.572 1.853t1.424 1.964a20.097 20.097 0 0 1 1.104 1.817h-3.436q-.443-.76-1.02-1.596t-1.239-1.62q-.663-.785-1.35-1.485a11.56 11.56 0 0 0-1.35-1.19v5.891h-2.97V5.089l2.97-.491zm14.679-5.573a7.278 7.278 0 0 1 2.48.369 3.967 3.967 0 0 1 1.608 1.03 3.87 3.87 0 0 1 .86 1.609 7.866 7.866 0 0 1 .257 2.074v7.782q-.688.147-2.074.356a21.19 21.19 0 0 1-3.13.209 9.417 9.417 0 0 1-2.111-.221 4.434 4.434 0 0 1-1.633-.712 3.353 3.353 0 0 1-1.055-1.276 4.425 4.425 0 0 1-.38-1.94 3.743 3.743 0 0 1 .43-1.866 3.528 3.528 0 0 1 1.166-1.24 5.046 5.046 0 0 1 1.706-.687 9.597 9.597 0 0 1 2.025-.209 9.247 9.247 0 0 1 1.03.062 9.642 9.642 0 0 1 1.155.208v-.49a3.859 3.859 0 0 0-.123-.982 2.048 2.048 0 0 0-.43-.823 2.023 2.023 0 0 0-.81-.552 3.523 3.523 0 0 0-1.264-.197 11.231 11.231 0 0 0-1.89.148 8.305 8.305 0 0 0-1.4.344l-.368-2.406a11.733 11.733 0 0 1 1.645-.393 12.957 12.957 0 0 1 2.306-.197zm.246 11.072a11.064 11.064 0 0 0 2.087-.148v-3.289a5.71 5.71 0 0 0-.712-.147 6.614 6.614 0 0 0-1.032-.074 6.83 6.83 0 0 0-.994.074 3.092 3.092 0 0 0-.908.27 1.652 1.652 0 0 0-.65.552 1.54 1.54 0 0 0-.246.896 1.57 1.57 0 0 0 .663 1.46 3.42 3.42 0 0 0 1.792.406z" fill="#1d1d1b"/></svg>