<svg xmlns="http://www.w3.org/2000/svg" viewBox="0 0 94.135 19.979"><g id="Layer_2" data-name="Layer 2"><g id="Layer_1-2" data-name="Layer 1"><rect x="64.167" width="29.968" height="19.979" fill="#164194"/><polygon points="78.513 4.355 79.146 3.893 79.778 4.355 79.537 3.608 80.18 3.147 79.388 3.147 79.146 2.392 78.905 3.147 78.111 3.147 78.752 3.608 78.513 4.355" fill="#ffed00"/><polygon points="75.24 5.233 75.873 4.771 76.505 5.233 76.264 4.487 76.907 4.025 76.115 4.025 75.872 3.268 75.63 4.027 74.84 4.025 75.481 4.487 75.24 5.233" fill="#ffed00"/><polygon points="73.477 5.669 73.236 6.427 72.444 6.425 73.085 6.887 72.845 7.633 73.477 7.173 74.111 7.633 73.87 6.887 74.513 6.425 73.721 6.425 73.477 5.669" fill="#ffed00"/><polygon points="72.601 10.437 73.231 10.901 72.991 10.155 73.634 9.693 72.842 9.693 72.601 8.936 72.355 9.695 71.565 9.693 72.206 10.155 71.967 10.901 72.601 10.437" fill="#ffed00"/><polygon points="73.721 12.971 73.477 12.216 73.236 12.971 72.444 12.971 73.085 13.435 72.845 14.178 73.477 13.717 74.111 14.178 73.87 13.435 74.513 12.971 73.721 12.971" fill="#ffed00"/><polygon points="76.118 15.37 75.877 14.615 75.633 15.372 74.842 15.37 75.485 15.832 75.245 16.578 75.877 16.116 76.511 16.578 76.269 15.832 76.913 15.37 76.118 15.37" fill="#ffed00"/><polygon points="79.387 16.239 79.146 15.482 78.904 16.239 78.111 16.239 78.754 16.7 78.512 17.447 79.146 16.985 79.78 17.447 79.536 16.7 80.182 16.239 79.387 16.239" fill="#ffed00"/><polygon points="82.657 15.37 82.413 14.615 82.169 15.372 81.381 15.37 82.021 15.832 81.781 16.578 82.413 16.116 83.047 16.578 82.805 15.832 83.451 15.37 82.657 15.37" fill="#ffed00"/><polygon points="85.056 12.971 84.813 12.216 84.572 12.971 83.781 12.971 84.423 13.435 84.179 14.178 84.813 13.717 85.446 14.178 85.205 13.435 85.848 12.971 85.056 12.971" fill="#ffed00"/><polygon points="86.716 9.684 85.923 9.684 85.684 8.927 85.439 9.684 84.65 9.684 85.292 10.146 85.048 10.892 85.684 10.43 86.316 10.892 86.074 10.146 86.716 9.684" fill="#ffed00"/><polygon points="84.179 7.621 84.813 7.162 85.447 7.621 85.205 6.876 85.848 6.416 85.057 6.416 84.813 5.658 84.572 6.418 83.781 6.416 84.423 6.876 84.179 7.621" fill="#ffed00"/><polygon points="82.422 3.268 82.183 4.027 81.389 4.025 82.032 4.487 81.793 5.234 82.426 4.77 83.056 5.234 82.817 4.487 83.458 4.025 82.666 4.025 82.422 3.268" fill="#ffed00"/><path d="M11.961,13.005v-3.3h2.012V10.1H12.422v.98H13.8v.385h-1.38V12.61h1.67v.4Z" fill="#1d1d1b"/><path d="M16.505,12.881q-.153.039-.4.081a3.417,3.417,0,0,1-.578.043,1.235,1.235,0,0,1-.481-.083.775.775,0,0,1-.314-.236.942.942,0,0,1-.171-.359,1.866,1.866,0,0,1-.053-.459V10.479h.443v1.294a1.115,1.115,0,0,0,.143.647.555.555,0,0,0,.48.2c.048,0,.1,0,.148-.005s.1-.007.142-.012l.122-.014a.332.332,0,0,0,.078-.017V10.479h.443Z" fill="#1d1d1b"/><path d="M18.156,10.479a1.279,1.279,0,0,1,.13.007c.05,0,.1.011.146.019l.13.024a.9.9,0,0,1,.088.021l-.076.385a1.777,1.777,0,0,0-.173-.045,1.56,1.56,0,0,0-.312-.026,1.185,1.185,0,0,0-.245.026c-.081.018-.134.029-.159.036v2.079h-.443V10.636a3,3,0,0,1,.39-.107A2.467,2.467,0,0,1,18.156,10.479Z" fill="#1d1d1b"/><path d="M21.239,11.711a1.568,1.568,0,0,1-.086.533,1.221,1.221,0,0,1-.24.409,1.059,1.059,0,0,1-.369.264,1.217,1.217,0,0,1-.933,0,1.064,1.064,0,0,1-.368-.264A1.223,1.223,0,0,1,19,12.244a1.707,1.707,0,0,1,0-1.064,1.213,1.213,0,0,1,.241-.411,1.064,1.064,0,0,1,.368-.264,1.217,1.217,0,0,1,.933,0,1.059,1.059,0,0,1,.369.264,1.211,1.211,0,0,1,.24.411A1.577,1.577,0,0,1,21.239,11.711Zm-.462,0a1.069,1.069,0,0,0-.188-.664.656.656,0,0,0-1.023,0,1.267,1.267,0,0,0,0,1.328.656.656,0,0,0,1.023,0A1.069,1.069,0,0,0,20.777,11.711Z" fill="#1d1d1b"/><path d="M24.017,11.773a1.711,1.711,0,0,1-.074.518,1.18,1.18,0,0,1-.216.41.991.991,0,0,1-.35.266,1.128,1.128,0,0,1-.473.095,1.147,1.147,0,0,1-.378-.057,1.175,1.175,0,0,1-.245-.109v.989h-.443V10.607c.105-.025.236-.053.393-.083a2.921,2.921,0,0,1,.544-.045,1.389,1.389,0,0,1,.514.09,1.083,1.083,0,0,1,.39.257,1.14,1.14,0,0,1,.25.407A1.553,1.553,0,0,1,24.017,11.773Zm-.461,0a.952.952,0,0,0-.214-.666.737.737,0,0,0-.571-.234,2.489,2.489,0,0,0-.312.015,1.147,1.147,0,0,0-.178.033v1.561a.908.908,0,0,0,.233.128.877.877,0,0,0,.333.062.713.713,0,0,0,.326-.069.607.607,0,0,0,.221-.19.817.817,0,0,0,.124-.286A1.581,1.581,0,0,0,23.556,11.773Z" fill="#1d1d1b"/><path d="M24.479,11.716a1.573,1.573,0,0,1,.1-.574,1.192,1.192,0,0,1,.252-.407,1.034,1.034,0,0,1,.362-.242,1.126,1.126,0,0,1,.418-.081.951.951,0,0,1,.766.312,1.429,1.429,0,0,1,.267.949v.074a.712.712,0,0,1,0,.083H24.94a.9.9,0,0,0,.224.585.819.819,0,0,0,.609.2,1.614,1.614,0,0,0,.392-.041,1.363,1.363,0,0,0,.241-.078l.061.371a1.235,1.235,0,0,1-.283.09,1.985,1.985,0,0,1-.459.048,1.475,1.475,0,0,1-.559-.1,1.05,1.05,0,0,1-.388-.269,1.124,1.124,0,0,1-.226-.407A1.725,1.725,0,0,1,24.479,11.716Zm1.7-.243a.741.741,0,0,0-.15-.492.514.514,0,0,0-.425-.193.589.589,0,0,0-.269.059.647.647,0,0,0-.2.155.7.7,0,0,0-.126.219,1.049,1.049,0,0,0-.059.252Z" fill="#1d1d1b"/><path d="M26.848,13.9a1.045,1.045,0,0,1-.147-.014.788.788,0,0,1-.153-.039l.057-.361a1.088,1.088,0,0,0,.11.024.791.791,0,0,0,.114.009.37.37,0,0,0,.326-.14.723.723,0,0,0,.1-.412V10.531H27.7v2.426a1,1,0,0,1-.217.707A.821.821,0,0,1,26.848,13.9Zm.623-3.811a.287.287,0,0,1-.2-.079.311.311,0,0,1,0-.423.282.282,0,0,1,.2-.079.279.279,0,0,1,.2.079.308.308,0,0,1,0,.423A.283.283,0,0,1,27.471,10.084Z" fill="#1d1d1b"/><path d="M29.008,12.629a.878.878,0,0,0,.4-.071.243.243,0,0,0,.131-.229.306.306,0,0,0-.128-.257,2.1,2.1,0,0,0-.424-.214c-.1-.038-.186-.077-.274-.116a1.02,1.02,0,0,1-.226-.14.612.612,0,0,1-.152-.2.621.621,0,0,1-.057-.28.629.629,0,0,1,.243-.521,1.032,1.032,0,0,1,.661-.193,1.848,1.848,0,0,1,.21.012c.069.008.134.017.2.028s.113.023.159.036.082.024.107.033l-.081.381a1.076,1.076,0,0,0-.223-.078,1.446,1.446,0,0,0-.367-.041.678.678,0,0,0-.323.074.244.244,0,0,0-.138.231.306.306,0,0,0,.031.142.312.312,0,0,0,.095.112.785.785,0,0,0,.159.093c.064.028.14.059.228.09.118.045.222.088.315.131a1.008,1.008,0,0,1,.235.15.575.575,0,0,1,.15.207.749.749,0,0,1,.052.3.591.591,0,0,1-.254.519,1.272,1.272,0,0,1-.726.176,1.876,1.876,0,0,1-.514-.055c-.123-.036-.207-.064-.252-.083l.081-.381c.051.019.132.048.243.086A1.4,1.4,0,0,0,29.008,12.629Z" fill="#1d1d1b"/><path d="M31.425,11.644a3.049,3.049,0,0,1,.3.271q.159.162.314.35c.1.126.2.252.293.381a4.043,4.043,0,0,1,.233.359h-.519a3.849,3.849,0,0,0-.23-.34q-.132-.174-.274-.333a4.022,4.022,0,0,0-.29-.293,2.6,2.6,0,0,0-.281-.223v1.189h-.442V9.389l.442-.076v2.255l.252-.252c.092-.092.183-.186.271-.281s.173-.186.253-.273.147-.164.2-.231h.519c-.073.079-.152.166-.238.262s-.175.191-.266.288l-.279.29Z" fill="#1d1d1b"/><path d="M33.209,10.084a.287.287,0,0,1-.2-.079.311.311,0,0,1,0-.423.282.282,0,0,1,.2-.079.279.279,0,0,1,.2.079.308.308,0,0,1,0,.423A.283.283,0,0,1,33.209,10.084Zm.224,2.921H32.99V10.531h.443Z" fill="#1d1d1b"/><path d="M34.032,11.716a1.572,1.572,0,0,1,.1-.574,1.192,1.192,0,0,1,.252-.407,1.03,1.03,0,0,1,.361-.242,1.131,1.131,0,0,1,.419-.081.952.952,0,0,1,.766.312,1.429,1.429,0,0,1,.266.949v.074a.721.721,0,0,1,0,.083H34.494a.9.9,0,0,0,.223.585.819.819,0,0,0,.609.2,1.617,1.617,0,0,0,.393-.041,1.376,1.376,0,0,0,.24-.078l.062.371a1.253,1.253,0,0,1-.283.09,2,2,0,0,1-.459.048,1.475,1.475,0,0,1-.559-.1,1.05,1.05,0,0,1-.388-.269,1.1,1.1,0,0,1-.226-.407A1.725,1.725,0,0,1,34.032,11.716Zm1.7-.243a.741.741,0,0,0-.15-.492.515.515,0,0,0-.426-.193.6.6,0,0,0-.269.059.654.654,0,0,0-.2.155.7.7,0,0,0-.126.219,1.1,1.1,0,0,0-.06.252Z" fill="#1d1d1b"/><path d="M37.91,13.005v-3.3H39.9V10.1H38.372V11.1h1.355v.39H38.372v1.518Z" fill="#1d1d1b"/><path d="M42.263,12.881q-.151.039-.4.081a3.4,3.4,0,0,1-.578.043,1.233,1.233,0,0,1-.48-.083.775.775,0,0,1-.314-.236.944.944,0,0,1-.172-.359,1.868,1.868,0,0,1-.052-.459V10.479h.443v1.294a1.124,1.124,0,0,0,.142.647.557.557,0,0,0,.481.2c.047,0,.1,0,.147-.005s.1-.007.143-.012l.121-.014a.331.331,0,0,0,.079-.017V10.479h.442Z" fill="#1d1d1b"/><path d="M43,10.6c.1-.025.236-.052.4-.081a3.571,3.571,0,0,1,.581-.042,1.247,1.247,0,0,1,.49.083.755.755,0,0,1,.311.233.906.906,0,0,1,.165.359,2.138,2.138,0,0,1,.047.462v1.389h-.442V11.711a2.168,2.168,0,0,0-.031-.39.662.662,0,0,0-.1-.262.4.4,0,0,0-.19-.145.84.84,0,0,0-.295-.045c-.047,0-.1,0-.147,0l-.145.012c-.046.005-.088.011-.124.017l-.079.014v2.089H43Z" fill="#1d1d1b"/><path d="M47.307,9.332l.442-.076v3.621c-.1.028-.231.057-.39.085a3.074,3.074,0,0,1-.547.043,1.389,1.389,0,0,1-.514-.09,1.105,1.105,0,0,1-.39-.257,1.14,1.14,0,0,1-.25-.407,1.553,1.553,0,0,1-.088-.54,1.731,1.731,0,0,1,.074-.523,1.18,1.18,0,0,1,.216-.41.979.979,0,0,1,.35-.266,1.128,1.128,0,0,1,.473-.1,1.147,1.147,0,0,1,.378.057,1.188,1.188,0,0,1,.246.109Zm0,1.665a.917.917,0,0,0-.234-.128.877.877,0,0,0-.333-.062.716.716,0,0,0-.326.069.6.6,0,0,0-.221.19.8.8,0,0,0-.123.288,1.563,1.563,0,0,0-.039.357.956.956,0,0,0,.215.668.733.733,0,0,0,.571.236,2.3,2.3,0,0,0,.3-.017,1.405,1.405,0,0,0,.188-.036Z" fill="#1d1d1b"/><path d="M50.456,12.881q-.152.039-.4.081a3.4,3.4,0,0,1-.578.043,1.233,1.233,0,0,1-.48-.083.775.775,0,0,1-.314-.236.944.944,0,0,1-.172-.359,1.868,1.868,0,0,1-.052-.459V10.479H48.9v1.294a1.124,1.124,0,0,0,.142.647.557.557,0,0,0,.481.2c.047,0,.1,0,.147-.005s.1-.007.143-.012l.121-.014a.331.331,0,0,0,.079-.017V10.479h.442Z" fill="#1d1d1b"/><path d="M51.769,12.629a.878.878,0,0,0,.4-.071.241.241,0,0,0,.131-.229.306.306,0,0,0-.128-.257,2.1,2.1,0,0,0-.424-.214c-.095-.038-.186-.077-.273-.116a1,1,0,0,1-.226-.14.6.6,0,0,1-.152-.2.607.607,0,0,1-.058-.28.629.629,0,0,1,.243-.521,1.032,1.032,0,0,1,.661-.193,1.848,1.848,0,0,1,.21.012c.069.008.135.017.2.028s.113.023.159.036.082.024.107.033l-.081.381a1.076,1.076,0,0,0-.223-.078,1.446,1.446,0,0,0-.367-.041.678.678,0,0,0-.323.074.244.244,0,0,0-.138.231.306.306,0,0,0,.031.142.312.312,0,0,0,.095.112.785.785,0,0,0,.159.093c.064.028.14.059.229.09.117.045.222.088.314.131a.987.987,0,0,1,.235.15.575.575,0,0,1,.15.207.749.749,0,0,1,.052.3.588.588,0,0,1-.254.519,1.272,1.272,0,0,1-.726.176,1.868,1.868,0,0,1-.513-.055A2.648,2.648,0,0,1,51,12.867l.081-.381c.051.019.132.048.243.086A1.4,1.4,0,0,0,51.769,12.629Z" fill="#1d1d1b"/><path d="M54.933,10.864q-.1.109-.264.309c-.109.134-.226.281-.352.443s-.25.331-.376.509-.235.347-.33.509h1.361v.371H53.083V12.71q.114-.209.28-.461t.35-.5q.183-.25.357-.471c.116-.148.216-.272.3-.374H53.149v-.371h1.784Z" fill="#1d1d1b"/><path d="M55.281,11.716a1.573,1.573,0,0,1,.095-.574,1.192,1.192,0,0,1,.252-.407,1.034,1.034,0,0,1,.362-.242,1.126,1.126,0,0,1,.418-.081.951.951,0,0,1,.766.312,1.429,1.429,0,0,1,.267.949v.074a.712.712,0,0,1-.005.083H55.742a.9.9,0,0,0,.224.585.819.819,0,0,0,.609.2,1.614,1.614,0,0,0,.392-.041,1.363,1.363,0,0,0,.241-.078l.062.371a1.265,1.265,0,0,1-.284.09,1.985,1.985,0,0,1-.459.048,1.479,1.479,0,0,1-.559-.1,1.05,1.05,0,0,1-.388-.269,1.124,1.124,0,0,1-.226-.407A1.725,1.725,0,0,1,55.281,11.716Zm1.7-.243a.741.741,0,0,0-.15-.492.514.514,0,0,0-.425-.193.589.589,0,0,0-.269.059.647.647,0,0,0-.2.155.7.7,0,0,0-.126.219,1.049,1.049,0,0,0-.059.252Z" fill="#1d1d1b"/><path d="M1.018,18.435q.723,0,.723-.494a.5.5,0,0,0-.064-.26A.623.623,0,0,0,1.5,17.5a1.183,1.183,0,0,0-.249-.136c-.094-.038-.193-.076-.3-.114a2.845,2.845,0,0,1-.342-.141,1.191,1.191,0,0,1-.281-.185.794.794,0,0,1-.188-.255.932.932,0,0,1,.226-1.032,1.245,1.245,0,0,1,.814-.243,2.177,2.177,0,0,1,.544.064,1.238,1.238,0,0,1,.36.141l-.148.376a1.32,1.32,0,0,0-.3-.122,1.624,1.624,0,0,0-.459-.059,1.024,1.024,0,0,0-.248.028.647.647,0,0,0-.2.086.405.405,0,0,0-.185.352A.439.439,0,0,0,.6,16.48a.516.516,0,0,0,.148.159,1.244,1.244,0,0,0,.221.126c.084.038.177.076.278.114.143.058.274.115.393.172a1.275,1.275,0,0,1,.309.2.825.825,0,0,1,.2.283.99.99,0,0,1,.072.4.779.779,0,0,1-.317.666,1.484,1.484,0,0,1-.892.233,2.337,2.337,0,0,1-.359-.026,2.806,2.806,0,0,1-.293-.062,1.759,1.759,0,0,1-.221-.076c-.062-.027-.11-.05-.145-.069l.138-.381a2.039,2.039,0,0,0,.333.138A1.7,1.7,0,0,0,1.018,18.435Z" fill="#1d1d1b"/><path d="M3.145,16.3h.937v.371H3.145v1.142a1.378,1.378,0,0,0,.028.307.459.459,0,0,0,.086.19.308.308,0,0,0,.143.1.607.607,0,0,0,.2.029.944.944,0,0,0,.321-.045l.169-.064.085.366a1.616,1.616,0,0,1-.233.083,1.3,1.3,0,0,1-.38.05,1.153,1.153,0,0,1-.417-.064.61.61,0,0,1-.264-.193.763.763,0,0,1-.14-.316,2.075,2.075,0,0,1-.041-.435V15.614l.443-.076Z" fill="#1d1d1b"/><path d="M5.533,16.309a1.3,1.3,0,0,1,.131.007c.049,0,.1.011.145.019l.131.023c.04.009.069.016.088.022l-.076.385a1.451,1.451,0,0,0-.485-.071,1.185,1.185,0,0,0-.245.026c-.081.017-.134.029-.16.036v2.079H4.62V16.466a2.986,2.986,0,0,1,.39-.108A2.527,2.527,0,0,1,5.533,16.309Z" fill="#1d1d1b"/><path d="M8.4,18.711q-.151.039-.4.081a3.4,3.4,0,0,1-.578.043,1.233,1.233,0,0,1-.48-.083.775.775,0,0,1-.314-.236.944.944,0,0,1-.172-.359A1.868,1.868,0,0,1,6.4,17.7V16.309h.443V17.6a1.124,1.124,0,0,0,.142.647.556.556,0,0,0,.481.2c.047,0,.1,0,.147,0s.1-.007.143-.012l.121-.014A.331.331,0,0,0,7.96,18.4V16.309H8.4Z" fill="#1d1d1b"/><path d="M10.034,17.474a3.049,3.049,0,0,1,.3.271c.107.108.211.225.314.35s.2.252.293.381a4.043,4.043,0,0,1,.233.359h-.518a4.1,4.1,0,0,0-.231-.34q-.132-.174-.274-.333a4.022,4.022,0,0,0-.29-.293,2.5,2.5,0,0,0-.281-.223v1.189H9.14V15.219l.442-.076V17.4l.252-.252c.092-.092.183-.186.272-.281s.173-.186.252-.273.147-.165.2-.231h.519c-.073.079-.152.166-.238.261s-.174.192-.266.288-.185.194-.279.291Z" fill="#1d1d1b"/><path d="M12.013,16.3h.938v.371h-.938v1.142a1.371,1.371,0,0,0,.029.307.459.459,0,0,0,.086.19.3.3,0,0,0,.142.1.607.607,0,0,0,.2.029.944.944,0,0,0,.321-.045l.169-.064.086.366a1.664,1.664,0,0,1-.233.083,1.3,1.3,0,0,1-.381.05,1.147,1.147,0,0,1-.416-.064.6.6,0,0,1-.264-.193.764.764,0,0,1-.141-.316,2.079,2.079,0,0,1-.04-.435V15.614l.442-.076Z" fill="#1d1d1b"/><path d="M15.458,18.711c-.1.026-.236.053-.4.081a3.408,3.408,0,0,1-.578.043A1.238,1.238,0,0,1,14,18.752a.782.782,0,0,1-.314-.236.957.957,0,0,1-.171-.359,1.868,1.868,0,0,1-.052-.459V16.309H13.9V17.6a1.123,1.123,0,0,0,.143.647.556.556,0,0,0,.481.2c.047,0,.1,0,.147,0s.1-.007.143-.012l.121-.014a.331.331,0,0,0,.079-.017V16.309h.442Z" fill="#1d1d1b"/><path d="M17.109,16.309a1.3,1.3,0,0,1,.131.007c.049,0,.1.011.145.019l.131.023c.039.009.069.016.088.022l-.076.385a1.452,1.452,0,0,0-.486-.071,1.193,1.193,0,0,0-.245.026q-.122.026-.159.036v2.079H16.2V16.466a2.961,2.961,0,0,1,.391-.108A2.527,2.527,0,0,1,17.109,16.309Z" fill="#1d1d1b"/><path d="M18.808,16.251a1.28,1.28,0,0,1,.449.069.71.71,0,0,1,.455.5,1.483,1.483,0,0,1,.047.383v1.547l-.159.026c-.069.011-.145.021-.231.031s-.178.018-.278.026-.2.012-.3.012a1.656,1.656,0,0,1-.385-.043.876.876,0,0,1-.3-.136.628.628,0,0,1-.2-.245.862.862,0,0,1-.071-.366.71.71,0,0,1,.083-.352.67.67,0,0,1,.226-.238,1.052,1.052,0,0,1,.334-.133,1.775,1.775,0,0,1,.4-.043,1.3,1.3,0,0,1,.138.007c.048,0,.093.011.136.019l.112.021.066.015v-.124a.98.98,0,0,0-.024-.216.5.5,0,0,0-.085-.191.444.444,0,0,0-.169-.133.668.668,0,0,0-.278-.05,2.071,2.071,0,0,0-.384.031,1.405,1.405,0,0,0-.245.064l-.052-.366a1.389,1.389,0,0,1,.286-.074A2.439,2.439,0,0,1,18.808,16.251Zm.038,2.218c.1,0,.2,0,.278-.007a1.2,1.2,0,0,0,.2-.027V17.7a.554.554,0,0,0-.155-.041,1.73,1.73,0,0,0-.259-.016,1.764,1.764,0,0,0-.211.014.618.618,0,0,0-.205.06.437.437,0,0,0-.155.123.325.325,0,0,0-.062.207.355.355,0,0,0,.153.331A.789.789,0,0,0,18.846,18.469Z" fill="#1d1d1b"/><path d="M21.21,18.835a.845.845,0,0,1-.58-.176.7.7,0,0,1-.171-.519V15.171L20.9,15.1v2.974a.707.707,0,0,0,.019.181.251.251,0,0,0,.062.114.268.268,0,0,0,.114.064,1.284,1.284,0,0,0,.176.036Z" fill="#1d1d1b"/><path d="M21.743,16.432c.1-.025.236-.052.4-.081a3.579,3.579,0,0,1,.581-.042,1.243,1.243,0,0,1,.49.083.764.764,0,0,1,.312.233.919.919,0,0,1,.164.359,2.077,2.077,0,0,1,.047.462v1.389H23.3V17.541a2.073,2.073,0,0,0-.031-.39.677.677,0,0,0-.1-.262.4.4,0,0,0-.191-.145.836.836,0,0,0-.3-.045c-.047,0-.1,0-.147,0l-.145.012c-.046,0-.088.011-.124.017l-.078.014v2.089h-.443Z" fill="#1d1d1b"/><path d="M24.312,17.546a1.572,1.572,0,0,1,.1-.574,1.192,1.192,0,0,1,.252-.407,1.03,1.03,0,0,1,.361-.242,1.131,1.131,0,0,1,.419-.081.952.952,0,0,1,.766.312,1.429,1.429,0,0,1,.266.949v.074a.721.721,0,0,1,0,.083H24.774a.9.9,0,0,0,.224.585.815.815,0,0,0,.608.2A1.617,1.617,0,0,0,26,18.4a1.468,1.468,0,0,0,.24-.078l.062.371a1.253,1.253,0,0,1-.283.09,2,2,0,0,1-.459.048,1.455,1.455,0,0,1-.559-.1,1.048,1.048,0,0,1-.388-.268,1.1,1.1,0,0,1-.226-.407A1.725,1.725,0,0,1,24.312,17.546Zm1.7-.243a.746.746,0,0,0-.15-.493.517.517,0,0,0-.426-.192.6.6,0,0,0-.269.059.639.639,0,0,0-.2.155.7.7,0,0,0-.126.219,1.1,1.1,0,0,0-.06.252Z" fill="#1d1d1b"/><path d="M28.38,15.914a.285.285,0,0,1-.2-.079.311.311,0,0,1,0-.423.3.3,0,0,1,.4,0,.308.308,0,0,1,0,.423A.285.285,0,0,1,28.38,15.914Zm.224,2.921h-.443V16.361H28.6Z" fill="#1d1d1b"/><path d="M30.445,15.538h.462v3.3h-.462Z" fill="#1d1d1b"/><path d="M31.673,16.432c.1-.025.236-.052.4-.081a3.566,3.566,0,0,1,.58-.042,1.243,1.243,0,0,1,.49.083.758.758,0,0,1,.312.233.891.891,0,0,1,.164.359,2.074,2.074,0,0,1,.048.462v1.389h-.443V17.541a2.17,2.17,0,0,0-.03-.39.662.662,0,0,0-.1-.262.4.4,0,0,0-.19-.145.84.84,0,0,0-.3-.045c-.048,0-.1,0-.148,0l-.145.012c-.046,0-.087.011-.123.017l-.079.014v2.089h-.442Z" fill="#1d1d1b"/><path d="M36.335,18.835q-.133-.342-.283-.783t-.273-.916c-.083.318-.173.623-.272.916s-.192.555-.28.783h-.386q-.219-.491-.428-1.118t-.395-1.356h.476c.032.149.07.311.114.485s.091.349.14.523.1.343.155.5.105.3.152.423q.081-.224.16-.473t.15-.5q.07-.255.135-.5c.043-.163.08-.316.112-.459h.366q.043.215.1.459c.041.163.086.33.133.5s.1.337.15.5.1.324.16.473c.047-.12.1-.261.149-.423s.1-.33.155-.5.1-.348.143-.523.082-.336.114-.485h.457q-.186.727-.395,1.356t-.428,1.118Z" fill="#1d1d1b"/><path d="M37.848,17.546a1.6,1.6,0,0,1,.095-.574,1.209,1.209,0,0,1,.253-.407,1.03,1.03,0,0,1,.361-.242,1.127,1.127,0,0,1,.419-.081.952.952,0,0,1,.766.312,1.435,1.435,0,0,1,.266.949v.074a.721.721,0,0,1,0,.083H38.31a.9.9,0,0,0,.223.585.819.819,0,0,0,.609.2,1.617,1.617,0,0,0,.393-.041,1.468,1.468,0,0,0,.24-.078l.062.371a1.253,1.253,0,0,1-.283.09,2,2,0,0,1-.459.048,1.455,1.455,0,0,1-.559-.1,1.04,1.04,0,0,1-.388-.268,1.1,1.1,0,0,1-.226-.407A1.725,1.725,0,0,1,37.848,17.546Zm1.7-.243a.746.746,0,0,0-.15-.493.517.517,0,0,0-.426-.192.6.6,0,0,0-.269.059.628.628,0,0,0-.2.155.7.7,0,0,0-.126.219,1.1,1.1,0,0,0-.06.252Z" fill="#1d1d1b"/><path d="M41.2,18.459a.881.881,0,0,0,.4-.071.243.243,0,0,0,.131-.229A.3.3,0,0,0,41.6,17.9a2.09,2.09,0,0,0-.423-.214c-.1-.038-.187-.077-.274-.116a.987.987,0,0,1-.226-.141.608.608,0,0,1-.152-.2.621.621,0,0,1-.057-.28.631.631,0,0,1,.242-.521,1.035,1.035,0,0,1,.662-.193,1.831,1.831,0,0,1,.209.012c.07.008.135.017.2.028s.114.023.16.036l.107.033-.081.381a1.142,1.142,0,0,0-.224-.079,1.436,1.436,0,0,0-.366-.04.68.68,0,0,0-.324.074.244.244,0,0,0-.138.23.321.321,0,0,0,.031.143.343.343,0,0,0,.095.112.814.814,0,0,0,.16.093c.063.028.139.059.228.09.117.045.222.088.314.131a.994.994,0,0,1,.236.15.561.561,0,0,1,.149.207.748.748,0,0,1,.053.3.589.589,0,0,1-.255.519,1.267,1.267,0,0,1-.725.176,1.876,1.876,0,0,1-.514-.055,2.5,2.5,0,0,1-.252-.083l.081-.381c.05.019.131.048.242.086A1.406,1.406,0,0,0,41.2,18.459Z" fill="#1d1d1b"/><path d="M43.134,16.3h.937v.371h-.937v1.142a1.371,1.371,0,0,0,.029.307.459.459,0,0,0,.085.19.308.308,0,0,0,.143.1.607.607,0,0,0,.2.029.944.944,0,0,0,.321-.045l.169-.064.086.366a1.69,1.69,0,0,1-.234.083,1.3,1.3,0,0,1-.38.05,1.157,1.157,0,0,1-.417-.064.61.61,0,0,1-.264-.193.776.776,0,0,1-.14-.316,2.079,2.079,0,0,1-.04-.435V15.614l.442-.076Z" fill="#1d1d1b"/><path d="M44.319,19.3a.887.887,0,0,0,.136.046.665.665,0,0,0,.164.021.65.65,0,0,0,.409-.116,1,1,0,0,0,.266-.379q-.3-.57-.559-1.211a10.408,10.408,0,0,1-.43-1.3h.475c.035.143.077.3.127.461s.1.335.164.509.125.349.2.524.142.342.219.5q.18-.5.314-.99t.252-1.008h.457q-.173.7-.381,1.344t-.452,1.206a2.5,2.5,0,0,1-.2.369,1.081,1.081,0,0,1-.226.254.819.819,0,0,1-.278.148,1.215,1.215,0,0,1-.35.047.829.829,0,0,1-.109-.007c-.038-.005-.075-.011-.112-.019a1.032,1.032,0,0,1-.1-.026.368.368,0,0,1-.064-.024Z" fill="#1d1d1b"/><path d="M48.025,18.84a1.357,1.357,0,0,1-.526-.095,1.071,1.071,0,0,1-.38-.267,1.111,1.111,0,0,1-.231-.407,1.677,1.677,0,0,1-.076-.521,1.589,1.589,0,0,1,.083-.523,1.237,1.237,0,0,1,.236-.412,1.062,1.062,0,0,1,.373-.271,1.212,1.212,0,0,1,.493-.1,1.97,1.97,0,0,1,.333.028,1.5,1.5,0,0,1,.319.091l-.1.376a1.061,1.061,0,0,0-.231-.077,1.3,1.3,0,0,0-.278-.028.705.705,0,0,0-.569.233,1.024,1.024,0,0,0-.2.68,1.4,1.4,0,0,0,.046.367.749.749,0,0,0,.142.285.626.626,0,0,0,.25.183.951.951,0,0,0,.371.065,1.412,1.412,0,0,0,.319-.034,1.192,1.192,0,0,0,.224-.071l.062.371a.457.457,0,0,1-.11.045,1.5,1.5,0,0,1-.162.038c-.06.011-.124.021-.192.029A1.708,1.708,0,0,1,48.025,18.84Z" fill="#1d1d1b"/><path d="M48.9,19.3a.909.909,0,0,0,.135.046.671.671,0,0,0,.164.021.651.651,0,0,0,.41-.116,1,1,0,0,0,.266-.379q-.3-.57-.559-1.211a10.581,10.581,0,0,1-.431-1.3h.476c.035.143.077.3.126.461s.1.335.164.509.126.349.2.524.143.342.219.5q.181-.5.314-.99t.252-1.008h.457q-.171.7-.38,1.344t-.452,1.206a2.6,2.6,0,0,1-.2.369,1.081,1.081,0,0,1-.226.254.819.819,0,0,1-.278.148,1.215,1.215,0,0,1-.35.047.829.829,0,0,1-.109-.007c-.038-.005-.076-.011-.112-.019a.961.961,0,0,1-.1-.026.338.338,0,0,1-.064-.024Z" fill="#1d1d1b"/><path d="M51.127,19.725a.932.932,0,0,1-.147-.015.715.715,0,0,1-.152-.038l.057-.361a1.009,1.009,0,0,0,.109.024.791.791,0,0,0,.114.009.37.37,0,0,0,.326-.14.722.722,0,0,0,.1-.412V16.361h.442v2.426a1,1,0,0,1-.216.707A.825.825,0,0,1,51.127,19.725Zm.623-3.811a.287.287,0,0,1-.2-.079.311.311,0,0,1,0-.423.3.3,0,0,1,.405,0,.311.311,0,0,1,0,.423A.287.287,0,0,1,51.75,15.914Z" fill="#1d1d1b"/><path d="M52.712,16.432c.1-.025.236-.052.4-.081a3.571,3.571,0,0,1,.581-.042,1.25,1.25,0,0,1,.49.083.761.761,0,0,1,.311.233.891.891,0,0,1,.164.359,2.074,2.074,0,0,1,.048.462v1.389h-.443V17.541a2.17,2.17,0,0,0-.03-.39.662.662,0,0,0-.1-.262.4.4,0,0,0-.19-.145.84.84,0,0,0-.3-.045c-.048,0-.1,0-.148,0l-.145.012c-.046,0-.087.011-.123.017l-.079.014v2.089h-.442Z" fill="#1d1d1b"/><path d="M55.281,17.546a1.573,1.573,0,0,1,.095-.574,1.192,1.192,0,0,1,.252-.407,1.034,1.034,0,0,1,.362-.242,1.126,1.126,0,0,1,.418-.081.951.951,0,0,1,.766.312,1.429,1.429,0,0,1,.267.949v.074a.712.712,0,0,1-.005.083H55.742a.9.9,0,0,0,.224.585.819.819,0,0,0,.609.2,1.614,1.614,0,0,0,.392-.041,1.452,1.452,0,0,0,.241-.078l.062.371a1.265,1.265,0,0,1-.284.09,1.985,1.985,0,0,1-.459.048,1.459,1.459,0,0,1-.559-.1,1.048,1.048,0,0,1-.388-.268,1.124,1.124,0,0,1-.226-.407A1.725,1.725,0,0,1,55.281,17.546Zm1.7-.243a.746.746,0,0,0-.15-.493.516.516,0,0,0-.425-.192.589.589,0,0,0-.269.059.632.632,0,0,0-.2.155.7.7,0,0,0-.126.219,1.049,1.049,0,0,0-.059.252Z" fill="#1d1d1b"/><path d="M7.329,6.354a2.345,2.345,0,0,1-.88-.148,1.626,1.626,0,0,1-.609-.414,1.689,1.689,0,0,1-.357-.628,2.584,2.584,0,0,1-.115-.793V1.249h.915V4.285a1.966,1.966,0,0,0,.076.58,1.03,1.03,0,0,0,.216.393.866.866,0,0,0,.332.223,1.184,1.184,0,0,0,.429.073,1.218,1.218,0,0,0,.433-.073A.862.862,0,0,0,8.1,5.258a1,1,0,0,0,.216-.393,1.933,1.933,0,0,0,.076-.58V1.249h.915V4.371a2.523,2.523,0,0,1-.118.793,1.74,1.74,0,0,1-.361.628,1.622,1.622,0,0,1-.616.414A2.406,2.406,0,0,1,7.329,6.354Z" fill="#1d1d1b"/><path d="M10.386,2.7a5.8,5.8,0,0,1,.656-.137,5.567,5.567,0,0,1,.894-.065,2.059,2.059,0,0,1,.771.126,1.2,1.2,0,0,1,.494.353,1.348,1.348,0,0,1,.26.548,3.087,3.087,0,0,1,.075.7v2.12h-.872V4.364a2.8,2.8,0,0,0-.04-.515.9.9,0,0,0-.13-.347.519.519,0,0,0-.245-.194,1.024,1.024,0,0,0-.378-.062,2.991,2.991,0,0,0-.346.022c-.12.014-.209.027-.267.036V6.347h-.872Z" fill="#1d1d1b"/><path d="M15.533,1.473a.5.5,0,0,1-.158.389A.54.54,0,0,1,15,2.006a.547.547,0,0,1-.382-.144.5.5,0,0,1-.159-.389.511.511,0,0,1,.159-.4A.547.547,0,0,1,15,.932a.54.54,0,0,1,.375.144A.514.514,0,0,1,15.533,1.473ZM15.44,6.347h-.873V2.576h.873Z" fill="#1d1d1b"/><path d="M17.761,2.41a2.137,2.137,0,0,1,.728.108,1.161,1.161,0,0,1,.472.3,1.14,1.14,0,0,1,.253.472,2.338,2.338,0,0,1,.075.61V6.188q-.2.043-.609.105a6.337,6.337,0,0,1-.919.061,2.77,2.77,0,0,1-.62-.065,1.306,1.306,0,0,1-.48-.209.991.991,0,0,1-.31-.375,1.31,1.31,0,0,1-.111-.57,1.1,1.1,0,0,1,.126-.548,1.045,1.045,0,0,1,.342-.364,1.476,1.476,0,0,1,.5-.2A2.811,2.811,0,0,1,17.8,3.96a2.7,2.7,0,0,1,.3.018,2.786,2.786,0,0,1,.339.062V3.9a1.125,1.125,0,0,0-.036-.288.593.593,0,0,0-.126-.241.6.6,0,0,0-.238-.163,1.047,1.047,0,0,0-.372-.057,3.283,3.283,0,0,0-.555.043,2.415,2.415,0,0,0-.411.1L16.6,2.583a3.476,3.476,0,0,1,.483-.115A3.747,3.747,0,0,1,17.761,2.41Zm.072,3.252a3.228,3.228,0,0,0,.613-.044V4.652a1.715,1.715,0,0,0-.209-.043,2.014,2.014,0,0,0-.3-.022,2.072,2.072,0,0,0-.292.022.905.905,0,0,0-.267.079.489.489,0,0,0-.191.163.451.451,0,0,0-.072.263.462.462,0,0,0,.2.429A1.007,1.007,0,0,0,17.833,5.662Z" fill="#1d1d1b"/><path d="M21.993,6.347v-5H25.2v.772H22.9V3.355h2.048v.757H22.9V5.575h2.473v.772Z" fill="#1d1d1b"/><path d="M29.1,6.152c-.169.043-.387.088-.656.133a5.289,5.289,0,0,1-.887.069,1.947,1.947,0,0,1-.761-.13,1.211,1.211,0,0,1-.49-.36,1.416,1.416,0,0,1-.263-.552,2.919,2.919,0,0,1-.08-.7V2.5h.873V4.472a1.6,1.6,0,0,0,.176.865.693.693,0,0,0,.617.26c.106,0,.217-.005.335-.015a1.608,1.608,0,0,0,.263-.036V2.5H29.1Z" fill="#1d1d1b"/><path d="M32.317,3.362a2.932,2.932,0,0,0-.3-.076,2.226,2.226,0,0,0-.443-.04,1.774,1.774,0,0,0-.307.029,1.844,1.844,0,0,0-.227.051V6.347h-.872V2.756a4.826,4.826,0,0,1,.63-.176,3.9,3.9,0,0,1,.84-.083,1.953,1.953,0,0,1,.2.011c.077.007.154.016.231.028s.151.027.223.044.13.032.174.046Z" fill="#1d1d1b"/><path d="M36.441,4.364a2.423,2.423,0,0,1-.13.815,1.8,1.8,0,0,1-.367.627,1.655,1.655,0,0,1-.574.4,1.849,1.849,0,0,1-.739.144A1.826,1.826,0,0,1,33.9,6.21a1.667,1.667,0,0,1-.57-.4,1.859,1.859,0,0,1-.371-.627,2.374,2.374,0,0,1-.133-.815,2.343,2.343,0,0,1,.133-.811,1.824,1.824,0,0,1,.375-.624,1.661,1.661,0,0,1,.573-.4,1.842,1.842,0,0,1,.728-.141,1.866,1.866,0,0,1,.732.141,1.606,1.606,0,0,1,.573.4,1.85,1.85,0,0,1,.372.624A2.343,2.343,0,0,1,36.441,4.364Zm-.894,0a1.469,1.469,0,0,0-.241-.89.858.858,0,0,0-1.349,0,1.469,1.469,0,0,0-.241.89,1.5,1.5,0,0,0,.241.9.851.851,0,0,0,1.349,0A1.5,1.5,0,0,0,35.547,4.364Z" fill="#1d1d1b"/><path d="M40.7,4.465a2.685,2.685,0,0,1-.112.793,1.85,1.85,0,0,1-.321.62,1.415,1.415,0,0,1-.523.4,1.68,1.68,0,0,1-.71.144,1.76,1.76,0,0,1-.49-.065,1.81,1.81,0,0,1-.368-.144V7.68H37.3V2.7c.178-.048.4-.094.656-.137a4.926,4.926,0,0,1,.822-.065,2.182,2.182,0,0,1,.8.137,1.656,1.656,0,0,1,.6.393,1.721,1.721,0,0,1,.382.62A2.359,2.359,0,0,1,40.7,4.465Zm-.894.014a1.407,1.407,0,0,0-.263-.908,1.031,1.031,0,0,0-.848-.325c-.081,0-.167,0-.256.011a1.5,1.5,0,0,0-.263.047V5.46a1.354,1.354,0,0,0,.307.148,1.211,1.211,0,0,0,.407.068.782.782,0,0,0,.7-.324A1.539,1.539,0,0,0,39.8,4.479Z" fill="#1d1d1b"/><path d="M41.343,4.393a2.386,2.386,0,0,1,.148-.873,1.854,1.854,0,0,1,.393-.623,1.626,1.626,0,0,1,.563-.375A1.738,1.738,0,0,1,43.1,2.4a1.553,1.553,0,0,1,1.215.483,2.09,2.09,0,0,1,.436,1.442q0,.072,0,.162c0,.06-.006.114-.011.162H42.245a.994.994,0,0,0,.321.7,1.214,1.214,0,0,0,.825.249,2.669,2.669,0,0,0,.58-.058,2.373,2.373,0,0,0,.415-.122l.115.713a1.341,1.341,0,0,1-.2.076,2.518,2.518,0,0,1-.288.072c-.108.022-.225.04-.35.054a3.2,3.2,0,0,1-.382.022,2.3,2.3,0,0,1-.865-.148,1.6,1.6,0,0,1-.606-.411,1.689,1.689,0,0,1-.353-.62A2.525,2.525,0,0,1,41.343,4.393ZM43.874,4a1.166,1.166,0,0,0-.05-.343.828.828,0,0,0-.148-.281.707.707,0,0,0-.238-.188.861.861,0,0,0-.689.008.8.8,0,0,0-.256.2.93.93,0,0,0-.162.281A1.526,1.526,0,0,0,42.252,4Z" fill="#1d1d1b"/><path d="M45.143,7.688c-.063,0-.15-.006-.263-.018a1.143,1.143,0,0,1-.3-.069l.115-.714a1.257,1.257,0,0,0,.382.051.479.479,0,0,0,.425-.177.93.93,0,0,0,.123-.53V2.576H46.5v3.67a1.491,1.491,0,0,1-.349,1.088A1.353,1.353,0,0,1,45.143,7.688Zm1.449-6.215a.5.5,0,0,1-.158.389.54.54,0,0,1-.375.144.551.551,0,0,1-.383-.144.5.5,0,0,1-.158-.389.514.514,0,0,1,.158-.4.551.551,0,0,1,.383-.144.54.54,0,0,1,.375.144A.514.514,0,0,1,46.592,1.473Z" fill="#1d1d1b"/><path d="M48.51,5.633a1.153,1.153,0,0,0,.505-.083.3.3,0,0,0,.158-.285A.369.369,0,0,0,49,4.955a2.55,2.55,0,0,0-.559-.267,4.407,4.407,0,0,1-.436-.183,1.484,1.484,0,0,1-.343-.228.927.927,0,0,1-.227-.313,1.1,1.1,0,0,1-.083-.451.982.982,0,0,1,.383-.818,1.641,1.641,0,0,1,1.038-.3,3.452,3.452,0,0,1,1.088.18l-.158.706a2.2,2.2,0,0,0-.887-.172.907.907,0,0,0-.433.09.3.3,0,0,0-.165.277.394.394,0,0,0,.032.166.353.353,0,0,0,.112.133,1.131,1.131,0,0,0,.209.123,3.073,3.073,0,0,0,.317.126,4.9,4.9,0,0,1,.526.227,1.405,1.405,0,0,1,.357.253.863.863,0,0,1,.206.32,1.294,1.294,0,0,1,.065.433.932.932,0,0,1-.4.818,1.988,1.988,0,0,1-1.142.278,3.145,3.145,0,0,1-.8-.083,4.362,4.362,0,0,1-.425-.133l.152-.729a3.8,3.8,0,0,0,.465.152A2.4,2.4,0,0,0,48.51,5.633Z" fill="#1d1d1b"/><path d="M51.689,4.047c.111-.116.229-.239.354-.372s.247-.264.367-.4.235-.26.343-.382.2-.23.277-.321h1.031q-.36.4-.76.836t-.8.844a5.134,5.134,0,0,1,.454.436c.159.171.312.352.461.544s.289.385.419.577a5.834,5.834,0,0,1,.324.534H53.146c-.087-.149-.187-.306-.3-.469s-.234-.322-.364-.476-.262-.3-.4-.436a3.5,3.5,0,0,0-.4-.35V6.347h-.872V1.494l.872-.144Z" fill="#1d1d1b"/><path d="M56,2.41a2.137,2.137,0,0,1,.728.108,1.161,1.161,0,0,1,.472.3,1.127,1.127,0,0,1,.252.472,2.3,2.3,0,0,1,.076.61V6.188q-.2.043-.609.105A6.347,6.347,0,0,1,56,6.354a2.77,2.77,0,0,1-.62-.065,1.3,1.3,0,0,1-.48-.209.991.991,0,0,1-.31-.375,1.31,1.31,0,0,1-.112-.57,1.091,1.091,0,0,1,.127-.548,1.045,1.045,0,0,1,.342-.364,1.476,1.476,0,0,1,.5-.2,2.811,2.811,0,0,1,.595-.062,2.7,2.7,0,0,1,.3.018,2.857,2.857,0,0,1,.339.062V3.9a1.125,1.125,0,0,0-.036-.288.608.608,0,0,0-.127-.241.591.591,0,0,0-.238-.163,1.037,1.037,0,0,0-.371-.057,3.275,3.275,0,0,0-.555.043,2.415,2.415,0,0,0-.411.1l-.108-.707a3.4,3.4,0,0,1,.483-.115A3.731,3.731,0,0,1,56,2.41Zm.072,3.252a3.228,3.228,0,0,0,.613-.044V4.652a1.739,1.739,0,0,0-.21-.043,1.991,1.991,0,0,0-.3-.022,2.072,2.072,0,0,0-.292.022.905.905,0,0,0-.267.079.489.489,0,0,0-.191.163.451.451,0,0,0-.072.263.463.463,0,0,0,.194.429A1.011,1.011,0,0,0,56.073,5.662Z" fill="#1d1d1b"/></g></g></svg>