<svg data-name="Layer 1" xmlns="http://www.w3.org/2000/svg" width="389.76" height="70.866" viewBox="0 0 389.76 70.866"><path d="M90.515 41.234L84.603 56.51l-3.151-7.97-3.037 7.97-6.187-15.277h2.922l4.041 10.344 1.667-4.384-2.443-5.96h2.899l3.996 10.162 3.767-10.162zm31.2-17.242q0 5.778-5.252 5.777a5.258 5.258 0 0 1-4.019-1.576 4.255 4.255 0 0 1-1.05-1.963 9.64 9.64 0 0 1-.205-2.238v-9.5h2.762v8.997a7.06 7.06 0 0 0 .64 3.517 3.418 3.418 0 0 0 5.16.023 7.18 7.18 0 0 0 .64-3.54v-8.997h1.324v9.5zm14.246 5.412h-3.106l-3.995-7.558a6.78 6.78 0 0 0 3.287-.857 2.542 2.542 0 0 0 1.005-2.25q0-3.288-3.858-3.288h-1.14v13.953h-2.764V14.492h4.886q5.616 0 5.616 4.361a3.3 3.3 0 0 1-1.005 2.535 4.392 4.392 0 0 1-2.876 1.028l3.95 6.988zm13.333-14.912l-8.402 13.793h8.242v1.12h-12.009l8.424-13.795h-7.58v-1.118zm13.287 18.406h-1.873l-1.62-1.69a1.256 1.256 0 0 1-.39-.867 1.275 1.275 0 0 1 .39-.937l-1.552-3.973H152.4l-1.53 3.973h-1.325l6.118-15.232 6.37 15.232h-1.004q-.708 0-.707.868a1.198 1.198 0 0 0 .41.707l1.85 1.92zm-5.457-8.404l-2.168-5.435-2.17 5.435zm19.658-2.215a6.918 6.918 0 0 1-1.998 5.161 7.214 7.214 0 0 1-5.286 1.964h-5.639V14.492h3.654a10.213 10.213 0 0 1 6.825 2.078 7.098 7.098 0 0 1 2.444 5.71zm-2.969-.366a6.419 6.419 0 0 0-1.586-4.68 6.117 6.117 0 0 0-4.578-1.623h-1.05v12.675h1.643a5.532 5.532 0 0 0 3.676-.982q1.895-1.667 1.895-5.39zm26.668 7.491h-2.695V17.415l-5.046 12.537-5.273-12.537v11.99h-1.28V14.491h3.129l4.2 10.208 4.04-10.208h2.925v14.912zm14.268 0h-2.944l-1.553-3.974h-5.137l-1.529 3.974h-1.325l6.12-15.232 6.368 15.232zm-4.908-4.91l-2.169-5.435-2.17 5.435zm17.305 4.91h-3.104l-3.996-7.559a6.783 6.783 0 0 0 3.288-.856 2.541 2.541 0 0 0 1.004-2.25q0-3.288-3.858-3.288h-1.142v13.953h-2.762V14.492h4.886q5.616 0 5.616 4.361a3.296 3.296 0 0 1-1.004 2.535 4.398 4.398 0 0 1-2.877 1.028l3.949 6.988zm11.439-4.248a4.333 4.333 0 0 1-1.393 3.312 4.947 4.947 0 0 1-3.516 1.301 5.173 5.173 0 0 1-4.589-2.42l1.096-.777a3.205 3.205 0 0 0 2.899 1.987 2.614 2.614 0 0 0 1.952-.754 2.644 2.644 0 0 0 .743-1.94 2.474 2.474 0 0 0-.936-2.033 11.072 11.072 0 0 0-2.444-1.233 6.57 6.57 0 0 1-2.466-1.576 3.589 3.589 0 0 1-.82-2.42 4.245 4.245 0 0 1 1.29-3.175 4.593 4.593 0 0 1 3.344-1.256 4.394 4.394 0 0 1 4.406 2.65l-.982.662a2.864 2.864 0 0 0-2.853-2.17 2.388 2.388 0 0 0-1.781.696 2.478 2.478 0 0 0-.685 1.816 2.155 2.155 0 0 0 .73 1.667 6.797 6.797 0 0 0 1.963 1.142 10.625 10.625 0 0 1 2.946 1.69 3.736 3.736 0 0 1 1.096 2.83zm13.425-10.664l-8.402 13.793h8.242v1.12h-12.009l8.424-13.795h-7.579v-1.118zm12.739 14.912h-2.944l-1.554-3.974h-5.137l-1.529 3.974h-1.325l6.119-15.232 6.37 15.232zm-4.91-4.91l-2.168-5.435-2.169 5.435zm15.96 4.91h-9.224v-6.737l-1.255.845v-1.119l1.255-.914v-6.987h2.763v5.206l2.968-2.032v1.21l-2.968 2.01v7.399h6.46v1.12zm12.215 0h-3.265l-4.407-7.467 5.502-7.445h1.713l-4.657 6.394 5.114 8.518zm-7.831 0h-2.763V14.492h2.763v14.912zm23.219-7.422a7.484 7.484 0 0 1-2.25 5.583 7.41 7.41 0 0 1-5.375 2.204 7.334 7.334 0 0 1-5.389-2.215 7.554 7.554 0 0 1-2.215-5.572 7.511 7.511 0 0 1 2.249-5.606 7.385 7.385 0 0 1 5.355-2.204 7.55 7.55 0 0 1 4.52 1.485 7.376 7.376 0 0 1 3.105 6.325zm-2.97 0a8.49 8.49 0 0 0-1.346-5.023 3.913 3.913 0 0 0-6.621 0 8.56 8.56 0 0 0-1.347 5.023 8.402 8.402 0 0 0 1.324 4.967 3.916 3.916 0 0 0 6.668 0 8.403 8.403 0 0 0 1.323-4.967zm21.873-7.49l-5.913 15.278-3.15-7.97-3.037 7.97-6.188-15.278h2.923l4.04 10.345 1.668-4.384-2.443-5.96h2.9l3.994 10.161 3.768-10.162zm10.48 10.664a4.334 4.334 0 0 1-1.393 3.312 4.95 4.95 0 0 1-3.516 1.302 5.168 5.168 0 0 1-4.588-2.42l1.095-.777a3.203 3.203 0 0 0 2.899 1.986 2.616 2.616 0 0 0 1.952-.753 2.648 2.648 0 0 0 .742-1.941 2.474 2.474 0 0 0-.935-2.033 11.076 11.076 0 0 0-2.444-1.233 6.568 6.568 0 0 1-2.466-1.576 3.593 3.593 0 0 1-.821-2.42 4.245 4.245 0 0 1 1.29-3.175 4.593 4.593 0 0 1 3.344-1.255 4.394 4.394 0 0 1 4.407 2.649l-.982.662a2.866 2.866 0 0 0-2.853-2.17 2.39 2.39 0 0 0-1.782.696 2.482 2.482 0 0 0-.685 1.816 2.16 2.16 0 0 0 .73 1.667 6.792 6.792 0 0 0 1.965 1.142 10.622 10.622 0 0 1 2.944 1.69 3.737 3.737 0 0 1 1.097 2.83zm13.424 4.249h-3.264l-4.407-7.467 5.502-7.446h1.713l-4.657 6.395 5.113 8.518zm-7.83 0h-2.763V14.492h2.763v14.912zm12.42 0h-2.74V14.492h2.74v14.912zM106.451 48.723a7.605 7.605 0 0 1-7.626 7.788 7.337 7.337 0 0 1-5.388-2.215 8.115 8.115 0 0 1 .035-11.179 7.385 7.385 0 0 1 5.353-2.203 7.544 7.544 0 0 1 4.52 1.484 7.374 7.374 0 0 1 3.106 6.325zm-2.968 0a8.493 8.493 0 0 0-1.348-5.023 3.913 3.913 0 0 0-6.62 0 8.563 8.563 0 0 0-1.347 5.024 8.407 8.407 0 0 0 1.323 4.966 3.916 3.916 0 0 0 6.668 0 8.402 8.402 0 0 0 1.324-4.967zm9.086 3.746a3.792 3.792 0 0 1-.948 2.877 4.314 4.314 0 0 1-3.025.891q-.639 0-1.438-.069v-.959h.594a2.039 2.039 0 0 0 1.644-.536 2.98 2.98 0 0 0 .434-1.839v-11.6h2.739v11.235zm12.99 3.677h-9.223V41.234h9.223v1.118h-6.461v5.459h6.005v1.119H119.1v6.097h6.461v1.119zm19.315-14.912l-5.912 15.277-3.15-7.97-3.037 7.97-6.187-15.277h2.923l4.04 10.344 1.668-4.384-2.444-5.96h2.899l3.996 10.162 3.768-10.162zm10.64-4.088l-1.62 2.535h-1.348l1.027-2.535zm5.297 11.577a7.605 7.605 0 0 1-7.625 7.788 7.335 7.335 0 0 1-5.389-2.215 8.116 8.116 0 0 1 .035-11.179 7.382 7.382 0 0 1 5.354-2.203 7.543 7.543 0 0 1 4.52 1.484 7.374 7.374 0 0 1 3.105 6.325zm-2.968 0a8.498 8.498 0 0 0-1.348-5.023 3.912 3.912 0 0 0-6.62 0 8.555 8.555 0 0 0-1.347 5.024 8.405 8.405 0 0 0 1.323 4.966 3.916 3.916 0 0 0 6.668 0 8.402 8.402 0 0 0 1.324-4.966zm18.653.298a6.913 6.913 0 0 1-1.999 5.161 7.212 7.212 0 0 1-5.285 1.964h-5.639V41.234h3.653a10.226 10.226 0 0 1 6.827 2.077 7.101 7.101 0 0 1 2.443 5.71zm-2.969-.366a6.42 6.42 0 0 0-1.586-4.68 6.12 6.12 0 0 0-4.579-1.623h-1.05v12.674h1.645a5.531 5.531 0 0 0 3.675-.982q1.896-1.665 1.895-5.389zm16.302-7.421l-8.402 13.792h8.242v1.12h-12.01l8.425-13.794h-7.58v-1.118zm11.05 1.118h-3.905v13.794h-2.74V42.352h-3.904v-1.118h10.549v1.118zm18.173-1.118h-1.438l-3.768 10.162-3.995-10.162h-2.9l2.443 5.96-1.666 4.384-4.042-10.345h-2.922l6.187 15.278 3.037-7.97 3.15 7.97 5.914-15.277zm11.666 14.912h-2.944l-1.553-3.974h-5.137l-1.53 3.974h-1.324l6.118-15.232 6.37 15.232zm-4.91-4.91l-2.168-5.435-2.169 5.435zm23.905-5.572a4.022 4.022 0 0 1-1.266 3.163 5.013 5.013 0 0 1-3.46 1.13h-2.967v6.189h-2.763V41.234h5.343a5.474 5.474 0 0 1 3.767 1.198 4.11 4.11 0 0 1 1.346 3.232zm-2.762.182q0-3.653-3.698-3.653h-1.233v6.85h1.233q3.699 0 3.698-3.197zm19.453 2.878a7.605 7.605 0 0 1-7.626 7.787 7.333 7.333 0 0 1-5.388-2.215 8.115 8.115 0 0 1 .035-11.178 7.383 7.383 0 0 1 5.353-2.204 7.549 7.549 0 0 1 4.52 1.485 7.375 7.375 0 0 1 3.106 6.325zm-2.968 0a8.491 8.491 0 0 0-1.348-5.024 3.912 3.912 0 0 0-6.62 0 8.557 8.557 0 0 0-1.348 5.024 8.397 8.397 0 0 0 1.325 4.966 3.914 3.914 0 0 0 6.666 0 8.397 8.397 0 0 0 1.325-4.966zm19.977 7.422h-2.695v-11.99l-5.045 12.537-5.275-12.536v11.989h-1.278V41.234h3.128l4.201 10.207 4.04-10.207h2.924v14.912zm17.99-7.422a7.605 7.605 0 0 1-7.625 7.787 7.333 7.333 0 0 1-5.388-2.215 8.114 8.114 0 0 1 .034-11.178 7.384 7.384 0 0 1 5.354-2.204 7.545 7.545 0 0 1 4.52 1.485 7.376 7.376 0 0 1 3.106 6.325zm-2.968 0a8.501 8.501 0 0 0-1.347-5.024 3.913 3.913 0 0 0-6.62 0 8.571 8.571 0 0 0-1.348 5.024 8.403 8.403 0 0 0 1.324 4.966 3.916 3.916 0 0 0 6.668 0 8.41 8.41 0 0 0 1.323-4.966zm16.302 7.422h-3.106l-3.995-7.559a6.773 6.773 0 0 0 3.287-.857 2.54 2.54 0 0 0 1.005-2.248q0-3.289-3.858-3.289h-1.141v13.953h-2.763V41.234h4.886q5.616 0 5.616 4.361a3.3 3.3 0 0 1-1.004 2.535 4.395 4.395 0 0 1-2.878 1.027l3.951 6.989zm11.437-4.248a4.336 4.336 0 0 1-1.392 3.312 4.949 4.949 0 0 1-3.516 1.301 5.173 5.173 0 0 1-4.59-2.42l1.097-.777a3.203 3.203 0 0 0 2.898 1.986 2.618 2.618 0 0 0 1.953-.753 2.647 2.647 0 0 0 .742-1.94 2.473 2.473 0 0 0-.936-2.034 11.099 11.099 0 0 0-2.442-1.233 6.56 6.56 0 0 1-2.467-1.576 3.586 3.586 0 0 1-.82-2.42 4.246 4.246 0 0 1 1.288-3.174 4.595 4.595 0 0 1 3.345-1.256 4.394 4.394 0 0 1 4.406 2.649l-.981.662a2.867 2.867 0 0 0-2.854-2.17 2.384 2.384 0 0 0-1.78.696 2.478 2.478 0 0 0-.686 1.816 2.156 2.156 0 0 0 .73 1.668 6.77 6.77 0 0 0 1.964 1.141 10.654 10.654 0 0 1 2.946 1.69 3.741 3.741 0 0 1 1.095 2.832zm13.425 4.248h-3.265l-4.407-7.467 5.503-7.445h1.713l-4.657 6.394 5.113 8.518zm-7.83 0h-2.763V41.234h2.763v14.912zm12.42 0h-2.74V41.234h2.74v14.912zm13.126 0h-9.222V41.234h9.222v1.118h-6.46v5.459h6.004v1.119h-6.004v6.097h6.46v1.119zm15.23-1.941a8.489 8.489 0 0 1-5.663 2.306 7.14 7.14 0 0 1-5.4-2.158 7.835 7.835 0 0 1-2.066-5.652 7.8 7.8 0 0 1 2.089-5.572 6.8 6.8 0 0 1 5.15-2.215 5.94 5.94 0 0 1 5.524 3.083l-.89.616a4.358 4.358 0 0 0-4.064-2.717 4.14 4.14 0 0 0-3.55 1.838 8.557 8.557 0 0 0-1.313 5.058 7.92 7.92 0 0 0 1.267 4.807 4.49 4.49 0 0 0 6.404.651v-5.07h2.511v5.024zm17.214-5.482a7.487 7.487 0 0 1-2.249 5.584 7.412 7.412 0 0 1-5.377 2.204 7.335 7.335 0 0 1-5.388-2.215 8.114 8.114 0 0 1 .034-11.179 7.386 7.386 0 0 1 5.354-2.203 7.549 7.549 0 0 1 4.52 1.484 7.375 7.375 0 0 1 3.106 6.325zm-2.968 0a8.49 8.49 0 0 0-1.348-5.023 3.912 3.912 0 0 0-6.62 0 8.565 8.565 0 0 0-1.348 5.024 8.405 8.405 0 0 0 1.325 4.966 3.914 3.914 0 0 0 6.666 0 8.395 8.395 0 0 0 1.325-4.967z" fill="#1d1d1b" fill-rule="evenodd"/><path d="M.294.293v40.96a39.3 39.3 0 0 0 .443 5.09c.076.488.6 2.85.813 3.563A29.485 29.485 0 0 0 13.262 65.89a29.16 29.16 0 0 0 7.021 3.346 26.139 26.139 0 0 0 8.667 1.336 29.274 29.274 0 0 0 8.909-1.435 28.605 28.605 0 0 0 6.523-3.12 25.153 25.153 0 0 0 5.095-4.139 26.382 26.382 0 0 0 7.131-12.08c.252-.954.612-2.658.793-3.463a42.787 42.787 0 0 0 .36-5.084c-.057-13.628 0-27.309 0-40.958z" fill="#ffdf46" fill-rule="evenodd"/><path d="M25.887 6.164a3.087 3.087 0 0 0-.04-1.067 3.245 3.245 0 0 1 .013-.714 1.694 1.694 0 0 1 1.747-1.508 3.012 3.012 0 0 1 1.877.709 1.096 1.096 0 0 0 .6.223c.149-.021-.01-.267.202-.345.354-.132.559.362.604-.075.07-.688 1.038-.855 1.878-.714a3.709 3.709 0 0 1 .92.386c.158.065.184-.014.289.065s.683.447.84.565a6.452 6.452 0 0 0 1.603.959 14.465 14.465 0 0 0 1.421.494 2.543 2.543 0 0 0 1.31-.062 1.552 1.552 0 0 1-1.17.85c.192.31 1.25.296 1.59-.028a3.653 3.653 0 0 1-2.023 2.06 2.42 2.42 0 0 1-1.098.04 7.869 7.869 0 0 1-.067 2.11 6.721 6.721 0 0 1-.66 1.939 13.303 13.303 0 0 0-.804 2.133c-.201.143-.288-.199-.42-.192-.1.005-.226.507-.446 1.058a12.197 12.197 0 0 0-.647 2.92c0 .126-.241.053-.435-.055-.175-.097-.27-.23-.352-.154a7.402 7.402 0 0 0-.192 1.88c0 .166-.01.55-.21.63s-.49-.307-.525-.36-.07-.017-.061.08a10.36 10.36 0 0 0-.114 1.311s.136.887.046.954c-.63.003-.851-.641-.971-1.273a1.55 1.55 0 0 0 .323 1.262c.136.092.153.86.269.994.073.085.033-.514.089-.826.197.018.316.227.525.245-.045-.37-.08-.74-.124-1.11.105.052.148.015.245-.027a8.715 8.715 0 0 1 4.023-.875 7.31 7.31 0 0 0 1.235.066c.069-.067.168-.439.33-.79a4.5 4.5 0 0 1 .936-1.408c.236-.254.07-.245.087-.359a.692.692 0 0 1 .228-.411c.174-.184-.2-.449-.263-.665a3.027 3.027 0 0 1 .07-1.426 5.2 5.2 0 0 1 .951-1.498c.08-.1-.056-.21-.04-.243.07-.15.258-.328.183-.385-.173-.131-.638-.298-.638-.779a2.632 2.632 0 0 1 .06-.63 5.988 5.988 0 0 1 .21-.857c.557-1.724 1.562-4.068 1.514-5.643a3.148 3.148 0 0 0-.175-1.042 2.561 2.561 0 0 0-.927-1.416 4.324 4.324 0 0 1 4.024 3.883 4.236 4.236 0 0 0 .035-1.21 1.055 1.055 0 0 1 .613.43 9.7 9.7 0 0 0-.061-4.138 6.929 6.929 0 0 1 1.946 3.016 2.483 2.483 0 0 1 2.017-1.043c2.747-.04 3.647 4.522 5.136 6.89.884 1.404 1.392 1.595 2.981 1.7a3.101 3.101 0 0 1-.894 1.228 2.467 2.467 0 0 1-1.66.583 5.484 5.484 0 0 1-2.263-.999c-.003.105-.024.202-.027.307 0 0 .513.411 1.307 1.035.734.576 1.65 1.34 2.69.937-.618.681-2.459-.287-3.822-1.174a10.077 10.077 0 0 0 2.564 2.204 2.666 2.666 0 0 0 2.021-.022c.07 1.372-1.406 2.247-2.535 2.361a5.41 5.41 0 0 1-3.832-1.82l-.018.245a25.655 25.655 0 0 0 2.87 2.301c1.427.945 1.575 1.155 2.476 1.102-.78.285-1.406-.136-2.273-.652-1.095-.652-2.324-1.486-3.326-2.034-.18-.099-.258-.017-.123.106a24.858 24.858 0 0 0 4.095 3.289c1.522.869 2.231.236 2.572-.018a3.204 3.204 0 0 1-2.624 2.573c-1.664.068-3.54-1.4-4.445-2.284l-.254.053a45.855 45.855 0 0 0 5.242 4.161 2.38 2.38 0 0 0 1.18.318c-.56.236-1.607-.332-2.732-1.064-1.541-1.004-3.23-2.302-3.926-2.803-.008-.026 0 .306 0 .306 1.865 1.638 2.666 2.404 3.814 3.266 1.46 1.096 2.786 1.597 4.008 1.222a3.418 3.418 0 0 1-3.386 1.96c-2.576.263-4.074-1.945-6.098-2.913a27.336 27.336 0 0 0 6.58 4.742c-1.252-.108-5.232-3.042-6.422-3.902l.026.333a24.646 24.646 0 0 1 3.33 2.724 7.76 7.76 0 0 0 3.983 2.052 4.505 4.505 0 0 1-3.726 1.251c-1.535-.11-1.783-.1-7.017-3.8-.102.05-.17.1-.272.149 1.993 1.765 4.62 4.128 6.803 5.067-1.964-.366-5.19-3.176-7.346-4.98-.1-.009-.2-.009-.299-.017a.176.176 0 0 0 .027.149c.651.656 2.384 2.39 4.166 3.857 1.481 1.218 2.014 1.98 3.951 2.323-1.096 1.18-3.127 1.144-4.68.833-3.344-.669-5.625-3.284-8.04-5.602l-.49-.088a.363.363 0 0 0 .044.237c1.045 1.1 2.434 2.47 3.67 3.676a26.922 26.922 0 0 0 2.72 2.408 20.695 20.695 0 0 1-4.518-3.474 4.51 4.51 0 0 1-1.108.393c.076.064.193.168.244.205a14.345 14.345 0 0 1 2.747 3.112 9.365 9.365 0 0 0-2.916-.252 8.217 8.217 0 0 0-3.487.823 7.464 7.464 0 0 0-3.03 2.67 8.858 8.858 0 0 0-1.192 3.499c-.003.08-.075.178-.042.187.038.01.184-.085.209-.19a8.3 8.3 0 0 1 1.145-3.31 7.204 7.204 0 0 1 3.007-2.72 9.201 9.201 0 0 1 3.39-.776 13.743 13.743 0 0 1 3.209.38 10.64 10.64 0 0 1 3.385 1.444c.751.493 1.632 1.066 2.644 1.802a26.523 26.523 0 0 1 2.783 2.269 8.678 8.678 0 0 1 2.214 3.77c.253 1.533.746 3.4-.504 4.745a4.773 4.773 0 0 1-2.213 1.204 5.13 5.13 0 0 0 .342-1.077c1.02-.624 1.251-1.082 1.347-1.611a5.299 5.299 0 0 0 .012-1.764 9.195 9.195 0 0 0-3.731-5.793 5.849 5.849 0 0 1-1.244-.793c-.131-.109.264 1.03.285 1.37a6.641 6.641 0 0 0 1.348 3.31 2.248 2.248 0 0 0 1.282.997 5.435 5.435 0 0 0 1.699.033l.186.953a5.24 5.24 0 0 1-2.093.186c-.086.084.45.362.734 1.085a2.73 2.73 0 0 1 .22 1.37c-.362 2.257-1.833 2.883-2.247 4.58a8.114 8.114 0 0 0-.055 1.962 3.87 3.87 0 0 1-.668 1.885 2.988 2.988 0 0 0-.408 1.269 3.464 3.464 0 0 1-.292-1.328 2.046 2.046 0 0 1-2.713 1.478 1.468 1.468 0 0 0 1.347-1.6 1.256 1.256 0 0 1-.593.276c.489-.384.443-1.045.565-1.86a10.068 10.068 0 0 1 .522-2.043 5.045 5.045 0 0 1 .797-1.35 7.124 7.124 0 0 1 .964-.974 9.591 9.591 0 0 0 1.218-1.166 3.268 3.268 0 0 0 .448-.824c.21-.95-.477-2.2-1.465-1.938a1.03 1.03 0 0 0-.78.982 1.534 1.534 0 0 0 1.622 1.727c-.342.35-.762.79-.762.79-1.202.257-2.145-1.29-2.043-2.341.166-1.715 1.265-2.155 2.454-2.341a5.352 5.352 0 0 1-1.83-2.3c-.916-2.078-.548-3.55-2.036-5.43a21.944 21.944 0 0 0-2.066-1.523 10.27 10.27 0 0 0-3.817-.816 7.153 7.153 0 0 0-4.042 1.42 6.295 6.295 0 0 0-2.221 3.826 8.728 8.728 0 0 1 .988-2.147 6.136 6.136 0 0 1 1.34-1.527 6.736 6.736 0 0 1 3.974-1.38 7.01 7.01 0 0 1 3.63.823 5.629 5.629 0 0 1 .68 2.06c.086.65.191 3.016.182 3.275a4.728 4.728 0 0 1-.47 1.264c-.096.173.077 2.343.077 2.749a7.834 7.834 0 0 1-.721 3.046 3.997 3.997 0 0 1-4.334 1.986c.298 2.16 1.278 2.341 2.048 2.458a17.658 17.658 0 0 0 .714 1.725c.076.124-1.172 1.37-1.063 1.94.102.533.651.577.734 1.106a3.032 3.032 0 0 1-.044.66c-.021.141-.094.115-.102.243-.022.376-.097.502-.171.522-.096.026-.073-.083-.139-.15-.015-.015-.076.089-.096.065-.022-.026 0-.131-.02-.19-.015-.043-.057-.038-.09-.063-.073-.056-.048.662-.338 1.096a5.95 5.95 0 0 1-.592.838c-.007-.402-.153-.924-.418-.875.334.47.041 1.492-.96 2.104-.183.112.304-.345-.294-1.004a2.32 2.32 0 0 1-1.009 1.1 3.174 3.174 0 0 0-.748.402c-.528 1.094-1.268 1.775-2.14 1.716-.107-.007-.051-.138-.051-.138a2.245 2.245 0 0 0-1.205 1.402c-.574-.208-.686-.888-.402-1.972a.388.388 0 0 1-.344-.19 1.94 1.94 0 0 1-2.52.453c-.752.839-.928 1.384-.686 1.716-1.208-.375-1.542-1.093-1.191-2.052a1.356 1.356 0 0 1-.292-.49 1.169 1.169 0 0 1-.965-.307c-.26.11-.282.912-.27 1.841-1.418-1.075-2.01-2.227-.76-3.477.002-.316-.365-1.234.446-1.614a3.239 3.239 0 0 1 1.008-.22 6.316 6.316 0 0 0 .957-.24l.943.255a2.799 2.799 0 0 1 1.446-.614c.917.021 1.06.866 1.746.928.81.074 1.445-.356 1.753-.285a18.346 18.346 0 0 0 1.63-3.748c-.346.061-.396.189-.913-.421a1.958 1.958 0 0 1-1.468 1.128c.2-.466.364-.893.154-1.271a3.083 3.083 0 0 1-2.181 1.687 1.556 1.556 0 0 0 .296-.92 2.12 2.12 0 0 1-3.024-.46c1.89.2 2.692-.794 2.772-2.465-.52.292-1.242.884-1.666.779a7.774 7.774 0 0 1-1.764-1.053c-.225-.147-.384.354-.592.548a.977.977 0 0 1 .965-.931c.472.009.631.37.93.262a2.2 2.2 0 0 0 1.294-1.5 9.222 9.222 0 0 0-.417-2.52 11.28 11.28 0 0 1-.372-3.179 7.691 7.691 0 0 1 .45-2.027 5.277 5.277 0 0 1-1.293.26c-.864.14-1.26.183-1.677.266s-1.724.22-1.94.537a3.19 3.19 0 0 0-.559 2.74c.134.31.559.46.79.843s.23.833-.11 1.753-.285.965-.362 1.03-.19-.186-.241-.054-.61.358-.669.405a.648.648 0 0 0-.021.603 1.426 1.426 0 0 1 .043.624c.019.282-.185.932-.597 1.05a5.926 5.926 0 0 0-.98.506 1.417 1.417 0 0 0 .12-1.512c-.018-.212.051-.434-.055-.636a.908.908 0 0 0-.11.584 1.9 1.9 0 0 1-1.27 2.298 1.008 1.008 0 0 0 .394-.591c-.051-.387-.465-.588-.658-.91a.83.83 0 0 1-.164-.492 1.695 1.695 0 0 1-1.446 1.106c-.035.12-.173.241-.384.362-.035-.07.012-.185-.05-.233-.144-.112-.282-.2-.289-.447-.009-.329.848-.92.81-1.71a2.939 2.939 0 0 1-1.774 1.294 1.526 1.526 0 0 0-.439.318 1.374 1.374 0 0 0 .176-.417 2.55 2.55 0 0 1 .328-1.358c-.547-.01-1.903-.035-2.104.206-.223.266-.872 1.323-1.336 1.481a4.032 4.032 0 0 1-1.71-.34 2.949 2.949 0 0 0-.723 1.36c-.607-.26-.791-.984-.493-2.236a.461.461 0 0 1-.285-.066 1.52 1.52 0 0 1-1.885-.055c-.366.156-.7 1.035-.865 1.863a2.705 2.705 0 0 1-.099-3.375.343.343 0 0 0-.427-.307c-.031-.288-.098-.49-.274-.427-.277-.092-1.087.66-1.271 1.096a2.094 2.094 0 0 1 .104-2.471 1.932 1.932 0 0 1 .723-1.721 1.881 1.881 0 0 1 1.741-.45c.241.044.854.205 1.052.242.158.029 1.424-.457 2.082-.252.538.166.708 1.103 2.017 1.566.112.04.176.239.295.242a23.737 23.737 0 0 1 4.285.307c.214.062 1.301-.988 1.315-1.24s-.515-1.113-.669-1.698a2.936 2.936 0 0 1-1.588-.12 1.528 1.528 0 0 0 .986-1.6c-.116.029-1.67 1.241-1.819.264-.022-.143.033-.326-.022-.318-.15.021-1.14 1.693-2.575-.548-.404-.63.109-1.835-.866-1.392-.559.254 1.007-.961 1.348.23.088.307-.055.34.131.416a2.127 2.127 0 0 0 1.151-.032 2.044 2.044 0 0 0 .876-1.95c-.017-.062-.076-.012-.142.065s-.044.241-.438.241a1.956 1.956 0 0 1-1.129-.373 1.159 1.159 0 0 1-.383-.69c.01-.12.018-.267.142-.197a1.156 1.156 0 0 0 1.6-.175c.139-.118.245-.677.427-.998a5.785 5.785 0 0 1 3.802-2.268 24.698 24.698 0 0 1 3.693.012c3.298-.176 5.688-.494 6.213-.516a7.05 7.05 0 0 0-2.52-.953 17.515 17.515 0 0 1-4.35-.767c-1.553-.636-2.894-1.176-3.955-1.48-.311-.09-2.87-1.34-3.179-2.64a.98.98 0 0 1-.493-.252 1.58 1.58 0 0 1-1.512-.066c-.356-.083-2.137-.143-2.29.11s-.294.396-.12 1.38c.044.25-.253.406-.253.406-.308.08.079.548.12.7.092.33-.23.22-.076.713a.65.65 0 0 1-.105.48c-.064.152-.038.274-.278.452-.3.222-.408.12-.463.217a1.376 1.376 0 0 1-.975.23c-1.262.612-2.643.422-3.178-.646.535.172 1.641.27 1.907-.132a1.18 1.18 0 0 1 .171-1.7 1.63 1.63 0 0 0 .804-.864c.03-.136.252-.164.285-.241s.372-.69.01-.81c-.185-.063.055.207-.35.372a2.151 2.151 0 0 1-.887.099c-.055.01-.23.306-.58.361a4.314 4.314 0 0 1-.604.055.995.995 0 0 1-.997.394c-.014.484-1.178 1.81-2.016.734-.785.265-1.772.103-2.006-1.38.807 1.204 1.467.524 1.328-.387a2.35 2.35 0 0 1 .283-1.016c.136-.53 1.286-.47 1.48-.23.395-.155.752-.225.942.088a.882.882 0 0 1 1.238-.12.912.912 0 0 1 1.13-.131s.74-.14 1.303-.22a4.224 4.224 0 0 1 1.227.01 1.088 1.088 0 0 0 .8-.152c.132-.12-.274 0-.449 0a4.463 4.463 0 0 0-1.857.057.895.895 0 0 1-.937-.145.954.954 0 0 1-1.14-.197c-.456.242-.895.039-1.293-.362-.406.115-.68.326-.96.285a3.057 3.057 0 0 1-1.491-.618c-.207-.163-.214-.518-.267-.85s-.564-.301-.707-.268-.788.35-.788.35a2.555 2.555 0 0 1 1.753-1.556 1.485 1.485 0 0 1 2.103.175c.451.014.77.085.811.274a.76.76 0 0 1 .767.241c-.12-.263-.304-.405-.35-.613-.252.024-.504-.152-.756-.45-1.458-.215-1.375-.923-1.425-1.588-.914-.58-1.474-.41-1.863.12-.051-.755 2.085-1.601 2.827-.899 1.294-.864 2.038-.315 2.367 1.304a1.82 1.82 0 0 1 .614 1.041c.368.3.78.594.756.954.376.059.689.111.867.873a2.605 2.605 0 0 0 1.95.672 4.418 4.418 0 0 1 1.114.033 2.475 2.475 0 0 1 1.698-.165 2.87 2.87 0 0 1-.12-.854 4.127 4.127 0 0 1-1.052-.012.679.679 0 0 0-.46.472c-.213-.852.512-1.021.898-1.239a1.859 1.859 0 0 0 .69-1.106c-.015-.641-1.521-3.712-2.903-3.9a1.52 1.52 0 0 1 1.72-.845c-.049-.386-.487-.337-.699-.8a3.982 3.982 0 0 1-.145-1.874c-.715-.286-.975-1.41-.887-2.345a10.047 10.047 0 0 1-1.316-3.046c-.081-.212-.397-.26-.624-.274-.103-.007-.146.146-.219.22a.7.7 0 0 1-.614.723.882.882 0 0 1-.482.92c.136 1.365-1.569 2.04-2.674 1.216-1.457.13-2.123-.072-2.443-1.205.375.307.824.524 1.786.098.033-1.174.777-1.562 1.95-1.48.033-.187.16-.231.34-.186.023-.145.153-.183.35-.153a2.5 2.5 0 0 1 1.041-1.052c-.14-.138-.21-.11-.306-.252-.418.089-.733.028-.888-.263a1.14 1.14 0 0 1-1.02-.044c-.555.738-2.014.804-2.17-.395 0 0-.141-.163-.273-.163-1.256.015-1.918-.254-2.268-1.644a1.64 1.64 0 0 0 2.136.438c-.4-1.292 1.026-1.71 1.94-1.305a1.666 1.666 0 0 1 .723.636 1.109 1.109 0 0 1 1.37.658 1.136 1.136 0 0 1 .69.361c1.225.094 1.496 1.388 2.125 1.534-.442-.496-1.059-1.18-1.237-1.435-.854-.14-1.17-.472-1.26-.789a.923.923 0 0 1-.614-.833 1.006 1.006 0 0 1-.701-.833c-1.277.5-1.826-.499-1.71-1.402a1.107 1.107 0 0 0-.12-.712 1.669 1.669 0 0 0-2.039.164C3.79 5.968 4.76 5.511 5.64 5.956a1.177 1.177 0 0 1 2.024.189c.322.466.309 1.189.683 1.696a1.484 1.484 0 0 1 .646 1.326c.331.064.619.272.746 1.008.655.15 1.077 2.74 1.753 3.857-.344-1.005-.676-2.384-1.118-3.451a1.222 1.222 0 0 1-.23-1.085c-.374-.221-.52-.623-.428-1.282C8.851 7.79 8.564 7.06 9.2 6.01a.442.442 0 0 1 .055-.252C9.479 4.88 8.06 4.66 7.677 5.08a1.645 1.645 0 0 1 2.762.076c.487-.14 1.22-.017 1.31.221.168.436.425.739.586 1.15a1.724 1.724 0 0 1-.25 1.206 1.78 1.78 0 0 1 .077 1.863 1.649 1.649 0 0 1 .077 1.436.588.588 0 0 0-.027.328c.067.376.116 1.253.173 1.983a1.582 1.582 0 0 0 .314.713.496.496 0 0 0 .011.296 5.294 5.294 0 0 1 .756 1.961 3.089 3.089 0 0 1 1.282 2.356c1.068.47.823 1.71 1.074 1.926l-.001-.001a3.903 3.903 0 0 0-.309 1.602 5.057 5.057 0 0 0-1.764-.784 1.444 1.444 0 0 0-.175 1.55c-.967-.06-1.427.07-1.502.345a3.682 3.682 0 0 1 1.666.006 3.26 3.26 0 0 1 .022-1.61 9.326 9.326 0 0 1 1.972.81 4.591 4.591 0 0 1 .38-2.017 1.452 1.452 0 0 1 .261-.343 1.685 1.685 0 0 0 .425-.706c.008.615.116 1.19.416 1.337a5.658 5.658 0 0 0 .395.767c.055.01.537-.57.745-.745s.982-.8 1.107-.947a1.225 1.225 0 0 1-.486-.732c0-.193.154-.117.232-.116a4.15 4.15 0 0 0 2.694-1.767c-.241-.162-.29-.154-.319-.308a.778.778 0 0 1 .039-.464c.058-.068.631.03.824.002a10.517 10.517 0 0 0 1.676-.987c.164-.164.259-.16.244-.24s-.153-.168-.116-.234.036-.117.24-.146.223.011.336-.059a5.531 5.531 0 0 0 2.495-4.426 1.75 1.75 0 0 0-1.242-1.827 2.128 2.128 0 0 1 2.223.338c-.178-1.065-1.82-1.365-3.375-1.228a12.408 12.408 0 0 1-2.711.047 2.882 2.882 0 0 1-2.35-2.742 2.75 2.75 0 0 1 2.638-3.002 1.732 1.732 0 0 1 1.732 1.621 1.606 1.606 0 0 1-1.6 1.644c.246 1.103 1.199 1.287 2.531 1.205 2.432-.148 4.265.348 4.899 2.203-.203-1.621-.951-2.448-2.06-2.696.061-.487-.244-.762-.942-.81-.414-.03-.778.481-.899.711a.862.862 0 0 1-.276.318zM9.764 56.292c.413-.903.876-1.347 1.219-1.35a.746.746 0 0 1 .36 1.35c.979-.28.453-1.577-.351-1.64-.746-.058-1.254 1.481-1.228 1.64zm12.043-5.576c-.373.803.618 1.981.684 1.955a.246.246 0 0 0 .175-.193 5.33 5.33 0 0 1-.833-1.21c.01-.19.044 0 .088-.105s-.053-.272-.114-.447zm-.982 3.27a3.354 3.354 0 0 0 1.736-.193s.114-.658.166-.79.07-.402-.035-.393-.152.315-.175.43c-.11.114-.278.534-.22.57a6.137 6.137 0 0 0-1.472.376zm-1.087.167a1.839 1.839 0 0 0 .763-.21.872.872 0 0 0-.763.21zm-.666 1.34c-.316 1.07-.873 1.417-.763 1.544.163.186.86-.754.763-1.543zm-9.747-.79a2.537 2.537 0 0 1 .73-.822 3.025 3.025 0 0 1 1.774-.679c.759.057.981.384 1.255.395a2.872 2.872 0 0 0 1.584-.209s-1.299.039-1.71.006a1.794 1.794 0 0 0-1.886-.251.065.065 0 0 0-.043-.061c-1.236.272-1.686 1.007-1.704 1.622zm-.04.107c-.122.06-.162 1.04.115.835.15-.111-.185-.476-.116-.835zm.838-3.53c-.23.172 1.087.505 2.002.33-.614-.337-1.176-.154-2.002-.33zM7.626 50c.838.818.684 1.291 2.412 1.345a.818.818 0 0 0 .087-.247c-1.834-.265-1.373-.692-2.025-1.024A2.132 2.132 0 0 0 7.626 50zm-1.347 5.836c.248-1.83 1.438-2.505 1.875-2.24.495.302.85.711-.776 1.982 2.219-.98 1.247-2.138.99-2.272-1.22-.643-2.218 1.529-2.089 2.53zm.377-2.563c.443-1.366 1.762-1.28 2.935-.372.07.054.311-.126.405-.15.223-.06 2.466-.027 2.53-.017s.054-.085.022-.16a16.03 16.03 0 0 0-2.267-.103c-.252.022-.609.25-.723.15-1.566-1.373-2.907-.63-2.902.652zm-1.701-1.379c1.86-1.565 1.481.22 1.658.259.062.013.072-.007.151-.017.121-.015.249-1.289-.679-1.265a1.217 1.217 0 0 0-1.13 1.023zm11.927-3.25a1.405 1.405 0 0 0 1.555-.993s.022 1.3.52 1.3c.152.051 1.898-.906 2-1.366a5.763 5.763 0 0 1-2.088 1.081c-.244-.087-.307-.628-.322-1.643-.363.862-.914 1.649-1.62 1.489-.052-.012-.09.117-.045.132zm-.892-2.794c-.24.719-.682 1.547-.24 1.738.32.095 1.244-.45 1.469-.595.17-.255.45-.56.73-.912a3.466 3.466 0 0 0-.886.754.586.586 0 0 0-.029-.07c-.238.121-.762.549-.958.489-.296-.09-.086-1.404-.086-1.404zm-2.354-2.268a1.135 1.135 0 0 0 1.01.547c.36 0 .403-.213.48-.342a1.438 1.438 0 0 1-1.49-.205zm-1.079 2.088c.118.844 1.03 3.015 2.508 1.01-1.074 1.03-1.793.776-2.508-1.01zm18.05 17.763c-1.46.177-2.789-.51-2.893-.37-.232.314 2.324.77 2.892.37zm-6.863 2.848a1.854 1.854 0 0 1 1.174-1.595c.893.04 1.054 1.252 1.207 1.202.166-.055-.055-1.272-1.106-1.55a.2.2 0 0 0-.258.197c-.53.226-1.26 1.168-1.017 1.746zm2.634.545c.028-1.062.283-2.034 1.707-2.061a2.546 2.546 0 0 1 2.134 1.589 1.697 1.697 0 0 0-.792-1.387 10.465 10.465 0 0 0 2.194-.63 9.82 9.82 0 0 0 1.294-.493 7.288 7.288 0 0 0-1.358.384c-.663.087-1.436.46-1.916.492-.316.02-1.237-.305-1.719-.264a1.69 1.69 0 0 0-1.544 2.37zm.606-.158c.022.051.579-.763 1.225-.612s.775.545.791.815-.556.404-.488.5.68-.22.69-.37-.313-1.157-.938-1.265c-.485-.084-1.421.613-1.28.932zm4.56-1.437a2.124 2.124 0 0 0-.82.443c-.028.118.04.124 0 .22a2.254 2.254 0 0 0-.174.628c0 .191.073.46.068.522s-.264.388-.202.455.427-.258.42-.303a1.359 1.359 0 0 1 .12-1.438 1.601 1.601 0 0 1 .46-.308c.078-.023.207-.135.128-.22zm.416-.09a1.812 1.812 0 0 0 .77-.276 2.191 2.191 0 0 0 .645-.561 9.39 9.39 0 0 1-1.415.837zm1.129 2.746a.807.807 0 0 0-.017-1.247c-.452-.365-1.045-.247-1.022-.112.011.135.605-.017.887.286a.906.906 0 0 1 .152 1.073zm-1.752-.432c.286-.5.746-.843.64-.944s-.624.45-.64.944zm-.495-.905c.13-.353.55-.814.37-.915s-.381.674-.37.915zm3.566-.668a2.907 2.907 0 0 0-1.606-.713 1.878 1.878 0 0 0-1.252.297 3.619 3.619 0 0 1 2.858.416zm-1.51-.994a3.494 3.494 0 0 0 1.337-1.028c-.769.307-.635.473-1.337 1.028zm4.394-1.28c-.571.664-.484 1.557-.343 1.35.149-.22-.127-.361.343-1.35zm.431-.547c.007.027.233 1.437.35 1.39s-.35-1.39-.35-1.39zm.884-1.59c-.192.317.37.888.582 1.59.109-.076.062-.448.013-.569a2.536 2.536 0 0 1-.595-1.02zm.459-1.115c-.065 1.177.677.86.725 1.712.394-.86-.615-.886-.725-1.712zm-.795-2.472a1.158 1.158 0 0 0 .294.39 1.495 1.495 0 0 1 .028.733c-.292.607-.558.583-.52 1.109a8.03 8.03 0 0 1 .766-.952 7.394 7.394 0 0 0-.205-1.075c-.01.054-.357-.154-.363-.205zm.185-1.321c-.069.208.31.461.698.554a1.207 1.207 0 0 1 .514.404.967.967 0 0 0-.144-.554 2.33 2.33 0 0 1-1.068-.404zm-1.068-.397a2.6 2.6 0 0 0 .397 1.13c.157.225.895.813.965.69.082-.143-.507-.451-.746-.69a5.426 5.426 0 0 1-.616-1.13zm.417-5.198a7.497 7.497 0 0 0-.67 2.273 2.354 2.354 0 0 0 .43 2.062 4.465 4.465 0 0 1-.218-1.698 11.636 11.636 0 0 1 .458-2.637zm-4.434 7.785c-.072.077.4.586.67.528.602-.127 1.824-.997 1.563-1.994a1.93 1.93 0 0 1-1.749 1.726c-.192-.023-.396-.351-.483-.26zm-1.079.744c.44-.104.379-1.931.172-1.882a4.787 4.787 0 0 1-.172 1.882zm-1.264-.134c1.138-.856.684-1.872.513-1.77-.178.105.509.184-.513 1.77zm-2.285.097c1.438.193 2.361-1.853 2.09-1.883-.22-.024-.334 1.351-2.09 1.883zm-.697-2.735c.083.476 1.87-.258 1.925-.863-.655.307-.94.706-1.32.777-.34.063-.616.021-.605.086zm-4.863-5.475a1.652 1.652 0 0 0 .553.833c.052.307-.13.908-.036.92.191.027.375-1.434-.517-1.753zm10.989-8.636c-1.475 2.736-5.763 1.618-5.87 6.63.597-4.545 5.701-4.376 5.87-6.63zm-6.055-4.271a13.145 13.145 0 0 1 3.788 2.784.52.52 0 0 1 .117-.149c-.821-.93-2.657-2.55-3.905-2.636zm3.679-9.676a3.836 3.836 0 0 0 3.02 2.437 2.178 2.178 0 0 0 .015-.807 1.157 1.157 0 0 0 .785.18 4.766 4.766 0 0 0 3.154.553 1.653 1.653 0 0 0-.247-1.286.44.44 0 0 0 .382-.06 5.592 5.592 0 0 0-1.861-2.87c.31.687 1.35 1.608 1.547 2.631-.15 0-.449-.112-.538.023s.915 1.11.478 1.435a5.106 5.106 0 0 1-4.65-2.848 3.553 3.553 0 0 0 1.413 2.137 4.543 4.543 0 0 1-.83-.32 1.277 1.277 0 0 1 .225.896c-1.378-.017-2.604-1.726-2.893-2.1zm6.286-.86c-.004-.003-.06 0-.004.079a5.525 5.525 0 0 0 5.15 1.734 2.638 2.638 0 0 0-.448-1.218.238.238 0 0 1-.015-.202c.15.112.272.211.33.127.164-.245-.218-1.3-.412-1.756a5.446 5.446 0 0 0 4.14.83 3.013 3.013 0 0 0-.777-1.623 1.058 1.058 0 0 0 .434 0 3.523 3.523 0 0 0-.777-1.6c.784.306 2.663.248 3.02-.41a4.4 4.4 0 0 0-.8-1.406 2.05 2.05 0 0 1 .62-.067 3.537 3.537 0 0 0-.539-.807 2.865 2.865 0 0 0 1.742-.18 5.698 5.698 0 0 0-.568-1.42c.18.037.42.093.412-.06-.026-.408-1.461-1.538-1.78-1.66.95-.074 1.854-.336 1.862-.493a4.165 4.165 0 0 0-.18-.635c.184.17.253-.028.277-.195.047-.338-.762-1.061-.762-1.061s1.495-.27 1.637-.815a4.365 4.365 0 0 0-.719-1.038 1.273 1.273 0 0 0 .658-.374c-.122-.508-.652-.846-1.352-1.114a5.643 5.643 0 0 0 1.569-1.382 2.889 2.889 0 0 0-.882-.5c.328-.117.495-.275.523-.472-.72-.388-1.831-.26-1.808-.06.013.122 1.168-.019 1.308.3a.896.896 0 0 0-.464.336c-.052.067.03.091.142.067.262-.058.778.337.778.337-.942 1.382-2.27 1.408-2.254 1.58.027.283 1.501-.202 2.085.815a3.03 3.03 0 0 1-.986.21 5.729 5.729 0 0 1 1.076 1.3c-1.3.92-2.66.057-2.728.254-.06.176.408.22.908.53.52.324 1.105.845.975 1.04-.1.152-.609-.234-.65-.134s.546.517.606.904a5.303 5.303 0 0 1-2.078.389 16.953 16.953 0 0 1 1.831 1.75 2.34 2.34 0 0 1-.68-.15 4.312 4.312 0 0 1 .927 1.614 5.677 5.677 0 0 1-2.915-.307 19.764 19.764 0 0 1 1.644 1.24s-.478-.104-.605.076c-.09.126.747.875.867 1.51-1.025.747-2.622.5-4.201-.321a4.629 4.629 0 0 1 1.929 2.077c-.184.031-.365.017-.598.045a6.862 6.862 0 0 1 1.001 1.72c-1.669.34-3.9-.907-5.187-1.667a4.375 4.375 0 0 1 1.614 2.459 3.04 3.04 0 0 1-.762-.135 4.403 4.403 0 0 1 .77 1.533c-1.928.384-3.456-.478-4.904-1.592zm7.843-15.89c-.646.215-.773 1.185-.06 1.144.363-.02.471-.356.844-.361.482-.006.93.248 1.206 1.041a1.365 1.365 0 0 1-1.436.964c-.247-.019-.263-.457-.647-.45-.513.01-.951.93-.252 1.228.213.09.657-.098.866-.066a1.535 1.535 0 0 1 1.02 1.151c-.177.329-.867 1.159-1.437.931-.2-.08-.142-.377-.602-.493-.536-.135-1.159.746-.362 1.107.302.137.81-.048 1.162.022.36.072.646.866.646 1.567a2.886 2.886 0 0 1-1.885.241c-.252-.11-.241-.402-.8-.45-.412-.034-1 1.166-.054 1.338.298.054.898-.18 1.15 0a2.09 2.09 0 0 1 .406 1.359c-.485.392-1.522.84-2.159.395-.209-.147-.158-.54-.241-.636-.41-.48-1.704.116-1.095 1.008.144.212.391-.056.723.11a2.142 2.142 0 0 1 .8 1.512c-.702.388-2.343.675-2.718.088-.228-.356-.18-.546-.362-.855-.324-.554-1.707-.215-1.26.658.137.266.851.236 1.052.668.133.285-.256 1-.602 1.183-.912.101-2.173-.04-2.323-.515-.07-.22.064-.43.01-.843-.104-.823-1.72-.603-1.402.295.145.411.43.107.745.56.137.196-.252 1.117-.712 1.413-.368-.006-1.591-.144-1.906-.822-.164-.352.123-.495.142-.8.035-.567-1.585-.797-1.151.318a3.707 3.707 0 0 0 .439.526c.245.314.006 1.091-.33 1.348-.42.098-1.855-.16-1.983-.647a3.117 3.117 0 0 0-.34-1.085c-.356-.598-1.226.1-.756.778.276.398 1.143.443.932 1.502a.862.862 0 0 1-1.063-.373 1.63 1.63 0 0 1-.252.23 15.875 15.875 0 0 0 4.282 5.088 5.165 5.165 0 0 0 5.196.83c.121-.044-.142-.165-.142-.165-3.678 1.615-7.706-3.27-8.909-5.457a1.905 1.905 0 0 0 1.085.11 1.232 1.232 0 0 0-.197-1.239c-.182-.278-.52-.367-.735-.602-.423-.464.079-.967.483-.405.137.19.152.673.317 1.03.237.512 1.513.8 2.104.723a1.632 1.632 0 0 0 .57-1.622c-.108-.358-.304-.406-.46-.613-.33-.438.421-.673.603-.275.055.122-.15.466-.099.636.23.774.677 1.02 2.137 1.337.81-.698 1.183-.978.81-2.06-.106-.312-.554-.161-.58-.471-.03-.357.792-.369.844-.12a2.808 2.808 0 0 0 .154 1.183c.216.504 1.863.558 2.619.558a6.03 6.03 0 0 0 .734-1.063 1.013 1.013 0 0 0-.131-.81c-.211-.35-.768-.35-.932-.493-.25-.216.415-.707.734-.33.2.239.199.683.57.976a2.8 2.8 0 0 0 3.024-.329 2.483 2.483 0 0 0-.843-1.643 3.725 3.725 0 0 0-.768-.318c-.154-.064.145-.894.69-.45.182.149.143.538.8.757a2.554 2.554 0 0 0 2.039-.647c.042-.449-.034-1.801-.69-1.873-.632-.07-.47.174-1.063.098-.337-.043-.338-.789.274-.701.23.033.186.306.712.427a3.612 3.612 0 0 0 1.94-.46 2.144 2.144 0 0 0-.066-.987c-.099-.481-.504-.898-.8-.876a3.869 3.869 0 0 1-.964-.044.36.36 0 0 1 .153-.701c.175.043.264.447.46.526a1.087 1.087 0 0 0 .515.045 2.127 2.127 0 0 0 1.424-1.339 1.867 1.867 0 0 0-1.238-1.194 2.87 2.87 0 0 0-.767.044c-.365-.019-.378-.753.072-.718.292.023.248.407.589.428a2.18 2.18 0 0 0 1.752-1.047 2.275 2.275 0 0 0-.544-1.176c-.238-.249-.75-.236-.942-.268s-.854.386-1.026.247-.01-.614.214-.568a1.254 1.254 0 0 0 1.625-1.08 21.82 21.82 0 0 1 1.818-2.342c.197-.186.277-1.05.16-1.08a3.131 3.131 0 0 0-.63.192.765.765 0 0 0-.033-.684c-.193-.134-1.457.704-1.326.77a2.156 2.156 0 0 0-.866-2.47 6.525 6.525 0 0 1-.674 1.743 3.62 3.62 0 0 0-.395-3.368 4.019 4.019 0 0 1 .117 3.56c-.036.137.066.563.15.45a6.603 6.603 0 0 0 .866-2.096 2.59 2.59 0 0 1 .652 2.203c-.504.624-.516.914-.802 1.206-.362.37-.486.377-.791.718-.092.505.096.61.278.685a.52.52 0 0 0 .588-.289c.14-.246.011-.406.107-.695a6.348 6.348 0 0 1 .385-.962 2.756 2.756 0 0 1 .61-.62c.235-.15.802-.578.866-.439s-.237.568-.237.568a2.482 2.482 0 0 0 .718-.108c.096-.085.182.075.16.15a1.732 1.732 0 0 1-.3.77c-.224.246-1.17 1.394-1.434 1.81-.289.458-.47 1.142-1.089 1.217-.077.01-.363-.114-.481-.075zm.653-2.515c-.285.438-.765.676-.44.93.2.157.319-.448.44-.93zm-4.385 4.54c-.152-.02-.223.188-.151.52.143-.045.916.16.867-.09-.018-.094-.403.064-.6-.088-.167-.128-.031-.332-.116-.342zm1.84-6.407c-.853 2.217-1.76 3.194-2.06 4.748-.195 1.007.266 1.6.551 1.666.191-.251-.388-.163-.157-1.525a27.508 27.508 0 0 1 1.784-4.639c.05-.116-.064-.39-.117-.25zm-3.855 6.046c-.03-.017-.395-.017-.456.177s.06.48.164.45-.018-.237.036-.329.381-.222.256-.298zm1.441 6.013c.196-.146.397.182.513 0 .05-.077-.008-.128-.173-.174s-.255-.071-.318-.09c-.196-.06-.03-.25-.007-.347s-.098-.204-.196-.189-.181.31-.15.4.202.189.308.272a4.433 4.433 0 0 0-1.652 1.577c-.076.181-.023.398-.09.596-.046.134-.146.052-.16.235-.016.225-.064.233-.128.264-.069.032-.093-.156-.58-.09-.552.073-.292.315-.544.43-.148.066-.198-.026-.37.022-.31.088-.184.348-.385.378-.576.083-1.023-.336-2.453-.31-1.079.02-2.16.711-3.697.792a4.1 4.1 0 0 1-1.97-.588 2.284 2.284 0 0 0 1.849.943c.782.136 3.15-.625 3.713-.664a8.412 8.412 0 0 1 1.637.06 12.475 12.475 0 0 0 1.306-.008c.172-.019.257-.234.257-.234 0 .113.03.272.233.257.144-.01-.12-.695.438-.868.25-.053.491.158.589.173a1.45 1.45 0 0 0 .551-.875 7.698 7.698 0 0 1 1.479-1.962zm.392-5.079c-.363-.11-1.03 1.271-1.011 2.226.023 1.093.827 2.233.996 2.151.12-.058-.558-1.172-.535-2.204.027-1.221.78-2.103.55-2.173zm-4.717 6.275c.08.08.366.107.416.012 0-.015-.007-.067-.024-.073.005-.061-.086-.001-.116-.012.013-.162-.09-.236-.127-.06-.002.013-.006-.002-.006.036-.005 0-.132-.074-.146.051 0 .01-.015.028.003.046zm2.088-2.941c.036-.104-.104-.115-.19-.193-.1-.091-.122-.238-.206-.13-.036.047.073.077.073.152a.78.78 0 0 0-.316.413c-.01.091.097.153.085.22-.007.042-.14.103-.08.17s.27-.13.275-.177c.007-.08-.093-.11-.085-.225.01-.143.43-.192.444-.23zM24.325 34.864c-.146.078.001.218.044.234a3.815 3.815 0 0 0 2.345-.582 3.727 3.727 0 0 0 1.402-2.558 8.395 8.395 0 0 1-1.182 2.065 4.3 4.3 0 0 1-2.447.99c-.112-.001-.142-.16-.162-.15zm.667-1.397a2.266 2.266 0 0 1-.254.96c-.12.125-.295.322-.286.442s.081.123.123.049.177-.156.31-.328a4.412 4.412 0 0 0 .41-1.353 2.188 2.188 0 0 1-.302.23zm-.557-6.542c-.251-.142-.573 1.159-1.14 1.703a4.03 4.03 0 0 1-3.098.937c.088.356.44.679 1.36.926a2.064 2.064 0 0 1-.958 1.238c.091.416.65.671 1.147.721-.754.517-.787 1.361-1.861 2.435a3.494 3.494 0 0 0 3.23-1.369c.044.2-.435.962-.533 1.164a4.853 4.853 0 0 0 2.205-.893c.033-.083.009-.221-.065-.173s-1.804.828-1.804.828a2.86 2.86 0 0 0 .402-1.336 3.932 3.932 0 0 1-2.902 1.615c.582-.574.776-1.788 1.64-2.172.017-.008.1-.236-.027-.26a2.224 2.224 0 0 1-1.138-.495s.55-.197.632-.335a2.128 2.128 0 0 0 .311-1.115c-.652-.206-.963-.312-1.066-.517a3.662 3.662 0 0 0 2.599-.754c.564-.502.5-1.377 1.066-2.148zm-3.64 6.533c.046-.042.062-.266.033-.237a5.853 5.853 0 0 1-1.238-.115 2.214 2.214 0 0 1-2.492-.131 1.489 1.489 0 0 0 .172-.557c-.166-.028-.18.321-.374.45a1.918 1.918 0 0 1-1.02.205 1.104 1.104 0 0 1-.934-.278c-.09-.017-.303-.025-.336.033.039.336 1.909 1.019 2.484.368.393.647 1.672.775 2.631.107a2.421 2.421 0 0 0 .739.078c.171.02.314.098.335.077zm-1.55-.319a2.008 2.008 0 0 0 .525-.156 1.61 1.61 0 0 0 .197-.68 1.704 1.704 0 0 0-.328.45.957.957 0 0 0-.393.386zm.162-6.42a5.983 5.983 0 0 0-.897 1.841.492.492 0 0 1-.108-.26c.01-.109.043-.364 0-.38-.32-.065-.091.706.097.972.107-.335.23-.648.337-.983.018.041.047.094.065.136a5.455 5.455 0 0 0 .505-1.326zm-.95-.37c-.195-.014-.633 1.074-.663 1.63-.01.108-.723.912-.587.977s.777-.662.777-.76a4.368 4.368 0 0 1 .473-1.847zm-3.314 1.13c-.42 1.565-1.565.885-1.754 1.667.668-.37 1.66.088 1.754-1.667zm.359-2.499a4.661 4.661 0 0 0-1.087 2.798 23.547 23.547 0 0 1 1.086-2.798zm3.26-2.554c-.276.267-1.155 1.89-1.021 2.16.064.127.203-.246.267-.18s-.168.6-.054.797c.363.13 2.003-1.49 1.81-1.65-.097-.078-1.275 1.357-1.502 1.243-.248-.126.065-.637-.105-.753-.046.018-.05.089-.097.107a11.648 11.648 0 0 0 .703-1.725zm-1.106-.735a7.123 7.123 0 0 1-2.842 2.693c.179.251.84.622 1.043.351.163-.216-.447-.106-.755-.276a5.532 5.532 0 0 0 2.554-2.768zm-2.73 8.98a3.098 3.098 0 0 1 2.582.197 1.52 1.52 0 0 1 1.884-.3c.487-.062.62.61.723.866a3.228 3.228 0 0 0-.008-.746c.267-.224.655-.126.803-.205.113-.06-.194-.132-.303-.197-.275.035-.493.161-.697.188a4.297 4.297 0 0 0-1.197-.5 1.235 1.235 0 0 0-1.164.656 2.599 2.599 0 0 0-2.64-.09c-.067.046-.041.147.016.131zm10.824-8.15a3.017 3.017 0 0 0-.526 2.597c.046.093.45-.252.548-.208s.084.225.208.274c.385.152 1.165-1.098.997-1.205-.307.153-.395.82-.833.953-.285.086-.098-.395-.13-.427a3.646 3.646 0 0 0-.549.274c-.34.095-.03-1.39.285-2.258zm-4.329.23c-.595.571-.591 1.763-.438 2.772.471-.033.855-.756.91-.701s-.187.462-.044.526c.37.167 1.702-1.478 1.71-2.18-.26.55-1.226 1.938-1.458 1.808-.067-.038.164-.637.088-.647-.324-.041-.742.89-.92.811-.219.128-.13-1.318.153-2.389zm10.098-1.448a.7.7 0 0 0 .052.13c-.014-.034-.027-.076-.052-.13zm-3.517-2.016a2.626 2.626 0 0 0-.446 1.05 5.37 5.37 0 0 0-.033 1.128.358.358 0 0 1 .223.078c.084.08.03.211.078.346a2.93 2.93 0 0 0 1.195-.815 8.656 8.656 0 0 0-1.028.558.587.587 0 0 0-.089-.246c-.067-.078-.224-.055-.224-.055a2.172 2.172 0 0 1 .18-1.106c.044-.179.111-.636.144-.938zm-3.115.469a1.707 1.707 0 0 0-.514 1.619c.082.013.176-.024.258-.011a.402.402 0 0 0 0 .368 2.94 2.94 0 0 0 1.697-2.01 6.102 6.102 0 0 1-1.497 1.708c-.01-.1-.022-.234-.033-.335-.07.016-.142.042-.212.056a1.68 1.68 0 0 1 .301-1.395zm-2.612-.804c-.302.167-.368.424-.67.603a1.409 1.409 0 0 0-.592 1.072c0 .089.156-.268.323-.413a4.204 4.204 0 0 0-.178 1.563c.115.073.335-.224.335-.224a1.102 1.102 0 0 0 1.06-.547 2.887 2.887 0 0 1-.837.336.11.11 0 0 0-.09-.135c-.112-.016-.12.092-.161-.008-.237-.562.3-1.388.81-2.247zm-3.06.424c.378.594 1.386.092 1.91-.547-.82.56-1.492.862-1.865.29l-.045.257zm2.506-2.76c-.167.086.125.484.457.542.067.02-.038.105.134.105.255-.02.954-.467.809-.467a2.275 2.275 0 0 1-.724.248c-.223.06-.74-.386-.676-.429zm2.886.428c-.112.05-.361.444-.581.628a1.327 1.327 0 0 0-.153.648c.029.143.22.172.22.229s-.058.126.028.171c.133.07 1.611-1.25 1.438-1.448-.104-.117-1.236 1.22-1.276 1.19s.038-.275.038-.275-.267.076-.229-.096.572-.981.515-1.047zm.839-2.53a2.045 2.045 0 0 1-1.001.516 1.264 1.264 0 0 0 1.943-.598 1.65 1.65 0 0 1-1.582.623 1.41 1.41 0 0 0 .64-.541zm9.692-1.58c-.364.601-.481 1.154-.337 1.154.162 0 .044-.473.337-1.153zm-3.607 6.1a1.24 1.24 0 0 0 .114.744c.025.01-.01-.249.049-.103a1.46 1.46 0 0 0 .294.36c.143.153.342-.025.181-.038-.21-.017-.599-.688-.638-.962zm-1.248.116c-.3-.358-.004.726.22.628a4.184 4.184 0 0 0 .247-1.62c-.12.181-.134 1.191-.296 1.182s-.082-.084-.171-.19zm-.295-1.486c.047-.226-.105-.403-.095-.115.018.543-.353 1.086-.362 1.448a.591.591 0 0 0 .285.543c.057.01.114-.038.2-.096s.095-.009.105-.095-.013-.087-.21-.066-.064-.944.076-1.62zm-2.353-.839c-.067-.006-.095.295-.143.372-.046.074-.342.414-.4.533a2.461 2.461 0 0 0-.114 1.171c.067.048.109-.096.18-.056.106.057.033.19.096.219.296.136 1.46-1.362 1.315-1.629-.098-.179-.086.084-.143.2-.092.186-.94 1.202-1.058 1.143-.042-.02.03-.19-.019-.238s-.193.007-.238-.038c-.096-.098.209-.883.458-1.285.056-.092.155-.383.066-.391zm4.738-.425a1.738 1.738 0 0 0 .074.779c.032.082.17.152.244.215.066.057.108.222.247.26a7.712 7.712 0 0 1-.565-1.254zm-2.599-.992a1.462 1.462 0 0 0-.041.91 4.173 4.173 0 0 1 .73-.467 1.201 1.201 0 0 0-.582.115 1.309 1.309 0 0 1-.106-.558zm-2.574-.689a1.208 1.208 0 0 0-.295 1.09 1.895 1.895 0 0 0 1.37-1.09 2.16 2.16 0 0 1-1.09.656c-.116-.16-.032-.387.015-.656zM14.922 32.082a1.212 1.212 0 0 0-.402.716c.096-.056.136-.075.533-.08-.143-.022-.249-.466-.131-.636zm-1.79.051s-.402.49-.278.584.197.015.212-.05-.046-.142-.03-.198l.095-.336zm-3.61 2.06c.233-1.845 1.187-1.825 1.18-2.099s-1.291.456-1.179 2.099zm-1.628-1.885c.066.088.343-.095.577-.102a1.96 1.96 0 0 0 .804-.197c.021-.073-.52.051-.672.066s-.768.058-.709.233zm.175-2.505a1.13 1.13 0 0 0 1.374.577 5.829 5.829 0 0 1-1.374-.577zm-.723 6.01a1.502 1.502 0 0 0 .736 1.356c.178.068.288.053.428.24a2.136 2.136 0 0 0 .522-.074c-.372-.145-1.54-.795-1.686-1.523zm-4.024-.722c.024.004.145-.022.119-.057a2.93 2.93 0 0 1-.584-1.642 1.497 1.497 0 0 0-.162-.532c-.077-.011-.112.054-.108.149a3.325 3.325 0 0 1 .079.549c.052.685.45 1.49.656 1.533zm-.688-5.454l.19.25s.183-1.354.162-1.38-.081-.075-.115-.028-.237 1.158-.237 1.158zm1.639-3.358c-.005.152-.023.316-.027.467a4.476 4.476 0 0 1 1.3-1.306c-.017-.137-1.307.676-1.273.84zm.733-9.99c-.068 0-.142.297-.118.375.096.309.5.836.584.765s-.162-.347-.299-.644-.099-.496-.167-.496zm-.937-3.777a3.776 3.776 0 0 0 .035-.6 1.937 1.937 0 0 0-.05-.66 1.362 1.362 0 0 0-.064.565 3.757 3.757 0 0 1-.08.646.53.53 0 0 0 .16.049zm1.123-5.227c.07.02.14-.26.243-.607s.326-.634.193-.673-.286.336-.389.683-.116.577-.047.597zm4.769-1.639c.246-.161.492-.21.448-.298s-.363.056-.61.218-.435.35-.378.437.293-.195.54-.357zm2.431 14.426c-.004.084.007.188.005.23.108.036.627.023.63-.055.005-.12-.4-.038-.635-.176zm-.882-2.345l-.017.192a1.761 1.761 0 0 0 .548-.29 2.276 2.276 0 0 1-.531.099zM30.542 3.62c-.048-.08-.177.02-.216.085-.106.178.27.957.386 1.065-.002.047-.003.093-.007.14-.228.037-.381 1.355-.24 2.239a4.465 4.465 0 0 0-1.637-1.483c2.156 1.617 1.886 3.247 1.29 4.911-.085.238-1.064.284-1.243.132-.182-.156-.209-2.287-1.877-2.201 1.492.463 1.441 1.797 1.815 2.649a2.456 2.456 0 0 1 1.29-.016 6.56 6.56 0 0 0 .633-2.463c-.131-1.635-.254-2.893.264-3.858a3.777 3.777 0 0 1-.457-1.2zm.647 2.838c-.168 1.165 1.428 1.382.217 4.52a3.935 3.935 0 0 0 .66-2.717c-.162-.416 1.008-.506 1.113-.345 0 0 .128-.023.04-.138-.139-.177-.934-.181-1.064-.256a3.55 3.55 0 0 1-.966-1.063zm-.193-1.043c-.295.74 1.425.836 1.715.126.068-.169-.045-.108-.088-.066-.691.68-1.56.306-1.627-.06zm.197-.493c-.121.002-.155.94.51.778a.627.627 0 0 0 .548-.422c.197-.005.225.066.318.104s.117-.074.087-.12c-.082-.126-.454-.126-.531-.247-.099.18-.253.443-.45.466-.337.038-.417-.56-.482-.56zm.28-.145c-.006 0-.046 0-.06.065-.033.149.142.133.18.358.001.007.063.023.065.002.009-.102-.018-.452-.185-.425zm.855-.126c-.148-.005-.114.124-.066.142.301.115.703.657.822.745.111.083.372.208 1.128.175.066-.002.066-.089.017-.093-1.32-.115-1.463-.954-1.901-.97zm-1.266-.995c.016-.079-.105-.035-.11.036-.068.864.627.899 1.01.955.117.017.15-.077-.005-.106-.455-.087-.988-.42-.895-.885zm-3.27-.044c-.098-.008-.115.077 0 .108a2.886 2.886 0 0 1 1.556 1.133 1.199 1.199 0 0 0 .138-.453c-.03-.453-.876-.72-1.694-.788zm1.334.617c-.08-.074-.128-.009-.051.042a.509.509 0 0 1 .176.193c.026.059.098.036.07-.017a.953.953 0 0 0-.195-.218zm8.5 48.516a1.93 1.93 0 0 0 1.957-.603 4.927 4.927 0 0 0 .377-2.937c-.043-.408.025-.696-.056-.748-.075.325-.975.648-1.453 1.575a7.42 7.42 0 0 0-.825 2.713zm15.21-5.075c0 .032.153.569.23 1.139a4.602 4.602 0 0 0 2.202-3.605 5.59 5.59 0 0 0-.635-3.617c.063-.163.171-.406.262-.624.651-.496 1.447-3.304.384-4.778a2.014 2.014 0 0 1-.025-.632c.024-.177.109-.308.069-.387-.071-.14-.395.64-.57.69a6.263 6.263 0 0 0 .482-1.808c.004-.475-.048-1.245-.23-1.25a8.2 8.2 0 0 1-.311 1.177c-.296.627-.87 1.218-.982 1.63a4.12 4.12 0 0 0-.065 1.512c-.209-.161-.111-.748-.263-.778-.234-.047-.505 1.413.186 3.55a3.246 3.246 0 0 1-.033.93 2.911 2.911 0 0 0-2.028-.284 1.993 1.993 0 0 0-1.194 2.948c.815 1.425 2.367 1.35 3.773-.297a4.576 4.576 0 0 1-1.251 4.484zm1.38-4.556c.104.03.14-.237.23-.547s.218-.596.114-.626-.15.277-.24.588-.208.555-.103.585zm-.75-2.164c-.111.303-.316 1.026-.152 1.099.137.06.233-.998.152-1.099zm-.127 1.24s-.8-.821-1.326-.79-.526.176-.624.319a1.306 1.306 0 0 0-.165.723 1.287 1.287 0 0 0 .252.8.937.937 0 0 0 .625.153 1.854 1.854 0 0 0 .92-.405 1.593 1.593 0 0 0 .319-.8z" fill="#1d1d1b" fill-rule="evenodd"/><path d="M29.485 10.265a1.041 1.041 0 0 0 .45-.832 2.984 2.984 0 0 0-1.298-2.223c-1.168-.729-3.428-.56-4.297-.568-1.654-.016-2.043-.964-2.087-1.805A1.138 1.138 0 0 0 23.89 3.63a1.35 1.35 0 0 0-1.407-1.298 2.259 2.259 0 0 0-2.328 2.536c.034 3.344 4.167 2.668 4.745 2.571a7.71 7.71 0 0 1 2.615.189 1.831 1.831 0 0 1 1.238 1.296c.147.442.286 1.423.731 1.34z" fill="#e85023" fill-rule="evenodd"/><path d="M57.412.52c0 .49 0 39.72.074 40.794.01.152-.06 2.419-.322 5.044-.048.482-.508 2.492-.76 3.444a27.751 27.751 0 0 1-7.143 11.914 35.24 35.24 0 0 1-5.035 4.093 36.39 36.39 0 0 1-6.506 3.092 26.362 26.362 0 0 1-8.615 1.396 26.816 26.816 0 0 1-8.727-1.309 32.122 32.122 0 0 1-6.995-3.324 24.34 24.34 0 0 1-5.819-5.133 28.643 28.643 0 0 1-5.787-10.615c-.168-.536-.707-2.976-.77-3.48C.68 43.814.521 41.491.521 41.34L.47.594 57.412.52zM0 0v41.301a39.619 39.619 0 0 0 .447 5.133c.077.491.607 2.873.822 3.593a28.67 28.67 0 0 0 18.924 19.49 26.447 26.447 0 0 0 8.756 1.348 29.62 29.62 0 0 0 9-1.447 28.962 28.962 0 0 0 6.59-3.148 25.393 25.393 0 0 0 5.147-4.172 26.59 26.59 0 0 0 7.204-12.18c.255-.962.619-2.68.8-3.492a42.97 42.97 0 0 0 .364-5.127c-.057-13.741 0-27.536 0-41.299z" fill="#1d1d1b" fill-rule="evenodd"/></svg>