<?xml version="1.0" encoding="UTF-8"?> <!-- Generator: Adobe Illustrator 21.1.0, SVG Export Plug-In . SVG Version: 6.00 Build 0) --> <svg xmlns="http://www.w3.org/2000/svg" xmlns:xlink="http://www.w3.org/1999/xlink" id="Ebene_1" x="0px" y="0px" viewBox="0 0 503.1 93.1" style="enable-background:new 0 0 503.1 93.1;" xml:space="preserve"> <style type="text/css"> .st0{clip-path:url(#SVGID_2_);fill:#FDC728;} .st1{clip-path:url(#SVGID_4_);fill:#1E5C87;} .st2{fill:#1E5C87;} </style> <g> <g> <g> <defs> <rect id="SVGID_1_" x="21.1" y="20.6" width="72.4" height="64.2"></rect> </defs> <clipPath id="SVGID_2_"> <use xlink:href="#SVGID_1_" style="overflow:visible;"></use> </clipPath> <path class="st0" d="M44.1,29.5c1.2,0,10.1,0.1,11.3,0.1c1.2,0,2.9,0.3,2.4,2.3c-0.6,2-2.5,6.8-1.3,9.3c1.2,2.4,5.6,3.1,7.8,1.7 c3.8-2.3,1.6-9.4,0.8-10.8c-0.7-1.3,0.3-1.7,1.5-1.7c1.2,0,12.8,1.2,14.3,1.4c1.2,0.2,1.7,1,1.7,2.3c0,1.2-0.4,11.8-0.4,12.8 s-0.8,1.3-2,0.9c-1.2-0.3-4.4-1.1-6.2,0.6c-1.8,1.7-2.3,5.9-0.2,7.9c1.8,1.7,5.1,1.9,7.1,1c1.4-0.7,2.2-0.4,2.2,0.8 c0,1.2-0.1,11.3-0.1,12.1c0,0.7-0.8,1.2-1.8,1.2c-1,0-9.9,0.2-11.1,0.2c-1.2,0-1.2,1.3-0.8,2.3c0.7,1.6,1.8,3.8,0.6,6.6 c-1,2.3-6.3,3.9-9.1,1.2c-2.8-2.8-1.3-5.6-0.9-6.6c0.4-1,0.6-2.5,0.4-3c-0.3-1-0.9-0.8-2.4-0.9c-1.5,0-12.8,0.3-13.8,0.3 c-1,0-1.7-0.5-1.6-2.5c0.1-2-0.1-12.8-0.1-14.1c0-1.2-0.9-1.5-1.9-1c-1,0.5-3.5,1.9-5.7,1.3c-2.2-0.6-4.3-2.8-3.8-6.3 c0.6-3.4,3.3-4.6,5.8-3.8c2.4,0.8,3.8,1.3,4.9,1.1c0.8-0.2,1.5-0.9,1.5-1.9s-0.8-13.1-0.8-13.8C42.7,29.7,43.4,29.5,44.1,29.5"></path> </g> </g> </g> <g> <g> <g> <defs> <rect id="SVGID_3_" x="0.6" y="1.6" width="58.5" height="70.6"></rect> </defs> <clipPath id="SVGID_4_"> <use xlink:href="#SVGID_3_" style="overflow:visible;"></use> </clipPath> <path class="st1" d="M11,18.4c1.2,0,11.7,0.2,12.4,0.2c0.7,0,1.2-0.5,1.2-1.2c0-0.7-1.1-4,0.8-5.9c1.9-1.9,6.5-2,7.6,0.1 c1.2,2.1-0.3,6.2,1.6,6.7c1.9,0.5,10.5-0.3,11.9-0.3c1.4,0,2,0.5,2.1,1.7c0.1,1.5,0.8,14.2,0.8,15.2c0,0.9-0.5,1.9-2.6,1.6 c-2.1-0.3-5.7-2.3-8.4-1.7c-1.8,0.4-4,2.2-3.3,5.3c0.6,3.1,3.3,4.5,5.7,4.1c2.4-0.4,6-1.1,7.2-0.4c1.2,0.7,1.2,2.1,1.1,3.3 c0,1.2,0.4,9.2,0.3,10.4c0,1.2-0.5,1.9-2.2,2.1c-1.7,0.2-10.5,0.8-11.9,1c-1.4,0.2-2.2,1.2-1.5,2.6c0.7,1.4,2.1,4.1,0.6,5.9 c-1.8,2.2-8.8,2.6-10.2-0.8c-1.2-2.7,0.1-5-0.2-6.4c-0.2-1.4-1.2-1.4-2.6-1.5c-1.4,0-8.6,0-9.8-0.1c-1.2-0.1-1.4-1.7-1.4-2.9 c0-1.2-0.3-11.9-0.3-13.3c0-1.4,1.4-1.4,2.4-0.9c0.9,0.5,4.7,2.5,7.6,1.5c2.9-1,3.3-5.7,2.1-7.9c-1.2-2.3-4.6-3.2-6.5-2.4 c-1.8,0.7-2.6,1.7-3.4,2.3c-0.8,0.6-2.1-0.3-2.1-2.6c0-3,0.2-14,0.2-14.9C10.2,18.3,11,18.4,11,18.4"></path> </g> </g> </g> <path class="st2" d="M385.7,63.5c0,1.6,0.8,2.4,2.4,2.4c1.4,0,2.2-0.8,2.2-2.4c0-1.6-0.9-2.3-2.2-2.3 C386.5,61.1,385.7,61.8,385.7,63.5 M370.5,42.7h-3.9l8.3,22.9h3.6l8.2-22.9h-3.6l-6.2,18.8h-0.1L370.5,42.7z M356.4,63.5 c0,1.6,0.8,2.4,2.4,2.4c1.4,0,2.2-0.8,2.2-2.4c0-1.6-0.9-2.3-2.2-2.3C357.2,61.1,356.4,61.8,356.4,63.5 M346.5,51.4 c2.2,0,3.2,1.4,3.2,4.2l-6.7,0.3C343.1,52.9,344.2,51.4,346.5,51.4 M352.4,62.3c-0.1,0-1.9,0.7-4.3,0.7c-3.6,0-5-1.5-5.2-4.8h10 c0,0,0.1-0.9,0.1-1.9c0-4.3-1.5-7.6-6.3-7.6s-7.3,3.8-7.3,8.8c0,5.4,2.5,8.4,7.5,8.4c3.6,0,5.5-1,5.5-1L352.4,62.3z M322.1,51.4 c2.2,0,3.2,1.4,3.2,4.2l-6.7,0.3C318.7,52.9,319.8,51.4,322.1,51.4 M328,62.3c-0.1,0-1.9,0.7-4.3,0.7c-3.6,0-5-1.5-5.2-4.8h10 c0,0,0.1-0.9,0.1-1.9c0-4.3-1.5-7.6-6.3-7.6s-7.3,3.8-7.3,8.8c0,5.4,2.5,8.4,7.5,8.4c3.6,0,5.5-1,5.5-1L328,62.3z M306.8,61.9 c0,0-1.2,1-3.4,1c-3,0-4.5-1.8-4.5-5.7c0-3.6,1.3-5.7,4.6-5.7c2,0,3.2,0.6,3.3,0.8L306.8,61.9L306.8,61.9z M306.8,49.3 c-0.2-0.1-1.4-0.5-3.1-0.5c-5.1,0-8.3,3.1-8.3,8.7c0,5.4,2.7,8.3,6.9,8.3c2.6,0,3.9-1.1,4.5-1.6h0.1c0.2,0.6,0.9,1.6,2.8,1.6 c1.7,0,2.9-0.6,2.9-0.6V63c0,0-0.4,0.1-1.2,0.1c-1,0-1.4-0.4-1.4-1.7V43.8c0-1,0-2-0.1-2.4l-3.3,0.2c0.1,0.6,0.1,2.1,0.1,3.8 L306.8,49.3L306.8,49.3z M288.2,65.5h3.2V43.8c0-1,0-2-0.1-2.4l-3.2,0.2c0.1,0.6,0.1,2.1,0.1,3.8L288.2,65.5L288.2,65.5z M273.2,61.1c0-1.8,1.9-2.4,4.1-2.4c0.9,0,1.4,0.1,1.6,0.1v3c-0.4,0.4-1.8,1.2-3.4,1.2C274.1,63.1,273.2,62.5,273.2,61.1 M282.2,53.3c0-3.4-2.7-4.5-5.5-4.5c-3.6,0-5.7,0.9-5.7,0.9l0.2,2.9c0.2-0.1,2.1-0.9,4.6-0.9c1.6,0,3.1,0.5,3.1,2.5v2.2 c-0.3,0-0.8-0.1-1.6-0.1c-3.4,0-7.6,0.8-7.6,4.8c0,3.4,2,4.6,4.9,4.6c2.5,0,4.3-1.7,4.4-1.8h0.1c0,0.2,0.4,1.8,2.8,1.8 c1.6,0,2.6-0.6,2.6-0.6V63c0,0-0.4,0.2-0.9,0.2c-0.7,0-1.4-0.3-1.4-1.3L282.2,53.3L282.2,53.3z M255.6,53.6h0.1l3,12h3.7l5.3-16.5 h-3.4l-3.6,12.8h-0.1l-3-12.8h-3.7l-3.1,12.8h-0.1l-3-12.8H244l4.9,16.5h3.6L255.6,53.6z M241.6,65.5V53.7c0-3.2-2.4-4.8-5.4-4.8 c-2.2,0-4.4,1.1-5,1.4v-1.3H228v16.5h3.3V52.8c0,0,1.6-0.9,3.7-0.9c2.1,0,3.4,0.8,3.4,3v10.6L241.6,65.5L241.6,65.5z M217.6,51.4 c2.2,0,3.2,1.4,3.2,4.2l-6.7,0.3C214.2,52.9,215.3,51.4,217.6,51.4 M223.5,62.3c-0.1,0-1.9,0.7-4.3,0.7c-3.6,0-5-1.5-5.2-4.8h10 c0,0,0.1-0.9,0.1-1.9c0-4.3-1.5-7.6-6.3-7.6c-4.8,0-7.3,3.8-7.3,8.8c0,5.4,2.5,8.4,7.5,8.4c3.6,0,5.5-1,5.5-1L223.5,62.3z M202.4,43.1c0,1.6,0.9,2.3,2.2,2.3c1.2,0,2.1-0.7,2.1-2.3s-0.9-2.2-2.1-2.2C203.3,40.8,202.4,41.5,202.4,43.1 M206.2,49.1h-3.3 v16.5h3.3V49.1z M192,51.4c2.2,0,3.2,1.4,3.2,4.2l-6.7,0.3C188.5,52.9,189.6,51.4,192,51.4 M197.8,62.3c-0.1,0-1.9,0.7-4.3,0.7 c-3.6,0-5-1.5-5.2-4.8h10c0,0,0.1-0.9,0.1-1.9c0-4.3-1.5-7.6-6.3-7.6c-4.8,0-7.3,3.8-7.3,8.8c0,5.4,2.5,8.4,7.5,8.4 c3.6,0,5.5-1,5.5-1L197.8,62.3z M182.3,49c0,0-0.4-0.1-1.2-0.1c-1.4,0-3.2,0.7-4.2,2.1v-2h-3.3v16.5h3.2v-11c0-1.8,1.6-2.4,3.4-2.4 c1.1,0,1.7,0.2,2,0.2L182.3,49z M160.6,65.5v-9.8h8.2v-2.8h-8.2v-7.4h9.6v-2.9h-13v22.8H160.6z M140.3,61.9c0,0-1.2,1-3.4,1 c-3,0-4.5-1.8-4.5-5.7c0-3.6,1.3-5.7,4.6-5.7c2,0,3.2,0.6,3.3,0.8V61.9z M140.3,49.3c-0.2-0.1-1.4-0.5-3.1-0.5 c-5.1,0-8.3,3.1-8.3,8.7c0,5.4,2.7,8.3,6.9,8.3c2.6,0,3.9-1.1,4.5-1.6h0.1c0.2,0.6,0.9,1.6,2.8,1.6c1.7,0,2.9-0.6,2.9-0.6V63 c0,0-0.4,0.1-1.2,0.1c-1,0-1.4-0.4-1.4-1.7V43.8c0-1,0-2-0.1-2.4l-3.3,0.2c0.1,0.6,0.1,2.1,0.1,3.8L140.3,49.3L140.3,49.3z M114.8,61.1c0-1.8,1.9-2.4,4.1-2.4c0.9,0,1.4,0.1,1.6,0.1v3c-0.4,0.4-1.8,1.2-3.4,1.2C115.7,63.1,114.8,62.5,114.8,61.1 M123.8,53.3c0-3.4-2.7-4.5-5.5-4.5c-3.6,0-5.7,0.9-5.7,0.9l0.2,2.9c0.2-0.1,2.1-0.9,4.6-0.9c1.6,0,3.1,0.5,3.1,2.5v2.2 c-0.3,0-0.8-0.1-1.6-0.1c-3.4,0-7.6,0.8-7.6,4.8c0,3.4,2,4.6,4.9,4.6c2.5,0,4.3-1.7,4.4-1.8h0.1c0,0.2,0.4,1.8,2.8,1.8 c1.6,0,2.6-0.6,2.6-0.6V63c0,0-0.4,0.2-0.9,0.2c-0.7,0-1.4-0.3-1.4-1.3L123.8,53.3L123.8,53.3z M96.4,45.5c0,0,1.3,0,3,0 c2.9,0,4.5,0.9,4.5,3.5c0,2.1-1.2,3.2-2.4,3.7c-0.5,0-1.5,0-2.1,0c-1.6,0-3,0-3,0V45.5z M96.4,55.2c0,0,1.3-0.1,3.1-0.1 c3.3,0,5,0.9,5,3.8c0,2.9-1.9,3.8-5,3.8c-2,0-3.1,0-3.1,0V55.2z M93.1,65.5c1.4,0,4,0,6.6,0c4.8,0,8.4-1.8,8.4-6.7 c0-2.3-1.2-4.7-3.6-5.4v-0.1c1.8-0.8,2.9-2.6,2.9-4.8c0-4-3-5.8-7.6-5.8c-3.5,0-6.7,0-6.7,0V65.5z"></path> <path class="st2" d="M157.7,21.3c0-5.7,2.5-8.9,7.2-8.9c4.8,0,7.3,3.2,7.3,8.9s-2.4,9-7.3,9C160.2,30.2,157.7,27,157.7,21.3 M154.2,21.6c0,7.3,4.1,11.7,10.8,11.7c0.9,0,1.7-0.1,2.5-0.2c4.5,5.5,8.4,6.4,10.5,6.4c1,0,1.7-0.2,1.7-0.2v-2.7 c-3.8,0.2-7.4-2.8-9.2-4.6c3.4-1.9,5.3-5.7,5.3-10.8c0-7.3-4.2-11.6-10.8-11.6C158.4,9.5,154.2,14.2,154.2,21.6 M138.1,12.7 c0,0,1.3,0,3,0c2.9,0,4.5,0.9,4.5,3.5c0,2.1-1.2,3.2-2.4,3.7c-0.5,0-1.5,0-2.1,0c-1.6,0-3,0-3,0V12.7z M138.1,22.4 c0,0,1.3-0.1,3.1-0.1c3.3,0,5,0.9,5,3.8c0,2.9-1.9,3.8-5,3.8c-2,0-3.1,0-3.1,0V22.4z M134.7,32.8c1.4,0,4,0,6.6,0 c4.8,0,8.4-1.8,8.4-6.7c0-2.3-1.2-4.7-3.6-5.4v-0.1c1.8-0.8,2.9-2.6,2.9-4.8c0-4-3-5.8-7.6-5.8c-3.5,0-6.7,0-6.7,0V32.8z M119.7,32.8V23h8.2v-2.8h-8.2v-7.4h9.6V9.9h-13v22.8H119.7z M94.7,9.9h-3.9l8.3,22.9h3.6l8.2-22.9h-3.6l-6.2,18.8H101L94.7,9.9z"></path> <path class="st2" d="M491.8,82.5c0,0.5,0.3,0.8,0.8,0.8c0.5,0,0.8-0.3,0.8-0.8c0-0.5-0.3-0.8-0.8-0.8 C492.1,81.7,491.8,81.9,491.8,82.5 M486.7,75.5h-1.3l2.8,7.7h1.2l2.8-7.7H491l-2.1,6.3h0L486.7,75.5z M482,82.5 c0,0.5,0.3,0.8,0.8,0.8c0.5,0,0.8-0.3,0.8-0.8c0-0.5-0.3-0.8-0.8-0.8C482.2,81.7,482,81.9,482,82.5 M478.5,78.4 c0.7,0,1.1,0.5,1.1,1.4l-2.3,0.1C477.3,78.9,477.7,78.4,478.5,78.4 M480.5,82.1c0,0-0.6,0.2-1.5,0.2c-1.2,0-1.7-0.5-1.7-1.6h3.4 c0,0,0-0.3,0-0.6c0-1.5-0.5-2.6-2.1-2.6s-2.5,1.3-2.5,3c0,1.8,0.9,2.8,2.5,2.8c1.2,0,1.9-0.3,1.9-0.3L480.5,82.1z M470,78.4 c0.7,0,1.1,0.5,1.1,1.4l-2.3,0.1C468.8,78.9,469.2,78.4,470,78.4 M472,82.1c0,0-0.6,0.2-1.5,0.2c-1.2,0-1.7-0.5-1.7-1.6h3.4 c0,0,0-0.3,0-0.6c0-1.5-0.5-2.6-2.1-2.6c-1.6,0-2.5,1.3-2.5,3c0,1.8,0.9,2.8,2.5,2.8c1.2,0,1.9-0.3,1.9-0.3L472,82.1z M464.8,81.9 c0,0-0.4,0.3-1.1,0.3c-1,0-1.5-0.6-1.5-1.9c0-1.2,0.4-1.9,1.5-1.9c0.7,0,1.1,0.2,1.1,0.3V81.9z M464.8,77.7c-0.1,0-0.5-0.2-1-0.2 c-1.7,0-2.8,1-2.8,2.9c0,1.8,0.9,2.8,2.3,2.8c0.9,0,1.3-0.4,1.5-0.5h0c0.1,0.2,0.3,0.5,0.9,0.5c0.6,0,1-0.2,1-0.2v-0.8 c0,0-0.1,0-0.4,0c-0.3,0-0.5-0.1-0.5-0.6v-5.9c0-0.3,0-0.7,0-0.8l-1.1,0.1c0,0.2,0,0.7,0,1.3L464.8,77.7L464.8,77.7z M458.4,83.2 h1.1v-7.3c0-0.3,0-0.7,0-0.8l-1.1,0.1c0,0.2,0,0.7,0,1.3V83.2z M453.2,81.7c0-0.6,0.6-0.8,1.4-0.8c0.3,0,0.5,0,0.5,0v1 c-0.1,0.1-0.6,0.4-1.1,0.4C453.5,82.3,453.2,82.2,453.2,81.7 M456.2,79.1c0-1.2-0.9-1.5-1.9-1.5c-1.2,0-1.9,0.3-1.9,0.3l0.1,1 c0.1,0,0.7-0.3,1.6-0.3c0.6,0,1.1,0.2,1.1,0.8v0.8c-0.1,0-0.3,0-0.5,0c-1.1,0-2.6,0.3-2.6,1.6c0,1.1,0.7,1.6,1.6,1.6 c0.9,0,1.5-0.6,1.5-0.6h0c0,0.1,0.1,0.6,0.9,0.6c0.5,0,0.9-0.2,0.9-0.2v-0.8c0,0-0.1,0.1-0.3,0.1c-0.2,0-0.5-0.1-0.5-0.4L456.2,79.1 L456.2,79.1z M447.1,79.1L447.1,79.1l1.1,4h1.3l1.8-5.6h-1.2l-1.2,4.3h0l-1-4.3h-1.2l-1,4.3h0l-1-4.3h-1.3l1.7,5.6h1.2L447.1,79.1z M442.4,83.2v-4c0-1.1-0.8-1.6-1.8-1.6c-0.8,0-1.5,0.4-1.7,0.5v-0.4h-1.1v5.6h1.1v-4.3c0,0,0.5-0.3,1.2-0.3c0.7,0,1.1,0.3,1.1,1v3.6 L442.4,83.2L442.4,83.2z M434.2,78.4c0.7,0,1.1,0.5,1.1,1.4l-2.3,0.1C433,78.9,433.4,78.4,434.2,78.4 M436.2,82.1 c0,0-0.6,0.2-1.5,0.2c-1.2,0-1.7-0.5-1.7-1.6h3.4c0,0,0-0.3,0-0.6c0-1.5-0.5-2.6-2.1-2.6c-1.6,0-2.5,1.3-2.5,3 c0,1.8,0.9,2.8,2.5,2.8c1.2,0,1.9-0.3,1.9-0.3L436.2,82.1z M428.9,75.6c0,0.5,0.3,0.8,0.7,0.8c0.4,0,0.7-0.2,0.7-0.8 s-0.3-0.8-0.7-0.8C429.2,74.8,428.9,75,428.9,75.6 M430.2,77.6h-1.1v5.6h1.1V77.6z M425.2,78.4c0.7,0,1.1,0.5,1.1,1.4l-2.3,0.1 C424.1,78.9,424.5,78.4,425.2,78.4 M427.2,82.1c0,0-0.6,0.2-1.5,0.2c-1.2,0-1.7-0.5-1.7-1.6h3.4c0,0,0-0.3,0-0.6 c0-1.5-0.5-2.6-2.1-2.6s-2.5,1.3-2.5,3c0,1.8,0.8,2.8,2.5,2.8c1.2,0,1.9-0.3,1.9-0.3L427.2,82.1z M422.1,77.6c0,0-0.1,0-0.4,0 c-0.5,0-1.1,0.2-1.4,0.7v-0.7h-1.1v5.6h1.1v-3.7c0-0.6,0.5-0.8,1.1-0.8c0.4,0,0.6,0.1,0.7,0.1L422.1,77.6z M414.6,83.2v-3.3h2.8v-1 h-2.8v-2.5h3.2v-1h-4.4v7.7H414.6z M407.5,81.9c0,0-0.4,0.3-1.1,0.3c-1,0-1.5-0.6-1.5-1.9c0-1.2,0.4-1.9,1.5-1.9 c0.7,0,1.1,0.2,1.1,0.3L407.5,81.9L407.5,81.9z M407.5,77.7c-0.1,0-0.5-0.2-1-0.2c-1.7,0-2.8,1-2.8,2.9c0,1.8,0.9,2.8,2.3,2.8 c0.9,0,1.3-0.4,1.5-0.5h0c0.1,0.2,0.3,0.5,0.9,0.5c0.6,0,1-0.2,1-0.2v-0.8c0,0-0.1,0-0.4,0c-0.3,0-0.5-0.1-0.5-0.6v-5.9 c0-0.3,0-0.7,0-0.8l-1.1,0.1c0,0.2,0,0.7,0,1.3L407.5,77.7L407.5,77.7z M399.1,81.7c0-0.6,0.6-0.8,1.4-0.8c0.3,0,0.5,0,0.5,0v1 c-0.1,0.1-0.6,0.4-1.1,0.4C399.4,82.3,399.1,82.2,399.1,81.7 M402.1,79.1c0-1.2-0.9-1.5-1.9-1.5c-1.2,0-1.9,0.3-1.9,0.3l0.1,1 c0.1,0,0.7-0.3,1.6-0.3c0.6,0,1.1,0.2,1.1,0.8v0.8c-0.1,0-0.3,0-0.5,0c-1.1,0-2.6,0.3-2.6,1.6c0,1.1,0.7,1.6,1.6,1.6 c0.9,0,1.5-0.6,1.5-0.6h0c0,0.1,0.1,0.6,0.9,0.6c0.5,0,0.9-0.2,0.9-0.2v-0.8c0,0-0.1,0.1-0.3,0.1c-0.2,0-0.5-0.1-0.5-0.4L402.1,79.1 L402.1,79.1z M392.7,76.4c0,0,0.4,0,1,0c1,0,1.5,0.3,1.5,1.2c0,0.7-0.4,1.1-0.8,1.2c-0.2,0-0.5,0-0.7,0c-0.6,0-1,0-1,0V76.4z M392.7,79.7c0,0,0.4,0,1,0c1.1,0,1.7,0.3,1.7,1.3c0,1-0.6,1.3-1.7,1.3c-0.7,0-1,0-1,0V79.7z M391.6,83.2c0.5,0,1.3,0,2.2,0 c1.6,0,2.8-0.6,2.8-2.3c0-0.8-0.4-1.6-1.2-1.8v0c0.6-0.3,1-0.9,1-1.6c0-1.4-1-2-2.6-2c-1.2,0-2.3,0-2.3,0L391.6,83.2L391.6,83.2z M383.2,83.8c0-0.5,0.4-0.8,0.5-0.9c0.6,0.2,2.2,0,2.2,0.8c0,0.5-0.4,0.8-1.3,0.8C383.6,84.6,383.2,84.3,383.2,83.8 M383.4,79.4 c0-0.7,0.4-1.1,1.1-1.1c0.8,0,1.1,0.5,1.1,1.1c0,0.6-0.3,1.2-1.1,1.2C383.8,80.6,383.4,80.1,383.4,79.4 M384.4,81.4 c1.5,0,2.4-0.7,2.4-1.9c0-0.4-0.1-0.7-0.2-0.9c0.1-0.1,0.4-0.1,0.7-0.1c0.2,0,0.4,0,0.4,0l0-1c-1-0.1-1.5,0.3-1.6,0.4 c-0.3-0.2-0.7-0.4-1.5-0.4c-1.4,0-2.3,0.8-2.3,2c0,0.9,0.4,1.4,1,1.6c-0.3,0.2-0.5,0.6-0.5,0.9c0,0.3,0.1,0.4,0.2,0.6 c-0.6,0.4-0.9,0.9-0.9,1.4c0,0.9,0.7,1.4,2.3,1.4c1.7,0,2.7-0.6,2.7-1.8c0-2.1-3.3-1-3.3-1.9c0-0.2,0.1-0.4,0.2-0.5 C384.1,81.4,384.2,81.4,384.4,81.4L384.4,81.4z M380.8,83.2v-4c0-1.1-0.8-1.6-1.8-1.6c-0.8,0-1.5,0.4-1.7,0.5v-0.4h-1.1v5.6h1.1 v-4.3c0,0,0.5-0.3,1.2-0.3c0.7,0,1.1,0.3,1.1,1v3.6L380.8,83.2L380.8,83.2z M369.8,77.6v4c0,1.2,0.7,1.7,1.8,1.7 c1,0,1.5-0.4,1.6-0.6h0c0,0.1,0.1,0.6,0.9,0.6c0.5,0,0.9-0.2,0.9-0.2v-0.8c0,0-0.1,0-0.3,0c-0.2,0-0.5-0.1-0.5-0.4v-4.3h-1.1v4.3 c-0.2,0.2-0.7,0.3-1.1,0.3c-0.7,0-1.1-0.2-1.1-1v-3.6L369.8,77.6L369.8,77.6z M368.6,77.6c0,0-0.1,0-0.4,0c-0.5,0-1.1,0.2-1.4,0.7 v-0.7h-1.1v5.6h1.1v-3.7c0-0.6,0.5-0.8,1.1-0.8c0.4,0,0.6,0.1,0.7,0.1L368.6,77.6z M362,78.4c0.7,0,1.1,0.5,1.1,1.4l-2.3,0.1 C360.8,78.9,361.2,78.4,362,78.4 M364,82.1c0,0-0.6,0.2-1.5,0.2c-1.2,0-1.7-0.5-1.7-1.6h3.4c0,0,0-0.3,0-0.6c0-1.5-0.5-2.6-2.1-2.6 c-1.6,0-2.5,1.3-2.5,3c0,1.8,0.9,2.8,2.5,2.8c1.2,0,1.9-0.3,1.9-0.3L364,82.1z M356.9,75.6c0,0.5,0.3,0.8,0.7,0.8 c0.4,0,0.7-0.2,0.7-0.8s-0.3-0.8-0.7-0.8C357.2,74.8,356.9,75,356.9,75.6 M358.1,77.6H357v5.6h1.1V77.6z M351.6,77.6v1h1.4 c0.5,0,1,0,1.1,0l-2.5,3.8v0.8h4v-1h-1.7c-0.5,0-0.9,0-1,0l2.5-3.8v-0.8L351.6,77.6L351.6,77.6z M348.7,75.6c0,0.5,0.3,0.8,0.7,0.8 c0.4,0,0.7-0.2,0.7-0.8s-0.3-0.8-0.7-0.8C349,74.8,348.7,75,348.7,75.6L348.7,75.6z M350,77.6h-1.1v5.6h1.1V77.6z M344.4,77.6v0.9 h0.8v4.6h1.1v-4.6h1.4v-0.9h-1.4c0,0,0-0.5,0-0.6c0-0.8,0.2-1.2,1-1.2c0.3,0,0.6,0.1,0.7,0.1l0-0.9c-0.1,0-0.5-0.1-0.8-0.1 c-1.4,0-2.1,0.9-2.1,2.4v0.4H344.4z M342,75.6c0,0.5,0.3,0.8,0.7,0.8c0.4,0,0.7-0.2,0.7-0.8s-0.3-0.8-0.7-0.8 C342.3,74.8,342,75,342,75.6 M343.3,77.6h-1.1v5.6h1.1V77.6z M339.3,83.2h1.1v-7.3c0-0.3,0-0.7,0-0.8l-1.1,0.1c0,0.2,0,0.7,0,1.3 V83.2z M334.3,81.7c0-0.6,0.6-0.8,1.4-0.8c0.3,0,0.5,0,0.5,0v1c-0.1,0.1-0.6,0.4-1.1,0.4C334.6,82.3,334.3,82.2,334.3,81.7 M337.3,79.1c0-1.2-0.9-1.5-1.9-1.5c-1.2,0-1.9,0.3-1.9,0.3l0.1,1c0.1,0,0.7-0.3,1.6-0.3c0.6,0,1.1,0.2,1.1,0.8v0.8 c-0.1,0-0.3,0-0.5,0c-1.1,0-2.6,0.3-2.6,1.6c0,1.1,0.7,1.6,1.6,1.6c0.9,0,1.5-0.6,1.5-0.6h0c0,0.1,0.1,0.6,0.9,0.6 c0.5,0,0.9-0.2,0.9-0.2v-0.8c0,0-0.1,0.1-0.3,0.1c-0.2,0-0.5-0.1-0.5-0.4L337.3,79.1L337.3,79.1z M326.9,77.6v4 c0,1.2,0.7,1.7,1.8,1.7c1,0,1.5-0.4,1.6-0.6h0c0,0.1,0.1,0.6,0.9,0.6c0.5,0,0.9-0.2,0.9-0.2v-0.8c0,0-0.1,0-0.3,0 c-0.2,0-0.5-0.1-0.5-0.4v-4.3h-1.1v4.3c-0.2,0.2-0.7,0.3-1.1,0.3c-0.7,0-1.1-0.2-1.1-1v-3.6L326.9,77.6L326.9,77.6z M319.3,79.3 c0-1.9,0.8-3,2.4-3c1.6,0,2.5,1.1,2.5,3c0,1.9-0.8,3-2.5,3C320.2,82.3,319.3,81.2,319.3,79.3 M318.1,79.4c0,2.5,1.4,3.9,3.6,3.9 c0.3,0,0.6,0,0.8-0.1c1.5,1.8,2.8,2.1,3.5,2.1c0.3,0,0.6-0.1,0.6-0.1v-0.9c-1.3,0.1-2.5-0.9-3.1-1.5c1.1-0.6,1.8-1.9,1.8-3.6 c0-2.5-1.4-3.9-3.7-3.9C319.6,75.3,318.1,76.9,318.1,79.4 M312.5,81.9c0,0-0.4,0.3-1.1,0.3c-1,0-1.5-0.6-1.5-1.9 c0-1.2,0.4-1.9,1.5-1.9c0.7,0,1.1,0.2,1.1,0.3V81.9z M312.5,77.7c-0.1,0-0.5-0.2-1-0.2c-1.7,0-2.8,1-2.8,2.9c0,1.8,0.9,2.8,2.3,2.8 c0.9,0,1.3-0.4,1.5-0.5h0c0.1,0.2,0.3,0.5,0.9,0.5c0.6,0,1-0.2,1-0.2v-0.8c0,0-0.1,0-0.4,0c-0.3,0-0.5-0.1-0.5-0.6v-5.9 c0-0.3,0-0.7,0-0.8l-1.1,0.1c0,0.2,0,0.7,0,1.3L312.5,77.7L312.5,77.7z M307.2,83.2v-4c0-1.1-0.8-1.6-1.8-1.6 c-0.8,0-1.5,0.4-1.7,0.5v-0.4h-1.1v5.6h1.1v-4.3c0,0,0.5-0.3,1.2-0.3c0.7,0,1.1,0.3,1.1,1v3.6L307.2,83.2L307.2,83.2z M296.1,77.6v4 c0,1.2,0.7,1.7,1.8,1.7c1,0,1.5-0.4,1.6-0.6h0c0,0.1,0.1,0.6,0.9,0.6c0.5,0,0.9-0.2,0.9-0.2v-0.8c0,0-0.1,0-0.3,0 c-0.2,0-0.5-0.1-0.5-0.4v-4.3h-1.1v4.3c-0.2,0.2-0.7,0.3-1.1,0.3c-0.7,0-1.1-0.2-1.1-1v-3.6L296.1,77.6L296.1,77.6z M287.9,83.8 c0-0.5,0.4-0.8,0.5-0.9c0.6,0.2,2.2,0,2.2,0.8c0,0.5-0.4,0.8-1.3,0.8C288.3,84.6,287.9,84.3,287.9,83.8 M288.1,79.4 c0-0.7,0.4-1.1,1.1-1.1c0.8,0,1.1,0.5,1.1,1.1c0,0.6-0.3,1.2-1.1,1.2C288.4,80.6,288.1,80.1,288.1,79.4 M289.1,81.4 c1.5,0,2.4-0.7,2.4-1.9c0-0.4-0.1-0.7-0.2-0.9c0.1-0.1,0.4-0.1,0.7-0.1c0.2,0,0.4,0,0.4,0l0-1c-1-0.1-1.5,0.3-1.6,0.4 c-0.3-0.2-0.7-0.4-1.5-0.4c-1.4,0-2.3,0.8-2.3,2c0,0.9,0.4,1.4,1,1.6c-0.3,0.2-0.5,0.6-0.5,0.9c0,0.3,0.1,0.4,0.2,0.6 c-0.6,0.4-0.9,0.9-0.9,1.4c0,0.9,0.7,1.4,2.3,1.4c1.7,0,2.7-0.6,2.7-1.8c0-2.1-3.3-1-3.3-1.9c0-0.2,0.1-0.4,0.2-0.5 C288.7,81.4,288.9,81.4,289.1,81.4z M285.5,83.2v-4c0-1.1-0.8-1.6-1.8-1.6c-0.8,0-1.5,0.4-1.7,0.5v-0.4h-1.1v5.6h1.1v-4.3 c0,0,0.5-0.3,1.2-0.3c0.7,0,1.1,0.3,1.1,1v3.6L285.5,83.2L285.5,83.2z M274.5,77.6v4c0,1.2,0.7,1.7,1.8,1.7c1,0,1.5-0.4,1.6-0.6h0 c0,0.1,0.1,0.6,0.9,0.6c0.5,0,0.9-0.2,0.9-0.2v-0.8c0,0-0.1,0-0.3,0c-0.2,0-0.5-0.1-0.5-0.4v-4.3h-1.1v4.3c-0.2,0.2-0.7,0.3-1.1,0.3 c-0.7,0-1.1-0.2-1.1-1v-3.6L274.5,77.6L274.5,77.6z M268.9,83.8c0-0.5,0.4-0.8,0.5-0.9c0.6,0.2,2.2,0,2.2,0.8c0,0.5-0.4,0.8-1.3,0.8 C269.3,84.6,268.9,84.3,268.9,83.8 M269.1,79.4c0-0.7,0.4-1.1,1.1-1.1c0.8,0,1.1,0.5,1.1,1.1c0,0.6-0.3,1.2-1.1,1.2 C269.4,80.6,269.1,80.1,269.1,79.4 M270.1,81.4c1.5,0,2.4-0.7,2.4-1.9c0-0.4-0.1-0.7-0.2-0.9c0.1-0.1,0.4-0.1,0.7-0.1 c0.2,0,0.4,0,0.4,0l0-1c-1-0.1-1.5,0.3-1.6,0.4c-0.3-0.2-0.7-0.4-1.5-0.4c-1.4,0-2.3,0.8-2.3,2c0,0.9,0.4,1.4,1,1.6 c-0.3,0.2-0.5,0.6-0.5,0.9c0,0.3,0.1,0.4,0.2,0.6c-0.6,0.4-0.9,0.9-0.9,1.4c0,0.9,0.7,1.4,2.3,1.4c1.7,0,2.7-0.6,2.7-1.8 c0-2.1-3.3-1-3.3-1.9c0-0.2,0.1-0.4,0.2-0.5C269.7,81.4,269.9,81.4,270.1,81.4L270.1,81.4z M265.2,75.6c0,0.5,0.3,0.8,0.7,0.8 c0.4,0,0.7-0.2,0.7-0.8s-0.3-0.8-0.7-0.8C265.5,74.8,265.2,75,265.2,75.6 M266.5,77.6h-1.1v5.6h1.1V77.6z M260.3,78.5h0.8v3.1 c0,1,0.4,1.6,1.6,1.6c0.8,0,1.4-0.3,1.4-0.3l0-0.9c0,0-0.4,0.2-1.1,0.2c-0.7,0-0.8-0.5-0.8-1.2v-2.6h1.8l0.1-0.9h-1.9v-0.8h-0.8 c-0.1,0.4-0.4,0.8-1.1,0.9L260.3,78.5L260.3,78.5z M256,77.6v0.9h0.8v4.6h1.1v-4.6h1.4v-0.9h-1.4c0,0,0-0.5,0-0.6 c0-0.8,0.2-1.2,1-1.2c0.4,0,0.7,0.1,0.9,0.2l0-0.9c0,0-0.4-0.1-1-0.1c-1.4,0-2.1,0.9-2.1,2.4v0.4L256,77.6L256,77.6z M253.1,75.7 c0,0.5,0.2,0.7,0.7,0.7c0.5,0,0.7-0.2,0.7-0.7c0-0.5-0.3-0.7-0.7-0.7C253.3,75,253.1,75.2,253.1,75.7 M250.5,75.7 c0,0.5,0.2,0.7,0.7,0.7s0.7-0.2,0.7-0.7c0-0.5-0.2-0.7-0.7-0.7C250.7,75,250.5,75.2,250.5,75.7 M251.4,81.7c0-0.6,0.6-0.8,1.4-0.8 c0.3,0,0.5,0,0.5,0v1c-0.1,0.1-0.6,0.4-1.1,0.4C251.7,82.3,251.4,82.2,251.4,81.7 M254.5,79.1c0-1.2-0.9-1.5-1.9-1.5 c-1.2,0-1.9,0.3-1.9,0.3l0.1,1c0.1,0,0.7-0.3,1.6-0.3c0.6,0,1.1,0.2,1.1,0.8v0.8c-0.1,0-0.3,0-0.5,0c-1.1,0-2.6,0.3-2.6,1.6 c0,1.1,0.7,1.6,1.6,1.6c0.9,0,1.5-0.6,1.5-0.6h0c0,0.1,0.1,0.6,0.9,0.6c0.5,0,0.9-0.2,0.9-0.2v-0.8c0,0-0.1,0.1-0.3,0.1 c-0.2,0-0.5-0.1-0.5-0.4V79.1z M248.9,83.2v-4c0-1.1-0.8-1.6-1.8-1.6c-0.7,0-1.5,0.4-1.7,0.5c0,0,0-0.5,0-0.8v-1.4 c0-0.3,0-0.7,0-0.8l-1.1,0.1c0,0.2,0,0.7,0,1.3v6.8h1.1v-4.3c0,0,0.6-0.3,1.3-0.3c0.7,0,1.2,0.3,1.2,1v3.6L248.9,83.2L248.9,83.2z M242.8,82c-0.1,0.1-0.6,0.3-1.5,0.3c-1,0-1.6-0.5-1.6-1.9c0-1.3,0.6-1.9,1.6-1.9c0.8,0,1.3,0.2,1.4,0.3l0-1c0,0-0.5-0.2-1.5-0.2 c-1.6,0-2.7,1.1-2.7,3c0,2,1,2.8,2.6,2.8c1,0,1.5-0.3,1.6-0.4L242.8,82z M237.2,77.7c0,0-0.6-0.2-1.4-0.2c-1,0-1.9,0.5-1.9,1.6 c0,1.9,2.4,1.3,2.4,2.5c0,0.4-0.2,0.7-0.9,0.7c-0.9,0-1.5-0.3-1.5-0.3l0,1c0.2,0.1,0.8,0.3,1.5,0.3c1,0,2.1-0.4,2.1-1.7 c0-1.9-2.4-1.4-2.4-2.5c0-0.4,0.3-0.7,0.8-0.7c0.8,0,1.3,0.3,1.3,0.3L237.2,77.7z M230.3,78.4c0.7,0,1.1,0.5,1.1,1.4l-2.3,0.1 C229.2,78.9,229.5,78.4,230.3,78.4 M232.3,82.1c0,0-0.6,0.2-1.5,0.2c-1.2,0-1.7-0.5-1.7-1.6h3.4c0,0,0-0.3,0-0.6 c0-1.5-0.5-2.6-2.1-2.6c-1.6,0-2.5,1.3-2.5,3c0,1.8,0.9,2.8,2.5,2.8c1.2,0,1.9-0.3,1.9-0.3L232.3,82.1z M222.7,76.4c0,0,0.4,0,1,0 c1,0,1.5,0.3,1.5,1.2c0,0.7-0.4,1.1-0.8,1.2c-0.2,0-0.5,0-0.7,0c-0.6,0-1,0-1,0V76.4z M222.7,79.7c0,0,0.4,0,1,0 c1.1,0,1.7,0.3,1.7,1.3c0,1-0.6,1.3-1.7,1.3c-0.7,0-1,0-1,0V79.7z M221.6,83.2c0.5,0,1.3,0,2.2,0c1.6,0,2.8-0.6,2.8-2.3 c0-0.8-0.4-1.6-1.2-1.8v0c0.6-0.3,1-0.9,1-1.6c0-1.4-1-2-2.6-2c-1.2,0-2.3,0-2.3,0L221.6,83.2L221.6,83.2z M217.1,83.2v-4 c0-1.1-0.8-1.6-1.8-1.6c-0.8,0-1.5,0.4-1.7,0.5v-0.4h-1.1v5.6h1.1v-4.3c0,0,0.5-0.3,1.2-0.3c0.7,0,1.1,0.3,1.1,1v3.6L217.1,83.2 L217.1,83.2z M205.6,80.4c0,2,1.1,2.9,2.7,2.9c1.5,0,2.7-0.9,2.7-2.9c0-2-1.1-2.9-2.7-2.9C206.9,77.5,205.6,78.5,205.6,80.4 M206.8,80.4c0-1.4,0.6-2,1.6-2c1,0,1.5,0.5,1.5,2c0,1.5-0.6,2-1.6,2C207.4,82.4,206.8,81.9,206.8,80.4 M204.9,77.6h-1.2l-1.5,4.4h0 l-1.4-4.4h-1.3l2.1,5.6h1.2L204.9,77.6z M191.8,83.8c0-0.5,0.4-0.8,0.5-0.9c0.6,0.2,2.2,0,2.2,0.8c0,0.5-0.4,0.8-1.3,0.8 C192.2,84.6,191.8,84.3,191.8,83.8 M192,79.4c0-0.7,0.4-1.1,1.1-1.1c0.8,0,1.1,0.5,1.1,1.1c0,0.6-0.3,1.2-1.1,1.2 C192.3,80.6,192,80.1,192,79.4 M193,81.4c1.5,0,2.4-0.7,2.4-1.9c0-0.4-0.1-0.7-0.2-0.9c0.1-0.1,0.4-0.1,0.7-0.1c0.2,0,0.4,0,0.4,0 l0-1c-1-0.1-1.5,0.3-1.6,0.4c-0.3-0.2-0.7-0.4-1.5-0.4c-1.4,0-2.3,0.8-2.3,2c0,0.9,0.4,1.4,1,1.6c-0.3,0.2-0.5,0.6-0.5,0.9 c0,0.3,0.1,0.4,0.2,0.6c-0.6,0.4-0.9,0.9-0.9,1.4c0,0.9,0.7,1.4,2.3,1.4c1.7,0,2.7-0.6,2.7-1.8c0-2.1-3.3-1-3.3-1.9 c0-0.2,0.1-0.4,0.2-0.5C192.7,81.4,192.8,81.4,193,81.4z M189.4,83.2v-4c0-1.1-0.8-1.6-1.8-1.6c-0.8,0-1.5,0.4-1.7,0.5v-0.4h-1.1 v5.6h1.1v-4.3c0,0,0.5-0.3,1.2-0.3c0.7,0,1.1,0.3,1.1,1v3.6L189.4,83.2L189.4,83.2z M178.4,77.6v4c0,1.2,0.7,1.7,1.8,1.7 c1,0,1.5-0.4,1.6-0.6h0c0,0.1,0.1,0.6,0.9,0.6c0.5,0,0.9-0.2,0.9-0.2v-0.8c0,0-0.1,0-0.3,0c-0.2,0-0.5-0.1-0.5-0.4v-4.3h-1.1v4.3 c-0.2,0.2-0.7,0.3-1.1,0.3c-0.7,0-1.1-0.2-1.1-1v-3.6L178.4,77.6L178.4,77.6z M177,77.6c0,0-0.1,0-0.4,0c-0.5,0-1.1,0.2-1.4,0.7 v-0.7h-1.1v5.6h1.1v-3.7c0-0.6,0.5-0.8,1.1-0.8c0.4,0,0.6,0.1,0.7,0.1L177,77.6z M170.3,78.4c0.7,0,1.1,0.5,1.1,1.4l-2.3,0.1 C169.2,78.9,169.5,78.4,170.3,78.4 M172.3,82.1c0,0-0.6,0.2-1.5,0.2c-1.2,0-1.7-0.5-1.7-1.6h3.4c0,0,0-0.3,0-0.6 c0-1.5-0.5-2.6-2.1-2.6s-2.5,1.3-2.5,3c0,1.8,0.8,2.8,2.5,2.8c1.2,0,1.9-0.3,1.9-0.3L172.3,82.1z M165.2,81.9c0,0-0.4,0.3-1.1,0.3 c-1,0-1.5-0.6-1.5-1.9c0-1.2,0.4-1.9,1.5-1.9c0.7,0,1.1,0.2,1.1,0.3V81.9z M165.2,77.7c-0.1,0-0.5-0.2-1-0.2c-1.7,0-2.8,1-2.8,2.9 c0,1.8,0.9,2.8,2.3,2.8c0.9,0,1.3-0.4,1.5-0.5h0c0.1,0.2,0.3,0.5,0.9,0.5c0.6,0,1-0.2,1-0.2v-0.8c0,0-0.1,0-0.4,0 c-0.3,0-0.5-0.1-0.5-0.6v-5.9c0-0.3,0-0.7,0-0.8l-1.1,0.1c0,0.2,0,0.7,0,1.3V77.7z M160.6,77.6c0,0-0.1,0-0.4,0 c-0.5,0-1.1,0.2-1.4,0.7v-0.7h-1.1v5.6h1.1v-3.7c0-0.6,0.5-0.8,1.1-0.8c0.4,0,0.6,0.1,0.7,0.1L160.6,77.6z M154.2,75.7 c0,0.5,0.2,0.7,0.7,0.7c0.5,0,0.7-0.2,0.7-0.7c0-0.5-0.3-0.7-0.7-0.7C154.5,75,154.2,75.2,154.2,75.7 M151.6,75.7 c0,0.5,0.2,0.7,0.7,0.7s0.7-0.2,0.7-0.7c0-0.5-0.2-0.7-0.7-0.7C151.8,75,151.6,75.2,151.6,75.7 M150.8,80.4c0,2,1.1,2.9,2.7,2.9 c1.5,0,2.7-0.9,2.7-2.9c0-2-1.1-2.9-2.7-2.9C152.1,77.5,150.8,78.5,150.8,80.4 M152,80.4c0-1.4,0.6-2,1.6-2c1,0,1.5,0.5,1.5,2 c0,1.5-0.6,2-1.6,2C152.6,82.4,152,81.9,152,80.4 M146.8,83.2v-3.3h2.8v-1h-2.8v-2.5h3.2v-1h-4.4v7.7H146.8z M141.6,77.6 c0,0-0.1,0-0.4,0c-0.5,0-1.1,0.2-1.4,0.7v-0.7h-1.1v5.6h1.1v-3.7c0-0.6,0.5-0.8,1.1-0.8c0.4,0,0.6,0.1,0.7,0.1L141.6,77.6z M132.1,77.6v4c0,1.2,0.7,1.7,1.8,1.7c1,0,1.5-0.4,1.6-0.6h0c0,0.1,0.1,0.6,0.9,0.6c0.5,0,0.9-0.2,0.9-0.2v-0.8c0,0-0.1,0-0.3,0 c-0.2,0-0.5-0.1-0.5-0.4v-4.3h-1.1v4.3c-0.2,0.2-0.7,0.3-1.1,0.3c-0.7,0-1.1-0.2-1.1-1v-3.6L132.1,77.6L132.1,77.6z M126.7,77.6v1 h1.4c0.5,0,1,0,1.1,0l-2.5,3.8v0.8h4v-1H129c-0.5,0-0.9,0-1,0l2.5-3.8v-0.8L126.7,77.6L126.7,77.6z M122.5,83.2v-4 c0-1.1-0.8-1.6-1.8-1.6c-0.8,0-1.5,0.4-1.7,0.5v-0.4h-1.1v5.6h1.1v-4.3c0,0,0.5-0.3,1.2-0.3c0.7,0,1.1,0.3,1.1,1v3.6L122.5,83.2 L122.5,83.2z M114.9,75.6c0,0.5,0.3,0.8,0.7,0.8c0.4,0,0.7-0.2,0.7-0.8s-0.3-0.8-0.7-0.8C115.2,74.8,114.9,75,114.9,75.6 M116.2,77.6H115v5.6h1.1V77.6z M111.4,78.4c0.7,0,1.1,0.5,1.1,1.4l-2.3,0.1C110.2,78.9,110.6,78.4,111.4,78.4 M113.3,82.1 c0,0-0.6,0.2-1.5,0.2c-1.2,0-1.7-0.5-1.7-1.6h3.4c0,0,0-0.3,0-0.6c0-1.5-0.5-2.6-2.1-2.6c-1.6,0-2.5,1.3-2.5,3 c0,1.8,0.8,2.8,2.5,2.8c1.2,0,1.9-0.3,1.9-0.3L113.3,82.1z M108.2,77.6c0,0-0.1,0-0.4,0c-0.5,0-1.1,0.2-1.4,0.7v-0.7h-1.1v5.6h1.1 v-3.7c0-0.6,0.5-0.8,1.1-0.8c0.4,0,0.6,0.1,0.7,0.1L108.2,77.6z M101.5,78.4c0.7,0,1.1,0.5,1.1,1.4l-2.3,0.1 C100.4,78.9,100.8,78.4,101.5,78.4 M103.5,82.1c0,0-0.6,0.2-1.5,0.2c-1.2,0-1.7-0.5-1.7-1.6h3.4c0,0,0-0.3,0-0.6 c0-1.5-0.5-2.6-2.1-2.6c-1.6,0-2.5,1.3-2.5,3c0,1.8,0.8,2.8,2.5,2.8c1.2,0,1.9-0.3,1.9-0.3L103.5,82.1z M93.4,75.5h-1.3l2.8,7.7h1.2 l2.8-7.7h-1.2l-2.1,6.3h0L93.4,75.5z"></path> </svg> 